<svg width="206" height="200" viewBox="0 0 206 200" fill="none" xmlns="http://www.w3.org/2000/svg">
<g clip-path="url(#clip0_1255_4309)">
<path d="M34.0253 109.06C34.0253 131.71 52.3159 150.086 74.9654 150.086H96.9313C96.9313 150.086 83.5124 141.966 78.7261 135.299V135.214H75.3928C60.9483 135.214 48.7261 123.077 48.7261 108.718C48.7261 102.479 50.9483 96.4106 55.0509 91.7097C64.4526 80.7696 80.9483 79.573 91.8885 88.9747L108.641 106.24C111.461 109.146 116.077 109.231 118.983 106.411C121.889 103.59 121.974 98.9747 119.153 96.0687L102.145 78.6328L101.974 78.4619C94.5381 71.7952 84.7945 68.12 74.7945 68.12C52.2304 68.2909 34.0253 86.5815 34.0253 109.06Z" fill="black"/>
<path d="M123.854 150.428C137.102 150.342 149.752 144.958 158.897 135.385C168.213 125.898 173.342 113.077 173.341 99.8294C173.256 72.3935 151.119 50.1713 123.683 50.1713C111.034 50.1713 99.5808 54.3593 90.3501 62.9918H90.2646C90.4355 63.0488 90.7585 63.1817 91.0814 63.3147C91.2428 63.3812 91.4042 63.4476 91.5466 63.5046C93.3415 64.2738 96.4184 65.7268 97.4441 66.3251C98.4697 66.8379 99.6663 67.5217 100.777 68.2055C102.572 69.3166 104.196 70.3422 104.282 70.4277C110.265 66.2396 116.333 64.7867 123.683 64.7867C143 64.8721 158.726 80.5132 158.726 99.8294C158.726 109.231 155.051 118.291 148.47 125.043C142.059 131.881 133.171 135.727 123.854 135.727C115.136 135.727 106.077 131.71 98.9825 124.616L76.6748 102.308C75.3073 100.855 73.427 100.086 71.4612 100.086C69.4954 100.086 67.7005 100.77 66.333 102.137C63.5124 104.958 63.427 109.573 66.2475 112.479L88.6406 135.043C98.4697 144.787 111.29 150.428 123.854 150.428Z" fill="black"/>
<path fill-rule="evenodd" clip-rule="evenodd" d="M38 0C17.0132 0 0 17.0132 0 38V162C0 182.987 17.0132 200 38 200H168C188.987 200 206 182.987 206 162V38C206 17.0132 188.987 0 168 0H38ZM123 42.0516C138.897 41.9661 154.196 48.5473 165.051 60.2567C175.136 71.1114 180.777 85.2995 180.948 100.086C180.948 132.223 154.965 158.462 123 158.462H75.9056C62.4013 158.462 49.5808 152.906 40.3501 143.077C31.5466 133.676 26.5894 121.368 26.5039 108.547C26.5039 84.7866 45.3928 59.1456 75.9056 59.1456C77.7004 59.1456 79.5807 59.3165 81.4609 59.4875C91.6318 48.7182 107.444 42.0516 123 42.0516Z" fill="black"/>
</g>
<defs>
<clipPath id="clip0_1255_4309">
<rect width="206" height="200" rx="38" fill="white"/>
</clipPath>
</defs>
</svg>
