<svg width="186" height="200" viewBox="0 0 186 200" fill="none" xmlns="http://www.w3.org/2000/svg">
<path d="M183.2 142.142C182.199 139.74 181.198 137.137 180.197 134.935C178.595 131.331 176.994 127.928 175.592 124.725L175.392 124.525C161.578 94.4945 146.763 64.0641 131.148 34.034L130.547 32.8328C128.946 29.8298 127.344 26.6266 125.742 23.4234C123.74 19.8198 121.738 16.016 118.535 12.4124C112.129 4.4044 102.92 0 93.1098 0C83.0998 0 74.0908 4.40441 67.4841 12.012C64.4811 15.6156 62.2789 19.4194 60.2769 23.023C58.6753 26.2262 57.0737 29.4294 55.4721 32.4324L54.8715 33.6336C39.4561 63.6637 24.4411 94.0941 10.6273 124.124L10.4271 124.525C9.02569 127.728 7.42409 131.131 5.82249 134.735C4.82149 136.937 3.82049 139.339 2.81949 141.942C0.216883 149.349 -0.583917 156.356 0.417084 163.564C2.61929 178.579 12.6293 191.191 26.4431 196.797C31.6483 198.999 37.0537 200 42.6593 200C44.2609 200 46.2629 199.8 47.8645 199.6C54.4711 198.799 61.2779 196.597 67.8846 192.793C76.0928 188.188 83.9006 181.582 92.7094 171.972C101.518 181.582 109.526 188.188 117.534 192.793C124.141 196.597 130.948 198.799 137.554 199.6C139.156 199.8 141.158 200 142.759 200C148.365 200 153.971 198.999 158.976 196.797C172.99 191.191 182.799 178.378 185.002 163.564C186.603 156.557 185.802 149.55 183.2 142.142ZM92.9096 152.553C82.0988 138.939 75.0917 126.126 72.6893 115.315C71.6883 110.711 71.4882 106.707 72.0888 103.103C72.4892 99.8999 73.6903 97.0971 75.2919 94.6947C79.0957 89.2893 85.5022 85.8859 92.9096 85.8859C100.317 85.8859 106.924 89.0891 110.527 94.6947C112.129 97.0971 113.33 99.8999 113.73 103.103C114.331 106.707 114.131 110.911 113.13 115.315C110.727 125.926 103.72 138.739 92.9096 152.553ZM172.789 161.962C171.388 172.372 164.381 181.381 154.571 185.385C149.766 187.387 144.561 187.988 139.356 187.387C134.351 186.787 129.346 185.185 124.141 182.182C116.934 178.178 109.726 171.972 101.318 162.763C114.531 146.547 122.539 131.732 125.542 118.519C126.944 112.312 127.144 106.707 126.543 101.502C125.742 96.4965 123.941 91.8919 121.138 87.8879C114.932 78.8789 104.521 73.6737 92.9096 73.6737C81.298 73.6737 70.8875 79.0791 64.6813 87.8879C61.8785 91.8919 60.0767 96.4965 59.2759 101.502C58.4751 106.707 58.6753 112.513 60.2769 118.519C63.2799 131.732 71.4881 146.747 84.5012 162.963C76.293 172.172 68.8855 178.378 61.6783 182.382C56.4731 185.385 51.4681 186.987 46.4631 187.588C41.0577 188.188 35.8525 187.387 31.2479 185.586C21.4381 181.582 14.4311 172.573 13.0297 162.162C12.4291 157.157 12.8295 152.152 14.8315 146.547C15.4321 144.545 16.4331 142.543 17.4341 140.14C18.8355 136.937 20.4371 133.534 22.0387 130.13L22.2389 129.73C36.0527 99.8999 50.8675 69.4695 66.2829 39.8398L66.8836 38.6386C68.4852 35.6356 70.0867 32.4324 71.6883 29.4294C73.2899 26.2262 75.0918 23.2232 77.294 20.6206C81.4982 15.8158 87.1038 13.2132 93.31 13.2132C99.5162 13.2132 105.122 15.8158 109.326 20.6206C111.528 23.2232 113.33 26.2262 114.932 29.4294C116.533 32.4324 118.135 35.6356 119.736 38.6386L120.337 39.8398C135.552 69.6697 150.367 100.1 164.181 129.93V130.13C165.782 133.333 167.184 136.937 168.785 140.14C169.786 142.543 170.787 144.545 171.388 146.547C172.99 151.752 173.59 156.757 172.789 161.962Z" fill="black"/>
</svg>
