<svg width="163" height="200" viewBox="0 0 163 200" fill="none" xmlns="http://www.w3.org/2000/svg">
<g clip-path="url(#clip0_1255_4237)">
<path d="M157.62 68.18C156.46 69.08 135.98 80.62 135.98 106.28C135.98 135.96 162.04 146.46 162.82 146.72C162.7 147.36 158.68 161.1 149.08 175.1C140.52 187.42 131.58 199.72 117.98 199.72C104.38 199.72 100.88 191.82 85.18 191.82C69.88 191.82 64.44 199.98 52 199.98C39.56 199.98 30.88 188.58 20.9 174.58C9.34 158.14 0 132.6 0 108.36C0 69.48 25.28 48.86 50.16 48.86C63.38 48.86 74.4 57.54 82.7 57.54C90.6 57.54 102.92 48.34 117.96 48.34C123.66 48.34 144.14 48.86 157.62 68.18ZM110.82 31.88C117.04 24.5 121.44 14.26 121.44 4.02C121.44 2.6 121.32 1.16 121.06 0C110.94 0.38 98.9 6.74 91.64 15.16C85.94 21.64 80.62 31.88 80.62 42.26C80.62 43.82 80.88 45.38 81 45.88C81.64 46 82.68 46.14 83.72 46.14C92.8 46.14 104.22 40.06 110.82 31.88Z" fill="black"/>
</g>
<defs>
<clipPath id="clip0_1255_4237">
<rect width="162.8" height="200" fill="white"/>
</clipPath>
</defs>
</svg>
