<svg width="319" height="201" viewBox="0 0 319 201" fill="none" xmlns="http://www.w3.org/2000/svg">
<path d="M92.6171 0.955078C101.791 0.955078 110.267 1.65408 118.043 3.75107C125.82 5.14906 132.198 8.03242 137.877 11.5274C143.557 15.0224 147.751 20.0028 150.634 26.3811C153.43 32.7594 154.915 40.5358 154.915 49.0111C154.915 58.8845 152.818 67.3598 147.838 73.7382C143.557 80.1165 136.567 85.7959 128.004 89.9898C140.062 93.4848 149.236 99.8632 154.828 108.339C160.42 116.814 164.002 127.386 164.002 139.444C164.002 149.317 161.905 157.793 158.323 164.87C154.828 171.947 149.149 178.326 142.77 182.52C136.392 186.801 128.615 190.296 120.14 192.393C111.665 194.49 103.189 195.888 94.7141 195.888L0 196.063V0.955078H92.6171ZM86.9378 80.1165C94.7141 80.1165 101.092 78.0195 105.985 74.4372C110.878 70.8548 113.063 64.5638 113.063 56.7875C113.063 52.5061 112.364 48.3121 110.966 45.5161C109.568 42.7202 107.471 40.5358 104.587 38.4388C101.791 37.0408 98.9081 35.6428 95.4131 34.9438C91.9181 34.2448 88.3358 34.2448 84.1418 34.2448H43.1631V80.2039C43.1631 80.1165 86.9378 80.1165 86.9378 80.1165ZM89.0348 163.559C93.3161 163.559 97.5101 162.86 101.092 162.161C104.587 161.462 108.17 160.064 110.966 157.88C113.762 155.696 115.946 153.599 118.043 150.104C119.441 146.609 120.839 142.327 120.839 137.347C120.839 127.474 118.043 120.396 112.364 115.416C106.684 111.135 98.9081 109.038 89.7338 109.038H43.1631V163.472H89.0348V163.559Z" fill="black"/>
<path d="M225.515 162.86C231.194 168.539 239.669 171.335 250.941 171.335C258.717 171.335 265.794 169.238 271.474 165.656C277.153 161.374 280.648 157.18 282.046 152.899H316.647C310.967 169.85 302.492 181.907 291.22 189.684C279.949 196.761 266.493 200.955 250.242 200.955C238.97 200.955 229.01 198.858 219.835 195.276C210.661 191.781 203.584 186.8 197.205 179.723C190.827 173.345 185.934 165.568 183.051 156.394C179.556 147.22 178.07 137.346 178.07 125.988C178.07 115.415 179.468 105.455 183.051 96.2802C186.633 87.1059 191.526 79.3295 197.904 72.2522C204.283 65.8738 212.059 60.1945 220.534 56.6995C229.709 53.2045 238.883 51.0201 250.242 51.0201C262.299 51.0201 272.872 53.1171 282.046 58.0975C291.22 63.0778 298.298 68.6698 303.977 77.1451C309.657 84.9215 313.851 94.0958 316.734 103.969C318.132 113.842 318.831 123.803 318.132 135.075H215.641C215.641 146.608 219.835 157.18 225.515 162.86ZM270.076 88.5912C265.095 83.6109 257.319 80.8149 248.145 80.8149C241.766 80.8149 236.873 82.2129 232.592 84.3099C228.311 86.4069 225.515 89.2902 222.719 92.0862C219.923 94.8822 218.437 98.4646 217.738 101.96C217.039 105.455 216.34 108.338 216.34 111.134H279.949C278.551 100.649 274.969 93.5716 270.076 88.5912ZM207.865 14.4102H287.027V33.4578H207.865V14.4102Z" fill="black"/>
</svg>
