<svg width="259" height="200" viewBox="0 0 259 200" fill="none" xmlns="http://www.w3.org/2000/svg">
<g clip-path="url(#clip0_1255_4365)">
<path d="M218.86 16.75C202.136 8.925 184.253 3.23814 165.557 0C163.261 4.15119 160.579 9.73462 158.729 14.1762C138.855 11.1874 119.164 11.1874 99.6554 14.1762C97.8063 9.73462 95.0629 4.15119 92.7463 0C74.0304 3.23814 56.1273 8.94589 39.4028 16.7914C5.66943 67.7669 -3.47513 117.476 1.09716 166.48C23.4709 183.188 45.1538 193.338 66.4707 199.979C71.734 192.736 76.4281 185.035 80.472 176.92C72.7703 173.994 65.3937 170.382 58.4237 166.189C60.2728 164.82 62.0815 163.387 63.829 161.914C106.341 181.798 152.531 181.798 194.536 161.914C196.304 163.387 198.112 164.82 199.941 166.189C192.95 170.403 185.554 174.014 177.852 176.941C181.896 185.035 186.57 192.757 191.853 200C213.191 193.358 234.894 183.209 257.267 166.48C262.632 109.672 248.103 60.4194 218.86 16.75ZM86.2636 136.343C73.502 136.343 63.0363 124.429 63.0363 109.921C63.0363 95.4132 73.2785 83.4788 86.2636 83.4788C99.2492 83.4788 109.714 95.3923 109.491 109.921C109.511 124.429 99.2492 136.343 86.2636 136.343ZM172.101 136.343C159.339 136.343 148.874 124.429 148.874 109.921C148.874 95.4132 159.115 83.4788 172.101 83.4788C185.086 83.4788 195.552 95.3923 195.328 109.921C195.328 124.429 185.086 136.343 172.101 136.343Z" fill="black"/>
</g>
<defs>
<clipPath id="clip0_1255_4365">
<rect width="258.365" height="200" fill="white"/>
</clipPath>
</defs>
</svg>
