<svg width="137" height="200" viewBox="0 0 137 200" fill="none" xmlns="http://www.w3.org/2000/svg">
<path fill-rule="evenodd" clip-rule="evenodd" d="M99.999 0C120.153 0 136.507 16.3542 136.507 36.5079C136.507 50.104 129.064 61.9709 118.033 68.254C129.064 74.5371 136.507 86.4039 136.507 100C136.507 120.154 120.153 136.508 99.999 136.508C89.3124 136.508 79.6941 131.91 73.0159 124.585V163.492C73.0159 183.646 56.6617 200 36.5079 200C16.3542 200 0 183.646 0 163.492C0 149.896 7.44296 138.029 18.4743 131.746C7.44296 125.463 0 113.596 0 100C0 86.4039 7.44298 74.537 18.4743 68.254C7.44298 61.9709 0 50.104 0 36.5079C0 16.3542 16.3542 3.33786e-06 36.5079 3.33786e-06L99.999 0ZM63.4921 99.7205C63.4914 99.8136 63.491 99.9068 63.491 100C63.491 100.093 63.4914 100.186 63.4921 100.28V126.984L36.4769 126.984C21.5972 126.967 9.52381 114.884 9.52381 100C9.52381 85.1061 21.6141 73.0159 36.5079 73.0159H63.4921V99.7205ZM73.0159 100.24V99.7603C73.1448 84.9766 85.1851 73.0159 99.999 73.0159C114.893 73.0159 126.983 85.1061 126.983 100C126.983 114.894 114.893 126.984 99.999 126.984C85.1851 126.984 73.1448 115.023 73.0159 100.24ZM73.0159 75.4152V73.0159H75.4153C74.579 73.7783 73.7783 74.579 73.0159 75.4152ZM99.999 63.4921C114.893 63.4921 126.983 51.4018 126.983 36.5079C126.983 21.6141 114.893 9.52381 99.999 9.52381H73.0159V63.4921L99.999 63.4921ZM36.5079 63.4921H63.491V9.52381H36.5079C21.6141 9.52381 9.52381 21.6141 9.52381 36.5079C9.52381 51.4018 21.6141 63.4921 36.5079 63.4921ZM9.52381 163.492C9.52381 148.609 21.5972 136.525 36.4769 136.508L63.4921 136.508V163.492C63.4921 178.386 51.4018 190.476 36.5079 190.476C21.6141 190.476 9.52381 178.386 9.52381 163.492Z" fill="#111111"/>
</svg>
