<svg width="200" height="200" viewBox="0 0 200 200" fill="none" xmlns="http://www.w3.org/2000/svg">
<g clip-path="url(#clip0_1255_4133)">
<path fill-rule="evenodd" clip-rule="evenodd" d="M140.458 54.5834C130.042 44.6667 116.875 39.5833 102.125 39.5833C76.0417 39.5833 53.9583 57.1667 46.0417 80.9167L46.0415 80.9165C44.0416 86.9164 42.875 93.3329 42.875 99.9993C42.875 106.666 43.9583 113.083 46.0417 119.083L46.04 119.084H46.0417C53.9583 142.834 76.0417 160.417 102.125 160.417C115.625 160.417 127.042 156.751 136.042 150.751C146.542 143.667 153.625 133.251 156.042 120.917H102.125V83.334H196.292C197.292 89.4173 197.875 95.6673 197.875 102.251C197.875 132.667 187.042 158.334 168.208 175.751C151.708 191.001 129.125 200.001 102.125 200.001C63.0417 200.001 29.2917 177.501 12.875 144.834L12.875 144.833C6.04166 131.333 2.125 116.166 2.125 99.9993C2.125 83.8327 6.04166 68.666 12.875 55.166H12.8753C29.2921 22.4997 63.0419 0 102.125 0C129.125 0 151.708 9.91667 168.958 26.0833L140.458 54.5834Z" fill="black"/>
</g>
<defs>
<clipPath id="clip0_1255_4133">
<rect width="200" height="200" fill="white"/>
</clipPath>
</defs>
</svg>
