<svg width="249" height="200" viewBox="0 0 249 200" fill="none" xmlns="http://www.w3.org/2000/svg">
<g clip-path="url(#clip0_1255_4035)">
<path fill-rule="evenodd" clip-rule="evenodd" d="M188.338 24.4617C148.968 -11.3373 86.3844 -7.27812 50.8941 32.9316C41.0361 44.0993 33.7226 58.0223 29.8225 72.3997C11.6667 85.187 -0.141116 106.361 0.00127365 130.25C0.1304 151.898 10.2411 172.277 27.4013 185.474C39.6022 194.687 54.4887 199.868 69.7771 199.802H123.751V199.801L177.801 199.801C216.568 200.103 248.239 169.224 248.541 130.457C248.724 106.959 237.139 84.9299 217.674 71.7648C212.708 53.4774 202.514 37.0374 188.338 24.4617ZM58.7101 154.167C62.2072 155.765 65.9315 156.591 69.7771 156.592L177.801 156.592C192.705 156.592 204.788 144.812 204.788 129.908C204.788 115.004 192.705 102.921 177.801 102.921V97.5386C178.113 81.008 170.819 65.2472 158.016 54.785C135.824 36.8248 103.325 39.6646 84.1048 60.7733L83.869 61.0145C100.371 64.3373 115.304 73.5331 125.723 87.1537L94.4139 118.461C91.71 112.477 86.9168 107.683 80.9314 104.979C67.3498 98.843 51.3634 104.879 45.2275 118.461C39.0906 132.044 45.1266 148.03 58.7101 154.167Z" fill="black"/>
</g>
<defs>
<clipPath id="clip0_1255_4035">
<rect width="248.544" height="200" fill="white"/>
</clipPath>
</defs>
</svg>
