<svg width="200" height="200" viewBox="0 0 200 200" fill="none" xmlns="http://www.w3.org/2000/svg">
<path fill-rule="evenodd" clip-rule="evenodd" d="M44.5618 1.75199C46.8996 1.55805 58.9269 1.51562 100.051 1.51562H132.112C155.217 1.55577 156.532 1.74619 160.921 2.38182L161.175 2.41866C170.672 3.78835 178.642 7.57623 185.159 13.8005C188.81 17.3141 191.325 20.7505 193.591 25.352C196.351 30.9732 197.707 36.2914 198.328 44.2005C198.462 45.8974 198.522 72.9035 198.522 99.9277C198.522 126.947 198.466 154.004 198.333 155.7C197.719 163.484 196.363 168.847 193.689 174.363C188.371 185.332 178.598 193.332 166.795 196.378C162.515 197.484 158.644 198.004 151.977 198.317C149.598 198.438 124.719 198.469 99.8405 198.469C74.9617 198.469 50.0981 198.393 47.6587 198.287C41.9011 198.014 37.4163 197.438 33.3557 196.393C21.6284 193.363 11.6739 185.241 6.46175 174.423C3.73448 168.772 2.4466 163.605 1.76478 155.393C1.56781 153.06 1.52236 141.044 1.52236 99.9535C1.52236 94.919 1.52036 90.3504 1.51853 86.1974C1.51535 78.9305 1.51272 72.9364 1.52236 67.9459C1.56109 44.8151 1.7492 43.5173 2.38906 39.103C2.40003 39.0274 2.41113 38.9508 2.42236 38.8732C3.79357 29.3853 7.58145 21.4035 13.8315 14.9156C17.2633 11.358 20.7405 8.82017 25.1496 6.63078C30.8708 3.78229 36.1224 2.4535 44.5618 1.75199ZM70.0179 27.7128C77.774 27.3599 80.2533 27.2735 99.9944 27.2734C119.742 27.2735 122.212 27.3599 129.968 27.7128C137.71 28.0674 142.998 29.2931 147.635 31.0916C152.422 32.9477 156.468 35.4325 160.513 39.478C164.559 43.5204 167.044 47.578 168.907 52.3613C170.695 56.9856 171.922 62.2704 172.286 70.0128C172.635 77.7704 172.725 80.2492 172.725 100.001C172.725 119.752 172.635 122.225 172.286 129.983C171.922 137.722 170.695 143.008 168.907 147.634C167.044 152.416 164.559 156.473 160.513 160.516C156.472 164.561 152.421 167.052 147.639 168.91C143.012 170.708 137.721 171.934 129.979 172.289C122.221 172.642 119.75 172.728 99.9967 172.728C80.2467 172.728 77.7694 172.642 70.0119 172.289C62.2709 171.934 56.9846 170.708 52.3573 168.91C47.577 167.052 43.5194 164.561 39.4785 160.516C35.4346 156.473 32.9497 152.416 31.0906 147.633C29.2937 143.008 28.0679 137.723 27.7119 129.981C27.3603 122.223 27.2725 119.752 27.2725 100.001C27.2725 80.2492 27.3634 77.7689 27.7103 70.0113C28.0588 62.2719 29.2861 56.9856 31.0891 52.3598C32.9528 47.578 35.4376 43.5204 39.4831 39.478C43.5255 35.434 47.5831 32.9492 52.3664 31.0916C56.9906 29.2931 62.2755 28.0674 70.0179 27.7128ZM99.9944 27.2734C99.9982 27.2734 100.002 27.2734 100.006 27.2734H99.9831C99.9869 27.2734 99.9906 27.2734 99.9944 27.2734ZM97.5818 40.3788C96.1112 40.3781 94.7484 40.3775 93.4816 40.3795V40.3613C79.927 40.3765 77.327 40.4674 70.6179 40.7704C63.527 41.0962 59.677 42.278 57.1134 43.278C53.7194 44.5992 51.2952 46.1749 48.7497 48.7204C46.2043 51.2659 44.6255 53.6901 43.3073 57.084C42.3119 59.6477 41.127 63.4962 40.8028 70.5871C40.4543 78.2537 40.3846 80.5446 40.3846 99.9659C40.3846 119.387 40.4543 121.69 40.8028 129.357C41.1255 136.448 42.3119 140.296 43.3073 142.857C44.6285 146.252 46.2043 148.67 48.7497 151.216C51.2952 153.761 53.7194 155.337 57.1134 156.655C59.6785 157.651 63.527 158.836 70.6179 159.163C78.2846 159.511 80.5861 159.587 100.006 159.587C119.424 159.587 121.727 159.511 129.394 159.163C136.485 158.839 140.336 157.657 142.897 156.657C146.292 155.339 148.709 153.763 151.254 151.217C153.8 148.673 155.379 146.257 156.697 142.863C157.692 140.302 158.877 136.454 159.201 129.363C159.55 121.696 159.625 119.393 159.625 99.984C159.625 80.575 159.55 78.2719 159.201 70.6053C158.879 63.5143 157.692 59.6659 156.697 57.1053C155.375 53.7113 153.8 51.2871 151.254 48.7416C148.71 46.1962 146.291 44.6204 142.897 43.3022C140.333 42.3068 136.485 41.1219 129.394 40.7977C121.725 40.4492 119.424 40.3795 100.006 40.3795C99.1665 40.3795 98.3591 40.3791 97.5818 40.3788ZM130.1 61.1795C130.1 56.3598 134.009 52.4553 138.827 52.4553V52.4522C143.645 52.4522 147.554 56.3613 147.554 61.1795C147.554 65.9977 143.645 69.9068 138.827 69.9068C134.009 69.9068 130.1 65.9977 130.1 61.1795ZM62.6573 100.001C62.6573 79.375 79.38 62.6522 100.006 62.6522H100.004C120.63 62.6522 137.348 79.375 137.348 100.001C137.348 120.626 120.632 137.342 100.006 137.342C79.38 137.342 62.6573 120.626 62.6573 100.001ZM124.248 100.001C124.248 86.6113 113.394 75.7583 100.006 75.7583C86.6164 75.7583 75.7634 86.6113 75.7634 100.001C75.7634 113.389 86.6164 124.243 100.006 124.243C113.394 124.243 124.248 113.389 124.248 100.001Z" fill="black"/>
</svg>
