<svg width="200" height="200" viewBox="0 0 200 200" fill="none" xmlns="http://www.w3.org/2000/svg">
<g clip-path="url(#clip0_1255_4486)">
<path fill-rule="evenodd" clip-rule="evenodd" d="M177.778 200H22.2222C9.94923 200 0 190.051 0 177.778V22.2222C0 9.94923 9.94923 0 22.2222 0H177.778C190.051 0 200 9.94923 200 22.2222V177.778C200 190.051 190.051 200 177.778 200ZM142.543 172.222H172.222V111.253C172.222 85.4564 157.599 72.9835 137.173 72.9835C116.739 72.9835 108.139 88.8966 108.139 88.8966V75.9255H79.5366V172.222H108.139V121.672C108.139 108.128 114.373 100.068 126.307 100.068C137.277 100.068 142.543 107.813 142.543 121.672V172.222ZM27.7773 45.5468C27.7773 55.3597 35.6719 63.3163 45.4144 63.3163C55.1569 63.3163 63.0468 55.3597 63.0468 45.5468C63.0468 35.7339 55.1569 27.7773 45.4144 27.7773C35.6719 27.7773 27.7773 35.7339 27.7773 45.5468ZM60.4701 172.222H30.6455V75.9255H60.4701V172.222Z" fill="black"/>
</g>
<defs>
<clipPath id="clip0_1255_4486">
<rect width="200" height="200" fill="white"/>
</clipPath>
</defs>
</svg>
