<svg width="353" height="200" viewBox="0 0 353 200" fill="none" xmlns="http://www.w3.org/2000/svg">
<path d="M199.115 100C199.115 155.31 154.425 200 99.5575 200C44.6903 200 0 155.752 0 100C0 44.2478 44.6903 0 99.5575 0C154.425 0 199.115 44.6903 199.115 100Z" fill="black"/>
<path d="M308.408 99.9998C308.408 152.212 286.284 194.248 258.85 194.248C231.417 194.248 209.293 152.212 209.293 99.9998C209.293 47.7874 231.417 5.75195 258.85 5.75195C285.842 5.75195 308.408 48.2298 308.408 99.9998Z" fill="black"/>
<path d="M352.656 99.9996C352.656 146.46 344.691 184.513 334.957 184.513C325.222 184.513 317.258 146.46 317.258 99.9996C317.258 53.5394 325.222 15.4863 334.957 15.4863C345.134 15.4863 352.656 53.5394 352.656 99.9996Z" fill="black"/>
</svg>
