<svg width="302" height="200" viewBox="0 0 302 200" fill="none" xmlns="http://www.w3.org/2000/svg">
<path fill-rule="evenodd" clip-rule="evenodd" d="M32.5236 131.895C32.5236 143.393 35.0471 152.22 38.3456 157.56C42.6702 164.555 49.1204 167.518 55.6963 167.518C64.178 167.518 71.9372 165.414 86.8901 144.733C95.3341 133.049 104.839 118.04 113.041 105.09C116.474 99.6686 119.679 94.6082 122.482 90.3037L135.285 70.632C129.034 61.7302 123.657 54.9557 119.791 50.8482C112.053 42.6283 102.105 32.7016 86.2309 32.7016C86.2307 32.7016 86.2306 32.7016 86.2304 32.7016C86.1302 32.7016 86.0301 32.7021 85.9301 32.7032C85.0602 32.7128 84.1991 32.7637 83.347 32.8547C71.7414 34.0936 61.7807 42.761 53.3409 55.5079L53.3405 55.5076C53.3404 55.5077 53.3404 55.5078 53.3403 55.5079C40.4293 74.9948 32.5236 104.021 32.5236 131.895ZM0 130.733C0 148.44 3.49738 163.979 10.6178 175.822C19.3403 190.356 33.4241 200 55.6963 200C74.4712 200 88.733 191.571 105.435 169.33C114.963 156.628 119.791 148.932 138.848 115.141L148.335 98.3351C149.119 96.9445 149.896 95.5684 150.665 94.2072C151.427 95.4559 152.194 96.7239 152.964 98.0105L179.969 143.12C189.048 158.304 200.849 175.194 210.943 184.702C224.074 197.089 235.948 200 249.351 200H249.351C250.699 200 252.012 199.956 253.291 199.869C259.642 199.442 265.166 197.988 269.939 195.847C279.596 191.516 286.178 184.373 290.304 177.225C297.111 165.445 301.111 150.534 301.111 130.241H301.11C301.11 96.1047 292.565 63.0262 274.963 36.7644C258.88 12.7853 237.864 0 215.801 0C202.66 0 189.602 5.86387 177.497 16.4188C169.316 23.5543 161.712 32.5612 154.662 42.0849C145.985 31.1006 137.916 22.7286 130.095 16.3456C115.257 4.23037 101.048 0 86.7545 0C86.7543 0 86.7541 0 86.7539 0C62.0733 0 40.555 16.0733 25.644 39.0576C8.8377 64.9738 0 98.534 0 130.733ZM185.205 87.3508C179.687 78.1602 174.449 69.8935 169.438 62.4578L249.351 167.518C242.074 167.518 236.472 164.628 228.472 154.932C222.252 147.382 211.624 131.372 192.943 100.251L185.205 87.3508ZM169.438 62.4578L249.351 167.518C251.082 167.518 252.691 167.369 254.185 167.083C268.635 164.316 272.419 148.735 272.419 131.141C272.419 103.476 265.969 72.7749 251.759 50.8377C241.675 35.2775 228.607 25.7696 214.23 25.7696C198.681 25.7696 186.168 37.4974 172.105 58.4084C171.219 59.7245 170.331 61.0747 169.438 62.4578Z" fill="black"/>
</svg>
