<svg width="198" height="201" viewBox="0 0 198 201" fill="none" xmlns="http://www.w3.org/2000/svg">
<path d="M184.324 82.2891C186.56 75.5549 187.333 68.4209 186.593 61.3639C185.852 54.3068 183.613 47.4891 180.027 41.3661C169.117 22.3775 147.191 12.6093 125.778 17.1983C119.849 10.603 112.289 5.68396 103.857 2.93521C95.425 0.186461 86.4181 -0.295236 77.7411 1.5385C69.064 3.37223 61.0222 7.45684 54.4233 13.3821C47.8244 19.3073 42.9008 26.8646 40.1469 35.2949C33.194 36.7208 26.6256 39.6143 20.8807 43.7821C15.1357 47.9499 10.3465 53.2959 6.83306 59.4628C-4.19504 78.4207 -1.69177 102.335 13.0226 118.6C10.7782 125.331 9.99705 132.464 10.7315 139.521C11.466 146.578 13.6991 153.398 17.2815 159.522C28.2031 178.518 50.1434 188.285 71.569 183.69C76.2798 188.995 82.068 193.233 88.5472 196.123C95.0265 199.012 102.048 200.486 109.142 200.445C131.089 200.466 150.535 186.297 157.238 165.397C164.19 163.969 170.758 161.075 176.502 156.907C182.247 152.74 187.037 147.395 190.552 141.229C201.448 122.305 198.934 98.519 184.324 82.2891ZM109.14 187.357C100.38 187.371 91.8937 184.3 85.1702 178.684L86.3532 178.013L126.172 155.028C127.163 154.447 127.986 153.618 128.56 152.623C129.133 151.627 129.438 150.5 129.445 149.351V93.2096L146.279 102.948C146.362 102.99 146.434 103.052 146.489 103.127C146.544 103.202 146.58 103.289 146.595 103.381V149.903C146.551 170.571 129.808 187.314 109.14 187.358V187.357ZM28.6349 152.978C24.2415 145.392 22.6639 136.499 24.1797 127.865L25.3627 128.575L65.2209 151.558C66.2072 152.137 67.3301 152.442 68.4736 152.442C69.6172 152.442 70.7401 152.137 71.7264 151.558L120.416 123.489V142.926C120.411 143.026 120.384 143.124 120.336 143.213C120.288 143.301 120.222 143.378 120.14 143.437L79.8087 166.699C61.886 177.023 38.9887 170.884 28.6349 152.978ZM18.1475 66.245C22.5714 58.6096 29.5544 52.7858 37.8601 49.8046V97.1135C37.8451 98.2567 38.1372 99.3829 38.7059 100.375C39.2746 101.366 40.0991 102.187 41.0933 102.752L89.5462 130.704L72.7118 140.443C72.6207 140.491 72.5192 140.516 72.4161 140.516C72.3129 140.516 72.2114 140.491 72.1203 140.443L31.8681 117.22C13.9809 106.853 7.84691 83.9726 18.1475 66.0475V66.245ZM156.451 98.3758L107.84 70.1478L124.634 60.4494C124.726 60.4011 124.827 60.3758 124.93 60.3758C125.033 60.3758 125.135 60.4011 125.226 60.4494L165.479 83.7099C171.634 87.2616 176.651 92.4905 179.945 98.7863C183.239 105.082 184.674 112.185 184.083 119.266C183.492 126.347 180.898 133.113 176.606 138.776C172.314 144.438 166.499 148.763 159.841 151.245V103.934C159.806 102.793 159.476 101.68 158.881 100.706C158.287 99.731 157.449 98.9278 156.451 98.3746V98.3758ZM173.206 73.1834L172.023 72.4736L132.244 49.2924C131.251 48.7101 130.122 48.4031 128.971 48.4031C127.821 48.4031 126.691 48.7101 125.699 49.2924L77.0488 77.3607V57.9237C77.0387 57.8251 77.0554 57.7256 77.097 57.6357C77.1387 57.5458 77.2037 57.4688 77.2854 57.4126L117.538 34.19C123.707 30.6359 130.761 28.9119 137.874 29.2196C144.987 29.5274 151.866 31.8542 157.705 35.9278C163.545 40.0014 168.103 45.6535 170.848 52.223C173.593 58.7925 174.411 66.0078 173.206 73.0249V73.1823V73.1834ZM67.8626 107.64L51.0283 97.9416C50.9441 97.8907 50.8723 97.822 50.8177 97.7402C50.7631 97.6584 50.7272 97.5656 50.7124 97.4684V51.0645C50.7218 43.9461 52.7575 36.9774 56.5814 30.9733C60.4054 24.9691 65.8595 20.1776 72.3062 17.159C78.7529 14.1403 85.9257 13.0192 92.986 13.9268C100.046 14.8344 106.702 17.7331 112.176 22.2841L110.993 22.9548L71.1739 45.9397C70.1829 46.521 69.3602 47.35 68.7865 48.3454C68.2128 49.3407 67.9079 50.4682 67.9017 51.617L67.8626 107.64ZM77.0097 87.9274L98.6933 75.43L120.416 87.9274V112.922L98.7713 125.421L77.0499 112.922L77.0109 87.9274H77.0097Z" fill="black"/>
</svg>
