<svg width="200" height="200" viewBox="0 0 200 200" fill="none" xmlns="http://www.w3.org/2000/svg">
<path d="M42.1649 126.433C42.1649 138.057 32.7775 147.452 21.1625 147.452C9.54759 147.452 0.160156 138.057 0.160156 126.433C0.160156 114.809 9.54759 105.414 21.1625 105.414H42.1649V126.433ZM52.6661 126.433C52.6661 114.809 62.0535 105.414 73.6685 105.414C85.2835 105.414 94.6709 114.809 94.6709 126.433V178.981C94.6709 190.605 85.2835 200 73.6685 200C62.0535 200 52.6661 190.605 52.6661 178.981V126.433Z" fill="black"/>
<path d="M73.6675 42.0382C62.0525 42.0382 52.6651 32.6433 52.6651 21.0191C52.6651 9.3949 62.0525 0 73.6675 0C85.2824 0 94.6698 9.3949 94.6698 21.0191V42.0382H73.6675ZM73.6675 52.707C85.2824 52.707 94.6698 62.1019 94.6698 73.7261C94.6698 85.3503 85.2824 94.7452 73.6675 94.7452H21.0024C9.38743 94.7452 0 85.3503 0 73.7261C0 62.1019 9.38743 52.707 21.0024 52.707H73.6675Z" fill="black"/>
<path d="M157.836 73.7261C157.836 62.1019 167.223 52.707 178.838 52.707C190.453 52.707 199.841 62.1019 199.841 73.7261C199.841 85.3503 190.453 94.7452 178.838 94.7452H157.836V73.7261ZM147.335 73.7261C147.335 85.3503 137.947 94.7452 126.332 94.7452C114.718 94.7452 105.33 85.3503 105.33 73.7261V21.0191C105.33 9.3949 114.718 0 126.332 0C137.947 0 147.335 9.3949 147.335 21.0191V73.7261V73.7261Z" fill="black"/>
<path d="M126.332 157.962C137.947 157.962 147.335 167.357 147.335 178.981C147.335 190.605 137.947 200 126.332 200C114.718 200 105.33 190.605 105.33 178.981V157.962H126.332ZM126.332 147.452C114.718 147.452 105.33 138.057 105.33 126.433C105.33 114.809 114.718 105.414 126.332 105.414H178.998C190.612 105.414 200 114.809 200 126.433C200 138.057 190.612 147.452 178.998 147.452H126.332Z" fill="black"/>
</svg>
