<svg width="194" height="200" viewBox="0 0 194 200" fill="none" xmlns="http://www.w3.org/2000/svg">
<g clip-path="url(#clip0_1255_3978)">
<path fill-rule="evenodd" clip-rule="evenodd" d="M0 100C0 46.5234 43.3984 3.125 96.875 3.125C150.352 3.125 193.75 46.5234 193.75 100C193.75 153.477 150.352 196.875 96.875 196.875C43.3984 196.875 0 153.477 0 100ZM153.789 88.75C155.547 89.7656 156.797 90.2734 158.828 90.2734C163.594 90.2734 167.891 86.4844 167.891 81.1719C167.891 76.5234 165.898 74.1016 162.852 72.3438C141.016 59.6094 111.133 53.6719 82.6172 53.6719C65.8594 53.6719 50.4688 55.5859 36.7188 59.6094C33.2031 60.625 29.9219 63.6328 29.9219 68.9453C29.9219 74.1406 33.8672 78.1641 39.0234 78.1641C40.5871 78.1641 42.0693 77.7294 43.334 77.3585C43.5858 77.2846 43.829 77.2133 44.0625 77.1484C76.25 68.1641 125.977 72.1484 153.789 88.75ZM142.435 118.679C143.668 119.349 144.938 120.039 146.719 120.039C150.977 120.039 154.258 116.641 154.297 112.422C154.297 109.023 153.047 106.602 149.883 104.727C130.586 93.2422 106.094 86.9531 80.7422 86.9531C64.4922 86.9531 53.3984 89.2188 42.5391 92.2656C38.5156 93.3984 36.4844 96.1719 36.4844 100.352C36.4844 104.531 39.8828 107.93 44.0625 107.93C45.3554 107.93 46.2468 107.655 47.374 107.308C47.7793 107.183 48.215 107.048 48.7109 106.914C81.0938 98.125 117.5 103.945 141.914 118.398C142.088 118.49 142.261 118.584 142.435 118.679ZM132.031 144.258C133.555 145.156 134.57 145.664 136.211 145.664C139.375 145.664 142.148 143.203 142.148 139.648C142.148 136.094 140.742 134.727 138.359 133.203C110.469 116.523 77.7734 115.898 45.7812 122.969C42.8516 123.594 40.4688 125.508 40.4688 129.531C40.4688 132.695 42.8516 135.703 46.6406 135.703C47.5302 135.703 48.9497 135.318 50.256 134.963C50.6132 134.866 50.9619 134.771 51.2891 134.688C79.2969 128.945 107.656 129.57 132.031 144.258Z" fill="black"/>
</g>
<defs>
<clipPath id="clip0_1255_3978">
<rect width="193.75" height="200" fill="white"/>
</clipPath>
</defs>
</svg>
