<svg width="176" height="200" viewBox="0 0 176 200" fill="none" xmlns="http://www.w3.org/2000/svg">
<path d="M66.8096 75.1932C63.4441 72.9543 52.2607 65.173 52.2607 65.173C61.6908 51.6547 74.1306 46.3919 91.325 46.3919C103.485 46.3919 113.81 50.4914 121.182 58.2501C128.557 66.0116 132.764 77.1103 133.721 91.3034C137.809 93.0172 141.584 95.0359 145.012 97.3455C158.835 106.663 166.447 120.593 166.447 136.565C166.447 170.511 138.682 199.998 88.4226 199.998C45.27 199.998 0.4375 174.839 0.4375 99.9232C0.4375 25.4339 43.864 -0.00195312 88.3012 -0.00195312C108.822 -0.00195312 156.955 3.03601 175.055 62.9425L158.081 67.3555C144.086 24.6744 114.742 17.8814 87.8382 17.8814C43.3642 17.8814 18.2079 45.0225 18.2079 102.766C18.2079 154.542 46.326 182.047 88.4282 182.047C123.066 182.047 148.891 164.006 148.891 137.596C148.891 119.622 133.823 111.016 133.052 111.016C130.11 126.438 122.221 152.379 87.5925 152.379C67.4166 152.379 50.0218 138.412 50.0218 120.11C50.0218 93.9772 74.7574 84.5188 94.2924 84.5188C101.608 84.5188 110.437 85.0129 115.033 85.9503C115.033 77.9855 108.31 64.3542 91.3278 64.3542C75.7569 64.3514 71.807 69.4138 66.8096 75.1932ZM96.681 102.368C71.2338 102.368 67.9418 113.241 67.9418 120.071C67.9418 131.043 80.9491 134.679 87.889 134.679C100.611 134.679 113.681 131.144 115.736 104.381C109.285 102.93 104.476 102.368 96.681 102.368Z" fill="black"/>
</svg>
