<svg width="193" height="201" viewBox="0 0 193 201" fill="none" xmlns="http://www.w3.org/2000/svg">
<path d="M192.468 100.002C190.569 -2.5628 54.4482 -40.5499 1.89936 55.051C4.43183 56.9504 7.59742 59.4828 9.49678 60.7491C5.69807 68.9796 2.53247 77.8433 1.26624 86.0738C0.633119 91.7719 0 97.4699 0 103.801C0 156.983 43.0521 200.035 96.234 200.035C149.416 200.035 192.468 156.983 192.468 103.801C192.468 102.535 192.468 101.269 192.468 100.002ZM24.0585 117.097C22.7923 127.227 23.4254 131.025 23.4254 132.291L20.8929 132.925C20.2598 131.025 17.7273 125.327 17.0942 117.097C14.5617 86.0738 35.4546 58.2166 67.7437 53.1516C97.5003 48.7198 125.357 67.0803 132.322 93.0381L129.789 93.6712C129.156 93.0381 127.89 91.1388 123.458 86.0738C88.0035 49.9861 31.6559 66.4471 24.0585 117.097ZM115.228 134.191C110.163 141.155 102.565 145.587 93.7016 145.587C79.1398 145.587 67.1106 133.558 67.1106 118.996C67.1106 105.067 77.8736 93.6712 91.8022 93.0381C100.033 92.405 108.263 97.4699 112.062 104.434C115.861 112.665 114.594 122.162 108.263 129.126C110.796 131.025 113.328 132.925 115.228 134.191ZM170.309 135.457C156.38 167.113 127.89 183.574 97.5003 182.941C38.6202 179.775 21.526 112.665 60.7794 87.9732L62.6787 89.8725C62.0456 90.5056 59.5131 92.405 56.3476 100.002C51.9157 108.866 50.6495 117.097 51.2826 122.795C54.4482 170.279 120.293 179.775 143.085 132.925C171.575 68.3465 94.9678 3.13527 26.591 53.1516L25.3247 51.2523C43.0521 23.3951 77.8736 10.7327 111.429 18.9632C162.711 32.2587 190.569 85.4407 170.309 135.457Z" fill="black"/>
</svg>
