<svg width="200" height="200" viewBox="0 0 200 200" fill="none" xmlns="http://www.w3.org/2000/svg">
<path fill-rule="evenodd" clip-rule="evenodd" d="M14.7715 183.692L26.6643 140.27C19.317 127.532 15.4578 113.082 15.4755 98.3768C15.4949 52.1728 53.0952 14.584 99.3003 14.584C121.722 14.5954 142.768 23.321 158.596 39.1602C174.423 54.9994 183.132 76.0529 183.124 98.444C183.103 144.645 145.497 182.24 99.2991 182.24H99.2627C85.2349 182.235 71.451 178.715 59.2073 172.039L14.7715 183.692ZM99.3254 28.7404C60.8946 28.7404 29.6412 59.9825 29.6275 98.3836C29.6086 111.497 33.3012 124.347 40.2785 135.45L41.9361 138.085L34.8966 163.784L61.266 156.87L63.8123 158.378C74.5065 164.725 86.7684 168.081 99.273 168.088H99.2992C137.7 168.088 168.954 136.843 168.969 98.4394C168.998 89.2861 167.211 80.218 163.711 71.76C160.212 63.302 155.069 55.6222 148.581 49.1651C142.13 42.6728 134.454 37.5247 125.999 34.0187C117.545 30.5128 108.478 28.7188 99.3254 28.7404ZM73.6362 59.7287C75.1275 59.7891 76.7794 59.8597 78.3493 63.347V63.3481C79.4185 65.7272 81.2159 70.1567 82.6517 73.6949C83.7158 76.3172 84.5813 78.45 84.8044 78.8956C85.3284 79.9426 85.6759 81.1685 84.9787 82.5641C84.8715 82.7786 84.7727 82.9808 84.6783 83.1738C84.1587 84.2365 83.775 85.0214 82.887 86.0559C82.5322 86.4693 82.1654 86.9152 81.799 87.3606C81.0818 88.2326 80.3658 89.103 79.7438 89.7243C78.6934 90.7679 77.5997 91.9026 78.8232 93.9977C80.0468 96.0928 84.2495 102.949 90.4756 108.501C97.1769 114.476 102.996 116.999 105.942 118.276C106.514 118.524 106.978 118.725 107.318 118.895C109.415 119.942 110.635 119.767 111.857 118.369C113.08 116.971 117.089 112.256 118.487 110.159C119.885 108.063 121.28 108.411 123.2 109.11C125.119 109.81 135.415 114.876 137.511 115.924C137.924 116.13 138.309 116.316 138.666 116.488C140.123 117.191 141.107 117.665 141.527 118.369C142.05 119.245 142.049 123.435 140.305 128.326C138.561 133.217 130.01 137.935 126.169 138.283C125.799 138.317 125.431 138.36 125.053 138.404C121.503 138.821 117.024 139.348 101.035 133.043C81.3423 125.277 68.3628 106.024 65.6993 102.073C65.4834 101.753 65.3353 101.533 65.2569 101.428L65.2321 101.395C64.098 99.8784 56.7056 89.9939 56.7056 79.7672C56.7056 70.1266 61.4431 65.071 63.6247 62.7429C63.7749 62.5825 63.9131 62.4351 64.0367 62.3C65.9552 60.2037 68.2247 59.6797 69.6214 59.6797L73.6362 59.7287Z" fill="black"/>
</svg>
