<svg width="200" height="200" viewBox="0 0 200 200" fill="none" xmlns="http://www.w3.org/2000/svg">
<g clip-path="url(#clip0_1255_3846)">
<path d="M99.8755 80.1993C130.012 103.113 181.071 159.402 165.629 175.342C147.945 190.785 125.031 200 99.8755 200C74.7198 200 51.5567 190.785 34.122 175.342C18.4309 159.402 69.7385 103.113 99.6264 80.4483C99.6264 80.1993 99.8755 80.1993 99.8755 80.1993ZM151.93 14.6949C136.737 5.47945 120.05 0 99.8755 0C79.7011 0 63.0137 5.47945 47.8207 14.6949C47.5716 14.6949 47.5716 14.944 47.5716 15.193C47.5716 15.4421 47.8207 15.4421 48.0697 15.4421C67.4969 11.208 96.8867 27.8954 99.6264 29.6389H100.125C102.864 27.8954 132.254 11.208 151.681 15.4421C151.93 15.4421 152.179 15.4421 152.179 15.193C152.179 14.944 152.179 14.6949 151.93 14.6949ZM29.8879 28.6426C29.6388 28.6426 29.6389 28.8917 29.3898 28.8917C11.208 47.0735 0 72.2291 0 99.8755C0 122.54 7.72104 143.711 20.4234 160.399C20.4234 160.648 20.6725 160.648 20.9215 160.648C21.1706 160.648 21.1706 160.399 20.9215 160.149C13.2005 136.488 52.3038 79.4521 72.4782 55.5417L72.7273 55.2927C72.7273 55.0436 72.7273 55.0436 72.4782 55.0436C41.8431 24.6575 31.6314 27.8954 29.8879 28.6426ZM127.273 54.7945L127.024 55.0436C127.024 55.0436 127.024 55.2927 127.273 55.2927C147.447 79.203 186.301 136.239 178.829 159.9V160.399C179.078 160.399 179.328 160.399 179.328 160.149C192.03 143.462 199.751 122.291 199.751 99.6264C199.751 71.9801 188.543 46.8244 170.112 28.6426C169.863 28.3935 169.863 28.3935 169.614 28.3935C168.12 27.8954 157.908 24.6575 127.273 54.7945Z" fill="black"/>
</g>
<defs>
<clipPath id="clip0_1255_3846">
<rect width="199.89" height="200" fill="white"/>
</clipPath>
</defs>
</svg>
