<svg width="286" height="200" viewBox="0 0 286 200" fill="none" xmlns="http://www.w3.org/2000/svg">
<path fill-rule="evenodd" clip-rule="evenodd" d="M254.467 5.97366C266.767 9.26623 276.434 18.9323 279.726 31.2324C285.676 53.5042 285.7 100 285.7 100C285.7 100 285.7 146.496 279.726 168.768C276.434 181.068 266.767 190.734 254.467 194.026C232.196 200 142.85 200 142.85 200C142.85 200 53.5041 200 31.2322 194.026C18.9323 190.734 9.26621 181.068 5.97365 168.768C0 146.496 0 100 0 100C0 100 0 53.5042 5.97365 31.2324C9.26621 18.9323 18.9323 9.26623 31.2322 5.97366C53.5041 0 142.85 0 142.85 0C142.85 0 232.196 0 254.467 5.97366ZM188.477 100.004L114.253 142.854V57.1534L188.477 100.004Z" fill="black"/>
</svg>
