<svg width="227" height="200" viewBox="0 0 227 200" fill="none" xmlns="http://www.w3.org/2000/svg">
<path d="M51.2143 16.6143C76.3071 35.4524 103.297 73.6483 113.207 94.1464C123.117 73.6498 150.106 35.452 175.199 16.6143C193.305 3.02148 222.641 -7.49588 222.641 25.9709C222.641 32.6547 218.809 82.1181 216.561 90.1483C208.749 118.067 180.28 125.188 154.957 120.878C199.221 128.411 210.482 153.365 186.164 178.319C139.979 225.712 119.783 166.428 114.605 151.238C113.657 148.453 113.213 147.15 113.206 148.258C113.2 147.15 112.756 148.453 111.807 151.238C106.632 166.428 86.436 225.713 40.2485 178.319C15.93 153.365 27.19 128.41 71.4549 120.878C46.1311 125.188 17.6624 118.067 9.85111 90.1483C7.60348 82.1173 3.77148 32.6539 3.77148 25.9709C3.77148 -7.49588 33.1081 3.02148 51.213 16.6143H51.2143Z" fill="#1185FE"/>
</svg>
