<svg width="200" height="200" viewBox="0 0 200 200" fill="none" xmlns="http://www.w3.org/2000/svg">
<g clip-path="url(#clip0_1255_4122)">
<path d="M100 200.014C155.228 200.014 200 155.243 200 100.014C200 44.7856 155.228 0.0140686 100 0.0140686C44.7715 0.0140686 0 44.7856 0 100.014C0 155.243 44.7715 200.014 100 200.014Z" fill="#1977F3"/>
<path d="M138.926 128.927L143.356 100.014H115.624V81.2544C115.624 73.3511 119.491 65.6307 131.923 65.6307H144.537V41.0209C144.537 41.0209 133.09 39.0662 122.149 39.0662C99.3114 39.0662 84.3768 52.9039 84.3768 77.9778V100.014H58.9795V128.927H84.3768V198.805C89.4675 199.606 94.6847 200.014 100 200.014C105.316 200.014 110.533 199.592 115.624 198.805V128.927H138.926Z" fill="white"/>
</g>
<defs>
<clipPath id="clip0_1255_4122">
<rect width="200" height="200" fill="white"/>
</clipPath>
</defs>
</svg>
