<svg width="134" height="200" viewBox="0 0 134 200" fill="none" xmlns="http://www.w3.org/2000/svg">
<g clip-path="url(#clip0_1255_3838)">
<path d="M33.347 200C51.747 200 66.6803 185.067 66.6803 166.667V133.333H33.347C14.947 133.333 0.0136719 148.267 0.0136719 166.667C0.0136719 185.067 14.947 200 33.347 200Z" fill="#01CD6C"/>
<path d="M0.0136719 100C0.0136719 81.6 14.947 66.6667 33.347 66.6667H66.6803V133.333H33.347C14.947 133.333 0.0136719 118.4 0.0136719 100Z" fill="#994EFF"/>
<path d="M0.0136719 33.3333C0.0136719 14.9333 14.947 0 33.347 0H66.6803V66.6667H33.347C14.947 66.6667 0.0136719 51.7333 0.0136719 33.3333Z" fill="#FF3535"/>
<path d="M66.6797 0H100.013C118.413 0 133.346 14.9333 133.346 33.3333C133.346 51.7333 118.413 66.6667 100.013 66.6667H66.6797V0Z" fill="#FF732E"/>
<path d="M133.346 100C133.346 118.4 118.413 133.333 100.013 133.333C81.613 133.333 66.6797 118.4 66.6797 100C66.6797 81.6 81.613 66.6667 100.013 66.6667C118.413 66.6667 133.346 81.6 133.346 100Z" fill="#00B6FF"/>
</g>
<defs>
<clipPath id="clip0_1255_3838">
<rect width="133.36" height="200" fill="white"/>
</clipPath>
</defs>
</svg>
