<svg width="194" height="200" viewBox="0 0 194 200" fill="none" xmlns="http://www.w3.org/2000/svg">
<g clip-path="url(#clip0_1255_4367)">
<path d="M186.62 67.0994C182.408 56.9656 173.865 46.024 167.175 42.5652C171.946 51.8034 175.257 61.7246 176.991 71.9762L177.009 72.1388C166.05 44.8285 147.473 33.7994 132.292 9.81542C131.524 8.60246 130.756 7.38701 130.009 6.10403C129.581 5.37125 129.238 4.71101 128.941 4.10328C128.311 2.8842 127.826 1.59585 127.495 0.264338C127.496 0.202895 127.473 0.143439 127.433 0.0973124C127.392 0.0511855 127.336 0.0216157 127.275 0.014244C127.215 -0.00214383 127.152 -0.00214383 127.092 0.014244C127.08 0.014244 127.06 0.0367524 127.045 0.0417543C127.03 0.0467562 126.997 0.0692646 126.975 0.0792684L127.012 0.014244C102.666 14.2696 94.4002 40.6545 93.6499 53.8594C83.9236 54.5263 74.6242 58.1092 66.9649 64.1408C66.1661 63.4642 65.3312 62.8314 64.4639 62.2451C62.2556 54.5145 62.1614 46.333 64.1913 38.5537C55.2501 42.8848 47.3054 49.0249 40.8601 56.5855H40.8151C36.9736 51.7161 37.2437 35.6601 37.4638 32.3064C36.3274 32.7631 35.2426 33.339 34.2276 34.0245C30.8364 36.4448 27.6662 39.1605 24.754 42.14C21.4355 45.5046 18.4046 49.1411 15.6931 53.0116V53.0266V53.0091C9.46214 61.8415 5.04214 71.8205 2.68827 82.3701L2.55822 83.0104C2.37565 83.8632 1.71791 88.1348 1.60536 89.0626C1.60536 89.1352 1.59036 89.2027 1.58286 89.2752C0.734408 93.6852 0.208651 98.1512 0.00976562 102.638V103.138C0.0526026 127.393 9.18717 150.751 25.6103 168.601C42.0333 186.451 64.5515 197.495 88.7195 199.553C112.887 201.612 136.949 194.535 156.154 179.72C175.359 164.905 188.313 143.428 192.457 119.529C192.62 118.279 192.752 117.041 192.897 115.778C194.894 99.2762 192.732 82.5375 186.61 67.0844L186.62 67.0994ZM74.9029 142.978C75.3555 143.195 75.7807 143.431 76.2459 143.638L76.3134 143.681C75.8432 143.456 75.373 143.221 74.9029 142.978V142.978ZM177.011 72.1663V72.0738L177.029 72.1763L177.011 72.1663Z" fill="url(#paint0_linear_1255_4367)"/>
<path d="M186.619 67.1006C182.408 56.9668 173.864 46.0252 167.174 42.5664C171.945 51.8046 175.256 61.7258 176.991 71.9774V72.07L177.008 72.1725C184.481 93.5532 183.4 116.995 173.992 137.597C162.883 161.433 136.003 185.865 93.912 184.665C48.4449 183.377 8.37993 149.627 0.902124 105.435C-0.460887 98.4649 0.902124 94.931 1.58738 89.2664C0.652657 93.6665 0.131029 98.1443 0.0292969 102.641V103.142C0.0721338 127.397 9.2067 150.755 25.6298 168.605C42.0529 186.454 64.571 197.499 88.739 199.557C112.907 201.615 136.969 194.539 156.174 179.724C175.379 164.908 188.332 143.432 192.476 119.533C192.639 118.282 192.772 117.044 192.917 115.781C194.913 99.2799 192.752 82.5412 186.629 67.0881L186.619 67.1006Z" fill="url(#paint1_radial_1255_4367)"/>
<path d="M186.619 67.1006C182.408 56.9668 173.864 46.0252 167.174 42.5664C171.945 51.8046 175.256 61.7258 176.991 71.9774V72.07L177.008 72.1725C184.481 93.5532 183.4 116.995 173.992 137.597C162.883 161.433 136.003 185.865 93.912 184.665C48.4449 183.377 8.37993 149.627 0.902124 105.435C-0.460887 98.4649 0.902124 94.931 1.58738 89.2664C0.652657 93.6665 0.131029 98.1443 0.0292969 102.641V103.142C0.0721338 127.397 9.2067 150.755 25.6298 168.605C42.0529 186.454 64.571 197.499 88.739 199.557C112.907 201.615 136.969 194.539 156.174 179.724C175.379 164.908 188.332 143.432 192.476 119.533C192.639 118.282 192.772 117.044 192.917 115.781C194.913 99.2799 192.752 82.5412 186.629 67.0881L186.619 67.1006Z" fill="url(#paint2_radial_1255_4367)"/>
<path d="M139.502 78.4794C139.712 78.627 139.907 78.7745 140.105 78.9221C137.67 74.6047 134.639 70.6519 131.101 67.1802C100.965 37.0439 123.206 1.8557 126.955 0.0550206L126.992 0C102.646 14.2553 94.3802 40.6402 93.6299 53.8452C94.7603 53.7677 95.8807 53.6726 97.0362 53.6726C105.674 53.6893 114.153 55.9929 121.612 60.3492C129.071 64.7056 135.244 70.9592 139.502 78.4744V78.4794Z" fill="url(#paint3_radial_1255_4367)"/>
<path d="M97.0865 84.507C96.9264 86.9179 88.4082 95.2336 85.4296 95.2336C57.8693 95.2336 53.3926 111.907 53.3926 111.907C54.613 125.948 64.3967 137.517 76.2236 143.619C76.7638 143.899 77.3115 144.152 77.8593 144.399C78.8079 144.82 79.7566 145.208 80.7053 145.565C84.7643 147.001 89.0156 147.821 93.3175 147.998C141.636 150.264 150.989 90.2267 116.124 72.7951C124.348 71.725 132.677 73.7473 139.495 78.4698C135.236 70.9545 129.064 64.7009 121.605 60.3446C114.146 55.9883 105.667 53.6847 97.0289 53.668C95.8785 53.668 94.7531 53.763 93.6227 53.8405C83.8964 54.5074 74.5969 58.0903 66.9377 64.1219C68.4157 65.3724 70.0838 67.043 73.5977 70.5068C80.1751 76.9867 97.0439 83.6992 97.0815 84.487L97.0865 84.507Z" fill="url(#paint4_radial_1255_4367)"/>
<path d="M97.0865 84.507C96.9264 86.9179 88.4082 95.2336 85.4296 95.2336C57.8693 95.2336 53.3926 111.907 53.3926 111.907C54.613 125.948 64.3967 137.517 76.2236 143.619C76.7638 143.899 77.3115 144.152 77.8593 144.399C78.8079 144.82 79.7566 145.208 80.7053 145.565C84.7643 147.001 89.0156 147.821 93.3175 147.998C141.636 150.264 150.989 90.2267 116.124 72.7951C124.348 71.725 132.677 73.7473 139.495 78.4698C135.236 70.9545 129.064 64.7009 121.605 60.3446C114.146 55.9883 105.667 53.6847 97.0289 53.668C95.8785 53.668 94.7531 53.763 93.6227 53.8405C83.8964 54.5074 74.5969 58.0903 66.9377 64.1219C68.4157 65.3724 70.0838 67.043 73.5977 70.5068C80.1751 76.9867 97.0439 83.6992 97.0815 84.487L97.0865 84.507Z" fill="url(#paint5_radial_1255_4367)"/>
<path d="M62.4234 60.922C63.2087 61.4222 63.8565 61.8573 64.4242 62.25C62.2158 54.5194 62.1217 46.3379 64.1516 38.5586C55.2104 42.8897 47.2657 49.0298 40.8203 56.5904C41.293 56.5778 55.3533 56.3253 62.4234 60.922V60.922Z" fill="url(#paint6_radial_1255_4367)"/>
<path d="M0.886164 105.439C8.36647 149.63 48.429 183.393 93.896 184.668C135.987 185.859 162.872 161.425 173.976 137.601C183.384 116.998 184.465 93.5569 176.992 72.1762V72.0837C176.992 72.0111 176.977 71.9686 176.992 71.9911L177.01 72.1537C180.448 94.6046 169.029 116.345 151.175 131.076L151.12 131.201C116.332 159.536 83.0445 148.292 76.3169 143.706C75.8468 143.48 75.3766 143.246 74.9064 143.003C54.6263 133.309 46.2457 114.842 48.0463 98.9862C43.2323 99.0573 38.501 97.7307 34.4256 95.1672C30.3502 92.6038 27.1057 88.9134 25.0852 84.5433C30.4092 81.282 36.4797 79.4382 42.7182 79.1878C48.9566 78.9374 55.1553 80.2887 60.7236 83.1128C72.2011 88.3225 85.2612 88.836 97.1123 84.5433C97.0747 83.7555 80.2059 77.0405 73.6284 70.5631C70.1146 67.0993 68.4465 65.4312 66.9684 64.1782C66.1696 63.5016 65.3348 62.8688 64.4675 62.2825C63.8923 61.8898 63.2445 61.4647 62.4667 60.9545C55.3966 56.3578 41.3363 56.6104 40.8712 56.6229H40.8261C36.9847 51.7535 37.2548 35.6975 37.4749 32.3438C36.3385 32.8005 35.2536 33.3764 34.2387 34.0619C30.8475 36.4822 27.6772 39.1979 24.7651 42.1774C21.4347 45.5325 18.3913 49.1607 15.6667 53.024V53.039V53.0215C9.4357 61.8539 5.0157 71.8329 2.66183 82.3825C2.61431 82.5801 -0.829479 97.6357 0.868658 105.444L0.886164 105.439Z" fill="url(#paint7_radial_1255_4367)"/>
<path d="M131.099 67.1751C134.637 70.6506 137.668 74.6077 140.102 78.9295C140.635 79.3321 141.133 79.7323 141.555 80.1199C163.531 100.378 152.017 129.013 151.159 131.039C169.011 116.331 180.42 94.5753 176.994 72.1169C166.029 44.7817 147.432 33.7525 132.277 9.76854C131.509 8.55559 130.741 7.34013 129.993 6.05715C129.566 5.32438 129.223 4.66413 128.926 4.0564C128.296 2.83733 127.811 1.54897 127.48 0.217463C127.48 0.15602 127.458 0.0965644 127.418 0.0504374C127.377 0.00431044 127.321 -0.0252593 127.26 -0.032631C127.2 -0.0490188 127.137 -0.0490188 127.077 -0.032631C127.065 -0.032631 127.045 -0.0101226 127.03 -0.0051207C127.015 -0.000118822 126.982 0.0223896 126.96 0.0323934C123.211 1.81056 100.975 37.0213 131.111 67.1326L131.099 67.1751Z" fill="url(#paint8_radial_1255_4367)"/>
<path d="M141.554 80.1305C141.131 79.7429 140.633 79.3427 140.101 78.9401C139.903 78.7925 139.708 78.645 139.498 78.4974C132.68 73.7749 124.351 71.7526 116.127 72.8228C150.99 90.2543 141.636 150.277 93.3205 148.026C89.0185 147.849 84.7672 147.029 80.7082 145.593C79.7596 145.237 78.8109 144.849 77.8622 144.427C77.3145 144.177 76.7668 143.927 76.2266 143.647L76.2941 143.689C83.0316 148.289 116.309 159.525 151.097 131.185L151.152 131.06C152.02 129.034 163.534 100.398 141.549 80.1405L141.554 80.1305Z" fill="url(#paint9_radial_1255_4367)"/>
<path d="M53.3956 111.893C53.3956 111.893 57.8698 95.2189 85.4326 95.2189C88.4113 95.2189 96.937 86.9032 97.0895 84.4923C85.2384 88.785 72.1784 88.2716 60.7009 83.0618C55.1326 80.2377 48.9339 78.8864 42.6954 79.1368C36.4569 79.3873 30.3865 81.231 25.0625 84.4923C27.083 88.8624 30.3275 92.5528 34.4029 95.1162C38.4782 97.6797 43.2096 99.0063 48.0236 98.9353C46.2279 114.784 54.6061 133.248 74.8837 142.952C75.3364 143.169 75.7615 143.404 76.2267 143.612C64.3898 137.497 54.6161 125.933 53.3956 111.9V111.893Z" fill="url(#paint10_radial_1255_4367)"/>
<path d="M186.621 67.0994C182.409 56.9656 173.866 46.024 167.176 42.5652C171.946 51.8034 175.258 61.7246 176.992 71.9762L177.01 72.1388C166.05 44.8285 147.473 33.7994 132.293 9.81542C131.525 8.60246 130.757 7.38701 130.009 6.10403C129.582 5.37125 129.239 4.71101 128.941 4.10328C128.312 2.8842 127.827 1.59585 127.496 0.264338C127.496 0.202895 127.474 0.143439 127.434 0.0973124C127.393 0.0511855 127.337 0.0216157 127.276 0.014244C127.216 -0.00214383 127.153 -0.00214383 127.093 0.014244C127.081 0.014244 127.061 0.0367524 127.046 0.0417543C127.031 0.0467562 126.998 0.0692646 126.976 0.0792684L127.013 0.014244C102.667 14.2696 94.401 40.6545 93.6507 53.8594C94.7812 53.7819 95.9016 53.6869 97.057 53.6869C105.695 53.7036 114.174 56.0072 121.633 60.3635C129.092 64.7198 135.265 70.9734 139.523 78.4887C132.705 73.7662 124.376 71.7439 116.152 72.814C151.015 90.2456 141.661 150.268 93.3456 148.017C89.0436 147.84 84.7924 147.02 80.7334 145.584C79.7847 145.229 78.836 144.84 77.8873 144.418C77.3396 144.168 76.7919 143.918 76.2517 143.638L76.3192 143.681C75.8491 143.456 75.3789 143.221 74.9087 142.978C75.3614 143.195 75.7865 143.431 76.2517 143.638C64.4148 137.521 54.6411 125.956 53.4207 111.926C53.4207 111.926 57.8948 95.2525 85.4577 95.2525C88.4363 95.2525 96.962 86.9368 97.1145 84.5259C97.077 83.7381 80.2082 77.0231 73.6307 70.5457C70.1169 67.0819 68.4488 65.4138 66.9707 64.1608C66.1719 63.4842 65.3371 62.8514 64.4698 62.2651C62.2614 54.5345 62.1673 46.3531 64.1972 38.5737C55.256 42.9048 47.3113 49.045 40.8659 56.6055H40.8209C36.9795 51.7361 37.2496 35.6801 37.4697 32.3264C36.3332 32.7831 35.2484 33.359 34.2335 34.0445C30.8423 36.4648 27.672 39.1805 24.7599 42.16C21.4414 45.5246 18.4105 49.1611 15.699 53.0316V53.0466V53.0291C9.468 61.8615 5.048 71.8405 2.69413 82.3901L2.56408 83.0304C2.38151 83.8832 1.56371 88.2148 1.44616 89.1452C0.698133 93.6165 0.22042 98.1289 0.015625 102.658V103.158C0.0584619 127.413 9.19303 150.771 25.6161 168.621C42.0392 186.471 64.5573 197.515 88.7253 199.573C112.893 201.632 136.955 194.555 156.16 179.74C175.365 164.925 188.319 143.448 192.463 119.549C192.625 118.299 192.758 117.061 192.903 115.798C194.9 99.2962 192.738 82.5575 186.616 67.1044L186.621 67.0994ZM177.005 72.0788L177.022 72.1813L177.005 72.0788Z" fill="url(#paint11_linear_1255_4367)"/>
</g>
<defs>
<linearGradient id="paint0_linear_1255_4367" x1="173.79" y1="30.9756" x2="12.8721" y2="186.234" gradientUnits="userSpaceOnUse">
<stop offset="0.048" stop-color="#FFF44F"/>
<stop offset="0.111" stop-color="#FFE847"/>
<stop offset="0.225" stop-color="#FFC830"/>
<stop offset="0.368" stop-color="#FF980E"/>
<stop offset="0.401" stop-color="#FF8B16"/>
<stop offset="0.462" stop-color="#FF672A"/>
<stop offset="0.534" stop-color="#FF3647"/>
<stop offset="0.705" stop-color="#E31587"/>
</linearGradient>
<radialGradient id="paint1_radial_1255_4367" cx="0" cy="0" r="1" gradientUnits="userSpaceOnUse" gradientTransform="translate(167.562 22.5089) scale(202.076 202.076)">
<stop offset="0.129" stop-color="#FFBD4F"/>
<stop offset="0.186" stop-color="#FFAC31"/>
<stop offset="0.247" stop-color="#FF9D17"/>
<stop offset="0.283" stop-color="#FF980E"/>
<stop offset="0.403" stop-color="#FF563B"/>
<stop offset="0.467" stop-color="#FF3750"/>
<stop offset="0.71" stop-color="#F5156C"/>
<stop offset="0.782" stop-color="#EB0878"/>
<stop offset="0.86" stop-color="#E50080"/>
</radialGradient>
<radialGradient id="paint2_radial_1255_4367" cx="0" cy="0" r="1" gradientUnits="userSpaceOnUse" gradientTransform="translate(92.534 105.04) scale(202.076 202.076)">
<stop offset="0.3" stop-color="#960E18"/>
<stop offset="0.351" stop-color="#B11927" stop-opacity="0.74"/>
<stop offset="0.435" stop-color="#DB293D" stop-opacity="0.343"/>
<stop offset="0.497" stop-color="#F5334B" stop-opacity="0.094"/>
<stop offset="0.53" stop-color="#FF3750" stop-opacity="0"/>
</radialGradient>
<radialGradient id="paint3_radial_1255_4367" cx="0" cy="0" r="1" gradientUnits="userSpaceOnUse" gradientTransform="translate(117.544 -22.5084) scale(146.38)">
<stop offset="0.132" stop-color="#FFF44F"/>
<stop offset="0.252" stop-color="#FFDC3E"/>
<stop offset="0.506" stop-color="#FF9D12"/>
<stop offset="0.526" stop-color="#FF980E"/>
</radialGradient>
<radialGradient id="paint4_radial_1255_4367" cx="0" cy="0" r="1" gradientUnits="userSpaceOnUse" gradientTransform="translate(70.0263 157.559) scale(96.2111 96.2111)">
<stop offset="0.353" stop-color="#3A8EE6"/>
<stop offset="0.472" stop-color="#5C79F0"/>
<stop offset="0.669" stop-color="#9059FF"/>
<stop offset="1" stop-color="#C139E6"/>
</radialGradient>
<radialGradient id="paint5_radial_1255_4367" cx="0" cy="0" r="1" gradientUnits="userSpaceOnUse" gradientTransform="translate(102.308 87.6932) rotate(-13.5916) scale(51.0194 59.7309)">
<stop offset="0.206" stop-color="#9059FF" stop-opacity="0"/>
<stop offset="0.278" stop-color="#8C4FF3" stop-opacity="0.064"/>
<stop offset="0.747" stop-color="#7716A8" stop-opacity="0.45"/>
<stop offset="0.975" stop-color="#6E008B" stop-opacity="0.6"/>
</radialGradient>
<radialGradient id="paint6_radial_1255_4367" cx="0" cy="0" r="1" gradientUnits="userSpaceOnUse" gradientTransform="translate(90.0338 15.0048) scale(69.226 69.226)">
<stop stop-color="#FFE226"/>
<stop offset="0.121" stop-color="#FFDB27"/>
<stop offset="0.295" stop-color="#FFC82A"/>
<stop offset="0.502" stop-color="#FFA930"/>
<stop offset="0.732" stop-color="#FF7E37"/>
<stop offset="0.792" stop-color="#FF7139"/>
</radialGradient>
<radialGradient id="paint7_radial_1255_4367" cx="0" cy="0" r="1" gradientUnits="userSpaceOnUse" gradientTransform="translate(145.055 -30.0121) scale(295.361 295.361)">
<stop offset="0.113" stop-color="#FFF44F"/>
<stop offset="0.456" stop-color="#FF980E"/>
<stop offset="0.622" stop-color="#FF5634"/>
<stop offset="0.716" stop-color="#FF3647"/>
<stop offset="0.904" stop-color="#E31587"/>
</radialGradient>
<radialGradient id="paint8_radial_1255_4367" cx="0" cy="0" r="1" gradientUnits="userSpaceOnUse" gradientTransform="translate(120.505 -13.6352) rotate(83.976) scale(216.445 142.051)">
<stop stop-color="#FFF44F"/>
<stop offset="0.06" stop-color="#FFE847"/>
<stop offset="0.168" stop-color="#FFC830"/>
<stop offset="0.304" stop-color="#FF980E"/>
<stop offset="0.356" stop-color="#FF8B16"/>
<stop offset="0.455" stop-color="#FF672A"/>
<stop offset="0.57" stop-color="#FF3647"/>
<stop offset="0.737" stop-color="#E31587"/>
</radialGradient>
<radialGradient id="paint9_radial_1255_4367" cx="0" cy="0" r="1" gradientUnits="userSpaceOnUse" gradientTransform="translate(90.0342 40.0155) scale(184.369 184.369)">
<stop offset="0.137" stop-color="#FFF44F"/>
<stop offset="0.48" stop-color="#FF980E"/>
<stop offset="0.592" stop-color="#FF5634"/>
<stop offset="0.655" stop-color="#FF3647"/>
<stop offset="0.904" stop-color="#E31587"/>
</radialGradient>
<radialGradient id="paint10_radial_1255_4367" cx="0" cy="0" r="1" gradientUnits="userSpaceOnUse" gradientTransform="translate(137.552 50.0194) scale(201.801 201.801)">
<stop offset="0.094" stop-color="#FFF44F"/>
<stop offset="0.231" stop-color="#FFE141"/>
<stop offset="0.509" stop-color="#FFAF1E"/>
<stop offset="0.626" stop-color="#FF980E"/>
</radialGradient>
<linearGradient id="paint11_linear_1255_4367" x1="171.84" y1="30.1503" x2="34.9387" y2="167.077" gradientUnits="userSpaceOnUse">
<stop offset="0.167" stop-color="#FFF44F" stop-opacity="0.8"/>
<stop offset="0.266" stop-color="#FFF44F" stop-opacity="0.634"/>
<stop offset="0.489" stop-color="#FFF44F" stop-opacity="0.217"/>
<stop offset="0.6" stop-color="#FFF44F" stop-opacity="0"/>
</linearGradient>
<clipPath id="clip0_1255_4367">
<rect width="193.623" height="200" fill="white"/>
</clipPath>
</defs>
</svg>
