<svg width="200" height="200" viewBox="0 0 200 200" fill="none" xmlns="http://www.w3.org/2000/svg">
<path d="M197.875 102.25C197.875 95.6663 197.292 89.4163 196.292 83.333H102.125V120.916H156.042C153.625 133.25 146.542 143.666 136.042 150.75V175.75H168.208C187.042 158.333 197.875 132.666 197.875 102.25Z" fill="#4285F4"/>
<path d="M102.125 200C129.125 200 151.708 191 168.208 175.75L136.042 150.75C127.042 156.75 115.625 160.416 102.125 160.416C76.0417 160.416 53.9583 142.833 46.0417 119.083H12.875V144.833C29.2917 177.5 63.0417 200 102.125 200Z" fill="#34A853"/>
<path d="M46.0417 119.084C43.9583 113.084 42.875 106.667 42.875 100C42.875 93.3336 44.0417 86.917 46.0417 80.917V55.167H12.875C6.04166 68.667 2.125 83.8336 2.125 100C2.125 116.167 6.04166 131.334 12.875 144.834L46.0417 119.084Z" fill="#FBBC05"/>
<path d="M102.125 39.5833C116.875 39.5833 130.042 44.6667 140.458 54.5834L168.958 26.0833C151.708 9.91667 129.125 0 102.125 0C63.0417 0 29.2917 22.5 12.875 55.1667L46.0417 80.9167C53.9583 57.1667 76.0417 39.5833 102.125 39.5833Z" fill="#EA4335"/>
</svg>
