<svg width="249" height="200" viewBox="0 0 249 200" fill="none" xmlns="http://www.w3.org/2000/svg">
<g clip-path="url(#clip0_1255_4029)">
<path d="M165.293 55.1636L186.898 33.5588L188.338 24.4617C148.968 -11.3373 86.3844 -7.27812 50.8941 32.9316C41.0359 44.0996 33.7223 58.0229 29.8223 72.4005L37.5601 71.3102L80.7689 64.185L84.1048 60.7733C103.325 39.6646 135.823 36.8248 158.015 54.785L165.293 55.1636Z" fill="#EA4335"/>
<path d="M217.674 71.7648C212.708 53.4774 202.513 37.0376 188.338 24.4619L158.015 54.7842C170.819 65.2464 178.113 81.0076 177.801 97.5386V102.921C192.705 102.921 204.788 115.004 204.788 129.908C204.788 144.812 192.705 156.592 177.801 156.592H123.751L118.444 162.353V194.722L123.751 199.801H177.801C216.568 200.103 248.239 169.224 248.541 130.457C248.724 106.959 237.139 84.9299 217.674 71.7648Z" fill="#4285F4"/>
<path d="M69.7761 199.802H123.75V156.592H69.7761C65.9305 156.591 62.2062 155.765 58.7091 154.167L51.0518 156.517L29.2955 178.121L27.4004 185.475C39.6014 194.687 54.4878 199.868 69.7761 199.802Z" fill="#34A853"/>
<path d="M69.777 59.6362C31.009 59.8673 -0.229794 91.4828 0.00127365 130.25C0.1304 151.898 10.2411 172.277 27.4013 185.474L58.71 154.166C45.1265 148.029 39.0906 132.044 45.2275 118.461C51.3634 104.879 67.3498 98.843 80.9314 104.979C86.9168 107.683 91.71 112.477 94.4139 118.461L125.723 87.1537C112.401 69.7391 91.7022 59.5576 69.777 59.6362Z" fill="#FBBC05"/>
</g>
<defs>
<clipPath id="clip0_1255_4029">
<rect width="248.544" height="200" fill="white"/>
</clipPath>
</defs>
</svg>
