<svg width="200" height="200" viewBox="0 0 200 200" fill="none" xmlns="http://www.w3.org/2000/svg">
<path d="M100.051 1.51562C58.9269 1.51562 46.8996 1.55805 44.5618 1.75199C36.1224 2.4535 30.8708 3.78229 25.1496 6.63078C20.7405 8.82017 17.2633 11.358 13.8315 14.9156C7.58145 21.4035 3.79357 29.3853 2.42236 38.8732C1.75569 43.4793 1.56175 44.4187 1.52236 67.9459C1.50721 75.7884 1.52236 86.1096 1.52236 99.9535C1.52236 141.044 1.56781 153.06 1.76478 155.393C2.4466 163.605 3.73448 168.772 6.46175 174.423C11.6739 185.241 21.6284 193.363 33.3557 196.393C37.4163 197.438 41.9011 198.014 47.6587 198.287C50.0981 198.393 74.9617 198.469 99.8405 198.469C124.719 198.469 149.598 198.438 151.977 198.317C158.644 198.004 162.515 197.484 166.795 196.378C178.598 193.332 188.371 185.332 193.689 174.363C196.363 168.847 197.719 163.484 198.333 155.7C198.466 154.004 198.522 126.947 198.522 99.9278C198.522 72.9035 198.462 45.8974 198.328 44.2005C197.707 36.2914 196.351 30.9732 193.591 25.352C191.325 20.7505 188.81 17.3141 185.159 13.8005C178.642 7.57623 170.672 3.78835 161.175 2.41866C156.574 1.7535 155.657 1.55653 132.112 1.51562H100.051Z" fill="url(#paint0_radial_1255_4491)"/>
<path d="M100.051 1.51562C58.9269 1.51562 46.8996 1.55805 44.5618 1.75199C36.1224 2.4535 30.8708 3.78229 25.1496 6.63078C20.7405 8.82017 17.2633 11.358 13.8315 14.9156C7.58145 21.4035 3.79357 29.3853 2.42236 38.8732C1.75569 43.4793 1.56175 44.4187 1.52236 67.9459C1.50721 75.7884 1.52236 86.1096 1.52236 99.9535C1.52236 141.044 1.56781 153.06 1.76478 155.393C2.4466 163.605 3.73448 168.772 6.46175 174.423C11.6739 185.241 21.6284 193.363 33.3557 196.393C37.4163 197.438 41.9011 198.014 47.6587 198.287C50.0981 198.393 74.9617 198.469 99.8405 198.469C124.719 198.469 149.598 198.438 151.977 198.317C158.644 198.004 162.515 197.484 166.795 196.378C178.598 193.332 188.371 185.332 193.689 174.363C196.363 168.847 197.719 163.484 198.333 155.7C198.466 154.004 198.522 126.947 198.522 99.9278C198.522 72.9035 198.462 45.8974 198.328 44.2005C197.707 36.2914 196.351 30.9732 193.591 25.352C191.325 20.7505 188.81 17.3141 185.159 13.8005C178.642 7.57623 170.672 3.78835 161.175 2.41866C156.574 1.7535 155.657 1.55653 132.112 1.51562H100.051Z" fill="url(#paint1_radial_1255_4491)"/>
<path d="M100.007 27.2734C80.2553 27.2734 77.7765 27.3598 70.0189 27.7128C62.2765 28.0674 56.9916 29.2931 52.3674 31.0916C47.584 32.9492 43.5265 35.434 39.484 39.478C35.4386 43.5204 32.9537 47.578 31.0901 52.3598C29.2871 56.9856 28.0598 62.2719 27.7113 70.0113C27.3643 77.7689 27.2734 80.2492 27.2734 100.001C27.2734 119.752 27.3613 122.223 27.7128 129.981C28.0689 137.723 29.2947 143.008 31.0916 147.633C32.9507 152.416 35.4356 156.473 39.4795 160.516C43.5204 164.561 47.578 167.052 52.3583 168.91C56.9856 170.708 62.2719 171.934 70.0128 172.289C77.7704 172.642 80.2477 172.728 99.9977 172.728C119.751 172.728 122.222 172.642 129.98 172.289C137.722 171.934 143.013 170.708 147.64 168.91C152.422 167.052 156.473 164.561 160.514 160.516C164.56 156.473 167.045 152.416 168.908 147.634C170.696 143.008 171.923 137.722 172.287 129.983C172.636 122.225 172.726 119.752 172.726 100.001C172.726 80.2492 172.636 77.7704 172.287 70.0128C171.923 62.2704 170.696 56.9856 168.908 52.3613C167.045 47.578 164.56 43.5204 160.514 39.478C156.469 35.4325 152.423 32.9477 147.636 31.0916C142.999 29.2931 137.711 28.0674 129.969 27.7128C122.211 27.3598 119.742 27.2734 99.984 27.2734H100.007ZM93.4825 40.3795C95.4189 40.3765 97.5795 40.3795 100.007 40.3795C119.425 40.3795 121.726 40.4492 129.395 40.7977C136.486 41.1219 140.334 42.3068 142.898 43.3022C146.292 44.6204 148.711 46.1962 151.255 48.7416C153.801 51.2871 155.376 53.7113 156.698 57.1053C157.693 59.6659 158.879 63.5143 159.202 70.6053C159.551 78.2719 159.626 80.5749 159.626 99.984C159.626 119.393 159.551 121.696 159.202 129.363C158.878 136.454 157.693 140.302 156.698 142.863C155.379 146.257 153.801 148.673 151.255 151.217C148.71 153.763 146.293 155.339 142.898 156.657C140.337 157.657 136.486 158.839 129.395 159.163C121.728 159.511 119.425 159.587 100.007 159.587C80.5871 159.587 78.2856 159.511 70.6189 159.163C63.528 158.836 59.6795 157.651 57.1143 156.655C53.7204 155.337 51.2962 153.761 48.7507 151.216C46.2053 148.67 44.6295 146.252 43.3083 142.857C42.3128 140.296 41.1265 136.448 40.8037 129.357C40.4553 121.69 40.3856 119.387 40.3856 99.9659C40.3856 80.5446 40.4553 78.2537 40.8037 70.5871C41.128 63.4962 42.3128 59.6477 43.3083 57.084C44.6265 53.6901 46.2053 51.2659 48.7507 48.7204C51.2962 46.175 53.7204 44.5992 57.1143 43.278C59.678 42.278 63.528 41.0962 70.6189 40.7704C77.328 40.4674 79.928 40.3765 93.4825 40.3613V40.3795ZM138.828 52.4553C134.01 52.4553 130.101 56.3598 130.101 61.1795C130.101 65.9977 134.01 69.9068 138.828 69.9068C143.646 69.9068 147.555 65.9977 147.555 61.1795C147.555 56.3613 143.646 52.4522 138.828 52.4522V52.4553ZM100.007 62.6522C79.381 62.6522 62.6583 79.375 62.6583 100.001C62.6583 120.626 79.381 137.342 100.007 137.342C120.633 137.342 137.349 120.626 137.349 100.001C137.349 79.375 120.631 62.6522 100.005 62.6522H100.007ZM100.007 75.7583C113.395 75.7583 124.249 86.6113 124.249 100.001C124.249 113.389 113.395 124.243 100.007 124.243C86.6174 124.243 75.7643 113.389 75.7643 100.001C75.7643 86.6113 86.6174 75.7583 100.007 75.7583V75.7583Z" fill="white"/>
<defs>
<radialGradient id="paint0_radial_1255_4491" cx="0" cy="0" r="1" gradientUnits="userSpaceOnUse" gradientTransform="translate(53.8458 213.638) rotate(-90) scale(195.195 181.596)">
<stop stop-color="#FFDD55"/>
<stop offset="0.1" stop-color="#FFDD55"/>
<stop offset="0.5" stop-color="#FF543E"/>
<stop offset="1" stop-color="#C837AB"/>
</radialGradient>
<radialGradient id="paint1_radial_1255_4491" cx="0" cy="0" r="1" gradientUnits="userSpaceOnUse" gradientTransform="translate(-31.484 15.7038) rotate(78.6776) scale(87.2539 359.755)">
<stop stop-color="#3771C8"/>
<stop offset="0.128" stop-color="#3771C8"/>
<stop offset="1" stop-color="#6600FF" stop-opacity="0"/>
</radialGradient>
</defs>
</svg>
