<svg width="200" height="200" viewBox="0 0 200 200" fill="none" xmlns="http://www.w3.org/2000/svg">
<g clip-path="url(#clip0_1255_4482)">
<path fill-rule="evenodd" clip-rule="evenodd" d="M22.2222 200H177.778C190.051 200 200 190.051 200 177.778V22.2222C200 9.94923 190.051 0 177.778 0H22.2222C9.94923 0 0 9.94923 0 22.2222V177.778C0 190.051 9.94923 200 22.2222 200Z" fill="#007EBB"/>
<path fill-rule="evenodd" clip-rule="evenodd" d="M172.222 172.222H142.543V121.672C142.543 107.813 137.277 100.068 126.307 100.068C114.373 100.068 108.139 108.128 108.139 121.672V172.222H79.5366V75.9255H108.139V88.8966C108.139 88.8966 116.739 72.9835 137.173 72.9835C157.599 72.9835 172.222 85.4564 172.222 111.253V172.222ZM45.4144 63.3163C35.6719 63.3163 27.7773 55.3597 27.7773 45.5468C27.7773 35.7339 35.6719 27.7773 45.4144 27.7773C55.1569 27.7773 63.0468 35.7339 63.0468 45.5468C63.0468 55.3597 55.1569 63.3163 45.4144 63.3163ZM30.6455 172.222H60.4701V75.9255H30.6455V172.222Z" fill="white"/>
</g>
<defs>
<clipPath id="clip0_1255_4482">
<rect width="200" height="200" fill="white"/>
</clipPath>
</defs>
</svg>
