<svg width="200" height="200" viewBox="0 0 200 200" fill="none" xmlns="http://www.w3.org/2000/svg">
<mask id="mask0_1255_4314" style="mask-type:luminance" maskUnits="userSpaceOnUse" x="29" y="12" width="157" height="188">
<path d="M29.4004 12.5H185.025V200H29.4004V12.5Z" fill="white"/>
</mask>
<g mask="url(#mask0_1255_4314)">
<path d="M162.142 55.625C162.142 78.85 140.709 106.25 108.28 106.25H77.0421L75.5087 115.925L68.2212 162.5H29.4004L52.7546 12.5H115.65C136.83 12.5 153.492 24.3042 159.63 40.7083C161.4 45.4778 162.252 50.5389 162.142 55.625Z" fill="#002991"/>
<path d="M184.517 98.7504C182.445 111.34 175.96 122.781 166.224 131.026C156.487 139.27 144.134 143.781 131.375 143.75H109.684L100.654 200H62.042L68.2212 162.5L75.5128 115.925L77.042 106.25H108.279C140.667 106.25 162.142 78.8504 162.142 55.6254C178.079 63.8504 187.371 80.4712 184.517 98.7504Z" fill="#60CDFF"/>
<path d="M162.142 55.625C155.459 52.1292 147.354 50 138.534 50H85.867L77.042 106.25H108.279C140.667 106.25 162.142 78.85 162.142 55.625Z" fill="#008CFF"/>
</g>
</svg>
