<svg width="200" height="200" viewBox="0 0 200 200" fill="none" xmlns="http://www.w3.org/2000/svg">
<g clip-path="url(#clip0_1255_4037)">
<path d="M0 100.002C0 140.95 24.6234 176.128 59.8586 191.595C59.5773 184.612 59.8086 176.229 61.5992 168.631C63.5219 160.513 74.4664 114.141 74.4664 114.141C74.4664 114.141 71.2719 107.755 71.2719 98.3187C71.2719 83.4992 79.8609 72.4312 90.5578 72.4312C99.6539 72.4312 104.048 79.2633 104.048 87.4445C104.048 96.5883 98.2164 110.266 95.2172 122.934C92.7117 133.541 100.536 142.194 111.001 142.194C129.948 142.194 142.709 117.859 142.709 89.0258C142.709 67.1086 127.947 50.7039 101.098 50.7039C70.7633 50.7039 51.8656 73.3258 51.8656 98.5945C51.8656 107.307 54.4344 113.451 58.4578 118.209C60.3078 120.394 60.5648 121.273 59.8953 123.782C59.4156 125.622 58.3141 130.052 57.8578 131.807C57.1922 134.34 55.1398 135.245 52.8508 134.31C38.8789 128.606 32.3719 113.305 32.3719 96.1055C32.3719 67.6984 56.3297 33.6359 103.842 33.6359C142.022 33.6359 167.151 61.2641 167.151 90.9211C167.151 130.15 145.341 159.457 113.193 159.457C102.397 159.457 92.2414 153.621 88.7625 146.992C88.7625 146.992 82.957 170.033 81.7273 174.482C79.607 182.192 75.457 189.898 71.6625 195.905C80.6562 198.559 90.157 200.005 100.004 200.005C155.226 200.005 200.001 155.233 200.001 100.002C200.001 44.7727 155.226 0 100.004 0C44.7766 0 0 44.7727 0 100.002Z" fill="#CB1F27"/>
</g>
<defs>
<clipPath id="clip0_1255_4037">
<rect width="200" height="200" fill="white"/>
</clipPath>
</defs>
</svg>
