<svg width="222" height="200" viewBox="0 0 222 200" fill="none" xmlns="http://www.w3.org/2000/svg">
<path d="M48.1968 6.58155L110.451 0L172.705 6.58155L220.902 71.2815L110.451 199.901L0 71.2815L48.1968 6.58155Z" fill="#FDB300"/>
<path d="M44.7382 71.2812L110.451 199.9L0 71.2812H44.7382Z" fill="#EA6C00"/>
<path d="M176.164 71.2812L110.451 199.9L220.902 71.2812H176.164Z" fill="#EA6C00"/>
<path d="M44.7383 71.2812H176.164L110.451 199.9L44.7383 71.2812Z" fill="#FDAD00"/>
<path d="M110.451 0L48.1967 6.58146L44.7383 71.2815L110.451 0Z" fill="#FDD231"/>
<path d="M110.451 0L172.706 6.58146L176.164 71.2815L110.451 0Z" fill="#FDD231"/>
<path d="M220.902 71.282L172.705 6.58203L176.164 71.282H220.902Z" fill="#FDAD00"/>
<path d="M0 71.282L48.1966 6.58203L44.7382 71.282H0Z" fill="#FDAD00"/>
<path d="M110.451 0L44.7383 71.2815H176.164L110.451 0Z" fill="#FEEEB7"/>
</svg>
