<svg width="194" height="200" viewBox="0 0 194 200" fill="none" xmlns="http://www.w3.org/2000/svg">
<g clip-path="url(#clip0_1255_3975)">
<path d="M96.875 3.125C43.3984 3.125 0 46.5234 0 100C0 153.477 43.3984 196.875 96.875 196.875C150.352 196.875 193.75 153.477 193.75 100C193.75 46.5234 150.352 3.125 96.875 3.125Z" fill="#1ED760"/>
<path d="M158.828 90.2734C156.797 90.2734 155.547 89.7656 153.789 88.75C125.977 72.1484 76.25 68.1641 44.0625 77.1484C42.6563 77.5391 40.8984 78.1641 39.0234 78.1641C33.8672 78.1641 29.9219 74.1406 29.9219 68.9453C29.9219 63.6328 33.2031 60.625 36.7188 59.6094C50.4688 55.5859 65.8594 53.6719 82.6172 53.6719C111.133 53.6719 141.016 59.6094 162.852 72.3438C165.898 74.1016 167.891 76.5234 167.891 81.1719C167.891 86.4844 163.594 90.2734 158.828 90.2734V90.2734ZM146.719 120.039C144.688 120.039 143.32 119.141 141.914 118.398C117.5 103.945 81.0938 98.125 48.7109 106.914C46.8359 107.422 45.8203 107.93 44.0625 107.93C39.8828 107.93 36.4844 104.531 36.4844 100.352C36.4844 96.1719 38.5156 93.3984 42.5391 92.2656C53.3984 89.2188 64.4922 86.9531 80.7422 86.9531C106.094 86.9531 130.586 93.2422 149.883 104.727C153.047 106.602 154.297 109.023 154.297 112.422C154.258 116.641 150.977 120.039 146.719 120.039V120.039ZM136.211 145.664C134.57 145.664 133.555 145.156 132.031 144.258C107.656 129.57 79.2969 128.945 51.2891 134.687C49.7656 135.078 47.7734 135.703 46.6406 135.703C42.8516 135.703 40.4688 132.695 40.4688 129.531C40.4688 125.508 42.8516 123.594 45.7813 122.969C77.7734 115.898 110.469 116.523 138.359 133.203C140.742 134.727 142.148 136.094 142.148 139.648C142.148 143.203 139.375 145.664 136.211 145.664V145.664Z" fill="black"/>
</g>
<defs>
<clipPath id="clip0_1255_3975">
<rect width="193.75" height="200" fill="white"/>
</clipPath>
</defs>
</svg>
