<svg width="177" height="200" viewBox="0 0 177 200" fill="none" xmlns="http://www.w3.org/2000/svg">
<path d="M130.965 72.3358C143.814 81.5161 159.556 86.9176 176.558 86.9176V54.2197C173.34 54.2204 170.131 53.8851 166.983 53.2185V78.9564C149.983 78.9564 134.243 73.5549 121.39 64.3753V131.102C121.39 164.482 94.3146 191.54 60.9176 191.54C48.4564 191.54 36.8742 187.775 27.2529 181.318C38.2341 192.54 53.5481 199.501 70.4904 199.501C103.889 199.501 130.966 172.443 130.966 139.061V72.3358H130.965V72.3358ZM142.776 39.3477C136.209 32.1773 131.898 22.9109 130.965 12.6666V8.46094H121.891C124.175 21.4815 131.965 32.6055 142.776 39.3477ZM48.3765 155.703C44.7075 150.895 42.7248 145.013 42.7336 138.966C42.7336 123.699 55.1176 111.32 70.3962 111.32C73.2436 111.32 76.0739 111.755 78.7874 112.616V79.1872C75.6163 78.7529 72.4158 78.5685 69.2167 78.6361V104.655C66.5011 103.795 63.6694 103.358 60.8213 103.36C45.5428 103.36 33.1594 115.738 33.1594 131.007C33.1594 141.803 39.3494 151.15 48.3765 155.703Z" fill="#FF004F"/>
<path d="M121.39 64.3746C134.243 73.5542 149.982 78.9557 166.983 78.9557V53.2178C157.493 51.1976 149.093 46.2414 142.776 39.3477C131.964 32.6048 124.175 21.4808 121.891 8.46094H98.0573V139.06C98.0034 154.285 85.6405 166.613 70.3948 166.613C61.4107 166.613 53.4292 162.333 48.3744 155.703C39.348 151.15 33.158 141.802 33.158 131.007C33.158 115.74 45.5414 103.361 60.8199 103.361C63.7472 103.361 66.5687 103.817 69.2152 104.656V78.6368C36.405 79.3143 10.0176 106.108 10.0176 139.061C10.0176 155.51 16.5886 170.423 27.2536 181.319C36.8749 187.775 48.4571 191.541 60.9183 191.541C94.3159 191.541 121.39 164.482 121.39 131.102V64.3746H121.39Z" fill="black"/>
<path d="M166.983 53.2167V46.2574C158.426 46.2704 150.036 43.8753 142.776 39.3459C149.203 46.3783 157.666 51.2273 166.983 53.2167ZM121.891 8.45986C121.673 7.21551 121.506 5.96297 121.39 4.70565V0.5H88.4817V131.1C88.4292 146.324 76.067 158.652 60.8199 158.652C56.3435 158.652 52.1172 157.59 48.3744 155.703C53.4292 162.332 61.4107 166.611 70.3947 166.611C85.6391 166.611 98.004 154.285 98.0573 139.06V8.45986H121.891ZM69.2166 78.6357V71.227C66.4669 70.8513 63.6946 70.6629 60.9189 70.6642C27.5185 70.6635 0.443359 97.723 0.443359 131.1C0.443359 152.026 11.0844 170.468 27.2542 181.316C16.5893 170.421 10.0182 155.508 10.0182 139.059C10.0182 106.107 36.405 79.3132 69.2166 78.6357Z" fill="#00F2EA"/>
</svg>
