<svg width="244" height="200" viewBox="0 0 244 200" fill="none" xmlns="http://www.w3.org/2000/svg">
<path d="M217.598 50.2841C217.745 52.4115 217.745 54.539 217.745 56.686C217.745 122.108 167.941 197.559 76.8726 197.559V197.519C49.9707 197.559 23.6275 189.853 0.980469 175.323C4.89223 175.794 8.82361 176.029 12.7648 176.039C35.0589 176.059 56.7158 168.578 74.255 154.804C53.0687 154.402 34.4903 140.588 28.0001 120.421C35.4216 121.853 43.0687 121.559 50.353 119.568C27.255 114.902 10.6373 94.6076 10.6373 71.039C10.6373 70.8233 10.6373 70.6174 10.6373 70.4115C17.5197 74.2449 25.2256 76.3723 33.1079 76.6076C11.353 62.0684 4.64714 33.1272 17.7844 10.4998C42.9216 41.4311 80.0099 60.2351 119.824 62.2252C115.833 45.0292 121.284 27.0096 134.147 14.9213C154.088 -3.82377 185.451 -2.86299 204.196 17.0684C215.284 14.8821 225.912 10.8135 235.637 5.04878C231.941 16.5096 224.206 26.2449 213.873 32.4311C223.686 31.2743 233.275 28.6468 242.304 24.637C235.657 34.5978 227.284 43.2743 217.598 50.2841Z" fill="#1D9BF0"/>
</svg>
