<svg width="200" height="200" viewBox="0 0 200 200" fill="none" xmlns="http://www.w3.org/2000/svg">
<g filter="url(#filter0_f_1255_4404)">
<path d="M62.1253 157.73L64.6716 159.239C75.3659 165.585 87.6278 168.943 100.132 168.949H100.159C138.56 168.949 169.812 137.703 169.828 99.2997C169.835 80.6898 162.595 63.1896 149.441 50.0254C142.989 43.5332 135.314 38.3851 126.859 34.8792C118.405 31.3733 109.339 29.5792 100.186 29.6007C61.7551 29.6007 30.5017 60.8427 30.488 99.2438C30.4691 112.357 34.1617 125.207 41.139 136.31L42.7966 138.944L35.7571 164.643L62.1253 157.73ZM15.6309 184.553L27.5236 141.131C20.1891 128.424 16.3304 114.008 16.3349 99.2381C16.3543 53.0342 53.9545 15.4453 100.16 15.4453C122.581 15.4567 143.627 24.1823 159.455 40.0215C175.283 55.8607 183.991 76.9143 183.983 99.3054C183.963 145.506 146.357 183.102 100.159 183.102H100.122C86.0943 183.096 72.3104 179.577 60.0667 172.901L15.6309 184.553Z" fill="#B3B3B3"/>
</g>
<path d="M14.7715 183.692L26.6643 140.27C19.317 127.532 15.4578 113.082 15.4755 98.3768C15.4949 52.1728 53.0952 14.584 99.3003 14.584C121.722 14.5954 142.768 23.321 158.596 39.1602C174.423 54.9994 183.132 76.0529 183.124 98.444C183.103 144.645 145.497 182.24 99.2991 182.24H99.2627C85.2349 182.235 71.451 178.715 59.2073 172.039L14.7715 183.692Z" fill="white"/>
<path d="M99.3249 28.7404C60.8941 28.7404 29.6407 59.9825 29.627 98.3836C29.6081 111.497 33.3007 124.347 40.278 135.45L41.9356 138.085L34.8961 163.784L61.2655 156.87L63.8118 158.378C74.506 164.725 86.7679 168.081 99.2725 168.088H99.2987C137.7 168.088 168.953 136.843 168.968 98.4394C168.997 89.2861 167.21 80.218 163.711 71.76C160.211 63.302 155.069 55.6222 148.581 49.1651C142.129 42.6728 134.454 37.5247 125.999 34.0187C117.544 30.5128 108.478 28.7188 99.3249 28.7404V28.7404Z" fill="url(#paint0_linear_1255_4404)"/>
<path fill-rule="evenodd" clip-rule="evenodd" d="M78.3498 63.347C76.7799 59.8597 75.128 59.7891 73.6367 59.7287L69.6219 59.6797C68.2252 59.6797 65.9557 60.2037 64.0372 62.3C62.1187 64.3962 56.7061 69.4625 56.7061 79.7672C56.7061 90.0718 64.2115 100.029 65.2574 101.428C66.3032 102.827 79.7465 124.647 101.036 133.043C118.728 140.019 122.328 138.632 126.169 138.283C130.011 137.935 138.561 133.217 140.305 128.326C142.049 123.435 142.051 119.245 141.528 118.369C141.005 117.493 139.608 116.972 137.512 115.924C135.416 114.876 125.12 109.81 123.2 109.11C121.281 108.411 119.885 108.063 118.487 110.159C117.089 112.256 113.08 116.971 111.858 118.369C110.635 119.767 109.415 119.942 107.319 118.895C105.223 117.848 98.4783 115.636 90.4761 108.501C84.25 102.949 80.0473 96.0928 78.8237 93.9977C77.6002 91.9026 78.6938 90.7679 79.7442 89.7243C80.6841 88.7856 81.8382 87.2784 82.8875 86.0559C83.9367 84.8335 84.2819 83.9597 84.9792 82.5641C85.6764 81.1685 85.3289 79.9426 84.8049 78.8956C84.2808 77.8487 80.2113 67.4905 78.3498 63.3481" fill="white"/>
<defs>
<filter id="filter0_f_1255_4404" x="8.56886" y="8.38331" width="182.477" height="183.231" filterUnits="userSpaceOnUse" color-interpolation-filters="sRGB">
<feFlood flood-opacity="0" result="BackgroundImageFix"/>
<feBlend mode="normal" in="SourceGraphic" in2="BackgroundImageFix" result="shape"/>
<feGaussianBlur stdDeviation="3.531" result="effect1_foregroundBlur_1255_4404"/>
</filter>
<linearGradient id="paint0_linear_1255_4404" x1="97.8792" y1="37.1026" x2="98.5855" y2="156.184" gradientUnits="userSpaceOnUse">
<stop stop-color="#57D163"/>
<stop offset="1" stop-color="#23B33A"/>
</linearGradient>
</defs>
</svg>
