<svg width="286" height="200" viewBox="0 0 286 200" fill="none" xmlns="http://www.w3.org/2000/svg">
<path d="M280.02 31.2324C276.724 18.9323 267.047 9.26623 254.734 5.97366C232.44 1.78814e-06 142.999 0 142.999 0C142.999 0 53.5602 1.78814e-06 31.265 5.97366C18.9521 9.26623 9.27593 18.9323 5.97991 31.2324C1.79001e-06 53.5042 0 100 0 100C0 100 1.79001e-06 146.496 5.97991 168.768C9.27593 181.068 18.9521 190.734 31.265 194.026C53.5602 200 142.999 200 142.999 200C142.999 200 232.44 200 254.734 194.026C267.047 190.734 276.724 181.068 280.02 168.768C286 146.496 286 100 286 100C286 100 285.976 53.5042 280.02 31.2324Z" fill="#FF0000"/>
<path d="M114.253 142.139L188.477 99.5036L114.253 56.8672V142.139Z" fill="white"/>
</svg>
