<svg width="895" height="200" viewBox="0 0 895 200" fill="none" xmlns="http://www.w3.org/2000/svg">
<g clip-path="url(#clip0_1116_5688)">
<path d="M80.6434 199.5H65.3568V-0.5L80.6434 12.2389V199.5Z" fill="url(#paint0_linear_1116_5688)"/>
<path d="M32.2358 199.5H47.5224V38.2646L32.2358 51.0034V199.5Z" fill="url(#paint1_linear_1116_5688)"/>
<path d="M15.6753 199.5H0.388672V89.22L15.6753 76.4811V199.5Z" fill="url(#paint2_linear_1116_5688)"/>
<path d="M145.612 199.5H130.325V76.4811L145.612 89.22V199.5Z" fill="url(#paint3_linear_1116_5688)"/>
<path d="M98.4778 199.5H113.764V51.0034L98.4778 38.2646V199.5Z" fill="url(#paint4_linear_1116_5688)"/>
<path fill-rule="evenodd" clip-rule="evenodd" d="M311.937 143.134V136.258H294.94V142.829C294.94 157.497 299.687 170.6 320.138 170.6C340.59 170.6 346.034 155.817 346.034 140.04C346.034 121.322 341.009 114.179 324.605 101.84C314.973 94.6966 313.507 90.38 313.507 83.0074C313.507 75.6348 314.799 70.7834 320.487 70.7834C326.176 70.7834 327.467 75.5966 327.467 83.2366V88.6992H344.219V82.74C344.219 70.6688 340.66 56 320.871 56C301.083 56 296.72 70.7834 296.72 85.414C296.72 101.878 303.037 107.99 314.799 117.387C326.56 126.785 329.108 130.49 329.108 142.447C329.108 149.666 327.223 156.008 320.801 156.008C314.38 156.008 311.937 151.385 311.937 143.134ZM213.136 168.995L216.94 139.275H233.867L238.194 168.995H255.854L237.531 57.7946H213.659L196 168.995H213.136ZM225.665 74.1059C226.921 86.6737 229.295 104.59 231.807 123.499H219.174C219.512 120.933 219.878 118.188 220.256 115.347L220.257 115.344C222.304 99.9938 224.724 81.8417 225.107 74.1059H225.665ZM440.299 168.995H427.107C426.627 166.246 426.324 163.463 426.199 160.667C423.163 168.078 416.776 170.638 409.726 170.638C393.602 170.638 388.402 158.796 388.402 140.078V87.7054C388.402 69.5604 395.382 56.1904 414.403 56.1904C437.402 56.1904 439.845 73.3423 439.845 85.2989V88.8897H422.849V84.4585C422.849 78.5757 422.011 71.8143 414.298 71.8143C408.121 71.8143 405.503 76.1308 405.503 85.0314V141.911C405.503 150.812 408.051 155.434 414.159 155.434C421.488 155.434 423.268 149.246 423.268 137.786V121.551H413.775V106.805H440.299V168.995ZM499.283 168.995L503.122 139.275H519.909L524.236 168.995H541.826L523.503 57.7944H499.632L482.182 168.995H499.283ZM511.847 74.1058C513.103 86.6736 515.476 104.589 517.989 123.498H505.216C505.554 120.932 505.92 118.186 506.299 115.344L506.299 115.343L506.299 115.341L506.3 115.339C508.346 99.9895 510.766 81.8406 511.149 74.1058H511.847ZM599.618 119.296V168.956H582.727V57.7944H606.11C622.792 57.7944 632.634 64.594 632.634 84.5344V88.7746C632.634 105.85 625.654 110.205 621.5 111.962C627.887 115.018 631.517 119.602 631.517 134.882C631.238 146.277 631.576 157.681 632.529 169.033H616.196C614.96 163.261 615.026 148.831 615.067 139.809C615.073 138.382 615.079 137.091 615.079 135.99C615.079 122.429 613.334 119.335 603.527 119.335L599.618 119.296ZM599.618 105.124H603.492C612.426 105.124 615.707 101.686 615.707 89.615V85.795C615.707 77.2 613.962 71.9666 604.399 71.9666H599.618V105.124ZM701.424 57.7944H678.006V168.995H701.424C727.459 168.995 730.321 150.315 730.321 133.316V90.6846C730.321 70.0184 724.667 57.7944 701.424 57.7944ZM700.482 154.402H695.072V72.5396H700.377C711.545 72.5396 713.29 79.11 713.29 89.3094V135.646C713.29 147.144 711.615 154.402 700.482 154.402ZM792.79 57.7944V168.995H775.898V57.7944H792.79ZM851.352 168.995L855.191 139.275H872.048L876.341 168.995H894L875.678 57.7944H851.806L834.146 168.995H851.352ZM869.142 116.784C869.434 119.003 869.728 121.244 870.024 123.498H857.32C857.531 121.927 857.751 120.288 857.978 118.601C860.121 102.653 862.843 82.3967 863.253 74.1058H863.881C864.988 85.175 866.988 100.393 869.142 116.784Z" fill="#262933"/>
</g>
<defs>
<linearGradient id="paint0_linear_1116_5688" x1="106.121" y1="181.628" x2="106.121" y2="45.7041" gradientUnits="userSpaceOnUse">
<stop stop-color="#FF8A11"/>
<stop offset="1" stop-color="#FFDA6A"/>
</linearGradient>
<linearGradient id="paint1_linear_1116_5688" x1="106.121" y1="181.628" x2="106.121" y2="45.7041" gradientUnits="userSpaceOnUse">
<stop stop-color="#FF8A11"/>
<stop offset="1" stop-color="#FFDA6A"/>
</linearGradient>
<linearGradient id="paint2_linear_1116_5688" x1="106.121" y1="181.628" x2="106.121" y2="45.7041" gradientUnits="userSpaceOnUse">
<stop stop-color="#FF8A11"/>
<stop offset="1" stop-color="#FFDA6A"/>
</linearGradient>
<linearGradient id="paint3_linear_1116_5688" x1="106.121" y1="181.628" x2="106.121" y2="45.7041" gradientUnits="userSpaceOnUse">
<stop stop-color="#FF8A11"/>
<stop offset="1" stop-color="#FFDA6A"/>
</linearGradient>
<linearGradient id="paint4_linear_1116_5688" x1="106.121" y1="181.628" x2="106.121" y2="45.7041" gradientUnits="userSpaceOnUse">
<stop stop-color="#FF8A11"/>
<stop offset="1" stop-color="#FFDA6A"/>
</linearGradient>
<clipPath id="clip0_1116_5688">
<rect width="895" height="200" fill="white"/>
</clipPath>
</defs>
</svg>
