<svg width="500" height="200" viewBox="0 0 500 200" fill="none" xmlns="http://www.w3.org/2000/svg">
<path d="M438.604 118.815C438.604 138.149 424.094 152.745 405.06 152.745C386.215 152.745 371.704 138.149 371.704 118.815C371.704 99.4805 386.215 84.885 405.06 84.885C424.094 84.885 438.604 99.4805 438.604 118.815Z" fill="#5C47C4"/>
<path d="M128.296 118.815C128.296 138.149 113.785 152.744 94.752 152.744C75.9062 152.744 61.3955 138.149 61.3955 118.815C61.3955 99.4803 75.9062 84.8849 94.752 84.8849C113.785 84.8849 128.296 99.4803 128.296 118.815Z" fill="#5C47C4"/>
<path fill-rule="evenodd" clip-rule="evenodd" d="M30 0C13.4316 0 0 13.4314 0 30V170C0 186.568 13.4316 200 30 200H470C486.568 200 500 186.569 500 170V30C500 13.4315 486.568 0 470 0H30ZM455 71.4269H438.604V87.7283C431.066 76.1656 419.006 68.9628 402.987 68.9628C376.792 68.9628 355.309 90.7611 355.309 118.815C355.309 146.868 376.792 168.667 402.987 168.667C419.006 168.667 431.066 161.464 438.604 149.901V166.203H455V71.4269ZM308.937 168.667C280.48 168.667 259.374 146.868 259.374 118.815C259.374 90.761 280.48 68.9626 308.937 68.9626C327.594 68.9626 343.424 78.8192 350.585 93.7938L336.828 101.755C332.116 91.7087 321.563 85.0745 308.937 85.0745C290.092 85.0745 275.77 99.6699 275.77 118.815C275.77 137.77 290.092 152.365 308.937 152.365C321.752 152.365 332.116 145.731 337.394 135.874L351.339 144.025C343.424 158.81 327.405 168.667 308.937 168.667ZM226.069 43.1835C226.069 49.2491 230.969 54.1775 237.188 54.1775C243.218 54.1775 248.118 49.2491 248.118 43.1835C248.118 37.1179 243.218 32 237.188 32C230.969 32 226.069 37.1179 226.069 43.1835ZM228.896 71.4268V166.202H245.291V71.4268H228.896ZM215.138 87.349H190.074V138.717C190.074 152.582 197.755 152.225 213.284 151.503L215.138 151.417V166.202C186.87 169.993 173.679 162.411 173.679 138.717V87.349H155.021V71.4266H173.679V49.8177L190.074 44.8894V71.4266H215.138V87.349ZM144.691 71.4268H128.296V87.7281C120.758 76.1655 108.697 68.9625 92.6787 68.9625C66.4834 68.9625 45 90.761 45 118.815C45 146.868 66.4834 168.667 92.6787 168.667C108.697 168.667 120.758 161.464 128.296 149.901V166.203H144.691V71.4268Z" fill="#5C47C4"/>
</svg>
