<svg width="862" height="200" viewBox="0 0 862 200" fill="none" xmlns="http://www.w3.org/2000/svg">
<g clip-path="url(#clip0_1113_4342)">
<path fill-rule="evenodd" clip-rule="evenodd" d="M185.01 152.663C194.797 136.865 200 118.629 200 100C200 73.4783 189.464 48.043 170.711 29.2893C151.957 10.5357 126.522 0 100 0C80.2219 0 60.8879 5.8649 44.443 16.853C27.9981 27.8412 15.1809 43.459 7.61209 61.7317C0.0433283 80.0043 -1.93701 100.111 1.92152 119.509C5.78004 138.907 15.3041 156.725 29.2894 170.711C43.2746 184.696 61.0929 194.22 80.491 198.079C99.8891 201.937 119.996 199.957 138.268 192.388C156.541 184.819 172.159 172.002 183.147 155.557C183.771 154.622 184.379 153.678 184.971 152.726L185 152.73C185.003 152.707 185.006 152.685 185.01 152.663ZM101.665 12.0157C88.8446 36.5404 79.7023 41.4265 72.9097 45.0001C66.8397 48.2301 62.8397 50.3601 56.8497 76.3201C51.4416 99.7552 36.1602 116.929 15.2424 123.667C17.7332 132.587 21.6298 141.106 26.8307 148.89C27.1222 149.326 27.4173 149.76 27.7161 150.19C34.6053 134.198 54.2918 120.176 83.24 111.27C100.73 105.88 100.1 97.0001 97 77.4301C95.76 69.5801 94.36 60.6701 95 51.5701C95.62 42.8301 99.7 33.5701 106.19 26.1801C110.378 21.4059 115.454 17.5185 121.244 14.6027C114.864 13.0156 108.298 12.1412 101.665 12.0157ZM50.9496 173.062C45.9352 169.696 41.2795 165.821 37.0571 161.5C38.4048 143.815 63.3682 129.937 86.78 122.73C114.97 114.06 111.74 93.5601 108.89 75.5601C107.69 67.9901 106.45 60.1601 107 52.4301C108.332 33.6201 126.393 23.6891 139.215 21.2205C142.543 22.8774 145.776 24.7496 148.89 26.8307C149.314 27.114 149.736 27.4008 150.154 27.6911C140.822 34.8518 127.266 50.1433 128 78.12C128.209 86.1941 130.796 93.8589 133.534 101.972L133.54 101.99L133.541 101.993C139.38 119.332 145.419 137.261 130.74 164.08C123.963 176.498 118.061 181.389 109.389 187.498C105.448 187.921 101.491 188.076 97.5471 187.966C107.136 179.143 118.334 166.219 117.12 154.81C116.65 150.46 114.36 144.5 105.41 140.52C96.4598 136.54 87.6798 136.41 79.2998 140.13C65.0908 146.45 55.6978 162.715 50.9496 173.062ZM140 77.84C139.318 52.1114 153.137 39.8993 159.863 35.4982C166.446 41.6084 172.061 48.6956 176.505 56.5147C167.724 61.3208 158 70.7443 158 85.9999C158 96.7899 162.45 106.33 166.8 115.54C171.278 125.146 175.542 134.296 175.55 145.124C171.85 151.319 167.382 157.068 162.225 162.225C154.096 170.354 144.496 176.771 133.995 181.169C136.418 178.021 138.815 174.344 141.26 169.88C158.413 138.563 150.959 116.277 144.969 98.367L144.91 98.19C142.36 90.64 140.16 84.12 140 77.84ZM183.043 129.119C181.155 122.796 178.462 116.998 175.917 111.519L175.82 111.31C171.8 102.71 168 94.5799 168 85.9999C168 74.8109 175.322 68.5959 180.948 65.4834C181.067 65.7628 181.185 66.043 181.301 66.3239C187.962 82.4038 189.705 100.098 186.309 117.168C185.499 121.24 184.406 125.232 183.043 129.119ZM61.3781 179.072C63.0001 179.864 64.6493 180.608 66.3239 181.301C71.1912 183.318 76.2065 184.883 81.3075 185.992C92.2937 177.372 105.991 163.364 105.21 156.08L105.209 156.074C105.129 155.34 104.918 153.415 100.56 151.48C94.7698 148.91 89.4198 148.78 84.1998 151.1C73.6855 155.763 65.6231 169.568 61.3781 179.072ZM12.8005 111.842C29.1805 106.149 40.7803 92.6015 45.1497 73.6501C51.9997 43.8801 57.9997 39.3501 67.2697 34.4401C72.3615 31.7499 78.4328 28.498 87.4881 12.907C68.7849 15.612 51.3233 24.2845 37.8039 37.8038C21.3064 54.3013 12.0265 76.6691 12 100C12 103.976 12.2694 107.932 12.8005 111.842Z" fill="url(#paint0_linear_1113_4342)"/>
<path d="M736.461 109.786L703.368 147.568V147.78H752.796V152.802H695.745V148.385L732.68 106.035C738.518 99.4407 744.78 92.2715 744.78 81.563C744.78 71.5805 737.339 61.9307 723 61.9307C708.662 61.9307 700.887 72.125 700.887 82.41V82.773H695.291V82.5007C695.291 70.1587 704.457 57 723.061 57C741.059 57 750.648 68.5857 750.648 81.8655C750.648 93.308 743.261 101.889 736.805 109.387L736.461 109.786Z" fill="black"/>
<path d="M318.407 153.043H257V58.9658H318.407V75.0891H276.783V97.9581H315.927V112.992H276.783V136.92H318.407V153.043Z" fill="black"/>
<path fill-rule="evenodd" clip-rule="evenodd" d="M329.207 153.043L360.334 58.9658H384.05L414.875 153.043H393.7L386.743 129.69H356.16L349.112 153.043H329.207ZM371.103 77.6906L360.062 114.989H382.84L371.95 77.6906H371.103Z" fill="black"/>
<path fill-rule="evenodd" clip-rule="evenodd" d="M500.361 89.004C500.361 72.064 489.471 58.9658 466.875 58.9658H428.548V153.043H448.18V118.437H463.698L480.033 153.043H502.237L483.331 115.473C488.514 113.302 492.917 109.61 495.958 104.884C498.999 100.158 500.534 94.621 500.361 89.004ZM463.698 103.766H448.18V74.3328H463.971C473.046 74.3328 479.822 79.3543 479.822 89.4578C479.822 98.8051 473.62 103.766 463.698 103.766Z" fill="black"/>
<path d="M536.571 75.5126H510.193V58.9658H582.914V75.5126H556.506V153.043H536.571V75.5126Z" fill="black"/>
<path d="M654.333 96.8691H616.43V58.9658H596.435V153.043H616.43V113.265H654.333V153.043H674.328V58.9658H654.333V96.8691Z" fill="black"/>
<path d="M778.994 143.212C777.571 143.22 776.209 143.791 775.206 144.8C774.203 145.809 773.64 147.174 773.64 148.597C773.64 149.297 773.779 149.991 774.048 150.637C774.318 151.283 774.714 151.869 775.211 152.362C775.709 152.854 776.3 153.243 776.949 153.505C777.599 153.768 778.294 153.899 778.994 153.891C780.409 153.899 781.769 153.346 782.778 152.355C783.787 151.363 784.362 150.012 784.378 148.597C784.363 147.174 783.79 145.813 782.784 144.807C781.778 143.8 780.417 143.228 778.994 143.212Z" fill="black"/>
<path fill-rule="evenodd" clip-rule="evenodd" d="M800.985 102.829C800.985 73.2442 813.116 57 831.538 57C849.9 57 862 73.335 862 102.829V109.242C862 138.826 849.99 155.01 831.538 155.01C813.085 155.01 800.985 138.826 800.985 109.242V102.829ZM831.538 149.988C846.149 149.988 856.282 135.862 856.282 109.393V102.617C856.282 76.1482 846.239 62.082 831.538 62.082C816.836 62.082 806.703 76.1482 806.703 102.617V109.393C806.703 135.862 816.927 149.988 831.538 149.988Z" fill="black"/>
</g>
<defs>
<linearGradient id="paint0_linear_1113_4342" x1="216.18" y1="158.09" x2="117.01" y2="5.34991" gradientUnits="userSpaceOnUse">
<stop stop-color="#019C85"/>
<stop offset="1" stop-color="#BEDC7C"/>
</linearGradient>
<clipPath id="clip0_1113_4342">
<rect width="862" height="200" fill="white"/>
</clipPath>
</defs>
</svg>
