<svg width="857" height="200" viewBox="0 0 857 200" fill="none" xmlns="http://www.w3.org/2000/svg">
<path d="M100 63.58L1.5 0V102.74H198.5V0L100 63.58Z" fill="black"/>
<path d="M100 200L198.5 102.74L100 63.58L1.5 102.74L100 200Z" fill="#A6A6A6"/>
<path d="M78.3896 178.66L99.9996 200L121.61 178.66L99.9996 157.18L78.3896 178.66Z" fill="black"/>
<path d="M1.5 102.74L100 63.58L198.5 102.74L100 157.18L1.5 102.74Z" fill="#333333"/>
<path d="M236.526 153.951V49.8046H297.044L294.627 65.9177H258.651V95.4172H289.948V111.499H258.651V153.951H236.526Z" fill="black"/>
<path d="M388.362 53.8019C395.448 58.2322 401.015 64.718 404.32 72.394C411.781 91.3098 411.781 112.353 404.32 131.269C400.989 138.928 395.428 145.407 388.362 149.861C380.888 154.348 372.287 156.606 363.572 156.368C354.876 156.593 346.29 154.382 338.783 149.985C331.67 145.56 326.071 139.076 322.732 131.393C318.778 122.072 316.855 112.016 317.092 101.894C316.835 91.89 318.759 81.9505 322.732 72.7659C326.101 65.0175 331.713 58.4556 338.845 53.9259C346.288 49.4166 354.873 47.1468 363.572 47.3877C372.276 47.1356 380.873 49.3599 388.362 53.8019ZM346.468 72.9828C342.605 78.9942 340.673 88.6312 340.673 101.894C340.673 115.156 342.625 124.782 346.53 130.773C348.32 133.651 350.839 136.003 353.833 137.592C356.826 139.181 360.186 139.95 363.572 139.821C366.972 139.995 370.357 139.257 373.375 137.682C376.394 136.107 378.936 133.754 380.739 130.866C384.561 124.875 386.461 115.218 386.441 101.894C386.42 88.5692 384.519 78.9013 380.739 72.8898C378.936 70.0019 376.394 67.6487 373.375 66.0741C370.357 64.4995 366.972 63.7608 363.572 63.9346C360.154 63.7657 356.753 64.5159 353.723 66.1072C350.693 67.6985 348.145 70.0727 346.344 72.9828H346.468Z" fill="black"/>
<path d="M483.988 97.8032L514.386 153.951H489.999L470.602 112.708L451.483 153.951H427.84L457.494 98.5779L430.257 49.8046H454.489L470.881 84.5718L488.047 49.8046H511.535L483.988 97.8032Z" fill="black"/>
<path d="M620.111 153.951V103.691H570.718V154.106H561.701V51.0132H570.718V96.0061H620.111V51.0132H629.129V154.106L620.111 153.951Z" fill="black"/>
<path d="M743.966 121.756C744.398 130.781 741.272 139.616 735.259 146.36C729.433 152.557 721.046 155.656 710.097 155.656C699.149 155.656 690.751 152.557 684.905 146.36C678.845 139.571 675.724 130.656 676.229 121.57V51.0132H685.277V121.136C685.277 129.782 687.291 136.413 691.474 141.03C695.657 145.647 701.762 147.94 710.066 147.94C718.371 147.94 724.723 145.616 728.658 140.937C732.99 135.28 735.125 128.246 734.67 121.136V51.0132H743.966V121.756Z" fill="black"/>
<path d="M849.633 106.789C854.053 110.921 856.264 117.118 856.264 125.382C856.264 135.008 853 142.187 846.472 146.917C839.944 151.648 830.865 154.003 819.235 153.982H791.191V51.0132H814.215C826.145 51.0132 835.348 53.1513 841.824 57.4894C844.983 59.5701 847.543 62.4406 849.249 65.8161C850.956 69.1917 851.751 72.9549 851.554 76.7323C851.841 82.3693 849.981 87.9057 846.348 92.2257C842.757 96.207 837.893 98.8144 832.59 99.6005C838.903 100.075 844.887 102.599 849.633 106.789ZM800.054 58.419V96.192H820.815C826.424 96.4651 831.938 94.6676 836.308 91.1411C838.269 89.4129 839.815 87.2639 840.829 84.8548C841.843 82.4456 842.299 79.8385 842.165 77.2281C842.413 74.4294 841.909 71.6152 840.705 69.0765C839.501 66.5379 837.641 64.367 835.317 62.7882C830.751 59.8754 823.955 58.419 814.927 58.419H800.054ZM846.968 125.382C847.202 122.28 846.704 119.167 845.514 116.293C844.325 113.418 842.477 110.864 840.12 108.835C834.866 105.002 828.456 103.088 821.961 103.412H800.271V146.453H819.389C837.775 146.432 846.968 139.408 846.968 125.382Z" fill="black"/>
</svg>
