<svg width="857" height="200" viewBox="0 0 857 200" fill="none" xmlns="http://www.w3.org/2000/svg">
<path d="M99.6842 63.5789L1 0V102.737H198.368V0L99.6842 63.5789Z" fill="#FF5F38"/>
<path d="M99.6842 200L198.368 102.737L99.6842 63.579L1 102.737L99.6842 200Z" fill="#9F1900"/>
<path d="M78.0264 178.658L99.6843 200L121.342 178.658L99.6843 157.171L78.0264 178.658Z" fill="black"/>
<path d="M1 102.737L99.6842 63.579L198.368 102.737L99.6842 157.171L1 102.737Z" fill="#F02600"/>
<path d="M236.526 153.951V49.8046H297.044L294.627 65.9177H258.651V95.4172H289.948V111.499H258.651V153.951H236.526Z" fill="black"/>
<path d="M388.362 53.8019C395.448 58.2322 401.015 64.718 404.32 72.394C411.781 91.3098 411.781 112.353 404.32 131.269C400.989 138.928 395.428 145.407 388.362 149.861C380.888 154.348 372.287 156.606 363.572 156.368C354.876 156.593 346.29 154.382 338.783 149.985C331.67 145.56 326.071 139.076 322.732 131.393C318.778 122.072 316.855 112.016 317.092 101.894C316.835 91.89 318.759 81.9505 322.732 72.7659C326.101 65.0175 331.713 58.4556 338.845 53.9259C346.288 49.4166 354.873 47.1468 363.572 47.3877C372.276 47.1356 380.873 49.3599 388.362 53.8019ZM346.468 72.9828C342.605 78.9942 340.673 88.6312 340.673 101.894C340.673 115.156 342.625 124.782 346.53 130.773C348.32 133.651 350.839 136.003 353.833 137.592C356.826 139.181 360.186 139.95 363.572 139.821C366.972 139.995 370.357 139.257 373.375 137.682C376.394 136.107 378.936 133.754 380.739 130.866C384.561 124.875 386.461 115.218 386.441 101.894C386.42 88.5692 384.519 78.9013 380.739 72.8898C378.936 70.0019 376.394 67.6487 373.375 66.0741C370.357 64.4995 366.972 63.7608 363.572 63.9346C360.154 63.7657 356.753 64.5159 353.723 66.1072C350.693 67.6985 348.145 70.0727 346.344 72.9828H346.468Z" fill="black"/>
<path d="M483.987 97.8032L514.385 153.951H489.998L470.601 112.708L451.482 153.951H427.839L457.493 98.5779L430.256 49.8046H454.488L470.88 84.5718L488.046 49.8046H511.534L483.987 97.8032Z" fill="black"/>
<path d="M620.112 153.951V103.691H570.719V154.106H561.702V51.0132H570.719V96.0061H620.112V51.0132H629.129V154.106L620.112 153.951Z" fill="black"/>
<path d="M743.967 121.756C744.399 130.781 741.273 139.616 735.26 146.36C729.434 152.557 721.047 155.656 710.098 155.656C699.15 155.656 690.752 152.557 684.906 146.36C678.846 139.571 675.725 130.656 676.23 121.57V51.0132H685.278V121.136C685.278 129.782 687.292 136.413 691.475 141.03C695.658 145.647 701.763 147.94 710.067 147.94C718.372 147.94 724.724 145.616 728.659 140.937C732.991 135.28 735.126 128.246 734.671 121.136V51.0132H743.967V121.756Z" fill="black"/>
<path d="M849.632 106.789C854.052 110.921 856.263 117.118 856.263 125.382C856.263 135.008 852.999 142.187 846.471 146.917C839.943 151.648 830.864 154.003 819.234 153.982H791.19V51.0132H814.214C826.144 51.0132 835.347 53.1513 841.823 57.4894C844.982 59.5701 847.542 62.4406 849.248 65.8161C850.955 69.1917 851.75 72.9549 851.553 76.7323C851.84 82.3693 849.98 87.9057 846.347 92.2257C842.756 96.207 837.892 98.8144 832.589 99.6005C838.902 100.075 844.886 102.599 849.632 106.789ZM800.053 58.419V96.192H820.814C826.423 96.4651 831.937 94.6676 836.307 91.1411C838.268 89.4129 839.814 87.2639 840.828 84.8548C841.842 82.4456 842.299 79.8385 842.164 77.2281C842.412 74.4294 841.908 71.6152 840.704 69.0765C839.5 66.5379 837.64 64.367 835.316 62.7882C830.75 59.8754 823.954 58.419 814.926 58.419H800.053ZM846.967 125.382C847.201 122.28 846.703 119.167 845.513 116.293C844.324 113.418 842.476 110.864 840.119 108.835C834.865 105.002 828.455 103.088 821.96 103.412H800.27V146.453H819.388C837.774 146.432 846.967 139.408 846.967 125.382Z" fill="black"/>
</svg>
