<svg width="848" height="200" viewBox="0 0 848 200" fill="none" xmlns="http://www.w3.org/2000/svg">
<g clip-path="url(#clip0_1113_4340)">
<path d="M100.54 0C40.83 0 0 38 0 100.54C0 160.25 40.83 200 100.54 200C160.25 200 200 160.25 200 100.54C200 38 160.25 0 100.54 0ZM159.93 159.93C156.038 163.806 151.697 167.203 147 170.05V88L129 78V178C122.486 179.941 115.78 181.165 109 181.65V50.15L91 40.15V181.59C84.5628 181.059 78.1966 179.872 72 178.05V84L54 94V170.19C31.29 156.66 18 132.19 18 100.5C18 75.07 25.77 54.02 40.48 39.62C54.94 25.49 75.71 18 100.54 18C125.37 18 145.79 25.46 160 39.56C174.41 53.9 182 74.99 182 100.56C182 125 174.37 145.5 159.93 159.93Z" fill="#F7931E"/>
<path d="M625.95 56.0001H645.93L645.75 146H625.77L625.95 56.0001Z" fill="black"/>
<path d="M635.85 38.9001C632.61 38.9001 629.79 37.7601 627.39 35.4801C625.11 33.0801 623.97 30.2601 623.97 27.0201C623.97 23.7801 625.11 21.0201 627.39 18.7401C629.79 16.4601 632.61 15.3201 635.85 15.3201C639.09 15.3201 641.85 16.4601 644.13 18.7401C646.53 21.0201 647.73 23.7801 647.73 27.0201C647.73 30.2601 646.53 33.0801 644.13 35.4801C641.85 37.7601 639.09 38.9001 635.85 38.9001Z" fill="black"/>
<path d="M665.91 146H686.07V99.0201C686.07 90.5001 687.93 83.9601 691.65 79.4001C695.37 74.8401 700.59 72.6201 707.31 72.7401C711.27 72.7401 714.69 73.5201 717.57 75.0801C720.57 76.6401 722.85 79.4001 724.41 83.3601C726.09 87.2001 726.93 92.7201 726.93 99.9201V146H747.09V94.5201C747.09 80.7201 744.09 70.5201 738.09 63.9201C732.21 57.2001 723.81 53.8401 712.89 53.8401C705.81 53.8401 699.69 55.6401 694.53 59.2401C691.067 61.5756 688.145 64.6679 685.763 68.5168L684.81 56.0001H665.91V146Z" fill="black"/>
<path fill-rule="evenodd" clip-rule="evenodd" d="M780.651 142.22C787.491 146.18 795.291 148.16 804.051 148.16C810.891 148.16 816.951 147.2 822.231 145.28C827.631 143.36 832.251 140.6 836.091 137C840.051 133.4 843.291 129.2 845.811 124.4L827.271 116.48C825.351 120.32 822.651 123.5 819.171 126.02C815.691 128.42 811.251 129.62 805.851 129.62C800.931 129.62 796.431 128.54 792.351 126.38C788.391 124.1 785.211 120.86 782.811 116.66C781.11 113.527 780.044 109.927 779.612 105.86H847.611C847.611 95.0601 845.691 85.7601 841.851 77.9601C838.011 70.1601 832.851 64.2201 826.371 60.1401C820.011 55.9401 812.811 53.8401 804.771 53.8401C795.891 53.8401 787.971 55.8801 781.011 59.9601C774.171 63.9201 768.771 69.4401 764.811 76.5201C760.851 83.6001 758.871 91.7601 758.871 101C758.871 110.24 760.791 118.4 764.631 125.48C768.591 132.56 773.931 138.14 780.651 142.22ZM825.442 89.8401C825.131 88.7032 824.781 87.6232 824.391 86.6001C822.591 81.5601 819.951 77.8401 816.471 75.4401C813.111 72.9201 808.971 71.6601 804.051 71.6601C798.891 71.6601 794.451 72.8001 790.731 75.0801C787.011 77.3601 784.191 80.7201 782.271 85.1601C781.634 86.5944 781.102 88.1544 780.676 89.8401H825.442Z" fill="black"/>
<path d="M585.571 20V146H605.731V20H585.571Z" fill="black"/>
<path fill-rule="evenodd" clip-rule="evenodd" d="M547.803 146L547.081 132.564C544.592 136.517 541.533 139.796 537.903 142.4C532.503 146.24 526.023 148.16 518.463 148.16C510.303 148.16 503.163 146.24 497.043 142.4C491.043 138.44 486.303 132.92 482.823 125.84C479.463 118.76 477.783 110.48 477.783 101C477.783 91.4 479.463 83.12 482.823 76.16C486.303 69.08 491.043 63.62 497.043 59.78C503.163 55.82 510.303 53.84 518.463 53.84C526.023 53.84 532.503 55.82 537.903 59.78C541.447 62.2455 544.447 65.3788 546.903 69.1799V20H566.883V146H547.803ZM543.843 115.94C545.883 111.62 546.903 106.64 546.903 101C546.903 95.36 545.883 90.38 543.843 86.06C541.923 81.74 539.163 78.38 535.563 75.98C532.083 73.58 528.003 72.38 523.323 72.38C518.523 72.38 514.263 73.58 510.543 75.98C506.823 78.38 503.883 81.74 501.723 86.06C499.683 90.38 498.603 95.36 498.483 101C498.603 106.64 499.683 111.62 501.723 115.94C503.883 120.26 506.823 123.68 510.543 126.2C514.383 128.6 518.703 129.8 523.503 129.8C528.063 129.8 532.083 128.6 535.563 126.2C539.163 123.68 541.923 120.26 543.843 115.94Z" fill="black"/>
<path d="M443.884 20V146H464.044V20H443.884Z" fill="black"/>
<path fill-rule="evenodd" clip-rule="evenodd" d="M384.294 148.16C375.294 148.16 367.254 146.18 360.174 142.22C353.214 138.14 347.754 132.56 343.794 125.48C339.834 118.4 337.854 110.24 337.854 101C337.854 91.7601 339.774 83.6001 343.614 76.5201C347.574 69.4401 353.034 63.9201 359.994 59.9601C366.954 55.8801 374.934 53.8401 383.934 53.8401C392.934 53.8401 400.914 55.8801 407.874 59.9601C414.835 63.9201 420.234 69.4401 424.074 76.5201C428.034 83.6001 430.014 91.7601 430.014 101C430.014 110.24 428.094 118.4 424.254 125.48C420.414 132.56 415.014 138.14 408.054 142.22C401.094 146.18 393.174 148.16 384.294 148.16ZM384.294 129.62C389.214 129.62 393.594 128.42 397.434 126.02C401.274 123.5 404.274 120.14 406.434 115.94C408.594 111.62 409.674 106.64 409.674 101C409.674 95.3601 408.535 90.4401 406.255 86.2401C404.094 81.9201 401.094 78.5601 397.254 76.1601C393.414 73.6401 388.974 72.3801 383.934 72.3801C378.894 72.3801 374.454 73.5801 370.614 75.9801C366.774 78.3801 363.774 81.7401 361.614 86.0601C359.454 90.3801 358.374 95.3601 358.374 101C358.374 106.64 359.454 111.62 361.614 115.94C363.894 120.14 366.954 123.5 370.794 126.02C374.754 128.42 379.254 129.62 384.294 129.62Z" fill="black"/>
<path fill-rule="evenodd" clip-rule="evenodd" d="M260.688 182.72C265.848 183.8 271.608 184.34 277.968 184.34C287.208 184.34 295.308 182.48 302.268 178.76C309.228 175.16 314.628 169.76 318.468 162.56C322.308 155.48 324.228 146.84 324.228 136.64V56.0001H304.068V70.5129C301.38 66.0428 298.02 62.4052 293.988 59.6001C288.588 55.7601 282.228 53.8401 274.908 53.8401C266.748 53.8401 259.608 55.7601 253.488 59.6001C247.488 63.4401 242.748 68.7801 239.268 75.6201C235.908 82.4601 234.228 90.5601 234.228 99.9201C234.228 108.68 235.908 116.42 239.268 123.14C242.748 129.74 247.488 134.9 253.488 138.62C259.608 142.34 266.748 144.2 274.908 144.2C282.228 144.2 288.588 142.4 293.988 138.8C298.02 136.083 301.38 132.597 304.068 128.342V137.18C304.068 143.9 302.928 149.42 300.648 153.74C298.368 158.06 295.188 161.24 291.108 163.28C287.028 165.44 282.408 166.52 277.248 166.52C272.448 166.52 268.128 166.04 264.288 165.08C260.448 164.12 257.088 162.98 254.208 161.66C251.448 160.46 249.228 159.44 247.548 158.6L239.808 174.8C241.728 176.12 244.428 177.5 247.908 178.94C251.388 180.38 255.648 181.64 260.688 182.72ZM292.368 123.5C289.008 125.9 285.048 127.1 280.488 127.1C275.688 127.1 271.428 125.9 267.708 123.5C263.988 121.1 261.048 117.86 258.888 113.78C256.848 109.58 255.828 104.78 255.828 99.3801C255.828 93.8601 256.848 89.0601 258.888 84.9801C261.048 80.7801 263.928 77.5401 267.528 75.2601C271.248 72.8601 275.508 71.6601 280.308 71.6601C284.868 71.6601 288.888 72.8601 292.368 75.2601C295.848 77.5401 298.548 80.7801 300.468 84.9801C302.388 89.0601 303.348 93.8601 303.348 99.3801C303.348 104.78 302.388 109.58 300.468 113.78C298.548 117.86 295.848 121.1 292.368 123.5Z" fill="black"/>
</g>
<defs>
<clipPath id="clip0_1113_4340">
<rect width="848" height="200" fill="white"/>
</clipPath>
</defs>
</svg>
