<svg width="855" height="200" viewBox="0 0 855 200" fill="none" xmlns="http://www.w3.org/2000/svg">
<path d="M31 142.35V97.65L73 74.32L115 97.65V142.35L73 165.68L31 142.35Z" fill="black"/>
<path d="M98 53.89V19H111V0H35V19H48V53.89L1 80V160L73 200L145 160V80L98 53.89ZM41 13V6H105V13H41ZM139 156.47L73 193.14L7 156.47V83.53L50.91 59.13L54 57.42V19H92V57.42L95.09 59.13L139 83.53V156.47Z" fill="black"/>
<path d="M71.5 59C75.6421 59 79 55.6421 79 51.5C79 47.3579 75.6421 44 71.5 44C67.3579 44 64 47.3579 64 51.5C64 55.6421 67.3579 59 71.5 59Z" fill="black"/>
<path d="M63.5 33C65.9853 33 68 30.9853 68 28.5C68 26.0147 65.9853 24 63.5 24C61.0147 24 59 26.0147 59 28.5C59 30.9853 61.0147 33 63.5 33Z" fill="black"/>
<path d="M81.25 33C82.4926 33 83.5 31.9926 83.5 30.75C83.5 29.5074 82.4926 28.5 81.25 28.5C80.0074 28.5 79 29.5074 79 30.75C79 31.9926 80.0074 33 81.25 33Z" fill="black"/>
<path d="M92 76C93.6569 76 95 74.6569 95 73C95 71.3431 93.6569 70 92 70C90.3431 70 89 71.3431 89 73C89 74.6569 90.3431 76 92 76Z" fill="black"/>
<path d="M46 84C47.6569 84 49 82.6569 49 81C49 79.3431 47.6569 78 46 78C44.3431 78 43 79.3431 43 81C43 82.6569 44.3431 84 46 84Z" fill="black"/>
<path d="M441.946 105.356L405.375 161H391.901L435.296 96.2572L393.651 35.0142H407.475L441.946 88.0331L476.592 35.0142H490.415L449.12 96.2572L492.34 161H478.691L441.946 105.356Z" fill="black"/>
<path d="M297.704 161V35.0142H381.52V45.163H309.603V90.6578H374.52V100.807H309.603V150.851H383.269V161H297.704Z" fill="black"/>
<path d="M173 161V35.0142H184.899V89.083H259.44V35.0142H271.339V161H259.44V99.2318H184.899V161H173Z" fill="black"/>
<path d="M806.926 161H749.853V35.062H811.027C826.463 35.2899 837.4 39.7612 843.836 48.476C847.709 53.8302 849.646 60.2382 849.646 67.6999C849.646 75.3894 847.709 81.5696 843.836 86.2402C841.671 88.8604 838.482 91.2527 834.267 93.4172C840.703 95.7525 845.545 99.4549 848.791 104.524C852.095 109.594 853.747 115.745 853.747 122.979C853.747 130.441 851.867 137.134 848.108 143.057C845.716 146.988 842.725 150.291 839.137 152.968C835.093 156.044 830.308 158.152 824.783 159.291C819.315 160.43 813.363 161 806.926 161ZM806.328 105.55H774.972V139.127H805.901C811.426 139.127 815.726 138.387 818.802 136.906C824.384 134.172 827.175 128.931 827.175 121.185C827.175 114.635 824.47 110.135 819.058 107.686C816.04 106.319 811.796 105.607 806.328 105.55ZM819.4 81.5411C822.818 79.4905 824.527 75.8166 824.527 70.5194C824.527 64.6525 822.248 60.7793 817.691 58.8996C813.761 57.5895 808.749 56.9345 802.654 56.9345H774.972V84.7023H805.901C811.426 84.7023 815.926 83.6486 819.4 81.5411Z" fill="black"/>
<path d="M698.459 135.112H652.065L643.35 161H615.839L660.78 35.062H690.513L735.112 161H706.576L698.459 135.112ZM691.111 113.41L675.39 63.8551L659.157 113.41H691.111Z" fill="black"/>
<path d="M519.504 35.062H545.819V138.358H608.19V161H519.504V35.062Z" fill="black"/>
</svg>
