<svg width="720" height="200" viewBox="0 0 720 200" fill="none" xmlns="http://www.w3.org/2000/svg">
<g clip-path="url(#clip0_1113_4344)">
<path d="M27.9997 84.88C27.1092 84.5105 26.1893 84.2161 25.2497 84C23.4197 83.57 21.5897 83.12 19.7397 82.74C17.8897 82.36 16.0597 82 14.1997 81.68C12.3397 81.36 10.4997 81.09 8.62974 80.9C7.76248 80.7806 6.88333 81.0107 6.1857 81.5395C5.48806 82.0684 5.02909 82.8527 4.90974 83.72C4.79039 84.5872 5.02045 85.4664 5.5493 86.164C6.07815 86.8616 6.86248 87.3206 7.72974 87.44C9.56974 87.76 11.4397 88 13.3097 88.2C15.1797 88.4 17.0397 88.56 18.9197 88.67C20.7997 88.78 22.6897 88.87 24.5697 88.96C25.5208 89.0113 26.4746 88.9778 27.4197 88.86C28.425 88.7676 29.4137 88.5423 30.3597 88.19C30.5498 88.1163 30.7158 87.9918 30.8397 87.83C31.008 87.5996 31.0792 87.3124 31.038 87.0301C30.9969 86.7477 30.8467 86.4928 30.6197 86.32C29.812 85.7293 28.9314 85.2453 27.9997 84.88Z" fill="url(#paint0_linear_1113_4344)"/>
<path d="M46.0002 51.3501C46.1635 51.2009 46.2614 50.9933 46.2727 50.7724C46.2839 50.5515 46.2075 50.335 46.0602 50.1701C44.4491 48.4199 42.7038 46.7983 40.8402 45.3201C39.0068 43.8534 37.1602 42.4134 35.3002 41.0001C33.4402 39.5601 31.5502 38.1901 29.6602 36.8001C27.7702 35.4101 25.8702 34.0801 23.9402 32.8001L23.6802 32.6401C23.2404 32.3794 22.7531 32.209 22.2468 32.1386C21.7404 32.0683 21.2252 32.0996 20.731 32.2305C20.2369 32.3614 19.7737 32.5895 19.3687 32.9013C18.9636 33.2132 18.6247 33.6025 18.3717 34.0468C18.1187 34.491 17.9567 34.9811 17.8952 35.4886C17.8336 35.9961 17.8738 36.5108 18.0133 37.0026C18.1528 37.4944 18.3888 37.9535 18.7076 38.3531C19.0264 38.7527 19.4216 39.0848 19.8702 39.3301C21.8702 40.4901 23.9302 41.6301 26.0102 42.7001C28.0902 43.7701 30.1502 44.8801 32.2502 45.9201C34.3502 46.9601 36.4402 48.0001 38.5702 49.0001C40.7153 50.0207 42.9351 50.8765 45.2102 51.5601C45.349 51.5916 45.4934 51.5889 45.631 51.5524C45.7686 51.5158 45.8953 51.4464 46.0002 51.3501Z" fill="url(#paint1_linear_1113_4344)"/>
<path d="M67.7299 16.42C68.7999 18.19 69.9199 19.93 71.0499 21.67C72.2529 23.4536 73.7042 25.0564 75.3599 26.43C75.5689 26.5907 75.8264 26.6753 76.0899 26.67C76.237 26.6662 76.3819 26.6333 76.5163 26.5734C76.6507 26.5135 76.772 26.4277 76.8732 26.3209C76.9745 26.2141 77.0537 26.0884 77.1063 25.951C77.1589 25.8136 77.1839 25.6671 77.1799 25.52C77.0951 23.3706 76.6976 21.2449 75.9999 19.21C75.2999 17.26 74.5799 15.31 73.8099 13.39C72.3189 9.54229 70.6163 5.77988 68.7099 2.12004C68.2271 1.25481 67.4292 0.609061 66.4824 0.317133C65.5355 0.0252055 64.5125 0.109579 63.6263 0.5527C62.74 0.99582 62.0588 1.76357 61.7242 2.69622C61.3896 3.62887 61.4275 4.65461 61.8299 5.56004C63.5952 9.28587 65.5649 12.9114 67.7299 16.42Z" fill="url(#paint2_linear_1113_4344)"/>
<path d="M121.12 26.43C122.513 24.8351 123.818 23.166 125.03 21.43C126.24 19.73 127.38 17.99 128.49 16.24C129.6 14.49 130.67 12.73 131.72 10.95C132.77 9.16998 133.72 7.35998 134.72 5.51998C135.176 4.60631 135.251 3.54884 134.927 2.58022C134.604 1.61159 133.909 0.811148 132.995 0.354976C132.081 -0.101196 131.024 -0.175731 130.055 0.147769C129.087 0.47127 128.286 1.16631 127.83 2.07998C126.91 3.92998 126.09 5.81998 125.28 7.71998C124.47 9.61998 123.73 11.55 123.01 13.49C122.29 15.43 121.57 17.38 120.95 19.37C120.306 21.3762 119.772 23.4159 119.35 25.48C119.306 25.6609 119.314 25.8503 119.373 26.0269C119.431 26.2036 119.537 26.3605 119.68 26.48C119.777 26.5736 119.891 26.6468 120.017 26.6951C120.142 26.7434 120.276 26.7659 120.411 26.7613C120.545 26.7566 120.677 26.7249 120.799 26.6679C120.921 26.611 121.03 26.5301 121.12 26.43Z" fill="url(#paint3_linear_1113_4344)"/>
<path d="M173.81 38.0801C174.198 37.7564 174.519 37.3592 174.755 36.9114C174.99 36.4636 175.135 35.9738 175.181 35.4701C175.227 34.9663 175.173 34.4584 175.023 33.9754C174.872 33.4924 174.628 33.0438 174.305 32.6551C173.981 32.2663 173.584 31.9452 173.136 31.71C172.688 31.4747 172.198 31.33 171.695 31.284C171.191 31.238 170.683 31.2917 170.2 31.4421C169.717 31.5924 169.268 31.8363 168.88 32.1601C167.24 33.5301 165.61 34.9401 164.01 36.3701C162.41 37.8001 160.83 39.2701 159.26 40.7501C157.69 42.2301 156.13 43.7501 154.6 45.2301C153.031 46.7727 151.596 48.4454 150.31 50.2301C150.232 50.3428 150.183 50.4723 150.165 50.608C150.148 50.7436 150.163 50.8815 150.21 51.0101C150.288 51.2182 150.446 51.3871 150.647 51.4806C150.849 51.5741 151.08 51.5847 151.29 51.5101C153.342 50.7352 155.326 49.7885 157.22 48.6801C159.08 47.5901 160.93 46.4701 162.76 45.3401C164.59 44.2101 166.42 43.0601 168.22 41.8901C170.02 40.7201 171.8 39.5201 173.56 38.2901L173.81 38.0801Z" fill="url(#paint4_linear_1113_4344)"/>
<path d="M194.819 80.8499C194.68 80.4394 194.46 80.0605 194.174 79.7348C193.888 79.409 193.54 79.1429 193.151 78.9516C192.762 78.7603 192.339 78.6475 191.906 78.6198C191.474 78.5921 191.04 78.6499 190.629 78.7899C188.749 79.4399 186.899 80.1699 185.059 80.9399C183.219 81.7099 181.399 82.4999 179.589 83.3399C177.779 84.1799 175.979 85.0499 174.179 85.9199C173.267 86.3532 172.391 86.8581 171.559 87.4299C170.678 87.997 169.869 88.6686 169.149 89.4299C168.986 89.5975 168.887 89.8169 168.869 90.0499C168.853 90.195 168.866 90.3419 168.908 90.4818C168.949 90.6217 169.019 90.7516 169.113 90.8638C169.206 90.976 169.321 91.068 169.451 91.1344C169.581 91.2008 169.724 91.2401 169.869 91.2499C170.922 91.3496 171.983 91.3228 173.029 91.1699C174.043 91.0386 175.046 90.8314 176.029 90.5499C177.949 89.9999 179.879 89.4699 181.779 88.8799C183.679 88.2899 185.579 87.6799 187.459 87.0299C189.339 86.3799 191.139 85.7299 192.999 84.9999C193.775 84.6713 194.396 84.0583 194.734 83.2867C195.073 82.5151 195.103 81.6433 194.819 80.8499Z" fill="url(#paint5_linear_1113_4344)"/>
<path d="M133.859 45.61C131.169 43.8662 128.343 42.3413 125.409 41.05C122.487 39.8015 119.479 38.7622 116.409 37.94C113.356 37.1637 110.256 36.5826 107.129 36.2C105.579 36.06 104.019 35.86 102.469 35.82L100.139 35.72H97.7193C91.3034 35.8969 84.9542 37.071 78.8993 39.2C72.8068 41.3491 67.1004 44.4657 61.9993 48.43C56.8599 52.4473 52.5155 57.3886 49.1893 63C47.5536 65.8114 46.1875 68.7712 45.1093 71.84C44.0831 74.8897 43.3171 78.0209 42.8193 81.2C41.8641 87.4688 41.9249 93.8505 42.9993 100.1C44.1376 106.307 46.4052 112.252 49.6893 117.64C52.8864 122.878 56.9432 127.54 61.6893 131.43C66.3502 135.283 71.655 138.282 77.3593 140.29C82.7141 142.07 88.3943 142.654 93.9993 142C96.4561 141.779 98.8828 141.299 101.239 140.57C105.766 139.002 109.974 136.631 113.659 133.57C117.379 130.524 120.598 126.913 123.199 122.87C125.905 118.718 127.764 114.072 128.669 109.2C129.125 106.66 129.226 104.068 128.969 101.5C128.708 98.8736 128.033 96.3052 126.969 93.89C125.894 91.4904 124.465 89.2657 122.729 87.29C120.859 85.1049 118.483 83.4092 115.809 82.35C113.024 81.3074 109.99 81.1228 107.099 81.82C104.859 82.3762 102.734 83.3205 100.819 84.61C99.2805 82.8429 97.4714 81.3308 95.4593 80.13C94.2665 79.4408 92.9844 78.9192 91.6493 78.58C90.3436 78.2289 89.0009 78.0342 87.6493 78C84.9219 77.902 82.2142 78.4972 79.7793 79.73C77.306 80.9738 75.2437 82.9042 73.8393 85.29C72.4606 87.6426 71.7678 90.3341 71.8393 93.06C71.918 95.6357 72.5345 98.1666 73.6493 100.49C74.7464 102.729 76.2252 104.759 78.0193 106.49C79.7152 108.105 81.5451 109.574 83.4893 110.88C85.3693 112.17 87.2793 113.35 89.0393 114.65C90.8262 115.868 92.361 117.42 93.5593 119.22C94.1173 120.142 94.5004 121.159 94.6893 122.22C94.8395 123.325 94.8395 124.445 94.6893 125.55C95.0377 124.457 95.2164 123.317 95.2193 122.17C95.1944 120.989 94.9503 119.822 94.4993 118.73C93.5087 116.586 92.0776 114.674 90.2993 113.12C86.9593 109.93 83.2993 107.31 80.5893 104.12C79.2636 102.575 78.221 100.808 77.5093 98.9C76.8383 97.0772 76.5292 95.1411 76.5993 93.2C76.7037 91.3422 77.3046 89.5464 78.3393 88C79.3276 86.547 80.6885 85.3865 82.2793 84.64C83.9098 83.902 85.6914 83.5594 87.4793 83.64C89.2702 83.7158 91.0192 84.2052 92.5893 85.07C94.0153 85.9491 95.3197 87.0115 96.4693 88.23C95.7549 88.9889 95.087 89.7904 94.4693 90.63C92.8831 92.7111 91.6871 95.0624 90.9393 97.57C90.5177 99.0099 90.3952 100.521 90.5793 102.01C90.7026 102.885 90.9874 103.729 91.4193 104.5C91.8827 105.287 92.5061 105.969 93.2493 106.5C94.5536 107.467 96.1092 108.036 97.7293 108.14C99.4099 108.21 101.068 107.729 102.449 106.77C103.695 105.893 104.722 104.739 105.449 103.4C106.148 102.132 106.602 100.745 106.789 99.31C106.977 97.8899 106.913 96.4477 106.599 95.05C106.304 93.7725 105.885 92.5267 105.349 91.33C105.129 90.85 104.889 90.33 104.639 89.91C105.855 89.2921 107.161 88.8734 108.509 88.67C110.05 88.4373 111.625 88.6489 113.049 89.28C114.534 89.9727 115.838 90.9995 116.859 92.28C118.06 93.7127 119.069 95.2961 119.859 96.99C121.449 100.457 122.071 104.289 121.659 108.08C121.158 112.125 119.899 116.04 117.949 119.62C110.599 133.81 94.0793 141.7 79.6093 134.68C74.9305 132.355 70.7095 129.204 67.1493 125.38C63.6376 121.643 60.7294 117.382 58.5293 112.75C56.4416 108.25 55.1879 103.408 54.8293 98.46C54.5929 93.5894 55.1124 88.7115 56.3693 84C57.6163 79.3919 59.5731 75.0061 62.1693 71C64.7125 67.0253 67.8798 63.4866 71.5493 60.52C75.3044 57.5395 79.5104 55.1765 84.0093 53.52C88.5463 51.8834 93.3094 50.9591 98.1293 50.78H99.9293L101.799 50.83C103.049 50.83 104.279 50.98 105.529 51.05C107.978 51.3062 110.409 51.7102 112.809 52.26C122.349 54.3499 130.866 59.6874 136.907 67.3606C142.948 75.0338 146.137 84.5665 145.929 94.33C145.805 104.359 142.515 114.092 136.529 122.14C133.513 126.208 129.972 129.859 125.999 133C123.98 134.614 121.873 136.117 119.689 137.5C117.499 138.883 115.232 140.142 112.899 141.27C107.933 143.478 102.841 145.392 97.6493 147C92.3193 148.8 86.8293 150.5 81.3593 153.31C78.3324 154.74 75.6355 156.783 73.4393 159.31C72.173 160.83 71.2945 162.635 70.8793 164.57C70.6341 165.687 70.5968 166.839 70.7693 167.97C70.9676 169.168 71.4249 170.307 72.1093 171.31C72.8597 172.362 73.7908 173.273 74.8593 174C74.2621 175.397 73.9854 176.909 74.0494 178.427C74.1134 179.945 74.5166 181.429 75.2293 182.77C76.0128 184.237 77.0029 185.584 78.1693 186.77C78.7215 187.352 79.3093 187.9 79.9293 188.41C80.3693 188.76 80.8393 189.07 81.3093 189.41C80.8527 190.035 80.4607 190.705 80.1393 191.41C79.4362 192.919 79.2669 194.622 79.6593 196.24C79.8831 196.99 80.2204 197.702 80.6593 198.35C81.0718 198.958 81.5589 199.513 82.1093 200C81.4992 198.789 81.2034 197.445 81.2493 196.09C81.3447 194.895 81.8214 193.763 82.6093 192.86C83.1302 192.224 83.7358 191.662 84.4093 191.19C86.2902 192.137 88.2597 192.898 90.2893 193.46C93.1777 194.252 96.14 194.745 99.1293 194.93C102.158 195.153 105.201 195.022 108.199 194.54C108.969 194.4 109.749 194.23 110.569 194C111.486 193.743 112.369 193.377 113.199 192.91C113.884 192.525 114.48 192 114.949 191.37C115.381 190.783 115.653 190.094 115.739 189.37C115.782 188.918 115.748 188.461 115.639 188.02C115.621 187.918 115.595 187.817 115.559 187.72L115.499 187.53C115.17 186.5 114.67 185.533 114.019 184.67C112.762 183.119 111.111 181.935 109.239 181.24C107.636 180.633 105.95 180.273 104.239 180.17C101.116 179.959 97.9789 180.273 94.9593 181.1C92.0003 181.87 89.1726 183.077 86.5693 184.68C85.9193 185.09 85.2793 185.54 84.6593 186.02L84.4593 185.9C83.4725 185.195 82.555 184.398 81.7193 183.52C80.9522 182.671 80.3244 181.706 79.8593 180.66C79.5432 180.007 79.3791 179.291 79.3791 178.565C79.3791 177.839 79.5432 177.123 79.8593 176.47C80.3393 176.63 80.8593 176.78 81.3093 176.92C84.2535 177.726 87.2666 178.255 90.3093 178.5C96.2463 179.012 102.226 178.706 108.079 177.59C111.239 177.046 114.308 176.067 117.199 174.68C118.115 174.218 118.974 173.651 119.759 172.99C120.002 172.783 120.232 172.563 120.449 172.33C120.707 172.062 120.945 171.774 121.159 171.47C121.417 171.119 121.642 170.744 121.829 170.35C122.226 169.492 122.428 168.556 122.419 167.61C122.446 167.277 122.446 166.943 122.419 166.61C122.34 165.865 122.148 165.137 121.849 164.45C121.291 163.158 120.41 162.032 119.289 161.18C118.413 160.516 117.442 159.986 116.409 159.61C115.545 159.289 114.655 159.042 113.749 158.87C112.13 158.567 110.486 158.417 108.839 158.42C105.786 158.422 102.74 158.733 99.7493 159.35C93.8266 160.461 88.1419 162.592 82.9493 165.65C81.5869 166.489 80.2959 167.439 79.0893 168.49C78.6481 168.234 78.2609 167.894 77.9493 167.49C77.7193 167.06 77.6793 166.92 77.8293 166.17C78.0296 165.327 78.431 164.544 78.9993 163.89C80.6297 162.299 82.5699 161.06 84.6993 160.25C89.7489 158.344 94.9247 156.79 100.189 155.6C105.847 154.283 111.423 152.637 116.889 150.67C119.701 149.556 122.439 148.267 125.089 146.81C127.752 145.366 130.318 143.75 132.769 141.97C137.751 138.368 142.205 134.087 145.999 129.25C149.844 124.333 152.913 118.856 155.099 113.01C157.285 107.115 158.527 100.912 158.779 94.63C159.35 81.7792 155.504 69.1203 147.879 58.76C144.034 53.5698 139.285 49.1153 133.859 45.61ZM101.649 98.76C101.613 99.5344 101.411 100.292 101.058 100.982C100.704 101.672 100.207 102.278 99.5993 102.76C99.0974 103.12 98.4862 103.295 97.8699 103.255C97.2536 103.214 96.6703 102.962 96.2193 102.54C96.0492 102.393 95.9115 102.212 95.8151 102.009C95.7187 101.806 95.6656 101.585 95.6593 101.36C95.6177 100.595 95.7334 99.8289 95.9993 99.11C96.6749 97.3317 97.6944 95.7041 98.9993 94.32C99.3588 93.9105 99.7393 93.52 100.139 93.15C100.239 93.33 100.349 93.51 100.439 93.69C100.859 94.5315 101.194 95.4125 101.439 96.32C101.658 97.1137 101.729 97.9406 101.649 98.76ZM109.859 187.45C109.929 187.42 109.999 187.35 109.859 187.45V187.45ZM103.639 186.58C104.729 186.705 105.8 186.96 106.829 187.34C107.35 187.537 107.839 187.81 108.279 188.15C107.859 188.3 107.409 188.43 106.949 188.55C101.87 189.752 96.5881 189.82 91.4793 188.75C90.9893 188.64 90.4793 188.51 90.0393 188.37C94.3936 186.812 99.0302 186.202 103.639 186.58ZM114.169 167.51C114.169 167.63 114.279 167.64 114.169 167.51V167.51ZM100.919 166.44C103.456 166.087 106.021 165.97 108.579 166.09C109.739 166.146 110.89 166.311 112.019 166.58C112.479 166.689 112.927 166.84 113.359 167.03C112.325 167.512 111.251 167.903 110.149 168.2C108.969 168.54 107.719 168.84 106.449 169.09C101.267 170.075 96.0041 170.57 90.7293 170.57C89.5093 170.57 88.2893 170.57 87.0993 170.42C91.4753 168.394 96.1362 167.052 100.919 166.44Z" fill="url(#paint6_linear_1113_4344)"/>
<path d="M288.704 166.109C288.88 166.168 289.026 166.197 289.144 166.197C290.257 166.197 291.312 165.729 292.308 164.791C293.304 163.912 293.802 162.799 293.802 161.451C293.802 160.396 293.45 159.43 292.747 158.551C292.044 157.672 291.136 157.145 290.022 156.969C287.854 156.5 285.716 156.148 283.606 155.914L277.454 155.035L277.63 81.9102C277.63 80.7383 277.19 79.7129 276.312 78.834C275.433 77.8965 274.319 77.4277 272.972 77.4277H272.005C269.778 77.9551 267.317 78.3359 264.622 78.5703C261.927 78.7461 259.173 78.834 256.36 78.834C253.548 78.834 250.823 78.7754 248.187 78.6582C245.55 78.4824 243.177 78.3066 241.067 78.1309C239.017 77.9551 237.347 77.8086 236.058 77.6914C234.769 77.5156 234.095 77.4277 234.036 77.4277H233.509C232.513 77.4277 231.487 77.8086 230.433 78.5703C229.378 79.332 228.851 80.4453 228.851 81.9102C228.851 83.082 229.202 84.1074 229.905 84.9863C230.667 85.8652 231.634 86.3926 232.806 86.5684C233.099 86.5684 234.505 86.7148 237.024 87.0078C239.544 87.3008 242.649 87.5352 246.341 87.7109V155.035C244.349 155.328 242.298 155.621 240.188 155.914C238.138 156.148 236.087 156.5 234.036 156.969C232.981 157.145 232.103 157.672 231.399 158.551C230.755 159.43 230.433 160.396 230.433 161.451C230.433 162.623 230.843 163.707 231.663 164.703C232.542 165.699 233.655 166.197 235.003 166.197C235.179 166.197 235.325 166.168 235.442 166.109C235.56 166.051 235.706 166.021 235.882 166.021C240.569 165.084 245.022 164.41 249.241 164C253.46 163.531 257.708 163.297 261.985 163.297C266.204 163.297 270.452 163.531 274.729 164C279.007 164.41 283.519 165.084 288.265 166.021C288.44 166.021 288.587 166.051 288.704 166.109Z" fill="black"/>
<path d="M275.169 56.7734C275.989 54.8398 276.399 52.7891 276.399 50.6211C276.399 48.4531 275.989 46.4316 275.169 44.5566C274.349 42.623 273.206 40.9531 271.741 39.5469C270.335 38.1406 268.665 37.0273 266.731 36.207C264.856 35.3867 262.835 34.9766 260.667 34.9766C258.499 34.9766 256.448 35.3867 254.515 36.207C252.64 37.0273 250.999 38.1406 249.593 39.5469C248.187 40.9531 247.073 42.623 246.253 44.5566C245.433 46.4316 245.022 48.4531 245.022 50.6211C245.022 52.7891 245.433 54.8398 246.253 56.7734C247.073 58.6484 248.187 60.2891 249.593 61.6953C250.999 63.1016 252.64 64.2148 254.515 65.0352C256.448 65.8555 258.499 66.2656 260.667 66.2656C262.835 66.2656 264.856 65.8555 266.731 65.0352C268.665 64.2148 270.335 63.1016 271.741 61.6953C273.206 60.2891 274.349 58.6484 275.169 56.7734Z" fill="black"/>
<path fill-rule="evenodd" clip-rule="evenodd" d="M405.209 163.648H404.857C403.393 163.531 401.928 163.443 400.463 163.385C399.057 163.326 397.68 163.297 396.332 163.297C392.582 163.297 389.066 163.473 385.785 163.824C382.504 164.176 379.633 164.557 377.172 164.967C374.77 165.436 372.836 165.846 371.371 166.197C369.965 166.549 369.232 166.725 369.174 166.725C368.998 166.842 368.793 166.9 368.559 166.9H367.943C366.596 166.9 365.482 166.402 364.604 165.406C363.725 164.469 363.285 163.414 363.285 162.242V147.301C361.938 150.113 360.209 152.721 358.1 155.123C356.049 157.525 353.734 159.605 351.156 161.363C348.578 163.121 345.736 164.498 342.631 165.494C339.584 166.549 336.391 167.076 333.051 167.076C327.426 167.076 322.416 165.934 318.021 163.648C313.627 161.363 309.877 158.316 306.771 154.508C303.725 150.641 301.381 146.158 299.74 141.061C298.1 135.963 297.25 130.602 297.191 124.977C297.191 120.582 297.543 116.275 298.246 112.057C299.008 107.779 300.15 103.736 301.674 99.9277C303.197 96.0605 305.072 92.4863 307.299 89.2051C309.584 85.9238 312.25 83.1113 315.297 80.7676C318.344 78.3652 321.771 76.4902 325.58 75.1426C329.389 73.7949 333.607 73.1211 338.236 73.1211C343.334 73.1211 347.992 73.8828 352.211 75.4062C356.43 76.9297 360.121 79.0391 363.285 81.7344V46.3145C359.652 46.1387 356.576 45.9043 354.057 45.6113C351.596 45.3184 350.219 45.1719 349.926 45.1719C348.754 44.9961 347.758 44.4688 346.938 43.5898C346.176 42.7109 345.795 41.6855 345.795 40.5137C345.795 39.2246 346.264 38.1699 347.201 37.3496C348.197 36.4707 349.281 36.0312 350.453 36.0312H350.98C351.039 36.0312 351.713 36.1191 353.002 36.2949C354.291 36.4121 355.961 36.5586 358.012 36.7344C360.121 36.9102 362.523 37.0859 365.219 37.2617C367.914 37.3789 370.668 37.4375 373.48 37.4375C376.234 37.4375 378.93 37.3496 381.566 37.1738C384.262 36.9395 386.723 36.5586 388.949 36.0312H390.092C391.439 36.0312 392.523 36.5 393.344 37.4375C394.164 38.3164 394.574 39.3418 394.574 40.5137V154.068H396.332C397.855 154.068 399.379 154.098 400.902 154.156C402.484 154.156 404.037 154.244 405.561 154.42C406.85 154.537 407.875 155.035 408.637 155.914C409.457 156.793 409.867 157.818 409.867 158.99C409.867 160.396 409.34 161.539 408.285 162.418C407.289 163.238 406.264 163.648 405.209 163.648ZM363.285 97.7305C362.406 95.0938 361.088 92.8086 359.33 90.875C357.572 88.9414 355.551 87.3301 353.266 86.041C351.039 84.752 348.637 83.8145 346.059 83.2285C343.48 82.584 340.873 82.2617 338.236 82.2617C334.252 82.2617 330.707 82.9062 327.602 84.1953C324.496 85.4258 321.771 87.125 319.428 89.293C317.084 91.4023 315.062 93.8926 313.363 96.7637C311.723 99.5762 310.375 102.564 309.32 105.729C308.266 108.834 307.504 112.027 307.035 115.309C306.566 118.59 306.332 121.754 306.332 124.801C306.391 129.078 306.977 133.209 308.09 137.193C309.262 141.119 310.961 144.635 313.188 147.74C315.473 150.787 318.227 153.248 321.449 155.123C324.73 156.939 328.51 157.848 332.787 157.848C336.713 157.848 340.199 156.939 343.246 155.123C346.293 153.248 348.959 150.904 351.244 148.092C353.588 145.279 355.551 142.203 357.133 138.863C358.715 135.465 359.975 132.242 360.912 129.195C361.85 126.09 362.494 123.365 362.846 121.021C363.256 118.619 363.402 117.037 363.285 116.275V97.7305Z" fill="black"/>
<path fill-rule="evenodd" clip-rule="evenodd" d="M497.895 124.977C499.359 123.863 500.18 122.545 500.355 121.021C500.355 120.787 500.385 120.26 500.443 119.439C500.502 118.561 500.531 117.389 500.531 115.924C500.531 109.537 499.74 103.795 498.158 98.6973C496.635 93.541 494.262 89.1465 491.039 85.5137C487.816 81.8809 483.686 79.0391 478.646 76.9883C473.666 74.9375 467.719 73.7656 460.805 73.4727C453.48 73.4727 446.889 74.5273 441.029 76.6367C435.17 78.6875 430.189 81.7344 426.088 85.7773C421.986 89.7617 418.822 94.6836 416.596 100.543C414.369 106.344 413.256 112.965 413.256 120.406C413.256 127.203 414.516 133.531 417.035 139.391C419.613 145.25 423.129 150.348 427.582 154.684C432.035 159.02 437.279 162.418 443.314 164.879C449.35 167.398 455.883 168.658 462.914 168.658C465.375 168.658 468.1 168.424 471.088 167.955C474.076 167.545 477.035 166.842 479.965 165.846C482.895 164.908 485.619 163.678 488.139 162.154C490.658 160.631 492.621 158.785 494.027 156.617C494.789 155.914 495.17 154.947 495.17 153.717C495.17 152.545 494.701 151.49 493.764 150.553C492.826 149.557 491.742 149.059 490.512 149.059C489.105 149.059 487.904 149.645 486.908 150.816C486.029 152.105 484.828 153.277 483.305 154.332C481.781 155.328 480.111 156.207 478.295 156.969C476.479 157.672 474.633 158.229 472.758 158.639C470.883 158.99 469.213 159.166 467.748 159.166C463.764 159.166 460.365 158.316 457.553 156.617C454.74 154.859 452.396 152.604 450.521 149.85C448.646 147.037 447.211 143.873 446.215 140.357C445.219 136.842 444.545 133.268 444.193 129.635C446.537 130.279 449.496 130.895 453.07 131.48C456.703 132.066 460.658 132.359 464.936 132.359C466.166 132.359 467.865 132.301 470.033 132.184C472.201 132.008 474.574 131.744 477.152 131.393C479.73 131.041 482.338 130.602 484.975 130.074C487.67 129.488 490.131 128.785 492.357 127.965C494.584 127.086 496.43 126.09 497.895 124.977ZM491.391 116.1V117.594C487.582 119.293 483.48 120.611 479.086 121.549C474.75 122.486 470.092 122.955 465.111 122.955C462.768 122.955 460.512 122.867 458.344 122.691C456.234 122.457 454.271 122.193 452.455 121.9C450.639 121.549 448.998 121.197 447.533 120.846C446.127 120.494 444.955 120.172 444.018 119.879C444.076 117.594 444.252 115.162 444.545 112.584C444.838 109.947 445.277 107.34 445.863 104.762C446.508 102.125 447.357 99.5762 448.412 97.1152C449.467 94.6543 450.785 92.457 452.367 90.5234C454.008 88.5312 455.971 86.8613 458.256 85.5137C460.541 84.166 463.236 83.3164 466.342 82.9648C470.795 83.6094 474.604 84.8691 477.768 86.7441C480.932 88.6191 483.51 91.0215 485.502 93.9512C487.553 96.8223 489.047 100.133 489.984 103.883C490.922 107.633 491.391 111.705 491.391 116.1Z" fill="black"/>
<path fill-rule="evenodd" clip-rule="evenodd" d="M610.443 163.648H610.092C609.096 163.531 608.07 163.473 607.016 163.473H603.939C598.432 163.473 593.129 163.824 588.031 164.527C582.992 165.23 577.924 166.314 572.826 167.779C572.65 167.779 572.475 167.809 572.299 167.867C572.123 167.926 571.889 167.955 571.596 167.955C570.248 167.955 569.135 167.428 568.256 166.373C567.436 165.377 567.025 164.352 567.025 163.297V162.594C567.025 162.477 567.172 161.305 567.465 159.078C567.758 156.793 568.051 153.629 568.344 149.586C565.824 152.398 563.129 155.035 560.258 157.496C557.445 159.898 554.457 162.008 551.293 163.824C548.188 165.582 544.965 166.959 541.625 167.955C538.285 169.01 534.828 169.537 531.254 169.537C528.441 169.537 525.717 169.098 523.08 168.219C520.443 167.398 518.1 166.197 516.049 164.615C514.057 163.033 512.445 161.129 511.215 158.902C510.043 156.617 509.457 154.068 509.457 151.256C509.457 146.861 510.395 142.994 512.27 139.654C514.203 136.314 516.723 133.414 519.828 130.953C522.934 128.434 526.449 126.354 530.375 124.713C534.359 123.014 538.402 121.666 542.504 120.67C546.605 119.615 550.59 118.883 554.457 118.473C558.324 118.004 561.752 117.77 564.74 117.77H566.85C566.85 114.195 566.205 110.709 564.916 107.311C563.686 103.912 561.928 100.895 559.643 98.2578C557.416 95.6211 554.75 93.5117 551.645 91.9297C548.539 90.2891 545.111 89.4688 541.361 89.4688C538.607 89.4688 535.912 90.2598 533.275 91.8418C530.639 93.3652 528.295 95.3281 526.244 97.7305C524.193 100.133 522.523 102.828 521.234 105.816C520.004 108.805 519.389 111.705 519.389 114.518C519.389 115.689 518.891 116.686 517.895 117.506C516.957 118.268 515.902 118.648 514.73 118.648C513.441 118.648 512.328 118.18 511.391 117.242C510.453 116.246 509.984 115.162 509.984 113.99C509.984 111.178 510.482 108.248 511.479 105.201C512.475 102.096 513.91 99.0781 515.785 96.1484C517.719 93.1602 520.033 90.3477 522.729 87.7109C525.482 85.0742 528.588 82.7598 532.045 80.7676C535.561 78.7168 539.398 77.1055 543.559 75.9336C547.719 74.7617 552.143 74.1758 556.83 74.1758C563.393 74.1758 568.988 75.2012 573.617 77.252C578.305 79.3027 582.201 82.0859 585.307 85.6016C588.471 89.1172 590.961 93.1895 592.777 97.8184C594.594 102.447 595.971 107.34 596.908 112.496C597.846 117.652 598.432 122.896 598.666 128.229C598.959 133.561 599.105 138.658 599.105 143.521C599.105 145.982 599.076 148.092 599.018 149.85C598.959 151.607 598.93 153.072 598.93 154.244C599.809 154.244 600.688 154.215 601.566 154.156C602.504 154.098 603.412 154.068 604.291 154.068C605.287 154.068 606.312 154.098 607.367 154.156C608.48 154.215 609.564 154.244 610.619 154.244C611.908 154.361 612.934 154.859 613.695 155.738C614.516 156.617 614.926 157.701 614.926 158.99C614.926 160.221 614.486 161.305 613.607 162.242C612.787 163.18 611.732 163.648 610.443 163.648ZM568.344 133.238C568.227 132.242 568.139 131.217 568.08 130.162C568.021 129.107 567.992 128.023 567.992 126.91H564.74C562.396 126.91 559.613 127.086 556.391 127.438C553.227 127.789 549.945 128.346 546.547 129.107C543.148 129.869 539.779 130.895 536.439 132.184C533.1 133.414 530.111 134.938 527.475 136.754C524.838 138.512 522.699 140.592 521.059 142.994C519.477 145.396 518.686 148.15 518.686 151.256C518.686 152.896 519.066 154.303 519.828 155.475C520.648 156.646 521.645 157.613 522.816 158.375C524.047 159.078 525.395 159.605 526.859 159.957C528.324 160.25 529.73 160.396 531.078 160.396C535.238 160.396 539.164 159.605 542.855 158.023C546.605 156.383 550.062 154.273 553.227 151.695C556.391 149.059 559.232 146.129 561.752 142.906C564.271 139.684 566.469 136.461 568.344 133.238Z" fill="black"/>
<path fill-rule="evenodd" clip-rule="evenodd" d="M715.259 163.648H714.907C713.911 163.531 712.886 163.473 711.831 163.473H708.755C703.247 163.473 697.944 163.824 692.847 164.527C687.808 165.23 682.739 166.314 677.642 167.779C677.466 167.779 677.29 167.809 677.114 167.867C676.938 167.926 676.704 167.955 676.411 167.955C675.063 167.955 673.95 167.428 673.071 166.373C672.251 165.377 671.841 164.352 671.841 163.297V162.594C671.841 162.477 671.987 161.305 672.28 159.078C672.573 156.793 672.866 153.629 673.159 149.586C670.64 152.398 667.944 155.035 665.073 157.496C662.261 159.898 659.272 162.008 656.108 163.824C653.003 165.582 649.78 166.959 646.44 167.955C643.101 169.01 639.644 169.537 636.069 169.537C633.257 169.537 630.532 169.098 627.896 168.219C625.259 167.398 622.915 166.197 620.864 164.615C618.872 163.033 617.261 161.129 616.03 158.902C614.858 156.617 614.272 154.068 614.272 151.256C614.272 146.861 615.21 142.994 617.085 139.654C619.019 136.314 621.538 133.414 624.644 130.953C627.749 128.434 631.265 126.354 635.19 124.713C639.175 123.014 643.218 121.666 647.319 120.67C651.421 119.615 655.405 118.883 659.272 118.473C663.14 118.004 666.567 117.77 669.556 117.77H671.665C671.665 114.195 671.021 110.709 669.731 107.311C668.501 103.912 666.743 100.895 664.458 98.2578C662.231 95.6211 659.565 93.5117 656.46 91.9297C653.354 90.2891 649.927 89.4688 646.177 89.4688C643.423 89.4688 640.728 90.2598 638.091 91.8418C635.454 93.3652 633.11 95.3281 631.06 97.7305C629.009 100.133 627.339 102.828 626.05 105.816C624.819 108.805 624.204 111.705 624.204 114.518C624.204 115.689 623.706 116.686 622.71 117.506C621.772 118.268 620.718 118.648 619.546 118.648C618.257 118.648 617.144 118.18 616.206 117.242C615.269 116.246 614.8 115.162 614.8 113.99C614.8 111.178 615.298 108.248 616.294 105.201C617.29 102.096 618.726 99.0781 620.601 96.1484C622.534 93.1602 624.849 90.3477 627.544 87.7109C630.298 85.0742 633.403 82.7598 636.86 80.7676C640.376 78.7168 644.214 77.1055 648.374 75.9336C652.534 74.7617 656.958 74.1758 661.646 74.1758C668.208 74.1758 673.804 75.2012 678.433 77.252C683.12 79.3027 687.017 82.0859 690.122 85.6016C693.286 89.1172 695.776 93.1895 697.593 97.8184C699.409 102.447 700.786 107.34 701.724 112.496C702.661 117.652 703.247 122.896 703.481 128.229C703.774 133.561 703.921 138.658 703.921 143.521C703.921 145.982 703.892 148.092 703.833 149.85C703.774 151.607 703.745 153.072 703.745 154.244C704.624 154.244 705.503 154.215 706.382 154.156C707.319 154.098 708.228 154.068 709.106 154.068C710.103 154.068 711.128 154.098 712.183 154.156C713.296 154.215 714.38 154.244 715.435 154.244C716.724 154.361 717.749 154.859 718.511 155.738C719.331 156.617 719.741 157.701 719.741 158.99C719.741 160.221 719.302 161.305 718.423 162.242C717.603 163.18 716.548 163.648 715.259 163.648ZM673.159 133.238C673.042 132.242 672.954 131.217 672.896 130.162C672.837 129.107 672.808 128.023 672.808 126.91H669.556C667.212 126.91 664.429 127.086 661.206 127.438C658.042 127.789 654.761 128.346 651.362 129.107C647.964 129.869 644.595 130.895 641.255 132.184C637.915 133.414 634.927 134.938 632.29 136.754C629.653 138.512 627.515 140.592 625.874 142.994C624.292 145.396 623.501 148.15 623.501 151.256C623.501 152.896 623.882 154.303 624.644 155.475C625.464 156.646 626.46 157.613 627.632 158.375C628.862 159.078 630.21 159.605 631.675 159.957C633.14 160.25 634.546 160.396 635.894 160.396C640.054 160.396 643.979 159.605 647.671 158.023C651.421 156.383 654.878 154.273 658.042 151.695C661.206 149.059 664.048 146.129 666.567 142.906C669.087 139.684 671.284 136.461 673.159 133.238Z" fill="black"/>
</g>
<defs>
<linearGradient id="paint0_linear_1113_4344" x1="18.0297" y1="-0.290005" x2="18.0297" y2="173.8" gradientUnits="userSpaceOnUse">
<stop stop-color="#FF8A11"/>
<stop offset="1" stop-color="#E81894"/>
</linearGradient>
<linearGradient id="paint1_linear_1113_4344" x1="32.1002" y1="-0.28994" x2="32.1002" y2="173.8" gradientUnits="userSpaceOnUse">
<stop stop-color="#FF8A11"/>
<stop offset="1" stop-color="#E81894"/>
</linearGradient>
<linearGradient id="paint2_linear_1113_4344" x1="69.3199" y1="-0.289961" x2="69.3199" y2="173.8" gradientUnits="userSpaceOnUse">
<stop stop-color="#FF8A11"/>
<stop offset="1" stop-color="#E81894"/>
</linearGradient>
<linearGradient id="paint3_linear_1113_4344" x1="127.19" y1="-0.290024" x2="127.19" y2="173.8" gradientUnits="userSpaceOnUse">
<stop stop-color="#FF8A11"/>
<stop offset="1" stop-color="#E81894"/>
</linearGradient>
<linearGradient id="paint4_linear_1113_4344" x1="162.68" y1="-0.289945" x2="162.68" y2="173.8" gradientUnits="userSpaceOnUse">
<stop stop-color="#FF8A11"/>
<stop offset="1" stop-color="#E81894"/>
</linearGradient>
<linearGradient id="paint5_linear_1113_4344" x1="181.929" y1="-0.290064" x2="181.929" y2="173.8" gradientUnits="userSpaceOnUse">
<stop stop-color="#FF8A11"/>
<stop offset="1" stop-color="#E81894"/>
</linearGradient>
<linearGradient id="paint6_linear_1113_4344" x1="100.469" y1="-0.290028" x2="100.469" y2="173.8" gradientUnits="userSpaceOnUse">
<stop stop-color="#FF8A11"/>
<stop offset="1" stop-color="#E81894"/>
</linearGradient>
<clipPath id="clip0_1113_4344">
<rect width="720" height="200" fill="white"/>
</clipPath>
</defs>
</svg>
