<svg width="635" height="200" viewBox="0 0 635 200" fill="none" xmlns="http://www.w3.org/2000/svg">
<path d="M22.5802 100C22.6008 82.6587 29.1997 65.971 41.0448 53.3055C52.8899 40.64 69.0991 32.94 86.4002 31.76L103.14 10.82C80.8864 7.77935 58.2999 13.1696 39.8175 25.9319C21.335 38.6942 8.2925 57.9061 3.25192 79.7937C-1.78867 101.681 1.53699 124.663 12.5756 144.224C23.6143 163.784 41.568 178.511 62.9102 185.51L69.2902 164.87C55.696 160.304 43.8768 151.588 35.4971 139.951C27.1175 128.313 22.5997 114.34 22.5802 100Z" fill="black"/>
<path d="M118.59 14.3199L112.27 34.9999C127.428 39.9522 140.38 50.0449 148.885 63.5334C157.391 77.0219 160.917 93.0583 158.853 108.871C156.789 124.683 149.265 139.277 137.582 150.131C125.899 160.984 110.792 167.414 94.8703 168.31L78.2803 189.11C100.624 192.338 123.364 187.052 141.992 174.299C160.62 161.546 173.775 142.258 178.849 120.26C183.922 98.2619 180.542 75.1608 169.381 55.5377C158.219 35.9146 140.091 21.2028 118.59 14.3199Z" fill="black"/>
<path d="M117.24 83.21L93.4 80.28L117.94 0L47.79 87.72L64.76 115.75L88.6 118.68L63.46 200L134.21 111.25L117.24 83.21Z" fill="#FF6022"/>
<path d="M224.174 46.219V150H284.771V141.503H233.646V46.219H224.174Z" fill="black"/>
<path d="M400.37 105.353V150H391.455V46.219H400.37V87.8707C402.878 83.5523 406.105 80.3483 410.052 78.2588C413.999 76.1692 418.387 75.1244 423.216 75.1244C428.324 75.1244 432.921 76.2156 437.007 78.3981C441.094 80.5805 444.321 83.7845 446.689 88.01C449.103 92.2355 450.311 97.413 450.311 103.542V150H441.326V104.1C441.326 97.5058 439.561 92.4213 436.032 88.8458C432.55 85.2704 427.79 83.4826 421.754 83.4826C415.764 83.4826 410.702 85.3168 406.57 88.9851C402.437 92.6535 400.37 98.1095 400.37 105.353Z" fill="black"/>
<path d="M492.628 76.4479V84.3185H477.305V133.493C477.305 136.604 477.978 138.833 479.324 140.179C480.718 141.479 483.016 142.129 486.22 142.129H492.628V150H485.523C474.054 150 468.32 144.776 468.32 134.328V84.3185H455.782V76.4479H468.32V56.3882H477.305V76.4479H492.628Z" fill="black"/>
<path fill-rule="evenodd" clip-rule="evenodd" d="M325.107 174.099C330.494 178 337.389 179.95 345.794 179.95C351.83 179.95 357.24 178.882 362.023 176.746C366.852 174.61 370.659 171.313 373.445 166.856C376.278 162.444 377.694 156.826 377.694 150V76.4478H368.918V90.7264H368.848C366.712 85.7579 363.392 81.927 358.888 79.2338C354.384 76.4942 349.369 75.1244 343.843 75.1244C337.575 75.1244 332.026 76.7264 327.197 79.9304C322.368 83.1343 318.583 87.592 315.844 93.3035C313.15 99.0149 311.804 105.655 311.804 113.224C311.804 120.793 313.15 127.456 315.844 133.214C318.583 138.925 322.344 143.383 327.127 146.587C331.956 149.745 337.528 151.323 343.843 151.323C349.416 151.323 354.384 149.977 358.749 147.284C363.114 144.59 366.457 140.852 368.779 136.07H368.848V150C368.848 156.872 366.829 162.235 362.789 166.089C358.749 169.99 353.084 171.94 345.794 171.94C340.082 171.94 335.392 170.71 331.724 168.249C328.102 165.788 325.734 162.305 324.62 157.801H315.426C316.494 164.813 319.721 170.245 325.107 174.099ZM362.719 135.025C358.308 140.411 352.411 143.104 345.028 143.104C338.062 143.104 332.281 140.527 327.684 135.373C323.134 130.172 320.858 122.789 320.858 113.224C320.858 103.658 323.134 96.2753 327.684 91.0746C332.281 85.874 338.062 83.2736 345.028 83.2736C352.411 83.2736 358.308 85.99 362.719 91.4229C367.177 96.8557 369.406 104.123 369.406 113.224C369.406 122.325 367.177 129.592 362.719 135.025Z" fill="black"/>
<path d="M293.307 150V76.4478H302.222V150H293.307Z" fill="black"/>
<path d="M297.765 60.4976C296 60.4976 294.468 59.8707 293.168 58.617C291.914 57.3632 291.287 55.8309 291.287 54.02C291.287 52.209 291.914 50.6767 293.168 49.423C294.468 48.1692 296 47.5424 297.765 47.5424C299.529 47.5424 301.038 48.1692 302.292 49.423C303.592 50.6767 304.242 52.209 304.242 54.02C304.242 55.8309 303.592 57.3632 302.292 58.617C301.038 59.8707 299.529 60.4976 297.765 60.4976Z" fill="black"/>
<path fill-rule="evenodd" clip-rule="evenodd" d="M549.316 46.219L512.262 150H532.043L540.54 125.204H580.799L589.088 150H609.356L572.441 46.219H549.316ZM575.784 110.09H545.695L550.709 95.4627C552.288 90.68 553.89 85.6883 555.515 80.4876C557.141 75.287 558.928 69.413 560.879 62.8657C562.829 69.413 564.593 75.287 566.172 80.4876C567.797 85.6883 569.376 90.68 570.908 95.4627L575.784 110.09Z" fill="#FF6022"/>
<path d="M633.007 150V46.219H614.619V150H633.007Z" fill="#FF6022"/>
</svg>
