<svg width="788" height="200" viewBox="0 0 788 200" fill="none" xmlns="http://www.w3.org/2000/svg">
<path d="M128 0H72C32.2355 0 0 32.2355 0 72V128C0 167.764 32.2355 200 72 200H128C167.764 200 200 167.764 200 128V72C200 32.2355 167.764 0 128 0Z" fill="black"/>
<path d="M104.37 79.44L65.2698 39.24V112.54C62.6233 112.111 59.9287 112.067 57.2698 112.41C52.2401 112.971 47.4708 114.94 43.5098 118.09C39.4298 121.55 37.5098 125.96 38.1198 130.52C39.2898 139.33 47.4198 143.16 59.4298 142.84C71.1598 142.53 81.3698 131.64 81.3698 121.84V78.51L104.31 102.25L128.31 78.25V162.39H144.37V39.47L104.37 79.44Z" fill="white"/>
<path d="M376.407 37.0448H395.834C397.813 37.0448 398.532 38.1213 398.532 39.9153C398.712 41.3505 398.712 42.6064 398.712 44.0416V123.877C398.712 135.897 403.749 141.099 415.621 141.458C418.499 141.638 421.557 141.279 424.255 140.74C430.191 139.485 434.328 134.82 435.047 128.541C435.227 126.568 435.227 124.415 435.227 122.262V43.6828C435.227 42.0693 435.348 40.5757 435.49 38.8098L435.49 38.8041C435.522 38.412 435.554 38.0064 435.587 37.5831C442.002 36.8028 448.145 36.9727 454.49 37.1483C455.439 37.1745 456.392 37.2009 457.352 37.2243C457.422 37.9914 457.519 38.7042 457.612 39.384C457.757 40.4528 457.892 41.4401 457.892 42.427V123.338C457.892 128.541 457.532 133.564 455.733 138.588C450.517 152.761 440.444 161.013 425.334 163.345C417.959 164.422 410.404 164.242 403.209 162.269C387.92 158.143 377.307 145.046 376.228 129.259C376.048 126.747 376.048 124.056 376.048 121.544V43.5034C376.048 41.8899 376.168 40.2764 376.31 38.3687C376.342 37.9433 376.375 37.5028 376.407 37.0448Z" fill="black"/>
<path d="M578.916 37.583C580.175 41.3505 580.175 156.528 578.916 162.628C572.081 162.987 565.066 162.987 558.051 162.628C556.971 158.681 556.791 42.2475 557.871 37.9418C561.288 36.8654 574.24 36.686 578.916 37.583Z" fill="black"/>
<path fill-rule="evenodd" clip-rule="evenodd" d="M785.841 162.129C786.201 162.05 786.56 161.97 786.92 161.91C786.92 161.578 786.945 161.296 786.967 161.044C787.004 160.615 787.033 160.276 786.92 159.937C785.841 155.81 784.761 151.684 783.502 147.558C777.753 126.028 771.939 104.955 766.098 83.7885L766.077 83.7125L766.073 83.6958L766.07 83.6864C762.235 69.787 758.389 55.8466 754.542 41.7093L754.501 41.5619C753.282 37.2202 753.233 37.0448 748.786 37.0448H726.841C722.164 37.0448 722.164 37.0448 720.725 41.5299C714.92 59.144 709.115 76.5728 703.31 94.0015C696.344 114.916 689.378 135.831 682.411 157.066C682.052 158.501 681.692 160.116 681.332 162.269C682.371 162.269 683.261 162.318 684.107 162.365C684.871 162.408 685.6 162.448 686.369 162.448C690.506 162.628 694.823 162.628 699.14 162.448C701.675 162.448 702.934 162.448 703.766 161.854C704.587 161.267 704.991 160.101 705.795 157.784C707.594 152.402 709.348 146.975 711.102 141.548C712.856 136.121 714.609 130.694 716.408 125.312C717.664 121.732 717.846 121.724 721.597 121.545L721.625 121.544C728.1 121.365 734.396 122.441 740.152 124.953C749.865 129.259 757.06 135.717 759.579 146.481C760.146 148.743 760.862 150.955 761.57 153.144L761.57 153.145L761.571 153.147C762.21 155.124 762.844 157.082 763.356 159.04C764.076 161.372 765.155 162.628 767.853 162.628C770.461 162.538 773.114 162.538 775.767 162.538H775.768C778.421 162.538 781.074 162.538 783.682 162.448C784.402 162.448 785.121 162.289 785.841 162.129ZM741.771 79.2692C743.929 87.2564 746.088 95.2435 748.246 103.424C743.345 102.288 738.661 101.295 734.01 100.309L734.008 100.309C731.32 99.7392 728.643 99.1718 725.942 98.5804C726.122 95.3511 734.756 68.0817 737.454 63.2378C738.893 68.6196 740.332 73.9449 741.771 79.2692Z" fill="black"/>
<path d="M666.381 58.9322V37.7625C648.213 34.5332 620.872 44.5798 607.021 64.6731C592.091 86.2016 592.811 116.7 609 137.332C622.311 154.196 652.17 166.754 666.381 161.372V140.92C665.661 140.561 665.481 140.382 665.301 140.202C664.582 140.202 663.907 140.157 663.233 140.113C662.558 140.068 661.884 140.023 661.164 140.023C652.35 139.664 644.076 137.332 636.701 132.488C612.777 117.239 612.597 82.7929 636.161 67.0054C643.356 62.1614 651.451 59.6498 660.085 59.4704C662.062 59.2912 664.218 59.112 666.374 58.9327L666.381 58.9322Z" fill="black"/>
<path d="M544.073 45.2421C544.052 42.9331 544.032 40.5687 544.032 38.1213C543.501 38.0732 543.023 38.0251 542.579 37.9805C541.365 37.8586 540.408 37.7625 539.355 37.7625C518.129 37.7625 496.904 37.9419 475.679 38.1213C474.24 38.1213 472.62 38.3007 471.181 38.4801V60.188L471.721 60.2372C473.488 60.3988 475.107 60.5468 476.578 60.5468L512.193 60.0086C513.474 60.0086 514.755 60.1209 516.304 60.2567C516.712 60.2925 517.139 60.33 517.59 60.3674C517.024 61.4156 516.531 62.3551 516.077 63.2184L516.076 63.2207L516.074 63.2248L516.073 63.2261C515.52 64.2806 515.026 65.2215 514.532 66.1084L514.528 66.1142C501.938 88.3583 489.348 110.603 476.398 132.488C472.44 139.305 469.922 146.123 470.822 154.196C471.092 156.486 471.058 158.675 471.024 160.839L471.024 160.842C471.013 161.559 471.001 162.273 471.001 162.987C476.398 162.807 540.254 162.448 543.672 162.807C544.751 157.246 544.391 144.867 543.132 141.279H497.983C498.299 140.571 498.545 139.966 498.767 139.42C499.053 138.72 499.299 138.116 499.602 137.511C500.681 135.538 501.805 133.565 502.93 131.591L502.931 131.589C504.055 129.616 505.178 127.643 506.257 125.671C518.129 105.039 529.821 84.587 541.513 63.9555C541.58 63.844 541.648 63.7318 541.716 63.6189C542.745 61.9161 543.863 60.0653 544.032 58.2146C544.15 53.959 544.112 49.703 544.073 45.2421Z" fill="black"/>
<path d="M258.255 115.484C256.51 131.126 254.755 146.853 253 162.807C253.259 162.813 253.518 162.819 253.775 162.824C261.545 162.997 268.346 163.149 275.485 162.628C277.316 146.302 279.148 130.484 280.979 114.667C282.026 105.629 283.072 96.5906 284.119 87.4574C284.478 87.278 284.658 87.278 285.018 87.278C286.33 91.6843 287.668 96.0907 289.012 100.517C291.171 107.625 293.345 114.786 295.451 122.082H317.756C321.173 122.082 321.353 121.903 322.433 118.494C323.177 116.045 323.89 113.626 324.598 111.225C325.602 107.823 326.594 104.458 327.649 101.092C329.088 96.0702 330.526 91.2276 331.965 86.3851L331.966 86.3809C332.686 86.9191 332.686 87.4574 332.686 87.8162C334.304 100.912 335.743 113.828 337.182 126.745L337.182 126.747C337.812 132.309 338.397 137.691 338.981 143.073C339.566 148.455 340.15 153.837 340.78 159.398C341.14 162.628 341.679 162.987 344.917 162.987C346.603 163.107 348.369 163.066 350.107 163.026C350.966 163.006 351.819 162.987 352.652 162.987H363.265C363.265 162.265 363.289 161.639 363.31 161.074C363.348 160.094 363.379 159.298 363.265 158.501C362.635 152.85 362.005 147.378 361.376 141.906C360.746 136.435 360.117 130.963 359.487 125.312C357.958 111.313 356.428 97.2687 354.899 83.2248C353.37 69.1919 351.842 55.1591 350.313 41.1711C349.954 37.4036 349.594 37.2242 345.817 37.0448H328.009C323.152 37.0448 323.152 37.0448 321.713 41.7093C321.201 43.476 320.691 45.2402 320.182 47.0018C316.402 60.0882 312.661 73.0351 308.222 85.8427C306.572 80.3114 304.945 74.8284 303.325 69.3671C300.532 59.9493 297.758 50.5961 294.911 41.1711C293.652 37.0448 293.652 37.0448 289.515 37.0448H271.347C270.232 37.0448 269.225 37.1525 267.992 37.2844C267.633 37.3228 267.256 37.3632 266.851 37.4036C264.041 63.632 261.161 89.4401 258.255 115.484Z" fill="black"/>
</svg>
