<svg width="848" height="200" viewBox="0 0 848 200" fill="none" xmlns="http://www.w3.org/2000/svg">
<path d="M45.6596 175.57V67.57L55.9396 55.57V171.35C62.1926 167.743 67.385 162.553 70.9944 156.302C74.6037 150.05 76.5025 142.959 76.4996 135.74V0L25.0996 60V176.9H35.3796C38.8487 176.893 42.303 176.446 45.6596 175.57Z" fill="#37A56E"/>
<path d="M138.19 187.15V98.53L86.78 38.53V135.72C86.7668 149.349 81.3475 162.416 71.7113 172.054C62.0751 181.692 49.009 187.114 35.38 187.13H2V200H107.35V94.14L117.63 106.14V200H160V187.15H138.19Z" fill="#3B3D3C"/>
<path d="M292.659 66.7128V53H304.944V66.7128H292.659Z" fill="#37A56E"/>
<path d="M292.659 173.507V83.75H304.944V173.507H292.659Z" fill="#37A56E"/>
<path d="M603.441 173.507C598.37 174.559 593.356 174.975 588.397 174.753C583.494 174.532 579.092 173.479 575.192 171.595C571.347 169.711 568.422 166.775 566.416 162.786C564.801 159.461 563.909 156.109 563.742 152.73C563.631 149.295 563.575 145.388 563.575 141.011V94.2216H544.269V83.75H563.575V58.8176H575.777V83.75H603.441V94.2216H575.777V140.513C575.777 144.28 575.805 147.438 575.861 149.987C575.972 152.48 576.557 154.697 577.616 156.636C579.621 160.348 582.797 162.564 587.143 163.284C591.545 164.005 596.977 163.838 603.441 162.786V173.507Z" fill="#37A56E"/>
<path d="M756.561 173.507C751.491 174.559 746.476 174.975 741.517 174.753C736.614 174.532 732.213 173.479 728.312 171.595C724.468 169.711 721.543 166.775 719.537 162.786C717.921 159.461 717.03 156.109 716.862 152.73C716.751 149.295 716.695 145.388 716.695 141.011V94.2216H697.389V83.75H716.695V58.8176H728.897V83.75H756.561V94.2216H728.897V140.513C728.897 144.28 728.925 147.438 728.981 149.987C729.092 152.48 729.677 154.697 730.736 156.636C732.742 160.348 735.918 162.564 740.264 163.284C744.666 164.005 750.098 163.838 756.561 162.786V173.507Z" fill="#37A56E"/>
<path fill-rule="evenodd" clip-rule="evenodd" d="M805.931 176C797.128 176 789.494 174.061 783.031 170.182C776.624 166.304 771.637 160.847 768.071 153.81C764.505 146.774 762.722 138.518 762.722 129.044C762.722 119.237 764.477 110.76 767.987 103.613C771.498 96.4656 776.429 90.9528 782.78 87.0744C789.188 83.196 796.738 81.2568 805.43 81.2568C814.344 81.2568 821.95 83.3068 828.246 87.4068C834.542 91.4514 839.306 97.269 842.537 104.86C845.769 112.45 847.245 121.509 846.967 132.036H775.841C776.314 141.711 778.85 149.357 783.449 154.974C788.631 161.179 795.958 164.282 805.43 164.282C811.893 164.282 817.52 162.814 822.312 159.877C827.159 156.885 830.976 152.591 833.762 146.995L845.212 151.4C841.646 159.212 836.381 165.279 829.416 169.601C822.507 173.867 814.679 176 805.931 176ZM826.825 101.369C830.816 106.25 833.239 113.065 834.096 121.814H776.086C776.924 113.488 779.378 106.839 783.449 101.868C788.631 95.6068 796.069 92.4764 805.764 92.4764C815.013 92.4764 822.033 95.4406 826.825 101.369Z" fill="#37A56E"/>
<path fill-rule="evenodd" clip-rule="evenodd" d="M626.573 172.343C631.197 174.781 636.908 176 643.706 176C652.732 176 660.477 173.978 666.94 169.933C671.486 167.088 675.191 163.339 678.056 158.685V173.507H689.004V117.741C689.004 114.417 688.837 111.148 688.503 107.935C688.168 104.721 687.444 101.812 686.33 99.2082C683.934 93.3906 679.839 88.9582 674.044 85.9109C668.305 82.8082 661.313 81.2568 653.066 81.2568C643.093 81.2568 634.986 83.473 628.746 87.9055C622.505 92.3379 618.354 98.571 616.293 106.605L628.244 110.095C629.972 104.112 632.952 99.7345 637.187 96.9642C641.477 94.194 646.715 92.8088 652.899 92.8088C661.87 92.8088 668.166 94.9419 671.788 99.2082C675.128 103.143 676.856 109.033 676.974 116.879C674.031 117.293 670.798 117.719 667.274 118.157C661.981 118.766 656.549 119.514 650.977 120.401C645.461 121.232 640.419 122.201 635.85 123.309C631.337 124.473 627.353 126.163 623.898 128.379C620.5 130.595 617.797 133.449 615.791 136.939C613.841 140.374 612.866 144.53 612.866 149.405C612.866 154.17 614.009 158.575 616.293 162.62C618.577 166.664 622.004 169.905 626.573 172.343ZM660.17 162.37C655.88 164.42 650.866 165.445 645.127 165.445C640.279 165.445 636.379 164.642 633.426 163.035C630.529 161.428 628.411 159.406 627.074 156.968C625.793 154.53 625.152 152.009 625.152 149.405C625.152 146.192 625.904 143.505 627.409 141.344C628.969 139.183 630.947 137.466 633.342 136.191C635.738 134.862 638.218 133.837 640.781 133.116C644.57 132.119 648.804 131.26 653.484 130.54C658.22 129.82 663.012 129.182 667.859 128.628C670.981 128.276 673.956 127.923 676.784 127.57C676.77 128.921 676.748 130.521 676.719 132.368C676.663 135.803 676.301 138.962 675.632 141.843C674.852 146.33 673.153 150.375 670.534 153.976C667.915 157.522 664.461 160.32 660.17 162.37Z" fill="#37A56E"/>
<path d="M477.343 169.102C484.196 173.645 492.916 175.917 503.502 175.917C514.59 175.917 523.282 173.507 529.578 168.686C535.929 163.811 539.105 157.134 539.105 148.657C539.105 144.003 538.102 140.097 536.097 136.939C534.091 133.781 530.72 131.039 525.984 128.712C521.248 126.384 514.729 124.168 506.427 122.063C499.351 120.29 493.891 118.655 490.046 117.16C486.257 115.664 483.639 114.084 482.19 112.422C480.741 110.705 480.017 108.655 480.017 106.272C480.017 102.006 482.023 98.5987 486.034 96.0501C490.046 93.446 495.256 92.2271 501.663 92.3933C508.461 92.5041 514.06 94.1109 518.462 97.2136C522.919 100.261 525.566 104.416 526.402 109.68L538.938 107.436C538.325 102.228 536.375 97.6568 533.088 93.723C529.8 89.7893 525.455 86.742 520.05 84.5811C514.701 82.3649 508.628 81.2568 501.83 81.2568C495.033 81.2568 489.071 82.3372 483.945 84.498C478.819 86.6034 474.807 89.5953 471.91 93.4737C469.013 97.2967 467.564 101.757 467.564 106.854C467.564 111.065 468.539 114.639 470.489 117.575C472.439 120.456 475.727 123.005 480.351 125.221C484.976 127.437 491.383 129.653 499.574 131.87C507.207 133.92 512.946 135.693 516.79 137.189C520.635 138.684 523.17 140.319 524.396 142.092C525.677 143.809 526.318 146.053 526.318 148.824C526.318 153.755 524.34 157.661 520.384 160.542C516.428 163.368 511.024 164.78 504.17 164.78C497.15 164.78 491.244 163.284 486.452 160.293C481.716 157.245 478.68 153.173 477.343 148.076L464.806 150.153C466.366 158.243 470.545 164.559 477.343 169.102Z" fill="#37A56E"/>
<path fill-rule="evenodd" clip-rule="evenodd" d="M406.108 176C399.31 176 393.599 174.781 388.975 172.343C384.406 169.905 380.979 166.664 378.695 162.62C376.41 158.575 375.268 154.17 375.268 149.405C375.268 144.53 376.243 140.374 378.193 136.939C380.199 133.449 382.902 130.595 386.3 128.379C389.755 126.163 393.739 124.473 398.252 123.309C402.821 122.201 407.863 121.232 413.379 120.401C418.951 119.514 424.383 118.766 429.676 118.157C433.2 117.719 436.433 117.293 439.376 116.879C439.258 109.033 437.53 103.143 434.189 99.2082C430.568 94.9419 424.272 92.8088 415.301 92.8088C409.117 92.8088 403.879 94.194 399.589 96.9642C395.354 99.7345 392.373 104.112 390.646 110.095L378.695 106.605C380.756 98.571 384.907 92.3379 391.148 87.9055C397.388 83.473 405.495 81.2568 415.468 81.2568C423.715 81.2568 430.707 82.8082 436.446 85.9109C442.241 88.9582 446.336 93.3906 448.732 99.2082C449.846 101.812 450.57 104.721 450.905 107.935C451.239 111.148 451.406 114.417 451.406 117.741V173.507H440.458V158.685C437.593 163.339 433.888 167.088 429.342 169.933C422.879 173.978 415.134 176 406.108 176ZM407.529 165.445C413.268 165.445 418.282 164.42 422.572 162.37C426.863 160.32 430.317 157.522 432.936 153.976C435.555 150.375 437.254 146.33 438.034 141.843C438.703 138.962 439.065 135.803 439.12 132.368C439.15 130.521 439.172 128.921 439.186 127.57C436.358 127.923 433.383 128.276 430.261 128.628C425.414 129.182 420.622 129.82 415.886 130.54C411.206 131.26 406.971 132.119 403.183 133.116C400.62 133.837 398.14 134.862 395.744 136.191C393.349 137.466 391.371 139.183 389.81 141.344C388.306 143.505 387.554 146.192 387.554 149.405C387.554 152.009 388.195 154.53 389.476 156.968C390.813 159.406 392.931 161.428 395.828 163.035C398.781 164.642 402.681 165.445 407.529 165.445Z" fill="#37A56E"/>
<path d="M326.657 83.75V173.507H338.943V128.711C338.943 125.165 339.193 121.592 339.695 117.99C340.196 114.334 341.199 110.899 342.704 107.685C344.208 104.416 346.464 101.618 349.473 99.2912C352.761 96.6317 356.354 95.0804 360.255 94.6371C364.155 94.1939 367.749 94.3878 371.036 95.2189V83.75C368.417 83.0851 365.52 82.8635 362.344 83.0851C359.168 83.2513 356.02 83.8885 352.9 84.9966C349.78 86.0493 347.05 87.6006 344.709 89.6506C342.815 91.0912 341.06 92.9473 339.444 95.2189C338.812 96.0856 338.227 96.9862 337.689 97.9207V83.75H326.657Z" fill="#37A56E"/>
<path d="M260.273 127.714V173.507H272.642V124.141C272.642 120.096 272.252 116.051 271.472 112.007C270.692 107.907 269.439 104.056 267.711 100.455C265.984 96.798 263.7 93.5568 260.858 90.7312C258.072 87.9055 254.646 85.6616 250.578 83.9994C246.566 82.3372 241.858 81.5062 236.454 81.5062C229.099 81.5062 222.58 83.1129 216.897 86.3264C212.604 88.7541 209.01 92.0512 206.116 96.2179V83.7501H195V173.507H207.369V125.637C207.369 120.539 207.954 115.996 209.124 112.007C210.294 108.018 211.994 104.638 214.223 101.868C216.507 99.042 219.293 96.8811 222.58 95.3852C225.923 93.8893 229.768 93.1413 234.114 93.1413C238.85 93.1413 242.861 94.0001 246.149 95.7176C249.492 97.4352 252.194 99.873 254.256 103.031C256.373 106.134 257.905 109.791 258.852 114.001C259.799 118.157 260.273 122.728 260.273 127.714Z" fill="#37A56E"/>
</svg>
