<svg width="635" height="200" viewBox="0 0 635 200" fill="none" xmlns="http://www.w3.org/2000/svg">
<path d="M199.686 0.31543C144.773 55.5693 144.877 144.877 200 200C144.877 144.877 55.5684 144.771 0.314453 199.685C55.2266 144.432 55.123 55.123 0 0C55.123 55.123 144.432 55.2295 199.686 0.31543Z" fill="url(#paint0_linear_1113_5172)"/>
<path d="M624.766 33.08H605.846V8H624.766V33.08Z" fill="black"/>
<path d="M624.766 169.26H605.846V54.42H624.766V169.26Z" fill="black"/>
<path d="M555.074 54.4199H584.894V70.2599H556.834V169.26H537.694V71.3599C537.694 60.1399 543.414 54.4199 555.074 54.4199Z" fill="black"/>
<path fill-rule="evenodd" clip-rule="evenodd" d="M460.32 100.84C434.14 100.84 418.52 113.6 418.52 136.26C418.52 157.6 432.38 171.46 455.48 171.46C474.18 171.46 489.58 163.32 494.64 150.34H495.96L496.18 156.28C496.84 164.86 500.58 169.26 511.14 169.26H521.72V155.18H513.78V92.4797C513.78 87.1997 513.56 82.3597 510.04 74.2197C508.28 70.0397 505.86 66.5197 503 63.4397C497.06 57.2797 485.18 52.2197 470 52.2197C442.06 52.2197 424.46 65.8597 423.36 88.7397H442.06C442.72 75.5397 451.96 67.3997 468.9 67.3997C486.28 67.3997 494.86 75.5397 494.86 92.0397V100.84H460.32ZM438.1 138.46V131.42C438.1 121.52 446.9 114.7 462.08 114.7H494.86V120.86C494.86 141.98 481.22 156.06 459.88 156.06C446.68 156.06 438.1 149.9 438.1 138.46Z" fill="black"/>
<path d="M378.099 70.2599V153.42H402.299V169.26H375.899C364.679 169.26 359.179 163.98 359.179 153.2V70.2599H338.279V54.4199H359.179V16.3599H378.099V54.4199H402.079V70.2599H378.099Z" fill="black"/>
<path d="M254.92 134.5H236C236 156.72 253.82 171.46 282.86 171.46C310.8 171.46 328.62 158.26 328.62 136.26C328.62 119.1 318.5 108.76 298.48 105.24L275.82 101.06C271.2 100.18 269.22 99.5197 264.6 97.5397C259.98 95.1197 257.34 90.7197 257.34 84.5597C257.34 73.7797 265.92 66.9597 281.54 66.9597C297.82 66.9597 306.18 73.7797 306.62 87.1997H325.54C325.32 66.0797 308.82 52.2197 281.54 52.2197C255.14 52.2197 238.2 65.1997 238.2 86.5397C238.2 103.04 248.32 113.16 268.78 116.9L293.42 121.52C303.54 123.5 308.6 128.78 308.6 137.36C308.6 149.46 298.92 156.5 282.86 156.5C265.92 156.5 254.92 147.92 254.92 134.5Z" fill="black"/>
<defs>
<linearGradient id="paint0_linear_1113_5172" x1="268.563" y1="179.741" x2="220.317" y2="-57.9912" gradientUnits="userSpaceOnUse">
<stop stop-color="#FFD80A"/>
<stop offset="1" stop-color="#DC7CB0"/>
</linearGradient>
</defs>
</svg>
