<svg width="801" height="200" viewBox="0 0 801 200" fill="none" xmlns="http://www.w3.org/2000/svg">
<path d="M775.67 18.4262L800 181.574H756.489L754.369 152.25H739.125L736.601 181.574H692.585L714.19 18.4262H775.67ZM753.158 123.328C751.004 104.854 748.85 82.046 746.697 54.9052C742.389 86.0769 739.697 108.885 738.62 123.328H753.158Z" fill="black"/>
<path d="M687.284 18.4262V181.574H644.783V18.4262H687.284Z" fill="black"/>
<path d="M629.89 67.8038H590.417V55.7113C590.417 50.0682 589.912 46.474 588.903 44.9289C587.893 43.3837 586.21 42.6111 583.855 42.6111C581.297 42.6111 579.346 43.6524 578 45.735C576.721 47.8176 576.081 50.9751 576.081 55.2075C576.081 60.6491 576.822 64.7471 578.302 67.5015C579.716 70.2559 583.72 73.5813 590.316 77.4778C609.228 88.6969 621.14 97.9006 626.053 105.089C630.966 112.277 633.423 123.866 633.423 139.855C633.423 151.477 632.043 160.042 629.284 165.551C626.592 171.06 621.342 175.696 613.535 179.458C605.728 183.153 596.642 185 586.278 185C574.904 185 565.178 182.85 557.102 178.551C549.093 174.251 543.844 168.776 541.353 162.125C538.863 155.474 537.618 146.035 537.618 133.809V123.127H577.091V142.979C577.091 149.092 577.629 153.022 578.706 154.769C579.85 156.516 581.836 157.389 584.663 157.389C587.489 157.389 589.576 156.28 590.922 154.063C592.335 151.846 593.042 148.555 593.042 144.188C593.042 134.581 591.729 128.3 589.104 125.344C586.412 122.388 579.783 117.45 569.217 110.531C558.65 103.544 551.651 98.4716 548.218 95.3142C544.786 92.1567 541.926 87.79 539.637 82.214C537.416 76.638 536.306 69.5169 536.306 60.8506C536.306 48.3551 537.887 39.2185 541.051 33.441C544.281 27.6635 549.463 23.1624 556.597 19.9378C563.731 16.6459 572.346 15 582.441 15C593.479 15 602.868 16.7803 610.608 20.3408C618.415 23.9014 623.563 28.4025 626.053 33.8441C628.611 39.2185 629.89 48.3887 629.89 61.3545V67.8038Z" fill="black"/>
<path d="M525.956 113.957C525.956 130.349 525.553 141.971 524.745 148.823C524.005 155.609 521.582 161.823 517.476 167.466C513.438 173.109 507.953 177.442 501.021 180.465C494.089 183.488 486.012 185 476.792 185C468.043 185 460.168 183.589 453.169 180.768C446.237 177.879 440.651 173.579 436.411 167.869C432.171 162.159 429.647 155.944 428.839 149.226C428.031 142.508 427.628 130.752 427.628 113.957V86.0433C427.628 69.6513 427.998 58.0626 428.738 51.2774C429.546 44.425 431.969 38.1772 436.007 32.5341C440.112 26.8909 445.631 22.5578 452.563 19.5347C459.495 16.5116 467.572 15 476.792 15C485.541 15 493.382 16.4444 500.314 19.3331C507.314 22.1547 512.933 26.4207 517.173 32.131C521.413 37.8413 523.937 44.0555 524.745 50.7736C525.553 57.4916 525.956 69.2482 525.956 86.0433V113.957ZM483.455 60.3468C483.455 52.7554 483.017 47.9184 482.143 45.8358C481.335 43.686 479.619 42.6111 476.994 42.6111C474.773 42.6111 473.057 43.4845 471.845 45.2312C470.701 46.9107 470.129 51.9492 470.129 60.3468V136.529C470.129 146.002 470.499 151.846 471.24 154.063C472.047 156.28 473.864 157.389 476.691 157.389C479.585 157.389 481.436 156.112 482.243 153.56C483.051 151.007 483.455 144.927 483.455 135.32V60.3468Z" fill="black"/>
<path d="M421.214 18.4262V51.0759H395.976V181.574H353.475V51.0759H328.337V18.4262H421.214Z" fill="black"/>
<path d="M321.218 18.4262V127.46C321.218 139.821 320.814 148.521 320.007 153.56C319.199 158.531 316.81 163.67 312.839 168.977C308.868 174.218 303.619 178.215 297.09 180.969C290.629 183.656 282.99 185 274.174 185C264.415 185 255.8 183.388 248.33 180.163C240.859 176.938 235.273 172.74 231.572 167.567C227.87 162.394 225.683 156.952 225.01 151.242C224.337 145.464 224 133.372 224 114.964V18.4262H266.501V140.762C266.501 147.883 266.872 152.451 267.612 154.466C268.42 156.415 270.001 157.389 272.357 157.389C275.049 157.389 276.765 156.314 277.505 154.164C278.313 151.947 278.717 146.774 278.717 138.646V18.4262H321.218Z" fill="black"/>
<path fill-rule="evenodd" clip-rule="evenodd" d="M100 150C127.614 150 150 127.614 150 100C150 72.3858 127.614 50 100 50C72.3858 50 50 72.3858 50 100C50 127.614 72.3858 150 100 150ZM100 200C155.228 200 200 155.228 200 100C200 44.7715 155.228 0 100 0C44.7715 0 0 44.7715 0 100C0 155.228 44.7715 200 100 200Z" fill="#2600E3"/>
</svg>
