<svg width="200" height="200" viewBox="0 0 200 200" fill="none" xmlns="http://www.w3.org/2000/svg">
<g clip-path="url(#clip0_1113_4832)">
<path d="M105.836 169.748C118.75 168.655 131.106 164 141.53 156.3L160.91 179.3C146.102 190.673 128.405 197.673 109.824 199.508C91.2425 201.343 72.5187 197.938 55.7723 189.681C39.0259 181.423 24.9259 168.642 15.0688 152.784C5.21159 136.926 -0.00901097 118.626 -0.00194596 99.9541C0.00511905 81.2824 5.23956 62.9857 15.1087 47.1355C24.9779 31.2853 39.0876 18.5147 55.8402 10.2697C72.5928 2.02468 91.3192 -1.36539 109.899 0.483294C128.479 2.33198 146.17 9.34558 160.97 20.73L141.58 43.73C131.163 36.0206 118.811 31.3543 105.898 30.2508C92.9861 29.1472 80.021 31.6498 68.447 37.4797C56.8731 43.3096 47.1448 52.238 40.3456 63.2704C33.5463 74.3028 29.9432 87.0061 29.9374 99.9654C29.9317 112.925 33.5235 125.631 40.313 136.67C47.1024 147.708 56.8228 156.645 68.3915 162.485C79.9603 168.326 92.9231 170.84 105.836 169.748Z" fill="black"/>
<path d="M167.79 173.49L148.41 150.49H148.44C155.267 143.97 160.702 136.133 164.415 127.453C168.127 118.773 170.042 109.431 170.042 99.99C170.042 90.5494 168.127 81.2068 164.415 72.5269C160.702 63.8471 155.267 56.0102 148.44 49.49L167.84 26.49C177.987 35.8577 186.084 47.2256 191.621 59.8775C197.157 72.5293 200.013 86.1908 200.008 100.001C200.004 113.811 197.139 127.471 191.594 140.119C186.049 152.767 177.944 164.129 167.79 173.49Z" fill="black"/>
</g>
<defs>
<clipPath id="clip0_1113_4832">
<rect width="200" height="200" fill="white"/>
</clipPath>
</defs>
</svg>
