<svg width="200" height="200" viewBox="0 0 200 200" fill="none" xmlns="http://www.w3.org/2000/svg">
<g clip-path="url(#clip0_1113_4460)">
<path d="M141.53 156.3C131.106 164 118.75 168.655 105.836 169.748C92.9231 170.84 79.9603 168.326 68.3915 162.485C56.8228 156.645 47.1024 147.708 40.313 136.67C33.5235 125.631 29.9317 112.925 29.9374 99.9654C29.9432 87.0061 33.5463 74.3028 40.3456 63.2704C47.1448 52.238 56.8731 43.3096 68.447 37.4797C80.021 31.6498 92.9861 29.1472 105.898 30.2508C118.811 31.3543 131.163 36.0206 141.58 43.73L160.97 20.73C146.17 9.34558 128.479 2.33198 109.899 0.483294C91.3192 -1.36539 72.5928 2.02468 55.8402 10.2697C39.0876 18.5147 24.9779 31.2853 15.1087 47.1355C5.23956 62.9857 0.00511905 81.2824 -0.00194596 99.9541C-0.00901097 118.626 5.21159 136.926 15.0688 152.784C24.9259 168.642 39.0259 181.423 55.7723 189.681C72.5187 197.938 91.2425 201.343 109.824 199.508C128.405 197.673 146.102 190.673 160.91 179.3L141.53 156.3Z" fill="black"/>
<path d="M148.41 150.49L167.79 173.49C177.944 164.129 186.049 152.767 191.594 140.119C197.139 127.471 200.004 113.811 200.008 100.001C200.013 86.1908 197.157 72.5293 191.621 59.8775C186.084 47.2256 177.987 35.8577 167.84 26.49L148.44 49.49C155.267 56.0102 160.702 63.8471 164.415 72.5269C168.127 81.2068 170.042 90.5494 170.042 99.99C170.042 109.431 168.127 118.773 164.415 127.453C160.702 136.133 155.267 143.97 148.44 150.49H148.41Z" fill="#FF9900"/>
</g>
<defs>
<clipPath id="clip0_1113_4460">
<rect width="200" height="200" fill="white"/>
</clipPath>
</defs>
</svg>
