<svg width="200" height="200" viewBox="0 0 200 200" fill="none" xmlns="http://www.w3.org/2000/svg">
<g clip-path="url(#clip0_1108_341)">
<path d="M100.54 0C40.83 0 0 38 0 100.54C0 160.25 40.83 200 100.54 200C160.25 200 200 160.25 200 100.54C200 38 160.25 0 100.54 0ZM159.93 159.93C156.038 163.806 151.697 167.203 147 170.05V88L129 78V178C122.486 179.941 115.78 181.165 109 181.65V50.15L91 40.15V181.59C84.5628 181.059 78.1966 179.872 72 178.05V84L54 94V170.19C31.29 156.66 18 132.19 18 100.5C18 75.07 25.77 54.02 40.48 39.62C54.94 25.49 75.71 18 100.54 18C125.37 18 145.79 25.46 160 39.56C174.41 53.9 182 74.99 182 100.56C182 125 174.37 145.5 159.93 159.93Z" fill="#F7931E"/>
</g>
<defs>
<clipPath id="clip0_1108_341">
<rect width="200" height="200" fill="white"/>
</clipPath>
</defs>
</svg>
