<svg width="200" height="200" viewBox="0 0 200 200" fill="none" xmlns="http://www.w3.org/2000/svg">
<path d="M200 99.9999L170.54 49.3199H115.74L88.33 2.16992H29.46L0 52.8499L27.4 99.9999L0 147.15L29.46 197.83H88.33L115.74 150.68H170.54L200 99.9999ZM33.53 9.23992H84.26L109.61 52.8499L84.26 96.4599H33.53L8.18 52.8499L33.53 9.23992ZM84.26 190.76H33.53L8.18 147.15L33.53 103.54H84.26L109.61 147.17L84.26 190.76ZM115.74 143.61L90.39 99.9999L115.74 56.3899H166.47L191.82 99.9999L166.47 143.61H115.74Z" fill="black"/>
</svg>
