<svg width="200" height="200" viewBox="0 0 200 200" fill="none" xmlns="http://www.w3.org/2000/svg">
<g clip-path="url(#clip0_1113_4527)">
<path d="M27.9997 84.88C27.1092 84.5105 26.1893 84.2161 25.2497 84C23.4197 83.57 21.5897 83.12 19.7397 82.74C17.8897 82.36 16.0597 82 14.1997 81.68C12.3397 81.36 10.4997 81.09 8.62974 80.9C7.76248 80.7806 6.88333 81.0107 6.1857 81.5395C5.48806 82.0684 5.02909 82.8527 4.90974 83.72C4.79039 84.5872 5.02045 85.4664 5.5493 86.164C6.07815 86.8616 6.86248 87.3206 7.72974 87.44C9.56974 87.76 11.4397 88 13.3097 88.2C15.1797 88.4 17.0397 88.56 18.9197 88.67C20.7997 88.78 22.6897 88.87 24.5697 88.96C25.5208 89.0113 26.4746 88.9778 27.4197 88.86C28.425 88.7676 29.4137 88.5423 30.3597 88.19C30.5498 88.1163 30.7158 87.9918 30.8397 87.83C31.008 87.5996 31.0792 87.3124 31.038 87.0301C30.9969 86.7477 30.8467 86.4928 30.6197 86.32C29.812 85.7293 28.9314 85.2453 27.9997 84.88Z" fill="black"/>
<path d="M45.9997 51.35C46.1631 51.2008 46.261 50.9932 46.2723 50.7723C46.2835 50.5514 46.2071 50.3349 46.0597 50.17C44.4487 48.4198 42.7034 46.7982 40.8397 45.32C39.0064 43.8533 37.1597 42.4133 35.2997 41C33.4397 39.56 31.5497 38.19 29.6597 36.8C27.7697 35.41 25.8697 34.08 23.9397 32.8L23.6797 32.64C23.24 32.3793 22.7527 32.2089 22.2464 32.1386C21.74 32.0682 21.2247 32.0995 20.7306 32.2304C20.2364 32.3614 19.7733 32.5894 19.3682 32.9012C18.9632 33.2131 18.6243 33.6025 18.3713 34.0467C18.1183 34.4909 17.9563 34.981 17.8948 35.4885C17.8332 35.996 17.8734 36.5107 18.0129 37.0025C18.1524 37.4943 18.3884 37.9534 18.7072 38.353C19.026 38.7526 19.4212 39.0847 19.8697 39.33C21.8697 40.49 23.9297 41.63 26.0097 42.7C28.0897 43.77 30.1497 44.88 32.2497 45.92C34.3497 46.96 36.4397 48 38.5697 49C40.7149 50.0206 42.9346 50.8764 45.2097 51.56C45.3486 51.5915 45.493 51.5888 45.6306 51.5523C45.7682 51.5157 45.8949 51.4463 45.9997 51.35Z" fill="black"/>
<path d="M67.7297 16.42C68.7997 18.19 69.9197 19.93 71.0497 21.67C72.2527 23.4535 73.704 25.0563 75.3597 26.43C75.5687 26.5906 75.8262 26.6752 76.0897 26.67C76.2368 26.6661 76.3817 26.6333 76.5161 26.5733C76.6505 26.5134 76.7718 26.4276 76.873 26.3208C76.9743 26.214 77.0534 26.0883 77.1061 25.9509C77.1587 25.8135 77.1837 25.6671 77.1797 25.52C77.0949 23.3705 76.6974 21.2449 75.9997 19.21C75.2997 17.26 74.5797 15.31 73.8097 13.39C72.3186 9.54222 70.6161 5.77982 68.7097 2.11998C68.2269 1.25475 67.429 0.608997 66.4821 0.31707C65.5353 0.0251421 64.5123 0.109515 63.6261 0.552636C62.7398 0.995757 62.0585 1.7635 61.724 2.69616C61.3894 3.62881 61.4273 4.65455 61.8297 5.55998C63.595 9.28581 65.5647 12.9113 67.7297 16.42Z" fill="black"/>
<path d="M121.12 26.43C122.512 24.8351 123.818 23.166 125.03 21.43C126.24 19.73 127.38 17.99 128.49 16.24C129.6 14.49 130.67 12.73 131.72 10.95C132.77 9.16998 133.72 7.35998 134.72 5.51998C135.176 4.60631 135.25 3.54884 134.927 2.58022C134.603 1.61159 133.908 0.811148 132.995 0.354976C132.081 -0.101196 131.024 -0.175731 130.055 0.147769C129.086 0.47127 128.286 1.16631 127.83 2.07998C126.91 3.92998 126.09 5.81998 125.28 7.71998C124.47 9.61998 123.73 11.55 123.01 13.49C122.29 15.43 121.57 17.38 120.95 19.37C120.306 21.3762 119.772 23.4159 119.35 25.48C119.306 25.6609 119.314 25.8503 119.372 26.0269C119.431 26.2036 119.537 26.3605 119.68 26.48C119.776 26.5736 119.891 26.6468 120.016 26.6951C120.142 26.7434 120.276 26.7659 120.41 26.7613C120.545 26.7566 120.677 26.7249 120.799 26.6679C120.921 26.611 121.03 26.5301 121.12 26.43Z" fill="black"/>
<path d="M173.81 38.08C174.198 37.7563 174.52 37.3592 174.755 36.9113C174.99 36.4635 175.135 35.9738 175.181 35.47C175.227 34.9662 175.173 34.4584 175.023 33.9754C174.872 33.4924 174.628 33.0437 174.305 32.655C173.981 32.2663 173.584 31.9451 173.136 31.7099C172.688 31.4746 172.199 31.3299 171.695 31.2839C171.191 31.238 170.683 31.2917 170.2 31.442C169.717 31.5923 169.268 31.8363 168.88 32.16C167.24 33.53 165.61 34.94 164.01 36.37C162.41 37.8 160.83 39.27 159.26 40.75C157.69 42.23 156.13 43.75 154.6 45.23C153.031 46.7727 151.596 48.4453 150.31 50.23C150.232 50.3427 150.183 50.4722 150.165 50.6079C150.148 50.7435 150.163 50.8814 150.21 51.01C150.288 51.2181 150.446 51.387 150.648 51.4805C150.85 51.574 151.08 51.5846 151.29 51.51C153.342 50.7351 155.326 49.7884 157.22 48.68C159.08 47.59 160.93 46.47 162.76 45.34C164.59 44.21 166.42 43.06 168.22 41.89C170.02 40.72 171.8 39.52 173.56 38.29L173.81 38.08Z" fill="black"/>
<path d="M194.82 80.85C194.68 80.4395 194.461 80.0605 194.175 79.7348C193.888 79.4091 193.541 79.143 193.152 78.9516C192.763 78.7603 192.34 78.6476 191.907 78.6198C191.474 78.5921 191.04 78.6499 190.63 78.79C188.75 79.44 186.9 80.17 185.06 80.94C183.22 81.71 181.4 82.5 179.59 83.34C177.78 84.18 175.98 85.05 174.18 85.92C173.268 86.3532 172.392 86.8582 171.56 87.43C170.679 87.9971 169.87 88.6686 169.15 89.43C168.987 89.5976 168.888 89.8169 168.87 90.05C168.853 90.195 168.866 90.342 168.908 90.4818C168.95 90.6217 169.02 90.7517 169.113 90.8638C169.207 90.976 169.322 91.0681 169.452 91.1344C169.582 91.2008 169.724 91.2401 169.87 91.25C170.922 91.3497 171.983 91.3228 173.03 91.17C174.044 91.0386 175.047 90.8314 176.03 90.55C177.95 90 179.88 89.47 181.78 88.88C183.68 88.29 185.58 87.68 187.46 87.03C189.34 86.38 191.14 85.73 193 85C193.776 84.6713 194.396 84.0584 194.735 83.2868C195.073 82.5151 195.104 81.6433 194.82 80.85Z" fill="black"/>
<path d="M133.86 45.61C131.17 43.8662 128.344 42.3413 125.41 41.05C122.487 39.8015 119.48 38.7622 116.41 37.94C113.356 37.1637 110.257 36.5826 107.13 36.2C105.58 36.06 104.02 35.86 102.47 35.82L100.14 35.72H97.7197C91.3039 35.8969 84.9546 37.071 78.8997 39.2C72.8073 41.3491 67.1008 44.4657 61.9997 48.43C56.8604 52.4473 52.516 57.3886 49.1897 63C47.5541 65.8114 46.188 68.7713 45.1097 71.84C44.0836 74.8897 43.3175 78.0209 42.8197 81.2C41.8645 87.4688 41.9253 93.8505 42.9997 100.1C44.1381 106.307 46.4056 112.252 49.6897 117.64C52.8868 122.878 56.9436 127.54 61.6897 131.43C66.3506 135.283 71.6554 138.282 77.3597 140.29C82.7145 142.07 88.3948 142.654 93.9997 142C96.4565 141.779 98.8832 141.299 101.24 140.57C105.767 139.002 109.974 136.631 113.66 133.57C117.379 130.524 120.598 126.913 123.2 122.87C125.905 118.718 127.764 114.072 128.67 109.2C129.126 106.66 129.227 104.068 128.97 101.5C128.709 98.8736 128.034 96.3052 126.97 93.89C125.894 91.4905 124.465 89.2657 122.73 87.29C120.859 85.1049 118.484 83.4092 115.81 82.35C113.024 81.3074 109.991 81.1229 107.1 81.82C104.86 82.3762 102.734 83.3205 100.82 84.61C99.2809 82.8429 97.4718 81.3308 95.4597 80.13C94.2669 79.4408 92.9849 78.9192 91.6497 78.58C90.3441 78.2289 89.0013 78.0342 87.6497 78C84.9223 77.902 82.2146 78.4972 79.7797 79.73C77.3064 80.9738 75.2441 82.9042 73.8397 85.29C72.461 87.6426 71.7682 90.3341 71.8397 93.06C71.9184 95.6357 72.535 98.1666 73.6497 100.49C74.7468 102.729 76.2256 104.759 78.0197 106.49C79.7157 108.105 81.5456 109.574 83.4897 110.88C85.3697 112.17 87.2797 113.35 89.0397 114.65C90.8267 115.868 92.3614 117.42 93.5597 119.22C94.1177 120.142 94.5008 121.159 94.6897 122.22C94.8399 123.325 94.8399 124.445 94.6897 125.55C95.0381 124.457 95.2169 123.317 95.2197 122.17C95.1948 120.989 94.9507 119.822 94.4997 118.73C93.5091 116.586 92.0781 114.674 90.2997 113.12C86.9597 109.93 83.2997 107.31 80.5897 104.12C79.2641 102.575 78.2214 100.808 77.5097 98.9C76.8388 97.0772 76.5296 95.1411 76.5997 93.2C76.7041 91.3422 77.305 89.5464 78.3397 88C79.3281 86.547 80.6889 85.3865 82.2797 84.64C83.9102 83.902 85.6919 83.5594 87.4797 83.64C89.2706 83.7158 91.0196 84.2052 92.5897 85.07C94.0157 85.9491 95.3202 87.0115 96.4697 88.23C95.7553 88.9889 95.0874 89.7904 94.4697 90.63C92.8835 92.7111 91.6875 95.0624 90.9397 97.57C90.5182 99.0099 90.3957 100.521 90.5797 102.01C90.703 102.885 90.9879 103.729 91.4197 104.5C91.8831 105.287 92.5065 105.969 93.2497 106.5C94.554 107.467 96.1096 108.036 97.7297 108.14C99.4104 108.21 101.068 107.729 102.45 106.77C103.696 105.893 104.722 104.739 105.45 103.4C106.148 102.132 106.603 100.745 106.79 99.31C106.978 97.8899 106.913 96.4477 106.6 95.05C106.304 93.7726 105.885 92.5267 105.35 91.33C105.13 90.85 104.89 90.33 104.64 89.91C105.855 89.2921 107.162 88.8734 108.51 88.67C110.05 88.4373 111.625 88.6489 113.05 89.28C114.534 89.9728 115.838 90.9995 116.86 92.28C118.061 93.7127 119.069 95.2961 119.86 96.99C121.449 100.457 122.071 104.289 121.66 108.08C121.158 112.125 119.899 116.04 117.95 119.62C110.6 133.81 94.0797 141.7 79.6097 134.68C74.9309 132.355 70.71 129.204 67.1497 125.38C63.638 121.643 60.7298 117.382 58.5297 112.75C56.442 108.25 55.1884 103.408 54.8297 98.46C54.5934 93.5894 55.1129 88.7115 56.3697 84C57.6168 79.3919 59.5736 75.0061 62.1697 71C64.713 67.0253 67.8803 63.4866 71.5497 60.52C75.3048 57.5395 79.5109 55.1765 84.0097 53.52C88.5468 51.8834 93.3099 50.9591 98.1297 50.78H99.9297L101.8 50.83C103.05 50.83 104.28 50.98 105.53 51.05C107.979 51.3062 110.41 51.7103 112.81 52.26C122.349 54.3499 130.867 59.6875 136.908 67.3606C142.948 75.0338 146.137 84.5665 145.93 94.33C145.806 104.359 142.516 114.092 136.53 122.14C133.513 126.208 129.972 129.859 126 133C123.98 134.614 121.874 136.117 119.69 137.5C117.499 138.883 115.232 140.142 112.9 141.27C107.934 143.478 102.841 145.392 97.6497 147C92.3197 148.8 86.8297 150.5 81.3597 153.31C78.3328 154.74 75.6359 156.783 73.4397 159.31C72.1735 160.83 71.295 162.635 70.8797 164.57C70.6346 165.687 70.5973 166.84 70.7697 167.97C70.968 169.168 71.4253 170.307 72.1097 171.31C72.8602 172.362 73.7912 173.273 74.8597 174C74.2626 175.397 73.9858 176.909 74.0498 178.427C74.1139 179.945 74.517 181.429 75.2297 182.77C76.0133 184.237 77.0034 185.584 78.1697 186.77C78.7219 187.353 79.3097 187.9 79.9297 188.41C80.3697 188.76 80.8397 189.07 81.3097 189.41C80.8531 190.035 80.4611 190.705 80.1397 191.41C79.4366 192.919 79.2674 194.622 79.6597 196.24C79.8836 196.99 80.2208 197.702 80.6597 198.35C81.0723 198.958 81.5594 199.513 82.1097 200C81.4996 198.789 81.2039 197.445 81.2497 196.09C81.3451 194.895 81.8219 193.763 82.6097 192.86C83.1306 192.224 83.7363 191.662 84.4097 191.19C86.2907 192.137 88.2601 192.898 90.2897 193.46C93.1782 194.252 96.1404 194.745 99.1297 194.93C102.158 195.153 105.202 195.022 108.2 194.54C108.97 194.4 109.75 194.23 110.57 194C111.487 193.743 112.37 193.377 113.2 192.91C113.885 192.525 114.481 192 114.95 191.37C115.381 190.783 115.654 190.094 115.74 189.37C115.782 188.918 115.748 188.461 115.64 188.02C115.622 187.918 115.595 187.817 115.56 187.72L115.5 187.53C115.171 186.5 114.67 185.533 114.02 184.67C112.762 183.119 111.111 181.935 109.24 181.24C107.637 180.633 105.951 180.273 104.24 180.17C101.116 179.959 97.9793 180.273 94.9597 181.1C92.0008 181.87 89.1731 183.077 86.5697 184.68C85.9197 185.09 85.2797 185.54 84.6597 186.02L84.4597 185.9C83.473 185.195 82.5555 184.398 81.7197 183.52C80.9527 182.671 80.3249 181.706 79.8597 180.66C79.5437 180.007 79.3795 179.291 79.3795 178.565C79.3795 177.839 79.5437 177.123 79.8597 176.47C80.3397 176.63 80.8597 176.78 81.3097 176.92C84.254 177.726 87.2671 178.255 90.3097 178.5C96.2468 179.012 102.226 178.706 108.08 177.59C111.24 177.046 114.309 176.067 117.2 174.68C118.116 174.218 118.975 173.651 119.76 172.99C120.002 172.783 120.233 172.563 120.45 172.33C120.708 172.062 120.945 171.774 121.16 171.47C121.418 171.119 121.642 170.744 121.83 170.35C122.227 169.492 122.428 168.556 122.42 167.61C122.446 167.277 122.446 166.943 122.42 166.61C122.341 165.865 122.149 165.137 121.85 164.45C121.292 163.158 120.41 162.032 119.29 161.18C118.414 160.516 117.443 159.986 116.41 159.61C115.545 159.289 114.656 159.042 113.75 158.87C112.131 158.567 110.487 158.417 108.84 158.42C105.786 158.422 102.74 158.733 99.7497 159.35C93.827 160.461 88.1424 162.592 82.9497 165.65C81.5874 166.489 80.2964 167.439 79.0897 168.49C78.6486 168.234 78.2614 167.894 77.9497 167.49C77.7197 167.06 77.6797 166.92 77.8297 166.17C78.03 165.327 78.4314 164.544 78.9997 163.89C80.6302 162.299 82.5703 161.06 84.6997 160.25C89.7494 158.344 94.9251 156.79 100.19 155.6C105.848 154.283 111.424 152.637 116.89 150.67C119.701 149.556 122.44 148.267 125.09 146.81C127.753 145.366 130.318 143.75 132.77 141.97C137.752 138.368 142.205 134.087 146 129.25C149.845 124.333 152.914 118.856 155.1 113.01C157.285 107.115 158.527 100.912 158.78 94.63C159.351 81.7792 155.504 69.1203 147.88 58.76C144.035 53.5698 139.285 49.1153 133.86 45.61ZM101.65 98.76C101.613 99.5344 101.412 100.292 101.058 100.982C100.704 101.672 100.207 102.278 99.5997 102.76C99.0978 103.12 98.4867 103.295 97.8704 103.255C97.2541 103.214 96.6707 102.962 96.2197 102.54C96.0496 102.393 95.912 102.212 95.8155 102.009C95.7191 101.806 95.6661 101.585 95.6597 101.36C95.6182 100.595 95.7339 99.8289 95.9997 99.11C96.6754 97.3318 97.6948 95.7041 98.9997 94.32C99.3592 93.9105 99.7397 93.52 100.14 93.15C100.24 93.33 100.35 93.51 100.44 93.69C100.859 94.5315 101.194 95.4125 101.44 96.32C101.658 97.1137 101.729 97.9406 101.65 98.76ZM109.86 187.45C109.93 187.42 110 187.35 109.86 187.45V187.45ZM103.64 186.58C104.73 186.705 105.801 186.96 106.83 187.34C107.35 187.537 107.839 187.81 108.28 188.15C107.86 188.3 107.41 188.43 106.95 188.55C101.87 189.752 96.5885 189.82 91.4797 188.75C90.9897 188.64 90.4797 188.51 90.0397 188.37C94.3941 186.813 99.0307 186.202 103.64 186.58ZM114.17 167.51C114.17 167.63 114.28 167.64 114.17 167.51V167.51ZM100.92 166.44C103.457 166.087 106.021 165.97 108.58 166.09C109.739 166.146 110.891 166.311 112.02 166.58C112.479 166.689 112.928 166.84 113.36 167.03C112.326 167.512 111.252 167.903 110.15 168.2C108.97 168.54 107.72 168.84 106.45 169.09C101.268 170.075 96.0045 170.57 90.7297 170.57C89.5097 170.57 88.2897 170.57 87.0997 170.42C91.4758 168.394 96.1367 167.052 100.92 166.44Z" fill="black"/>
</g>
<defs>
<clipPath id="clip0_1113_4527">
<rect width="200" height="200" fill="white"/>
</clipPath>
</defs>
</svg>
