<svg width="200" height="200" viewBox="0 0 200 200" fill="none" xmlns="http://www.w3.org/2000/svg">
<g clip-path="url(#clip0_1113_4817)">
<path d="M136 36C136 55.8823 119.882 72 100 72C80.1178 72 64 55.8823 64 36C64 16.1177 80.1178 0 100 0C119.882 0 136 16.1177 136 36Z" fill="black"/>
<path d="M97.2303 104.53C84.5711 91.5968 69.4551 81.3236 52.7702 74.3138C36.0853 67.3039 18.1679 63.6988 0.0703125 63.71V136.43C13.6837 136.447 26.9334 140.826 37.8757 148.924C48.818 157.023 56.877 168.415 60.8703 181.43C64.7109 152.643 77.419 125.766 97.2303 104.53Z" fill="black"/>
<path d="M199.93 63.71V136.43C183.076 136.451 166.919 143.156 155.002 155.073C143.085 166.99 136.381 183.147 136.36 200H63.6396C63.6396 124.85 124.78 63.71 199.93 63.71Z" fill="black"/>
</g>
<defs>
<clipPath id="clip0_1113_4817">
<rect width="200" height="200" fill="white"/>
</clipPath>
</defs>
</svg>
