<svg width="200" height="200" viewBox="0 0 200 200" fill="none" xmlns="http://www.w3.org/2000/svg">
<g clip-path="url(#clip0_1113_4456)">
<path d="M100 0C126.522 0 151.957 10.5357 170.711 29.2893C189.464 48.043 200 73.4783 200 100C200 126.522 189.464 151.957 170.711 170.711C151.957 189.464 126.522 200 100 200H24C17.6348 200 11.5303 197.471 7.02944 192.971C2.52856 188.47 0 182.365 0 176L0 100C0 73.4783 10.5357 48.043 29.2893 29.2893C48.043 10.5357 73.4783 0 100 0Z" fill="url(#paint0_linear_1113_4456)"/>
<path d="M85.0895 180.56L70.2595 169.56L102.26 126.17C100.53 126.4 99.0595 126.58 97.8395 126.69C96.6195 126.8 95.6495 126.86 94.8395 126.86C84.0262 126.86 74.6629 122.75 66.7495 114.53C62.9327 110.646 59.9279 106.04 57.9105 100.982C55.8931 95.9241 54.9035 90.5148 54.9995 85.07C54.9115 79.2182 56.0281 73.4109 58.28 68.0091C60.5319 62.6072 63.8709 57.7264 68.0895 53.67C72.1812 49.4523 77.0907 46.1141 82.5174 43.8599C87.9441 41.6056 93.7738 40.4828 99.6495 40.56C105.545 40.5013 111.394 41.6141 116.856 43.8337C122.319 46.0533 127.286 49.3355 131.47 53.49C140.49 62.07 145 72.1933 145 83.86C145 94.2067 140.606 105.39 131.82 117.41L85.0895 180.56ZM74.6795 83.56C74.6371 86.9086 75.2612 90.2322 76.5155 93.3373C77.7698 96.4424 79.6292 99.267 81.9856 101.647C84.3419 104.026 87.1481 105.913 90.2407 107.198C93.3334 108.483 96.6507 109.14 99.9995 109.13C106.688 109.149 113.11 106.513 117.857 101.802C122.604 97.0903 125.288 90.688 125.32 84C125.318 80.6715 124.659 77.376 123.379 74.3032C122.1 71.2304 120.225 68.4409 117.864 66.0952C115.502 63.7495 112.7 61.8938 109.619 60.635C106.538 59.3761 103.238 58.7389 99.9095 58.76C96.6045 58.7073 93.3236 59.3303 90.2679 60.5907C87.2122 61.8512 84.4462 63.7225 82.1395 66.09C79.7631 68.342 77.8746 71.0583 76.5913 74.0704C75.3081 77.0824 74.6574 80.326 74.6795 83.6V83.56Z" fill="white"/>
</g>
<defs>
<linearGradient id="paint0_linear_1113_4456" x1="0" y1="100" x2="200" y2="100" gradientUnits="userSpaceOnUse">
<stop stop-color="#FF8A11"/>
<stop offset="1" stop-color="#E81894"/>
</linearGradient>
<clipPath id="clip0_1113_4456">
<rect width="200" height="200" fill="white"/>
</clipPath>
</defs>
</svg>
