<svg width="200" height="200" viewBox="0 0 200 200" fill="none" xmlns="http://www.w3.org/2000/svg">
<g clip-path="url(#clip0_1113_4480)">
<path d="M191.28 111.44C189.7 85.32 180 65.34 164.07 55.19L163.37 54.76C153.37 48.89 138.15 44.26 121.6 41.66L137.16 31.66C137.57 31.38 138.04 31.04 138.44 30.71C140.979 28.5777 142.567 25.5239 142.855 22.2204C143.143 18.917 142.107 15.6345 139.975 13.095C137.842 10.5556 134.788 8.96719 131.485 8.67933C128.182 8.39146 124.899 9.42767 122.36 11.56L91.7996 37.25L52.7296 2.83001C52.5596 2.68001 52.3596 2.52001 52.1796 2.38001C51.0017 1.46798 49.6556 0.796897 48.2183 0.405075C46.781 0.0132539 45.2806 -0.0916318 43.8027 0.0964068C40.8181 0.476168 38.1066 2.02602 36.2646 4.40501C35.3526 5.58297 34.6815 6.92903 34.2897 8.36634C33.8979 9.80365 33.793 11.3041 33.981 12.7819C34.3608 15.7665 35.9106 18.4781 38.2896 20.32L65.8896 41.71C49.0496 44.89 32.3296 51.94 21.8896 66.35L21.6496 66.69C7.14963 87.58 7.64963 116.9 9.22963 132.51C9.22963 132.65 9.22963 132.79 9.27963 132.93C13.0796 164 25.7496 184 46.9996 192.43L47.1496 192.49C59.6696 197.33 76.8596 200 95.5396 200C107 200 124.2 199 141.06 194.12C159.24 188.87 172.18 180.46 179.53 169.12C179.73 168.8 179.93 168.48 180.12 168.12C188.26 154 192.54 132.27 191.28 111.44ZM161 157.11C151.71 171.47 122.65 177.92 95.5396 177.92C80.0796 177.92 65.2596 175.83 55.1096 171.92C39.4996 165.75 33.4696 148.83 31.2296 130.3C29.3396 111.77 32.4396 91.63 40.9996 79.3C50.3696 66.3 70.5396 61.47 92.6596 61.47C116.06 61.47 140.33 66.89 152.24 73.85C173.87 87.58 173.07 136.16 161 157.11Z" fill="#742BFF"/>
<path d="M75.8398 92.14C67.2298 98.31 82.3898 147.59 92.8398 151.7C103.29 155.81 142.15 120.33 138.21 109.16C135 100 84.4398 86 75.8398 92.14Z" fill="#742BFF"/>
</g>
<defs>
<clipPath id="clip0_1113_4480">
<rect width="200" height="200" fill="white"/>
</clipPath>
</defs>
</svg>
