<svg width="791" height="200" viewBox="0 0 791 200" fill="none" xmlns="http://www.w3.org/2000/svg">
<path d="M108.144 64.836L72.466 153.469H115.367L130.388 196.37H0.298828L81.1227 3.24793H137.373L217.935 196.37H160.693L108.144 64.836ZM700.215 108.943L700.466 107.964C700.956 106.042 701.553 104.311 702.209 102.818C704.597 97.5047 707.726 93.5047 711.535 90.9375C715.367 88.3584 719.642 87.045 724.227 87.045C728.239 87.045 732.108 88.0718 735.738 90.0659C739.367 92.0718 742.46 95.2121 744.944 99.4032C746.365 101.827 747.368 104.729 747.905 108.024L748.072 108.943H700.215ZM785.111 90.5315C783.236 86.2927 781.027 82.3524 778.508 78.7584C775.988 75.1524 773.135 71.8808 769.994 68.9554C763.702 63.1285 756.49 58.639 748.55 55.63C740.621 52.6211 732.251 51.0927 723.666 51.0927C711.069 51.0927 699.32 54.1017 688.729 60.036C678.15 65.9584 669.553 74.4718 663.165 85.3375C656.776 96.1912 653.529 109.206 653.529 124.012C653.529 135.714 655.666 146.317 659.857 155.523C664.048 164.74 669.923 172.597 677.314 178.89C684.705 185.194 693.373 190.066 703.057 193.349C712.753 196.645 723.427 198.317 734.794 198.317C743.021 198.317 751.2 197.397 759.093 195.558C766.806 193.767 774.269 191.057 781.29 187.511V149.732C774.09 153.003 767.141 155.606 760.597 157.457C753.696 159.415 746.52 160.418 739.236 160.418C731.379 160.418 724.394 159.081 718.472 156.454C712.526 153.803 707.714 149.732 704.215 144.335C703.153 142.699 702.221 140.824 701.433 138.758L701.027 137.672H789.684C789.851 135.224 790.066 132.537 790.329 129.505C790.603 126.4 790.747 123.224 790.747 120.108C790.747 108.967 788.848 99.0211 785.111 90.5315ZM592.036 143.057C590.567 145.517 588.86 147.69 586.926 149.588C584.991 151.463 582.83 153.051 580.466 154.34C575.726 156.884 570.639 158.185 565.338 158.185C562.257 158.185 559.105 157.779 555.965 156.979L555.368 156.824V93.0629L555.976 92.9196C559.344 92.1554 562.95 91.7733 566.723 91.7733C572.024 91.7733 576.967 92.9196 581.421 95.2002C585.899 97.4808 589.553 101.063 592.323 105.815C595.057 110.555 596.454 116.681 596.454 124.012C596.454 131.726 594.962 138.137 592.036 143.057ZM637.636 91.3673C633.708 82.3405 628.299 74.7584 621.553 68.836C614.806 62.9136 607.272 58.4718 599.153 55.642C591.021 52.8002 582.639 51.3673 574.245 51.3673C567.833 51.3673 561.815 52.036 556.347 53.3375L555.368 53.5763V1.12256H507.164V187.2C515.821 191.129 524.884 194.078 534.066 195.964C543.439 197.899 553.767 198.878 564.788 198.878C574.651 198.878 584.442 197.254 593.875 194.054C603.284 190.854 611.845 186.042 619.344 179.737C626.818 173.445 632.8 165.529 637.075 156.227C641.362 146.914 643.547 135.893 643.547 123.451C643.547 111.2 641.553 100.394 637.636 91.3673ZM446.209 143.272C445.015 145.732 443.642 147.905 442.078 149.755C440.514 151.594 438.782 153.111 436.872 154.317C433.051 156.693 428.788 157.911 424.203 157.911C419.63 157.911 415.367 156.693 411.547 154.317C407.714 151.917 404.585 148.215 402.209 143.272C399.845 138.376 398.663 132.084 398.663 124.561C398.663 116.872 399.845 110.532 402.209 105.72C404.585 100.872 407.714 97.2061 411.547 94.8181C415.367 92.442 419.63 91.2241 424.203 91.2241C428.788 91.2241 433.039 92.442 436.872 94.8181C440.693 97.2061 443.833 100.872 446.209 105.72C448.562 110.543 449.767 116.884 449.767 124.561C449.767 132.072 448.562 138.364 446.209 143.272ZM486.95 84.0838C480.382 73.1345 471.511 64.7285 460.562 59.0688C455.069 56.239 449.278 54.1136 443.212 52.6808C437.135 51.2599 430.794 50.5315 424.203 50.5315C411.057 50.5315 398.818 53.4091 387.857 59.0688C376.908 64.7285 367.988 73.1345 361.326 84.0957C354.663 95.033 351.296 108.645 351.296 124.561C351.296 140.478 354.663 154.102 361.326 165.039C367.988 175.988 376.92 184.454 387.857 190.209C398.818 195.964 411.045 198.878 424.203 198.878C437.182 198.878 449.362 195.964 460.418 190.209C471.451 184.454 480.382 175.988 486.95 165.051C493.517 154.102 496.848 140.478 496.848 124.561C496.848 108.645 493.517 95.033 486.95 84.0838ZM293.051 156.573L292.442 156.729C289.051 157.517 285.541 157.911 281.959 157.911C276.848 157.911 271.953 156.705 267.415 154.34C262.842 151.964 259.129 148.299 256.37 143.463C253.636 138.627 252.239 132.37 252.239 124.848C252.239 117.146 253.576 110.746 256.227 105.827C258.89 100.872 262.615 97.2061 267.296 94.9255C271.917 92.645 277.135 91.4987 282.806 91.4987C286.09 91.4987 289.338 91.8808 292.442 92.633L293.051 92.7882V156.573ZM293.051 1.12256V52.5852L292.108 52.4061C287.57 51.5345 282.842 51.0927 278.078 51.0927C268.944 51.0927 259.845 52.6569 251.081 55.7733C242.317 58.8778 234.412 63.642 227.559 69.9345C220.729 76.239 215.117 84.0599 210.926 93.1942C206.723 102.305 204.597 113.051 204.597 125.123C204.597 137.923 206.902 149.123 211.463 158.424C216.024 167.737 222.09 175.463 229.469 181.397C236.872 187.332 245.29 191.773 254.52 194.603C263.773 197.433 273.194 198.878 282.52 198.878C293.899 198.878 304.418 197.851 313.791 195.833C322.973 193.851 332.12 190.854 340.968 186.926V1.12256H293.051Z" fill="#EB1000"/>
</svg>
