<svg width="641" height="200" viewBox="0 0 641 200" fill="none" xmlns="http://www.w3.org/2000/svg">
<g clip-path="url(#clip0_1255_4333)">
<path d="M337.737 50.2503C337.737 57.4575 331.931 63.2633 324.724 63.2633C317.517 63.2633 311.711 57.4575 311.711 50.2503C311.711 43.043 317.316 37.2372 324.724 37.2372C332.131 37.4374 337.737 43.2432 337.737 50.2503ZM284.083 76.4765C284.083 77.6777 284.083 79.6797 284.083 79.6797C284.083 79.6797 277.877 71.6717 264.664 71.6717C242.842 71.6717 225.825 88.2883 225.825 111.311C225.825 134.134 242.642 150.951 264.664 150.951C278.077 150.951 284.083 142.743 284.083 142.743V146.146C284.083 147.748 285.284 148.949 286.886 148.949H303.102V73.6737C303.102 73.6737 288.287 73.6737 286.886 73.6737C285.284 73.6737 284.083 75.0751 284.083 76.4765ZM284.083 124.725C281.08 129.129 275.074 132.933 267.867 132.933C255.054 132.933 245.244 124.925 245.244 111.311C245.244 97.6977 255.054 89.6897 267.867 89.6897C274.874 89.6897 281.28 93.6937 284.083 97.8979V124.725ZM315.114 73.6737H334.333V148.949H315.114V73.6737ZM602.201 71.6717C588.988 71.6717 582.782 79.6797 582.782 79.6797V37.4374H563.563V148.949C563.563 148.949 578.377 148.949 579.779 148.949C581.38 148.949 582.582 147.548 582.582 146.146V142.743C582.582 142.743 588.788 150.951 602.001 150.951C623.823 150.951 640.84 134.134 640.84 111.311C640.84 88.4885 623.823 71.6717 602.201 71.6717ZM598.998 132.733C591.591 132.733 585.785 128.929 582.782 124.525V97.6977C585.785 93.6937 592.191 89.4895 598.998 89.4895C611.811 89.4895 621.621 97.4975 621.621 111.111C621.621 124.725 611.811 132.733 598.998 132.733ZM553.553 104.304V149.149H534.333V106.507C534.333 94.0941 530.329 89.0891 519.519 89.0891C513.713 89.0891 507.707 92.0921 503.903 96.4965V148.949H484.684V73.6737H499.899C501.501 73.6737 502.702 75.0751 502.702 76.4765V79.6797C508.307 73.8739 515.715 71.6717 523.122 71.6717C531.531 71.6717 538.538 74.0741 544.143 78.8789C550.95 84.4845 553.553 91.6917 553.553 104.304ZM438.037 71.6717C424.824 71.6717 418.618 79.6797 418.618 79.6797V37.4374H399.398V148.949C399.398 148.949 414.213 148.949 415.615 148.949C417.216 148.949 418.417 147.548 418.417 146.146V142.743C418.417 142.743 424.624 150.951 437.837 150.951C459.659 150.951 476.676 134.134 476.676 111.311C476.876 88.4885 459.859 71.6717 438.037 71.6717ZM434.834 132.733C427.426 132.733 421.621 128.929 418.618 124.525V97.6977C421.621 93.6937 428.027 89.4895 434.834 89.4895C447.647 89.4895 457.457 97.4975 457.457 111.111C457.457 124.725 447.647 132.733 434.834 132.733ZM382.782 71.6717C388.588 71.6717 391.591 72.6727 391.591 72.6727V90.4905C391.591 90.4905 375.575 85.0851 365.565 96.4965V149.149H346.345V73.6737C346.345 73.6737 361.16 73.6737 362.562 73.6737C364.163 73.6737 365.364 75.0751 365.364 76.4765V79.6797C368.968 75.4755 376.776 71.6717 382.782 71.6717ZM183.182 142.142C182.181 139.74 181.18 137.137 180.179 134.935C178.578 131.331 176.976 127.928 175.575 124.725L175.374 124.525C161.561 94.4945 146.746 64.0641 131.13 34.034L130.53 32.8328C128.928 29.8298 127.326 26.6266 125.725 23.4234C123.723 19.8198 121.721 16.016 118.518 12.4124C112.111 4.4044 102.902 0 93.0922 0C83.0822 0 74.0732 4.4044 67.4666 12.012C64.4636 15.6156 62.2614 19.4194 60.2594 23.023C58.6578 26.2262 57.0562 29.4294 55.4546 32.4324L54.854 33.6336C39.4385 63.6637 24.4235 94.0941 10.6097 124.124L10.4095 124.525C9.00811 127.728 7.40651 131.131 5.80491 134.735C4.80391 136.937 3.80291 139.339 2.80191 141.942C0.199305 149.349 -0.601495 156.356 0.399506 163.564C2.60171 178.579 12.6117 191.191 26.4255 196.797C31.6307 198.999 37.0361 200 42.6417 200C44.2433 200 46.2453 199.8 47.8469 199.6C54.4536 198.799 61.2604 196.597 67.867 192.793C76.0752 188.188 83.883 181.582 92.6918 171.972C101.501 181.582 109.509 188.188 117.517 192.793C124.123 196.597 130.93 198.799 137.537 199.6C139.138 199.8 141.14 200 142.742 200C148.347 200 153.953 198.999 158.958 196.797C172.972 191.191 182.782 178.378 184.984 163.564C186.586 156.557 185.785 149.55 183.182 142.142ZM92.892 152.553C82.0812 138.939 75.0742 126.126 72.6718 115.315C71.6708 110.711 71.4706 106.707 72.0712 103.103C72.4716 99.8999 73.6728 97.0971 75.2744 94.6947C79.0782 89.2893 85.4846 85.8859 92.892 85.8859C100.299 85.8859 106.906 89.0891 110.51 94.6947C112.111 97.0971 113.312 99.8999 113.713 103.103C114.313 106.707 114.113 110.911 113.112 115.315C110.71 125.926 103.703 138.739 92.892 152.553ZM172.772 161.962C171.37 172.372 164.363 181.381 154.554 185.385C149.749 187.387 144.544 187.988 139.338 187.387C134.333 186.787 129.328 185.185 124.123 182.182C116.916 178.178 109.709 171.972 101.3 162.763C114.514 146.547 122.522 131.732 125.525 118.519C126.926 112.312 127.126 106.707 126.526 101.502C125.725 96.4965 123.923 91.8919 121.12 87.8879C114.914 78.8789 104.504 73.6737 92.892 73.6737C81.2804 73.6737 70.87 79.0791 64.6638 87.8879C61.861 91.8919 60.0592 96.4965 59.2584 101.502C58.4576 106.707 58.6578 112.513 60.2594 118.519C63.2624 131.732 71.4706 146.747 84.4836 162.963C76.2754 172.172 68.868 178.378 61.6608 182.382C56.4556 185.385 51.4506 186.987 46.4455 187.588C41.0401 188.188 35.8349 187.387 31.2303 185.586C21.4205 181.582 14.4135 172.573 13.0121 162.162C12.4115 157.157 12.8119 152.152 14.8139 146.547C15.4145 144.545 16.4155 142.543 17.4165 140.14C18.8179 136.937 20.4195 133.534 22.0211 130.13L22.2213 129.73C36.0351 99.8999 50.85 69.4695 66.2654 39.8398L66.866 38.6386C68.4676 35.6356 70.0692 32.4324 71.6708 29.4294C73.2724 26.2262 75.0742 23.2232 77.2764 20.6206C81.4806 15.8158 87.0862 13.2132 93.2924 13.2132C99.4986 13.2132 105.104 15.8158 109.308 20.6206C111.511 23.2232 113.312 26.2262 114.914 29.4294C116.516 32.4324 118.117 35.6356 119.719 38.6386L120.319 39.8398C135.535 69.6697 150.349 100.1 164.163 129.93V130.13C165.765 133.333 167.166 136.937 168.768 140.14C169.769 142.543 170.77 144.545 171.37 146.547C172.972 151.752 173.573 156.757 172.772 161.962Z" fill="#FF5A5F"/>
</g>
<defs>
<clipPath id="clip0_1255_4333">
<rect width="640.841" height="200" fill="white"/>
</clipPath>
</defs>
</svg>
