<svg width="825" height="200" viewBox="0 0 825 200" fill="none" xmlns="http://www.w3.org/2000/svg">
<path d="M772.972 121.167V66.3389H754.625V48.4195H772.972V16.4139H792.6V48.4195H818.2V66.3389H792.6V119.672C792.6 131.408 797.508 136.742 806.681 136.742C810.306 136.742 812.867 136.314 815.642 135.033L822.467 151.889C817.986 153.808 813.292 154.664 806.681 154.664C784.706 154.664 772.972 142.503 772.972 121.167V121.167ZM646.461 100.686C646.461 71.0301 666.944 45.0051 697.667 45.0051C728.814 45.0051 748.869 66.9773 748.869 100.686C748.869 102.18 748.656 104.313 748.656 104.313H666.092C667.158 126.502 683.158 138.447 699.372 138.447C710.892 138.447 722.411 133.755 727.961 120.527L745.456 127.78C739.269 142.713 723.906 156.369 699.8 156.369C667.8 156.369 646.461 132.261 646.461 100.686V100.686ZM697.239 62.9245C682.733 62.9245 671.211 72.7384 667.369 88.0995H727.961C727.322 78.9245 719.639 62.9245 697.239 62.9245V62.9245ZM550.253 138.447H549.4V152.952H530.628V0.199497H550.253V48.4162L549.4 62.9245H550.253C556.228 53.3245 569.244 45.0023 585.883 45.0023C612.336 45.0023 635.592 68.6828 635.592 100.686C635.592 132.688 612.336 156.369 585.883 156.369C569.244 156.369 556.228 148.047 550.253 138.447ZM615.964 100.686C615.964 77.2162 600.178 62.9245 582.683 62.9245C565.189 62.9245 549.4 76.7912 549.4 100.686C549.4 124.58 565.189 138.447 582.683 138.447C600.178 138.447 615.964 124.155 615.964 100.686ZM417.564 121.377C417.564 97.6992 438.897 84.8964 463.433 84.8964C477.514 84.8964 487.753 88.9492 491.808 91.2992V88.3131C491.808 72.5242 479.219 62.9242 464.497 62.9242C453.619 62.9242 443.164 68.2576 439.539 78.0714L421.619 70.3909C425.244 60.7909 437.831 45.002 464.072 45.002C489.675 45.002 510.581 60.3659 510.581 89.8076V152.955H491.808V138.449H490.953C485.194 147.194 474.528 156.369 456.606 156.369C435.269 156.369 417.564 143.141 417.564 121.377V121.377ZM491.808 107.938C491.808 107.938 483.489 101.11 466.844 101.11C446.15 101.11 438.044 112.208 438.044 121.805C438.044 132.902 449.564 138.449 459.806 138.449C475.381 138.449 491.808 125.005 491.808 107.938V107.938ZM328.606 48.4159L327.753 62.9214H328.606C334.153 53.3214 347.381 45.002 361.675 45.002C388.342 45.002 401.569 63.1353 401.569 88.952V152.955H381.942V91.9381C381.942 70.177 371.061 62.9214 356.128 62.9214C339.058 62.9214 328.606 79.1381 328.606 95.1381V152.955H308.978V0.201997H328.606V48.4159V48.4159ZM208.928 138.446H208.075L208.928 152.952V199.038H189.3V48.4159H208.075V62.9242H208.928C214.903 53.3242 227.917 45.002 244.558 45.002C271.011 45.002 294.267 68.6826 294.267 100.685C294.267 132.688 271.011 156.369 244.558 156.369C227.917 156.369 214.903 148.046 208.928 138.446V138.446ZM274.639 100.685C274.639 77.2159 258.85 62.9242 241.358 62.9242C223.861 62.9242 208.075 76.7909 208.075 100.685C208.075 124.58 223.861 138.446 241.358 138.446C258.85 138.446 274.639 124.155 274.639 100.685ZM148.769 152.955H168.397V0.201997H148.769V152.955ZM57.6778 0.199219L0.0722656 152.955H21.8362L36.7667 111.566H100.986L115.708 152.955H137.467L79.8639 0.199219H57.6778ZM68.3417 24.3076H69.1973L94.1584 93.2159H43.3834L68.3417 24.3076V24.3076Z" fill="#ED1C24"/>
</svg>
