<svg width="611" height="200" viewBox="0 0 611 200" fill="none" xmlns="http://www.w3.org/2000/svg">
<g clip-path="url(#clip0_1255_3921)">
<path d="M234.552 174.466C211.825 159.825 180.98 157.256 131.236 171.057C78.2062 183.519 60.5252 191.507 37.305 175.471C28.3844 167.593 25.1861 154.909 27.5743 136.639C33.1134 106.855 48.0825 78.1923 74.6712 46.3989C89.5128 29.86 103.279 15.6667 121.458 9.9672C135.39 6.39176 134.088 17.341 132.402 18.907C130.623 18.907 127.635 19.1872 125.325 20.6943C123.451 22.148 118.306 26.8419 118.029 33.156C117.631 42.8219 127.634 40.8101 131.949 35.503C136.599 29.5226 143.472 18.0702 138.066 7.39652C135.8 3.59737 131.884 0.971715 127.023 0.0776629C110.378 -0.873651 94.8748 7.06135 80.5677 15.8339C49.2781 37.5698 24.2485 67.6881 10.0857 100.656C1.92013 120.547 -5.46439 149.041 5.60475 172.232C14.1673 188.323 31.9445 196.871 53.1536 195.083C68.0288 193.52 86.0159 188.713 98.1135 185.81C110.211 182.902 172.137 161.615 192.484 198.664C192.484 198.664 199.25 185.53 216.16 185.249C230.061 183.967 250.116 189.274 264.721 200C259.855 192.683 246.06 181.898 234.552 174.466V174.466Z" fill="#E61D2A"/>
<path d="M137.552 50.1423C125.969 42.5432 102.69 57.071 84.0451 81.9907C66.9947 104.344 59.6324 130.323 67.6445 142.337C79.5634 156.473 101.689 135.911 111.099 124.905L112.313 123.619C118.712 116.746 123.655 108.476 128.44 100.541C128.44 100.541 132.838 93.2767 133.048 92.9407C135.766 92.4399 139.04 91.6573 142.729 90.5953C142.676 90.7617 128.614 114.398 130.049 126.13C130.495 129.709 130.154 142.784 142.92 146.75C159.933 149.602 173.519 136.413 185.504 124.679C185.504 124.679 187.547 122.725 188.702 121.61C188.409 122.78 188.028 124.342 188.028 124.342C183.047 141.664 189.762 145.298 193.962 146.64C206.655 150.33 221.818 131.889 221.867 131.889C221.474 137.698 220.324 142.503 226.447 146.359C232.227 148.428 238.076 145.274 242.522 142.312C258.536 131.025 271.438 113.36 281.859 98.0905H275.212C275.133 98.0905 258.81 121.75 248.21 126.892C248.193 126.892 246.265 127.882 245.153 127.099C243.777 125.924 244.32 123.484 245.17 121.756C245.223 121.643 286.095 50.7539 286.095 50.7539H266.797C266.797 50.7539 264.689 54.1644 264.518 54.3881C264.388 54.2766 264.079 53.6903 263.864 53.4093C251.908 36.8705 224.832 62.3101 204.447 91.8115C196.599 103.156 186.608 115.928 176.247 125.147C176.247 125.147 160.898 139.217 154.34 129.108C151.943 124.861 152.68 118.651 154.032 114.574C161.668 92.8377 174.825 73.1113 189.797 61.2084C194.024 57.9139 198.618 56.9611 200.898 58.3583C203.07 59.6455 203.42 62.8278 202.046 65.0075C198.559 64.8961 195.766 65.9558 193.494 68.3028C189.02 72.9967 187.466 77.5235 188.888 81.7708C195.798 91.6046 209.58 72.1592 208.914 60.3136C208.676 56.0663 206.41 52.0442 203.028 50.0866C197.988 47.0708 190.3 47.8518 185.324 50.2561C178.663 52.7695 168.12 61.5413 161.965 68.3593C154.217 76.9096 140.929 86.4075 136.774 85.344C138.135 81.7105 149.359 58.7461 137.552 50.1423V50.1423ZM230.592 84.1147C234.346 78.9192 245.272 65.0052 247.936 62.659C256.895 54.7775 260.476 58.2453 260.786 60.7022C252.425 75.6766 242.556 92.8316 233.278 108.254C233.298 108.199 230.375 112.668 230.375 112.668C226.277 118.925 222.151 124.289 215.421 128.032C214.461 128.313 212.879 128.426 211.827 127.641C210.559 126.802 210.059 125.405 210.202 123.952C210.605 119.148 215.497 104.455 230.592 84.1147V84.1147ZM125.607 93.1102C125.607 93.1102 125.439 93.6149 125.356 93.7798C125.335 93.7798 116.943 107.468 116.943 107.468C111.878 114.23 105.553 122.725 97.6483 126.802C95.3051 127.585 92.0664 128.089 90.4157 126.023C86.9166 121.831 88.72 116.02 90.1851 111.327L90.7035 109.651C94.9043 98.2531 101.57 88.1933 108.057 78.8619C108.138 78.8069 108.32 78.7512 108.385 78.7512C108.401 78.8069 108.427 78.8069 108.438 78.9192C112.509 86.7404 120.142 90.3708 125.851 92.0497C125.885 92.0497 125.922 92.1055 125.922 92.2177C125.923 92.3841 125.83 92.6094 125.607 93.1102V93.1102ZM133.558 76.9638C133.522 77.0753 129.82 85.5677 129.82 85.5677C129.285 86.0143 128.439 85.7914 127.47 85.5677L125.808 85.2867C120.591 83.6673 116.656 80.2026 115.443 76.0683C113.769 68.0218 120.643 61.7077 123.672 59.418C126.578 57.4047 131.095 56.3434 133.719 58.4117C135.337 60.312 135.95 62.7697 135.95 65.4534C135.95 69.0846 134.83 73.1632 133.558 76.9638V76.9638Z" fill="#E61D2A"/>
<path d="M377.524 102.889C375.664 98.8664 371.246 96.2957 366.538 96.5744C351.251 97.9724 336.298 110.544 328.447 128.591C324.327 137.867 322.079 145.521 320.604 157.702C325.358 152.228 335.054 143.232 346.058 138.315C346.058 138.315 347.555 126.637 355.19 116.244C358.079 111.94 363.861 105.012 370.353 106.855C376.025 108.756 374.031 124.457 366.493 139.652C360.914 150.829 352.379 162.007 343.742 169.716C336.106 176.198 324.809 184.02 314.925 177.987C308.699 174.3 305.524 166.588 306.195 156.642C309.169 128.425 322.014 104.398 340.395 77.019C359.348 51.5955 380.24 25.5015 408.385 11.5861C414.125 8.68098 419.442 8.01063 424.037 9.79874C424.037 9.79874 397.617 24.3265 385.023 51.2038C381.82 58.0218 377.364 67.2387 381.851 75.3974C384.196 79.6432 388.359 79.9791 391.711 79.7554C407.148 76.1784 417.121 61.7629 425.27 48.5774C429.995 38.5756 434.194 28.6296 434.194 17.5658C434.194 16.2251 434.124 14.4377 434.011 13.0955C441.386 9.18565 456.509 16.1128 456.509 16.1128C468.327 20.0257 493.491 39.304 501.98 42.9901C506.12 38.1854 512.925 30.9223 516.756 27.2896L511.21 23.8806C502.33 18.4606 492.945 13.3192 483.706 8.2351C462.726 -3.21807 445.649 0.804014 436.958 3.93358C433.542 5.16204 430.42 6.22406 430.42 6.22406C423.97 -0.81612 413.392 -0.1473 405.597 1.7538C377.566 9.7995 351.541 29.4114 323.639 63.4411C303.126 90.0946 290.401 113.116 283.619 135.857C278.391 151.166 276.803 173.684 289.562 187.039C300.411 198.379 314.796 195.923 324.954 191.845C346.963 181.005 366.745 157.647 376.601 130.771C378.98 122.781 381.62 111.495 377.524 102.889V102.889ZM428.133 18.6843C425.22 52.0986 399.247 71.7128 392.82 73.2749C388.926 74.0559 382.28 72.3251 388.212 58.302C396.949 39.4139 411.865 23.379 427.868 15.1646C428.258 16.5618 428.248 17.4535 428.133 18.6843V18.6843Z" fill="#E61D2A"/>
<path d="M582.205 22.9287C568.234 30.8645 553.751 36.0036 536.219 34.2162C531.36 39.6935 526.63 45.3365 522.27 51.1467C546.876 57.4051 572.963 43.4919 587.512 30.2506C602.902 16.8956 610.794 0.078125 610.794 0.078125C610.794 0.078125 599.258 13.2637 582.205 22.9287Z" fill="#E61D2A"/>
<path d="M307.829 67.5518L318.17 50.7549H299.844L289.506 67.5518H307.829Z" fill="#E61D2A"/>
<path d="M536.147 176.021C534.176 177.361 531.408 176.331 532.443 173.258C535.021 165.436 545.272 149.494 545.272 149.494L573.824 98.8543H554.266C553.337 100.381 551.349 103.888 551.349 103.888C550.444 102.381 547.738 99.0291 546.624 98.3053C541.846 95.2857 534.836 96.7134 530 99.4506C508.974 111.745 493.633 136.036 481.535 154.979C481.535 154.979 468.799 176.036 461.729 177.602C456.21 178.049 456.779 170.614 457.018 168.882C459.152 156.364 464.108 144.463 469.101 133.679C479.257 126.639 490.846 117.419 501.379 107.306C524.236 85.4565 543.506 60.7032 546.323 55.1717C546.323 55.1717 543.274 55.7871 539.674 55.8978C522.089 80.4273 486.104 116.078 475.195 121.385C480.028 109.761 511.252 54.2769 537.824 27.7363L542.006 23.7119C548.471 17.3978 555.171 10.9165 560.391 9.85451C560.943 9.79878 561.653 9.85451 562.266 11.1418C562.499 16.0579 560.669 19.6906 558.569 23.8249L555.627 29.8604C555.627 29.8604 559.794 29.0778 562.532 28.1814C565.708 22.2056 569.225 15.4983 567.929 7.50982C567.496 4.93914 565.635 2.98383 563.203 2.53642C555.277 1.02776 546.638 6.89292 539.687 11.6441L539.406 11.8106C503.674 39.8049 473.501 80.1479 447.121 135.242C445.209 136.693 437.822 138.427 436.567 137.588C439.172 132.225 442.452 125.015 444.093 117.193C444.377 114.957 444.641 112.667 444.641 110.433C444.641 105.623 443.487 101.099 439.178 97.9709C434.127 95.4559 427.884 96.6302 423.675 98.529C404.818 106.352 390.725 125.687 380.555 141.609C375.085 151.725 369.632 162.56 368.122 174.967C367.058 184.688 369.223 190.946 374.75 194.076C380.434 196.98 387.588 193.962 390.399 192.511C409.502 182.453 422.85 162.283 433.371 143.842C433.79 143.787 439.534 143.621 443.879 142.502C443.937 142.502 443.962 142.502 444.058 142.56C443.809 143.395 441.564 150.102 441.564 150.102C434.895 169.658 431.811 182.958 438.11 190.835C447.111 201.955 462.012 190.445 474.134 175.244C471.532 193.46 480.973 196.31 488.169 194.915C496.435 192.681 505.647 183.85 509.921 179.326C508.549 184.633 508.922 194.133 516.442 195.082C521.596 196.035 525.453 193.231 529.917 190.828C545.926 182.11 565.091 153.062 570.067 144.663H563.542C556.469 155.353 547.469 169.368 536.147 176.021V176.021ZM392.443 174.075C391.428 172.567 391.091 170.917 391.058 169.133C390.863 158.177 402.651 138.556 410.971 127.867C410.989 127.867 410.989 127.867 410.989 127.867C414.476 135.502 422.372 140.41 427.138 142.478C421.218 155.666 400.914 183.909 392.443 174.075V174.075ZM430.479 136.582C429.915 136.976 419.958 133.621 418.034 124.402C416.402 116.465 421.868 110.263 427.156 107.137C429.426 105.348 432.844 104.735 435.353 105.625C437.68 107.192 438.311 109.988 438.311 113C438.311 114.848 438.066 116.746 437.85 118.478C437.85 118.478 437.809 118.814 437.802 118.87C436.143 125.07 433.604 131.162 430.479 136.582V136.582ZM510.338 170.556C510.329 170.556 508.449 172.231 508.449 172.231C505.763 174.633 502.999 177.203 499.662 175.918C498.741 175.582 498.093 174.355 497.937 173.402C497.785 166.529 500.88 160.161 503.881 153.959L504.651 152.338C513.285 137.922 523.32 120.936 538.059 109.148C540.542 107.356 543.237 105.85 546.082 107.024C546.736 107.637 547.498 108.7 547.498 109.761C547.498 110.097 547.2 110.991 547.027 111.269C542.911 117.921 538.991 124.905 535.179 131.609C527.728 144.852 520 158.54 510.338 170.556V170.556Z" fill="#E61D2A"/>
</g>
<defs>
<clipPath id="clip0_1255_3921">
<rect width="610.795" height="200" fill="white"/>
</clipPath>
</defs>
</svg>
