<svg width="499" height="200" viewBox="0 0 499 200" fill="none" xmlns="http://www.w3.org/2000/svg">
<g clip-path="url(#clip0_1255_3965)">
<path d="M64.6027 43.7295C29.4548 43.7295 0.166016 58.641 0.166016 103.628C0.166016 139.268 19.8606 161.712 65.5103 161.712C119.242 161.712 122.687 126.317 122.687 126.317H96.6509C96.6509 126.317 91.0687 145.376 63.9221 145.376C41.8119 145.376 25.9094 130.44 25.9094 109.505H125.409V96.3679C125.409 75.6566 112.261 43.7295 64.6027 43.7295V43.7295ZM63.6952 60.5193C84.7418 60.5193 99.09 73.4129 99.09 92.7377H26.4852C26.4852 72.2221 45.2133 60.5193 63.6952 60.5193V60.5193Z" fill="#E53238"/>
<path d="M125.391 0.166016V139.119C125.391 147.006 124.828 158.081 124.828 158.081H149.661C149.661 158.081 150.552 150.127 150.552 142.858C150.552 142.858 162.821 162.052 196.181 162.052C231.31 162.052 255.172 137.663 255.172 102.72C255.172 70.2137 233.254 44.0692 196.237 44.0692C161.574 44.0692 150.803 62.7876 150.803 62.7876V0.166016H125.391ZM189.828 61.2561C213.683 61.2561 228.853 78.961 228.853 102.72C228.853 128.198 211.333 144.865 189.998 144.865C164.537 144.865 150.803 124.985 150.803 102.947C150.803 82.4119 163.127 61.2561 189.828 61.2561Z" fill="#0064D2"/>
<path d="M316.886 43.7295C264.008 43.7295 260.617 72.6826 260.617 77.3092H286.936C286.936 77.3092 288.317 60.4059 315.071 60.4059C332.456 60.4059 345.928 68.3634 345.928 83.6621V89.1075H315.071C274.106 89.1075 252.449 101.091 252.449 125.41C252.449 149.343 272.459 162.365 299.501 162.365C336.353 162.365 348.225 142.001 348.225 142.001C348.225 150.101 348.85 158.082 348.85 158.082H372.247C372.247 158.082 371.339 148.189 371.339 141.859V87.1505C371.339 51.2787 342.405 43.7295 316.886 43.7295V43.7295ZM345.928 105.444V112.704C345.928 122.174 340.084 145.716 305.683 145.716C286.845 145.716 278.768 136.315 278.768 125.41C278.768 105.571 305.968 105.444 345.928 105.444V105.444Z" fill="#F5AF02"/>
<path d="M357.168 48.2715H386.777L429.27 133.404L471.666 48.2715H498.488L421.264 199.834H393.13L415.414 157.584L357.168 48.2715Z" fill="#86B817"/>
</g>
<defs>
<clipPath id="clip0_1255_3965">
<rect width="498.653" height="200" fill="white"/>
</clipPath>
</defs>
</svg>
