<svg width="1034" height="200" viewBox="0 0 1034 200" fill="none" xmlns="http://www.w3.org/2000/svg">
<g clip-path="url(#clip0_1255_4088)">
<path d="M80.8524 31.3303C68.6861 31.3303 65.1686 36.7264 65.1686 48.6279V68.3714H97.6204L94.3677 100.269H65.1812V197.069H26.2364V100.269H0V68.3714H26.2364V49.17C26.2364 16.9955 39.2096 0.000499564 75.4059 0.000499564C82.9906 -0.017151 90.5703 0.432929 98.0995 1.3495V31.3681L80.8524 31.3303Z" fill="#1877F2"/>
<path d="M100.318 128.661C100.318 92.7039 117.351 65.6229 153.043 65.6229C172.509 65.6229 184.398 75.6333 190.084 88.0643V68.3713H227.39V197.069H190.084V177.603C184.676 190.047 172.509 199.78 153.043 199.78C117.351 199.78 100.318 172.737 100.318 136.742V128.661ZM139.251 137.322C139.251 156.511 146.273 169.219 164.39 169.219C180.351 169.219 188.458 157.595 188.458 139.213V126.291C188.458 107.909 180.351 96.2845 164.39 96.2845C146.273 96.2845 139.251 108.993 139.251 128.182V137.322Z" fill="#1877F2"/>
<path d="M308.508 65.6607C323.637 65.6607 337.972 68.9134 345.814 74.3095L337.165 101.895C329.053 98.0319 320.19 95.9995 311.206 95.9441C290.113 95.9441 280.948 108.11 280.948 128.938V136.503C280.948 157.33 290.139 169.497 311.206 169.497C320.19 169.44 329.053 167.409 337.165 163.546L345.814 191.119C337.972 196.527 323.65 199.78 308.508 199.78C262.805 199.78 241.99 175.17 241.99 135.696V129.745C241.99 90.2706 262.805 65.6607 308.508 65.6607Z" fill="#1877F2"/>
<path d="M350.945 137.637V126.291C350.945 89.7916 371.76 65.7742 414.223 65.7742C454.239 65.7742 471.814 90.1068 471.814 125.799V146.349H389.865C390.684 163.924 398.526 171.766 420.123 171.766C434.735 171.766 450.142 168.791 461.501 163.924L468.624 190.589C458.349 196.01 437.257 200.057 418.61 200.057C369.327 200.045 350.945 175.46 350.945 137.637ZM389.878 120.869H436.929V117.629C436.929 103.572 431.256 92.414 414.235 92.414C396.648 92.4266 389.878 103.521 389.878 120.819V120.869Z" fill="#1877F2"/>
<path d="M616.133 136.78C616.133 172.737 598.835 199.818 563.181 199.818C543.715 199.818 530.2 190.085 524.791 177.641V197.107H488.027V3.74491L526.96 0.214783V86.1985C532.633 74.8516 545.077 65.6481 563.194 65.6481C598.886 65.6481 616.146 92.6913 616.146 128.686L616.133 136.78ZM577.201 127.854C577.201 109.737 570.178 96.2215 551.519 96.2215C535.558 96.2215 526.909 107.568 526.909 125.963V139.478C526.909 157.86 535.558 169.219 551.519 169.219C570.178 169.219 577.201 155.704 577.201 137.587V127.854Z" fill="#1877F2"/>
<path d="M629.156 135.96V129.48C629.156 92.4266 650.249 65.6607 693.241 65.6607C736.232 65.6607 757.337 92.4266 757.337 129.48V135.96C757.337 173.002 736.245 199.78 693.253 199.78C650.261 199.78 629.156 173.002 629.156 135.96ZM718.393 126.77C718.393 109.737 711.358 96.2214 693.178 96.2214C674.997 96.2214 668.025 109.737 668.025 126.77V138.671C668.025 155.704 675.06 169.219 693.178 169.219C711.295 169.219 718.393 155.704 718.393 138.671V126.77Z" fill="#1877F2"/>
<path d="M770.285 135.96V129.48C770.285 92.4266 791.378 65.6607 834.369 65.6607C877.361 65.6607 898.454 92.4266 898.454 129.48V135.96C898.454 173.002 877.361 199.78 834.369 199.78C791.378 199.78 770.285 173.002 770.285 135.96ZM859.522 126.77C859.522 109.737 852.487 96.2214 834.369 96.2214C816.252 96.2214 809.23 109.737 809.23 126.77V138.671C809.23 155.704 816.252 169.219 834.369 169.219C852.487 169.219 859.522 155.704 859.522 138.671V126.77Z" fill="#1877F2"/>
<path d="M951.986 129.745L990.376 68.3713H1031.74L991.46 131.913L1033.37 197.069H992.002L951.986 134.032V197.069H913.041V3.74491L951.986 0.214783V129.745Z" fill="#1877F2"/>
</g>
<defs>
<clipPath id="clip0_1255_4088">
<rect width="1033.37" height="200" fill="white"/>
</clipPath>
</defs>
</svg>
