<svg width="937" height="200" viewBox="0 0 937 200" fill="none" xmlns="http://www.w3.org/2000/svg">
<g clip-path="url(#clip0_1255_4139)">
<path fill-rule="evenodd" clip-rule="evenodd" d="M23.0215 22.8572H137.307V177.143H23.0215V22.8572Z" fill="black"/>
<path d="M0.164062 17.1428H23.0212V182.857H0.164062V17.1428Z" fill="#04FF8E"/>
<path d="M137.307 62.8572H160.164V182.857H137.307V62.8572Z" fill="#8E2EFF"/>
<path d="M0.164062 177.143H160.164V200H0.164062V177.143Z" fill="#00C5FF"/>
<path d="M0.164062 0H91.5926V22.8571H0.164062V0Z" fill="#FFF152"/>
<path d="M137.306 45.7143V22.8571H114.449V0H91.5918V68.5714H160.163V45.7143" fill="#FF5B5B"/>
<path d="M137.307 91.4287V68.5715H160.164" fill="#551C99"/>
<path fill-rule="evenodd" clip-rule="evenodd" d="M91.5935 0V22.8571H68.7363" fill="#999131"/>
<path d="M337.878 68.5714C326.449 57.7142 312.735 54.8571 302.45 54.8571C277.307 54.8571 260.735 69.7142 260.735 100.571C260.735 120.571 271.021 145.143 302.45 145.143C310.45 145.143 323.592 143.428 332.164 137.143V117.143H292.735V82.8571H368.735V152C359.021 172 332.164 182.286 301.878 182.286C240.735 182.286 217.307 141.143 217.307 100.571C217.307 59.9999 244.164 18.2856 302.45 18.2856C324.164 18.2856 343.021 22.8571 363.592 43.4285L337.878 68.5714ZM389.878 178.286V22.8571H433.307V178.286H389.878ZM504.735 136V177.714H460.735V22.8571H536.164C577.878 22.8571 598.449 49.1428 598.449 79.4285C598.449 111.428 577.878 136 536.164 136H504.735ZM504.735 98.8571H536.164C548.164 98.8571 554.45 89.7142 554.45 79.9999C554.45 69.7142 548.164 60.5714 536.164 60.5714H504.735V98.8571ZM714.45 178.286V119.428H658.449V178.286H614.45V22.8571H658.449V81.7142H714.45V22.8571H757.878V178.286H714.45ZM852.735 75.9999L886.45 22.8571H936.164V24.5714L874.45 116V177.714H830.45V116L771.592 24.5714V22.8571H821.307L852.735 75.9999Z" fill="black"/>
</g>
<defs>
<clipPath id="clip0_1255_4139">
<rect width="936.33" height="200" fill="white"/>
</clipPath>
</defs>
</svg>
