<svg width="592" height="200" viewBox="0 0 592 200" fill="none" xmlns="http://www.w3.org/2000/svg">
<path d="M251.63 102.565C251.63 130.326 229.912 150.782 203.26 150.782C176.608 150.782 154.891 130.326 154.891 102.565C154.891 74.6085 176.608 54.3477 203.26 54.3477C229.912 54.3477 251.63 74.6085 251.63 102.565ZM230.456 102.565C230.456 85.2172 217.869 73.3477 203.26 73.3477C188.651 73.3477 176.065 85.2172 176.065 102.565C176.065 119.739 188.651 131.782 203.26 131.782C217.869 131.782 230.456 119.717 230.456 102.565Z" fill="#EA4335"/>
<path d="M355.977 102.565C355.977 130.326 334.26 150.782 307.608 150.782C280.956 150.782 259.238 130.326 259.238 102.565C259.238 74.6303 280.956 54.3477 307.608 54.3477C334.26 54.3477 355.977 74.6085 355.977 102.565ZM334.803 102.565C334.803 85.2172 322.217 73.3477 307.608 73.3477C292.999 73.3477 280.412 85.2172 280.412 102.565C280.412 119.739 292.999 131.782 307.608 131.782C322.217 131.782 334.803 119.717 334.803 102.565Z" fill="#FBBC05"/>
<path d="M455.978 57.2607V143.826C455.978 179.435 434.978 193.978 410.152 193.978C386.782 193.978 372.717 178.348 367.413 165.565L385.847 157.891C389.13 165.739 397.173 175 410.13 175C426.021 175 435.869 165.195 435.869 146.739V139.804H435.13C430.391 145.652 421.26 150.761 409.739 150.761C385.63 150.761 363.543 129.761 363.543 102.739C363.543 75.5216 385.63 54.3477 409.739 54.3477C421.239 54.3477 430.369 59.4564 435.13 65.1303H435.869V57.2824H455.978V57.2607ZM437.369 102.739C437.369 85.7607 426.043 73.3477 411.63 73.3477C397.021 73.3477 384.782 85.7607 384.782 102.739C384.782 119.543 397.021 131.782 411.63 131.782C426.043 131.782 437.369 119.543 437.369 102.739Z" fill="#4285F4"/>
<path d="M489.131 6.52148V147.826H468.479V6.52148H489.131Z" fill="#34A853"/>
<path d="M569.608 118.435L586.043 129.391C580.739 137.239 567.956 150.761 545.869 150.761C518.478 150.761 498.021 129.587 498.021 102.544C498.021 73.8696 518.652 54.3262 543.5 54.3262C568.521 54.3262 580.761 74.2392 584.761 85.0001L586.956 90.4783L522.5 117.174C527.435 126.848 535.108 131.783 545.869 131.783C556.652 131.783 564.13 126.478 569.608 118.435ZM519.021 101.087L562.108 83.1957C559.739 77.174 552.608 72.9783 544.217 72.9783C533.456 72.9783 518.478 82.4783 519.021 101.087V101.087Z" fill="#EA4335"/>
<path d="M76.718 90.0215V69.565H145.653C146.327 73.1302 146.675 77.3476 146.675 81.9128C146.675 97.2606 142.479 116.239 128.957 129.761C115.805 143.456 99.0006 150.761 76.7397 150.761C35.4789 150.761 0.783203 117.152 0.783203 75.891C0.783203 34.6302 35.4789 1.02148 76.7397 1.02148C99.5658 1.02148 115.827 9.97801 128.044 21.6519L113.609 36.0867C104.848 27.8693 92.9789 21.478 76.718 21.478C46.5876 21.478 23.0223 45.7606 23.0223 75.891C23.0223 106.021 46.5876 130.304 76.718 130.304C96.2615 130.304 107.392 122.456 114.522 115.326C120.305 109.543 124.109 101.282 125.609 89.9997L76.718 90.0215V90.0215Z" fill="#4285F4"/>
</svg>
