<svg width="993" height="200" viewBox="0 0 993 200" fill="none" xmlns="http://www.w3.org/2000/svg">
<g clip-path="url(#clip0_1255_4008)">
<path d="M32.5236 131.895C32.5236 143.393 35.0471 152.22 38.3455 157.56C42.6702 164.555 49.1204 167.518 55.6963 167.518C64.178 167.518 71.9372 165.414 86.8901 144.733C98.8691 128.157 112.984 104.89 122.482 90.3037L138.565 65.5916C149.738 48.4293 162.67 29.3508 177.497 16.4188C189.602 5.86387 202.66 0 215.801 0C237.864 0 258.88 12.7853 274.963 36.7644C292.565 63.0262 301.11 96.1047 301.11 130.241C301.11 150.534 297.11 165.445 290.304 177.225C283.728 188.618 270.911 200 249.351 200V167.518C267.812 167.518 272.419 150.555 272.419 131.141C272.419 103.476 265.969 72.7749 251.759 50.8377C241.675 35.2775 228.607 25.7696 214.23 25.7696C198.681 25.7696 186.168 37.4974 172.105 58.4084C164.628 69.5183 156.953 83.0576 148.335 98.3351L138.848 115.141C119.791 148.932 114.963 156.628 105.435 169.33C88.733 191.571 74.4712 200 55.6963 200C33.4241 200 19.3403 190.356 10.6178 175.822C3.49738 163.979 0 148.44 0 130.733L32.5236 131.895Z" fill="#0081FB"/>
<path d="M25.6445 39.0576C40.5555 16.0733 62.0739 0 86.7545 0C101.048 0 115.257 4.23037 130.095 16.3455C146.325 29.5916 163.624 51.4031 185.205 87.3508L192.943 100.251C211.624 131.372 222.252 147.382 228.472 154.932C236.472 164.628 242.074 167.518 249.351 167.518C267.812 167.518 272.419 150.555 272.419 131.141L301.111 130.241C301.111 150.534 297.11 165.445 290.304 177.225C283.728 188.618 270.912 200 249.351 200C235.948 200 224.074 197.089 210.943 184.702C200.849 175.194 189.048 158.304 179.969 143.12L152.964 98.0105C139.414 75.3717 126.985 58.4922 119.791 50.8482C112.053 42.6283 102.105 32.7016 86.2309 32.7016C73.3828 32.7016 62.4718 41.7173 53.3409 55.5079L25.6445 39.0576Z" fill="url(#paint0_linear_1255_4008)"/>
<path d="M86.2304 32.7016C73.3822 32.7016 62.4712 41.7173 53.3403 55.5079C40.4293 74.9948 32.5236 104.021 32.5236 131.895C32.5236 143.393 35.0471 152.22 38.3455 157.56L10.6178 175.822C3.49738 163.979 0 148.44 0 130.733C0 98.534 8.8377 64.9738 25.644 39.0576C40.555 16.0733 62.0733 0 86.7539 0L86.2304 32.7016Z" fill="url(#paint1_linear_1255_4008)"/>
<path d="M364.336 6.32458H401.959L465.928 122.052L529.907 6.32458H566.713V196.482H536.022V50.7434L479.917 151.665H451.121L395.027 50.7434V196.482H364.336V6.32458ZM662.88 77.2251C640.87 77.2251 627.613 93.7905 624.441 114.304H699.142C697.603 93.1727 685.414 77.2251 662.88 77.2251ZM594.011 125.989C594.011 82.8272 621.907 51.4136 663.414 51.4136C704.242 51.4136 728.619 82.4293 728.619 128.293V136.722H624.441C628.137 159.037 642.943 174.073 666.818 174.073C685.865 174.073 697.771 168.262 709.058 157.633L725.362 177.602C710.001 191.728 690.462 199.874 665.729 199.874C620.797 199.874 594.011 167.11 594.011 125.989V125.989ZM765.833 79.9476H737.582V54.8167H765.833V13.2565H795.446V54.8167H838.367V79.9476H795.446V143.644C795.446 165.393 802.399 173.12 819.488 173.12C827.289 173.12 831.76 172.45 838.367 171.351V196.209C830.137 198.534 822.284 199.602 813.781 199.602C781.812 199.602 765.833 182.136 765.833 147.173V79.9476ZM963.058 104.387C957.111 89.3717 943.844 78.3141 924.346 78.3141C899.006 78.3141 882.786 96.2932 882.786 125.581C882.786 154.136 897.718 172.984 923.132 172.984C943.111 172.984 957.373 161.361 963.058 146.9V104.387ZM992.671 196.482H963.603V176.649C955.477 188.325 940.692 199.874 916.744 199.874C878.231 199.874 852.493 167.633 852.493 125.581C852.493 83.1309 878.849 51.4136 918.378 51.4136C937.917 51.4136 953.247 59.2251 963.603 73.0157V54.8167H992.671V196.482Z" fill="#192830"/>
</g>
<defs>
<linearGradient id="paint0_linear_1255_4008" x1="63.8749" y1="122.513" x2="271.205" y2="132.984" gradientUnits="userSpaceOnUse">
<stop stop-color="#0064E1"/>
<stop offset="0.4" stop-color="#0064E1"/>
<stop offset="0.83" stop-color="#0073EE"/>
<stop offset="1" stop-color="#0082FB"/>
</linearGradient>
<linearGradient id="paint1_linear_1255_4008" x1="47.1204" y1="145.55" x2="47.1204" y2="69.1099" gradientUnits="userSpaceOnUse">
<stop stop-color="#0082FB"/>
<stop offset="1" stop-color="#0064E0"/>
</linearGradient>
<clipPath id="clip0_1255_4008">
<rect width="992.67" height="200" fill="white"/>
</clipPath>
</defs>
</svg>
