<svg width="938" height="200" viewBox="0 0 938 200" fill="none" xmlns="http://www.w3.org/2000/svg">
<g clip-path="url(#clip0_1255_4380)">
<path d="M390 40.0002V160H369.166V65.8336H368.888L331.666 160H317.777L279.722 65.8336H279.444V160H260.277V40.0002H290.277L324.722 128.889H325.277L361.666 40.0002H390V40.0002ZM407.222 49.1669C407.222 45.8336 408.333 43.0558 410.833 40.8336C413.333 38.6113 416.111 37.5002 419.444 37.5002C423.055 37.5002 426.111 38.6113 428.333 40.8336C430.555 43.0558 431.944 45.8336 431.944 49.1669C431.944 52.5002 430.833 55.278 428.333 57.5002C425.833 59.7224 423.055 60.8336 419.444 60.8336C415.833 60.8336 413.055 59.7224 410.833 57.5002C408.611 55.0002 407.222 52.2224 407.222 49.1669ZM429.722 73.8891V160H409.444V73.8891H429.722ZM491.111 145.278C494.166 145.278 497.5 144.722 501.111 143.056C504.722 141.667 508.055 139.722 511.111 137.5V156.389C507.777 158.334 504.166 159.722 500 160.556C495.833 161.389 491.388 161.945 486.388 161.945C473.611 161.945 463.333 158.056 455.555 150C447.5 141.945 443.611 131.667 443.611 119.445C443.611 105.556 447.777 94.1669 455.833 85.278C463.888 76.3891 475.277 71.9447 490.277 71.9447C494.166 71.9447 498.055 72.5002 501.666 73.3336C505.555 74.1669 508.611 75.5558 510.833 76.6669V96.1113C507.777 93.8891 504.444 91.9447 501.388 90.8336C498.055 89.7224 494.722 88.8891 491.388 88.8891C483.333 88.8891 476.944 91.3891 471.944 96.6669C466.944 101.945 464.722 108.889 464.722 117.778C464.722 126.389 467.222 133.334 471.944 138.056C476.666 142.778 483.055 145.278 491.111 145.278ZM568.611 72.5002C570.277 72.5002 571.666 72.5002 573.055 72.778C574.444 73.0558 575.555 73.3336 576.388 73.6113V94.1669C575.277 93.3336 573.888 92.5002 571.666 91.9447C569.444 91.3891 567.222 90.8336 564.166 90.8336C559.166 90.8336 555 93.0558 551.666 97.2224C548.333 101.389 546.388 107.778 546.388 116.667V160H526.111V73.8891H546.388V87.5002H546.666C548.611 82.778 551.388 79.1669 555 76.3891C558.888 73.8891 563.333 72.5002 568.611 72.5002ZM577.5 118.334C577.5 104.167 581.666 92.778 589.444 84.4447C597.5 76.1113 608.611 71.9447 622.777 71.9447C636.111 71.9447 646.666 75.8336 654.166 83.8891C661.666 91.9447 665.555 102.778 665.555 116.389C665.555 130.278 661.388 141.389 653.611 149.722C645.555 158.056 634.722 162.222 620.833 162.222C607.5 162.222 596.944 158.334 589.166 150.556C581.388 142.5 577.5 131.667 577.5 118.334ZM598.611 117.5C598.611 126.389 600.555 133.334 604.722 138.056C608.888 142.778 614.722 145.278 622.222 145.278C629.444 145.278 635.277 143.056 639.166 138.056C643.055 133.334 645 126.389 645 116.945C645 107.778 643.055 100.834 639.166 95.8336C635.277 91.1113 629.444 88.6113 622.5 88.6113C615 88.6113 609.444 91.1113 605.277 96.1113C600.555 101.389 598.611 108.334 598.611 117.5ZM695.833 96.6669C695.833 99.4447 696.666 101.945 698.611 103.611C700.555 105.278 704.444 107.222 710.833 109.722C718.888 113.056 724.722 116.667 727.777 120.556C731.111 124.722 732.777 129.445 732.777 135.278C732.777 143.334 729.722 149.722 723.333 154.722C717.222 159.722 708.611 161.945 698.055 161.945C694.444 161.945 690.555 161.389 686.111 160.556C681.666 159.722 678.055 158.611 675 157.222V137.222C678.611 139.722 682.777 141.945 686.944 143.334C691.111 144.722 695 145.556 698.611 145.556C703.055 145.556 706.666 145 708.611 143.611C710.833 142.222 711.944 140.278 711.944 137.222C711.944 134.445 710.833 132.222 708.611 130C706.388 128.056 701.944 125.834 695.833 123.334C688.333 120.278 683.055 116.667 680 112.778C676.944 108.889 675.277 103.889 675.277 97.778C675.277 90.0002 678.333 83.6113 684.444 78.6113C690.555 73.6113 698.611 71.1113 708.333 71.1113C711.388 71.1113 714.722 71.3891 718.333 72.2224C721.944 73.0558 725.277 73.8891 727.777 74.7224V94.4447C725 92.778 721.944 91.1113 718.333 89.7224C714.722 88.3335 711.111 87.778 707.777 87.778C703.888 87.778 700.833 88.6113 698.888 90.0002C696.944 91.9447 695.833 93.8891 695.833 96.6669ZM741.388 118.334C741.388 104.167 745.555 92.778 753.333 84.4447C761.388 76.1113 772.5 71.9447 786.666 71.9447C800 71.9447 810.555 75.8336 818.055 83.8891C825.555 91.9447 829.444 102.778 829.444 116.389C829.444 130.278 825.277 141.389 817.5 149.722C809.444 158.056 798.611 162.222 784.722 162.222C771.388 162.222 760.833 158.334 753.055 150.556C745.555 142.5 741.388 131.667 741.388 118.334ZM762.5 117.5C762.5 126.389 764.444 133.334 768.611 138.056C772.777 142.778 778.611 145.278 786.111 145.278C793.333 145.278 799.166 143.056 803.055 138.056C806.944 133.334 808.888 126.389 808.888 116.945C808.888 107.778 806.944 100.834 803.055 95.8336C799.166 91.1113 793.333 88.6113 786.388 88.6113C778.888 88.6113 773.333 91.1113 769.166 96.1113C764.722 101.389 762.5 108.334 762.5 117.5ZM896.944 90.5558H866.666V160H846.111V90.5558H831.666V73.8891H846.111V61.9447C846.111 53.0558 849.166 45.5558 855 39.7224C860.833 33.8891 868.333 31.1113 877.5 31.1113C880 31.1113 882.222 31.3891 884.166 31.3891C886.111 31.3891 887.777 31.9447 889.166 32.5002V50.0002C888.611 49.7224 887.222 49.1669 885.555 48.6113C883.888 48.0558 881.944 47.778 879.722 47.778C875.555 47.778 872.222 49.1669 870 51.6669C867.777 54.1669 866.666 58.3336 866.666 63.3336V73.6113H896.944V54.1669L917.222 48.0558V73.6113H937.777V90.278H917.222V130.556C917.222 135.834 918.333 139.445 920 141.667C921.944 143.889 925 145 929.166 145C930.277 145 931.666 144.722 933.333 144.167C935 143.611 936.388 143.056 937.5 142.222V158.889C936.111 159.722 934.166 160.278 931.111 160.834C928.055 161.389 925.277 161.667 922.222 161.667C913.611 161.667 907.222 159.445 903.055 155C898.888 150.556 896.666 143.611 896.666 134.445L896.944 90.5558Z" fill="#737373"/>
<path d="M95 0H0V95H95V0Z" fill="#F25022"/>
<path d="M200 0H105V95H200V0Z" fill="#7FBA00"/>
<path d="M95 105H0V200H95V105Z" fill="#00A4EF"/>
<path d="M200 105H105V200H200V105Z" fill="#FFB900"/>
</g>
<defs>
<clipPath id="clip0_1255_4380">
<rect width="937.778" height="200" fill="white"/>
</clipPath>
</defs>
</svg>
