<svg width="738" height="200" viewBox="0 0 738 200" fill="none" xmlns="http://www.w3.org/2000/svg">
<g clip-path="url(#clip0_1255_3998)">
<path d="M629.318 187.285C639.589 188.278 649.844 189.349 660.083 190.459L682.687 134.644L704.174 195.602C715.203 196.985 726.216 198.431 737.205 199.948L699.539 93.0457L737.221 0.00170898H705.307L704.979 0.455109L684.626 50.7211L666.758 0.00170898H635.251L667.782 92.311L629.318 187.285V187.285Z" fill="#FA0000"/>
<path d="M605.484 185.1V0.00512695H573.984V182.506C584.497 183.311 595.002 184.186 605.484 185.1" fill="#FA0000"/>
<path d="M368.89 174.747C377.394 174.747 385.882 174.809 394.363 174.88V106.879H432.201V77.9201H394.363V28.9906H437.938V0.000488281H362.738V174.771C364.786 174.771 366.834 174.745 368.89 174.745" fill="#FA0000"/>
<path d="M271.096 176.516C281.585 176.141 292.09 175.829 302.611 175.571V28.9937H332.047V0.00317383H241.652V28.9937H271.096V176.516Z" fill="#FA0000"/>
<path d="M30.2175 196.037V85.7587L67.5086 191.582C78.9749 190.292 90.4648 189.081 101.978 187.94V0.00732422H71.7605V114.233L31.5149 0.00732422H30.2175H0V200H0.187581C10.1767 198.617 20.1893 197.304 30.2175 196.037" fill="#FA0000"/>
<path d="M211.287 28.9913V0.000732422H136.08V155.778V184.775V184.801C161.037 182.643 186.08 180.838 211.225 179.368V179.343V170.988V150.353C196.687 151.197 182.18 152.174 167.704 153.253V106.887H205.542V77.9127H167.704V28.9913H211.287V28.9913Z" fill="#FA0000"/>
<path d="M500.365 148.969V0H468.732V147.601V176.591V176.623C493.893 177.545 518.959 178.835 543.94 180.453V180.415V171.051V151.425C529.441 150.487 514.918 149.674 500.365 148.97" fill="#FA0000"/>
</g>
<defs>
<clipPath id="clip0_1255_3998">
<rect width="737.221" height="200" fill="white"/>
</clipPath>
</defs>
</svg>
