<svg width="812" height="200" viewBox="0 0 812 200" fill="none" xmlns="http://www.w3.org/2000/svg">
<g clip-path="url(#clip0_1255_3855)">
<path fill-rule="evenodd" clip-rule="evenodd" d="M0.0605469 100.166C0.0605469 154.884 42.6096 199.971 106.253 200H705.761C769.405 199.971 811.939 154.884 811.939 100.166C811.939 45.4765 769.304 -0.17251 705.862 0.000490257H106.167C42.6962 -0.172535 0.0605469 45.4765 0.0605469 100.166ZM25.1201 100.036C25.1201 58.381 56.0334 24.6705 106.441 24.584H705.545C755.952 24.6705 786.88 58.381 786.88 100.036C786.88 141.706 756.154 175.647 705.545 175.474H106.441C55.8748 175.647 25.1201 141.706 25.1201 100.036Z" fill="#ED1C24"/>
<path d="M80.5885 52.7437H109.945L150.533 118.406L150.518 52.7437H179.614V146.911H150.547L109.757 81.2491V146.911H80.5879V52.7437H80.5885Z" fill="#ED1C24"/>
<path d="M337.859 62.4326H366.206V75.1065H381.533V84.4209H366.206L366.235 146.911H337.859L337.873 84.4209H322.488V75.1353L337.873 75.1066L337.859 62.4327L337.859 62.4326Z" fill="#ED1C24"/>
<path d="M195.82 84.291H224.138V146.925H195.82V84.291Z" fill="#ED1C24"/>
<path d="M195.748 52.7148H224.138V71.978H195.748V52.7148Z" fill="#ED1C24"/>
<path d="M692.006 80.0376C669.153 80.0376 650.625 95.7538 650.625 115.176C650.625 134.583 669.153 150.328 692.006 150.328C714.874 150.328 733.373 134.583 733.373 115.176C733.373 95.7538 714.874 80.0376 692.006 80.0376ZM703.382 115.089C703.382 115.089 703.354 124.548 703.354 128.354C703.354 138.332 697.471 142.441 691.776 142.441C686.095 142.441 680.169 138.332 680.169 128.354C680.169 124.548 680.183 114.844 680.183 114.844C680.183 114.844 680.199 105.602 680.199 101.81C680.199 91.8608 686.153 87.7803 691.777 87.7803C697.429 87.7803 703.355 91.8608 703.355 101.81C703.355 105.602 703.341 112.623 703.384 115.118V115.089L703.382 115.089Z" fill="#ED1C24"/>
<path d="M613.656 115.291V104.088C613.656 94.3988 606.966 91.9477 602.568 91.9477C598.055 91.9477 591.466 94.3988 591.466 104.088V115.234V126.379C591.466 136.083 598.056 138.577 602.568 138.577C606.966 138.577 613.656 136.083 613.656 126.379V115.291V115.291ZM613.469 52.7437H641.398V146.897H613.411C613.411 146.897 613.397 143.854 613.397 143.292C602.569 150.069 590.342 150.069 580.797 145.657C578.245 144.446 561.447 136.386 561.447 114.585C561.447 98.0611 577.019 80.0091 597.436 81.8114C604.155 82.4026 608.928 84.8537 613.469 87.4202V52.7437H613.469Z" fill="#ED1C24"/>
<path d="M290.421 81.4074C301.018 81.1046 322.473 88.0255 322.329 112.811C322.3 117.237 322.315 146.896 322.315 146.896H294.199V105.775C294.199 100.31 288.979 94.2543 281.251 94.2543C273.537 94.2543 267.813 100.31 267.813 105.775C267.813 108.442 267.841 146.896 267.841 146.896H239.74L239.711 84.2911L267.842 84.2623C267.842 84.2623 267.813 89.2944 267.842 90.8516C273.263 85.6898 281.078 81.667 290.421 81.4075" fill="#ED1C24"/>
<path d="M520.513 81.4074C531.096 81.1046 552.579 88.0255 552.435 112.811C552.406 117.237 552.435 146.896 552.435 146.896H524.29V105.775C524.29 100.31 519.071 94.2543 511.342 94.2543C503.628 94.2543 497.919 100.31 497.919 105.775C497.919 108.442 497.947 146.896 497.947 146.896H469.846V84.2911L497.947 84.2623C497.947 84.2623 497.919 89.2944 497.947 90.8516C503.354 85.6898 511.155 81.667 520.512 81.4075" fill="#ED1C24"/>
<path d="M431.434 124.995C431.434 124.995 431.448 125.283 431.448 128.801C431.448 140.25 423.922 142.802 419.74 142.802C415.574 142.802 407.888 140.25 407.888 128.801C407.888 125.37 407.917 115.882 407.917 115.882C407.917 115.882 461.251 115.911 461.251 115.854C461.251 96.4463 442.507 80.3696 419.481 80.3696C396.454 80.3696 377.797 96.0858 377.797 115.522C377.797 134.958 396.454 150.66 419.481 150.66C438.585 150.66 454.734 139.76 459.651 124.966L431.434 124.995H431.434ZM407.918 106.107C407.86 100.628 407.975 96.9653 409.778 93.8365C411.984 89.9723 416.05 88.1412 419.741 88.1123C423.418 88.1411 427.484 89.9723 429.675 93.8365C431.478 96.9653 431.579 100.628 431.535 106.107H407.918V106.107Z" fill="#ED1C24"/>
<path d="M739.212 63.0815C741.966 63.0815 744.431 62.9085 744.431 59.5923C744.431 56.9392 742.023 56.4634 739.76 56.4634H735.348V63.0815H739.212V63.0815ZM735.348 75.1354H732.104V53.7095H740.236C745.311 53.7095 747.82 55.5695 747.82 59.8085C747.82 63.6439 745.412 65.302 742.269 65.7057L748.353 75.1354H744.72L739.053 65.8355H735.348V75.1354V75.1354Z" fill="#ED1C24"/>
<path d="M739.256 79.9226C747.676 79.9226 754.309 73.3333 754.309 64.3794C754.309 55.5697 747.676 48.9516 739.256 48.9516C730.763 48.9516 724.116 55.5697 724.116 64.3794C724.116 73.3333 730.763 79.9226 739.256 79.9226ZM720.396 64.3794C720.396 53.7097 729.033 45.8516 739.256 45.8516C749.392 45.8516 758.043 53.7097 758.043 64.3794C758.043 75.1356 749.392 83.0226 739.256 83.0226C729.033 83.0226 720.396 75.1356 720.396 64.3794Z" fill="#ED1C24"/>
</g>
<defs>
<clipPath id="clip0_1255_3855">
<rect width="812" height="200" fill="white"/>
</clipPath>
</defs>
</svg>
