<svg width="272" height="200" viewBox="0 0 272 200" fill="none" xmlns="http://www.w3.org/2000/svg">
<g clip-path="url(#clip0_1255_4341)">
<path d="M269.727 193.673C269.727 196.587 267.587 198.543 265.054 198.543V198.525C262.449 198.543 260.348 196.587 260.348 193.673C260.348 190.761 262.449 188.81 265.054 188.81C267.588 188.809 269.727 190.76 269.727 193.673ZM271.623 193.673C271.623 189.673 268.516 187.352 265.054 187.352C261.568 187.352 258.461 189.673 258.461 193.673C258.461 197.67 261.569 200.001 265.054 200.001C268.517 200.001 271.623 197.67 271.623 193.673ZM263.964 194.207H264.668L266.298 197.069H268.087L266.282 194.087C267.215 194.02 267.982 193.576 267.982 192.32C267.982 190.76 266.907 190.258 265.084 190.258H262.448V197.069H263.964V194.207M263.964 193.054V191.414H265.018C265.592 191.414 266.373 191.461 266.373 192.16C266.373 192.921 265.969 193.054 265.293 193.054H263.964" fill="black"/>
<path d="M227.384 158.83L235.575 181.237H218.94L227.384 158.83ZM218.612 150.106L199.737 197.929H213.066L216.051 189.479H238.389L241.214 197.929H255.683L236.668 150.1L218.612 150.106ZM180.718 197.947H194.24V150.091L180.715 150.088L180.718 197.947ZM86.8427 150.088L75.5608 188.018L64.7534 150.091L50.1629 150.088L65.5981 197.947H85.0791L100.639 150.088H86.8427V150.088ZM141.502 160.509H147.314C155.745 160.509 161.199 164.294 161.199 174.118C161.199 183.944 155.745 187.73 147.314 187.73H141.502V160.509ZM128.093 150.088V197.947H150.016C161.696 197.947 165.51 196.006 169.633 191.65C172.546 188.592 174.431 181.88 174.431 174.544C174.431 167.815 172.836 161.817 170.056 158.079C165.047 151.395 157.832 150.088 147.064 150.088H128.093V150.088ZM0 150.021V197.947H13.6368V161.557L24.2031 161.56C27.7018 161.56 30.1957 162.432 31.8805 164.232C34.0174 166.508 34.89 170.182 34.89 176.902V197.947H48.104V171.468C48.104 152.57 36.0585 150.021 24.2727 150.021H0V150.021ZM106.33 150.088L106.335 197.947H119.852V150.088H106.33V150.088Z" fill="black"/>
<path d="M36.3409 54.7961C36.3409 54.7961 53.7329 29.1354 88.459 26.4807V17.171C49.9955 20.2601 16.6875 52.8369 16.6875 52.8369C16.6875 52.8369 35.5526 107.373 88.459 112.366V102.47C49.6338 97.586 36.3409 54.7961 36.3409 54.7961ZM88.459 82.7907V91.8531C59.1158 86.6217 50.9708 56.1192 50.9708 56.1192C50.9708 56.1192 65.0597 40.5116 88.459 37.9806V47.9247C88.4413 47.9247 88.4289 47.9193 88.4142 47.9193C76.133 46.4455 66.5389 57.9184 66.5389 57.9184C66.5389 57.9184 71.9164 77.2324 88.459 82.7907ZM88.459 0V17.171C89.5882 17.0845 90.7173 17.011 91.8526 16.9724C135.582 15.4986 164.074 52.8369 164.074 52.8369C164.074 52.8369 131.349 92.629 97.2563 92.629C94.1317 92.629 91.2065 92.3392 88.459 91.8523V102.47C90.8085 102.769 93.2445 102.944 95.7864 102.944C127.512 102.944 150.456 86.7415 172.672 67.565C176.355 70.5149 191.435 77.6915 194.535 80.8331C173.411 98.5181 124.182 112.774 96.2725 112.774C93.5822 112.774 90.9986 112.611 88.459 112.366V127.286H209.047V0H88.459ZM88.459 37.9806V26.4814C89.5766 26.4034 90.7026 26.3431 91.8526 26.3068C123.298 25.3191 143.928 53.3292 143.928 53.3292C143.928 53.3292 121.646 84.2761 97.754 84.2761C94.3156 84.2761 91.2328 83.7236 88.4583 82.7907V47.9247C100.7 49.4039 103.164 54.8115 110.524 67.0804L126.893 53.2782C126.893 53.2782 114.944 37.6073 94.801 37.6073C92.6115 37.6065 90.5163 37.7603 88.459 37.9806Z" fill="#77B900"/>
</g>
<defs>
<clipPath id="clip0_1255_4341">
<rect width="271.623" height="200" fill="white"/>
</clipPath>
</defs>
</svg>
