<svg width="717" height="200" viewBox="0 0 717 200" fill="none" xmlns="http://www.w3.org/2000/svg">
<g clip-path="url(#clip0_1255_4161)">
<path d="M100 0C44.7685 0 0 44.7685 0 100C0 127.611 11.1944 152.611 29.287 170.713L10.2407 189.759C6.46296 193.537 9.13889 200 14.4815 200H100C155.231 200 200 155.231 200 100C200 44.7685 155.231 0 100 0Z" fill="#FF4500"/>
<g clip-path="url(#clip1_1255_4161)">
<path d="M156.688 122.399C169.585 122.399 180.04 111.944 180.04 99.0472C180.04 86.1503 169.585 75.6953 156.688 75.6953C143.791 75.6953 133.336 86.1503 133.336 99.0472C133.336 111.944 143.791 122.399 156.688 122.399Z" fill="url(#paint0_radial_1255_4161)"/>
<path d="M43.3147 122.399C56.2116 122.399 66.6666 111.944 66.6666 99.0472C66.6666 86.1503 56.2116 75.6953 43.3147 75.6953C30.4179 75.6953 19.9629 86.1503 19.9629 99.0472C19.9629 111.944 30.4179 122.399 43.3147 122.399Z" fill="url(#paint1_radial_1255_4161)"/>
<path d="M100.059 169.109C136.878 169.109 166.726 146.724 166.726 119.109C166.726 91.4951 136.878 69.1094 100.059 69.1094C63.2403 69.1094 33.3926 91.4951 33.3926 119.109C33.3926 146.724 63.2403 169.109 100.059 169.109Z" fill="url(#paint2_radial_1255_4161)"/>
<path d="M80.3465 114.247C79.9576 122.717 74.3354 125.791 67.7872 125.791C61.2391 125.791 56.2502 121.454 56.6428 112.984C57.0317 104.514 62.6539 98.9062 69.202 98.9062C75.7502 98.9062 80.7391 105.773 80.3465 114.247Z" fill="#842123"/>
<path d="M143.471 112.984C143.86 121.454 138.871 125.791 132.327 125.791C125.782 125.791 120.16 122.717 119.767 114.247C119.378 105.777 124.367 98.9062 130.912 98.9062C137.456 98.9062 143.078 104.51 143.471 112.984Z" fill="#842123"/>
<path d="M80.3521 114.986C79.9854 122.915 74.7261 125.79 68.6002 125.79C62.4743 125.79 57.8039 121.482 58.1706 113.556C58.5373 105.627 63.7965 100.441 69.9224 100.441C76.0484 100.441 80.7187 107.056 80.3521 114.986Z" fill="url(#paint3_radial_1255_4161)"/>
<path d="M119.766 114.986C120.133 122.915 125.392 125.79 131.518 125.79C137.644 125.79 142.314 121.482 141.948 113.556C141.581 105.627 136.322 100.441 130.196 100.441C124.07 100.441 119.4 107.056 119.766 114.986Z" fill="url(#paint4_radial_1255_4161)"/>
<path d="M73.7371 110.575C75.169 110.575 76.3297 109.308 76.3297 107.746C76.3297 106.183 75.169 104.916 73.7371 104.916C72.3053 104.916 71.1445 106.183 71.1445 107.746C71.1445 109.308 72.3053 110.575 73.7371 110.575Z" fill="#FFC49C"/>
<path d="M135.384 110.575C136.815 110.575 137.976 109.308 137.976 107.746C137.976 106.183 136.815 104.916 135.384 104.916C133.952 104.916 132.791 106.183 132.791 107.746C132.791 109.308 133.952 110.575 135.384 110.575Z" fill="#FFC49C"/>
<path d="M100.058 131.443C91.7916 131.443 83.8694 131.843 76.5435 132.569C75.2916 132.695 74.499 133.969 74.9842 135.11C79.0879 144.729 88.7694 151.484 100.058 151.484C111.347 151.484 121.029 144.729 125.132 135.11C125.618 133.969 124.825 132.695 123.573 132.569C116.247 131.84 108.325 131.443 100.058 131.443Z" fill="#BBCFDA"/>
<path d="M100.059 133.279C91.8179 133.279 83.9216 133.683 76.6179 134.424C75.3698 134.55 74.5772 135.846 75.0624 137.005C79.1549 146.776 88.8031 153.639 100.059 153.639C111.314 153.639 120.962 146.776 125.055 137.005C125.54 135.85 124.748 134.553 123.499 134.424C116.196 133.683 108.299 133.279 100.059 133.279Z" fill="white"/>
<path d="M100.059 132.324C91.9476 132.324 84.1735 132.724 76.9846 133.45C75.755 133.576 74.9772 134.85 75.455 135.991C79.4809 145.609 88.9809 152.365 100.062 152.365C111.144 152.365 120.64 145.609 124.67 135.991C125.148 134.85 124.37 133.576 123.14 133.45C115.951 132.721 108.177 132.324 100.062 132.324H100.059Z" fill="url(#paint5_radial_1255_4161)"/>
<path d="M136.57 62.3092C145.709 62.3092 153.118 54.9003 153.118 45.761C153.118 36.6217 145.709 29.2129 136.57 29.2129C127.43 29.2129 120.021 36.6217 120.021 45.761C120.021 54.9003 127.43 62.3092 136.57 62.3092Z" fill="url(#paint6_radial_1255_4161)"/>
<path d="M99.8213 71.2172C97.8398 71.2172 96.2324 70.3876 96.2324 69.1098C96.2324 54.2839 108.292 42.2246 123.118 42.2246C125.099 42.2246 126.706 43.832 126.706 45.8135C126.706 47.795 125.099 49.4024 123.118 49.4024C112.251 49.4024 103.406 58.2431 103.406 69.1135C103.406 70.3913 101.799 71.2209 99.8176 71.2209L99.8213 71.2172Z" fill="url(#paint7_radial_1255_4161)"/>
<path d="M75.9953 118.909C75.9953 121.976 72.7324 123.354 68.7027 123.354C64.6731 123.354 61.4102 121.976 61.4102 118.909C61.4102 115.842 64.6731 113.354 68.7027 113.354C72.7324 113.354 75.9953 115.842 75.9953 118.909Z" fill="#FF6101"/>
<path d="M138.704 118.909C138.704 121.976 135.441 123.354 131.412 123.354C127.382 123.354 124.119 121.976 124.119 118.909C124.119 115.842 127.382 113.354 131.412 113.354C135.441 113.354 138.704 115.842 138.704 118.909Z" fill="#FF6101"/>
</g>
<path d="M307.056 72.1481L295.935 98.5925C294.537 97.8888 291.204 97.1018 288.056 97.1018C284.907 97.1018 281.75 97.8888 278.685 99.3796C272.639 102.444 268.176 108.574 268.176 117.417V165.843H240.5V71.611H267.389V84.8333H267.917C274.222 76.4259 283.852 70.2129 296.38 70.2129C300.935 70.2129 305.315 71.0925 307.065 72.1388L307.056 72.1481Z" fill="#FF4500"/>
<path d="M301.703 119C301.703 91.769 320.361 70.2227 348.296 70.2227C373.601 70.2227 391.731 88.7041 391.731 114.713C391.731 119.269 391.296 123.556 390.333 127.676H326.925C329.814 137.575 338.398 145.278 351.268 145.278C358.361 145.278 368.435 142.741 373.861 138.537L382.444 159.204C374.472 164.63 362.305 167.26 351.62 167.26C321.759 167.26 301.703 147.991 301.703 119.01V119ZM326.398 110.334H366.24C366.24 98.2504 358.009 91.8523 347.935 91.8523C336.546 91.8523 328.842 99.2041 326.388 110.334H326.398Z" fill="#FF4500"/>
<path d="M629.195 29.2871C638.482 29.2871 646.093 36.9075 646.093 46.1853C646.093 55.463 638.473 63.0834 629.195 63.0834C619.917 63.0834 612.297 55.463 612.297 46.1853C612.297 36.9075 619.917 29.2871 629.195 29.2871ZM643.028 165.852H615.352V71.6204H643.028V165.852Z" fill="#FF4500"/>
<path d="M468.519 30.9902L468.435 80.555H467.908C460.287 73.2865 452.056 70.305 441.287 70.305C414.75 70.305 397.148 91.6754 397.148 118.731C397.148 145.787 413.611 167.249 440.408 167.249C451.621 167.249 462.213 163.398 469.047 154.638H469.834V165.851H496.195V30.9902H468.519ZM469.834 143.388H468.917L462.741 136.972C458.723 140.981 453.223 143.388 446.797 143.388C433.241 143.388 423.76 132.666 423.76 118.759C423.76 104.851 433.241 94.1291 446.797 94.1291C460.352 94.1291 469.834 104.851 469.834 118.759V143.388Z" fill="#FF4500"/>
<path d="M574.212 30.9902L574.129 80.555H573.601C565.981 73.2865 557.749 70.305 546.981 70.305C520.444 70.305 502.842 91.6754 502.842 118.731C502.842 145.787 519.305 167.249 546.101 167.249C557.314 167.249 567.907 163.398 574.74 154.638H575.527V165.851H601.888V30.9902H574.212ZM575.397 143.388H574.481L568.305 136.972C564.286 140.981 558.786 143.388 552.36 143.388C538.805 143.388 529.323 132.666 529.323 118.759C529.323 104.851 538.805 94.1291 552.36 94.1291C565.916 94.1291 575.397 104.851 575.397 118.759V143.388Z" fill="#FF4500"/>
<path d="M696.703 71.6189H716.935V95.1745H696.703V165.85H669.028V95.1745H648.889V71.6189H669.028V46.0078H696.703V71.6189Z" fill="#FF4500"/>
</g>
<defs>
<radialGradient id="paint0_radial_1255_4161" cx="0" cy="0" r="1" gradientUnits="userSpaceOnUse" gradientTransform="translate(157.18 85.1447) scale(47.2037 41.0672)">
<stop stop-color="#FEFFFF"/>
<stop offset="0.4" stop-color="#FEFFFF"/>
<stop offset="0.51" stop-color="#F9FCFC"/>
<stop offset="0.62" stop-color="#EDF3F5"/>
<stop offset="0.7" stop-color="#DEE9EC"/>
<stop offset="0.72" stop-color="#D8E4E8"/>
<stop offset="0.76" stop-color="#CCD8DF"/>
<stop offset="0.8" stop-color="#C8D5DD"/>
<stop offset="0.83" stop-color="#CCD6DE"/>
<stop offset="0.85" stop-color="#D8DBE2"/>
<stop offset="0.88" stop-color="#EDE3E9"/>
<stop offset="0.9" stop-color="#FFEBEF"/>
</radialGradient>
<radialGradient id="paint1_radial_1255_4161" cx="0" cy="0" r="1" gradientUnits="userSpaceOnUse" gradientTransform="translate(43.8073 36.4601) scale(47.2037 41.0672)">
<stop stop-color="#FEFFFF"/>
<stop offset="0.4" stop-color="#FEFFFF"/>
<stop offset="0.51" stop-color="#F9FCFC"/>
<stop offset="0.62" stop-color="#EDF3F5"/>
<stop offset="0.7" stop-color="#DEE9EC"/>
<stop offset="0.72" stop-color="#D8E4E8"/>
<stop offset="0.76" stop-color="#CCD8DF"/>
<stop offset="0.8" stop-color="#C8D5DD"/>
<stop offset="0.83" stop-color="#CCD6DE"/>
<stop offset="0.85" stop-color="#D8DBE2"/>
<stop offset="0.88" stop-color="#EDE3E9"/>
<stop offset="0.9" stop-color="#FFEBEF"/>
</radialGradient>
<radialGradient id="paint2_radial_1255_4161" cx="0" cy="0" r="1" gradientUnits="userSpaceOnUse" gradientTransform="translate(101.496 79.1783) scale(142.385 99.6696)">
<stop stop-color="#FEFFFF"/>
<stop offset="0.4" stop-color="#FEFFFF"/>
<stop offset="0.51" stop-color="#F9FCFC"/>
<stop offset="0.62" stop-color="#EDF3F5"/>
<stop offset="0.7" stop-color="#DEE9EC"/>
<stop offset="0.72" stop-color="#D8E4E8"/>
<stop offset="0.76" stop-color="#CCD8DF"/>
<stop offset="0.8" stop-color="#C8D5DD"/>
<stop offset="0.83" stop-color="#CCD6DE"/>
<stop offset="0.85" stop-color="#D8DBE2"/>
<stop offset="0.88" stop-color="#EDE3E9"/>
<stop offset="0.9" stop-color="#FFEBEF"/>
</radialGradient>
<radialGradient id="paint3_radial_1255_4161" cx="0" cy="0" r="1" gradientUnits="userSpaceOnUse" gradientTransform="translate(69.8521 118.494) scale(11.8963 17.3686)">
<stop stop-color="#FF6600"/>
<stop offset="0.5" stop-color="#FF4500"/>
<stop offset="0.7" stop-color="#FC4301"/>
<stop offset="0.82" stop-color="#F43F07"/>
<stop offset="0.92" stop-color="#E53812"/>
<stop offset="1" stop-color="#D4301F"/>
</radialGradient>
<radialGradient id="paint4_radial_1255_4161" cx="0" cy="0" r="1" gradientUnits="userSpaceOnUse" gradientTransform="translate(130.266 118.494) rotate(180) scale(11.8963 17.3686)">
<stop stop-color="#FF6600"/>
<stop offset="0.5" stop-color="#FF4500"/>
<stop offset="0.7" stop-color="#FC4301"/>
<stop offset="0.82" stop-color="#F43F07"/>
<stop offset="0.92" stop-color="#E53812"/>
<stop offset="1" stop-color="#D4301F"/>
</radialGradient>
<radialGradient id="paint5_radial_1255_4161" cx="0" cy="0" r="1" gradientUnits="userSpaceOnUse" gradientTransform="translate(99.9364 155.07) scale(41.9481 27.6858)">
<stop stop-color="#172E35"/>
<stop offset="0.29" stop-color="#0E1C21"/>
<stop offset="0.73" stop-color="#030708"/>
<stop offset="1"/>
</radialGradient>
<radialGradient id="paint6_radial_1255_4161" cx="0" cy="0" r="1" gradientUnits="userSpaceOnUse" gradientTransform="translate(136.929 30.4946) scale(36.8222 36.0858)">
<stop stop-color="#FEFFFF"/>
<stop offset="0.4" stop-color="#FEFFFF"/>
<stop offset="0.51" stop-color="#F9FCFC"/>
<stop offset="0.62" stop-color="#EDF3F5"/>
<stop offset="0.7" stop-color="#DEE9EC"/>
<stop offset="0.72" stop-color="#D8E4E8"/>
<stop offset="0.76" stop-color="#CCD8DF"/>
<stop offset="0.8" stop-color="#C8D5DD"/>
<stop offset="0.83" stop-color="#CCD6DE"/>
<stop offset="0.85" stop-color="#D8DBE2"/>
<stop offset="0.88" stop-color="#EDE3E9"/>
<stop offset="0.9" stop-color="#FFEBEF"/>
</radialGradient>
<radialGradient id="paint7_radial_1255_4161" cx="0" cy="0" r="1" gradientUnits="userSpaceOnUse" gradientTransform="translate(121.584 67.6653) scale(30.1815 30.1815)">
<stop offset="0.48" stop-color="#7A9299"/>
<stop offset="0.67" stop-color="#172E35"/>
<stop offset="0.75"/>
<stop offset="0.82" stop-color="#172E35"/>
</radialGradient>
<clipPath id="clip0_1255_4161">
<rect width="716.667" height="200" fill="white"/>
</clipPath>
<clipPath id="clip1_1255_4161">
<rect width="160.078" height="139.896" fill="white" transform="translate(19.9629 29.2129)"/>
</clipPath>
</defs>
</svg>
