<svg width="1348" height="200" viewBox="0 0 1348 200" fill="none" xmlns="http://www.w3.org/2000/svg">
<path d="M826.127 113.678C824.032 113.31 817.006 112.142 814.948 111.764C803.848 109.768 794.343 107.173 794.343 96.0053C794.343 86.4163 804.395 81.9426 816.906 81.9426C835.522 81.9426 851.848 90.3784 853.711 91.3095L863.916 64.3895C859.99 62.3521 843.379 53.4784 817.222 53.4784C793.264 53.4784 764.001 66.059 764.001 97.3579C764.001 125.368 784.016 134.358 803.306 137.753C805.969 138.242 814.343 139.673 816.737 140.091C829.711 142.284 836.837 147.116 836.837 155.604C836.837 166.38 826.716 171.431 811.395 171.431C786.864 171.431 772.469 164.12 768.311 162.41L757.006 188.748C760.516 190.557 777.264 200 809.943 200C841.653 200 867.101 184.295 867.101 155.064C866.853 127.854 848.564 117.531 826.127 113.678Z" fill="#4E4E55"/>
<path d="M922.953 4.45728L892.943 21.0589V56.2152H877.143V84.9157H892.943V146.963C892.943 173.468 903.837 197.268 942.264 197.268H954.279V168.542H949.774C930.885 168.542 922.953 157.642 922.953 142.837V84.9157H957.422V56.2152H922.953V4.45728" fill="#4E4E55"/>
<path d="M1157.42 82.6584C1169.13 82.6584 1181.13 87.9853 1184.73 100.874L1211.96 90.5158C1204.33 63.559 1179.29 53.4784 1157.2 53.4784C1117.62 53.4784 1101.66 78.0574 1101.66 101.947V151.521C1101.66 175.401 1117.62 200 1157.2 200C1179.29 200 1204.33 189.905 1211.96 162.948L1184.73 152.595C1181.13 165.469 1169.13 170.826 1157.42 170.826C1137.03 170.826 1131.62 159.663 1131.62 146.937V106.522C1131.62 93.8095 1137.03 82.6584 1157.42 82.6584Z" fill="#4E4E55"/>
<path d="M1285.74 119.568L1341.85 56.2152H1304.94L1256.68 111.437V4.46305H1226.65V197.268H1256.68V152.374L1266.54 141.248L1309.51 197.268H1345.53L1285.74 119.568Z" fill="#4E4E55"/>
<path d="M1041.37 86.9942H1010.17C1005.21 86.9942 1001.18 91.0258 1001.18 95.9684V129.832H970.395V95.9684C970.395 74.0047 988.189 56.2152 1010.17 56.2152H1041.37V86.9942" fill="#E32124"/>
<path d="M1015.97 166.484H1047.2C1052.14 166.484 1056.18 162.459 1056.18 157.5V123.647H1086.96V157.5C1086.96 179.463 1069.16 197.268 1047.2 197.268H1015.97V166.484Z" fill="#E32124"/>
<path d="M507.042 56.2152H541.501V84.9157H507.042V142.837C507.042 157.642 514.97 168.542 533.843 168.542H538.348V197.268H526.327C487.889 197.268 477.028 173.468 477.028 146.963V84.9157H426.516V142.837C426.516 157.642 434.458 168.542 453.331 168.542H457.821V197.268H445.796C407.375 197.268 396.489 173.468 396.489 146.963V84.9157H381.275V56.2152H396.489V21.0589L426.516 4.45728V56.2152H477.028V21.0589L507.042 4.45728V56.2152" fill="#E32124"/>
<path d="M183.047 53.4783C173.553 53.4783 163.921 55.3168 155.253 58.9883V4.45728H125.236V197.268H155.253V87.0478C161.285 83.2583 169.963 80.9952 178.448 80.9952C197.315 80.9952 206.195 91.4841 206.195 106.953V197.268H236.184V102.854C236.184 74.3831 215.563 53.4783 183.047 53.4783" fill="#E32124"/>
<path d="M335.172 169.217C329.467 172.294 322.247 174.058 315.063 174.058C292.662 174.058 284.241 162.648 284.241 146.91V56.2153H254.23V147.463C254.23 182.932 274.73 200 311.369 200C328.916 200 348.346 195.563 365.172 188.279V56.2153H335.172V169.217Z" fill="#E32124"/>
<path d="M69.1158 113.678C67.0374 113.31 60 112.142 57.9358 111.764C46.8586 109.768 37.3314 107.173 37.3314 96.0053C37.3314 86.4163 47.3746 81.9426 59.8995 81.9426C78.5116 81.9426 94.8374 90.3784 96.7 91.3095L106.899 64.3895C102.999 62.3521 86.3731 53.4784 60.1995 53.4784C36.2582 53.4784 6.99016 66.059 6.99016 97.3579C6.99016 125.368 26.9839 134.358 46.2994 137.753C48.9576 138.242 57.3374 139.673 59.7474 140.091C72.7158 142.284 79.811 147.116 79.811 155.604C79.811 166.38 69.7205 171.431 54.4058 171.431C29.852 171.431 15.4585 164.12 11.2952 162.41L0 188.748C3.52179 190.557 20.2632 200 52.9421 200C84.6526 200 110.101 184.295 110.101 155.064C109.827 127.854 91.5421 117.531 69.1158 113.678Z" fill="#E32124"/>
<path d="M635.578 116.046H584.973V105.783C584.973 94.3358 590.72 82.0579 610.431 82.0579C629.431 82.0579 635.578 94.0153 635.578 105.226V116.046ZM665.594 101.947C665.594 76.1474 645.931 53.4684 610.573 53.4684C570.436 53.4684 555.025 78.5321 555.025 101.947V148.795C555.025 181.205 575.736 200 610.573 200C641.304 200 657.257 182.231 661.994 171.558L636.657 156.336C634.494 162.605 624.462 171.4 610.773 171.4C592.215 171.4 585.078 161.046 585.078 148.074L584.973 140.347H665.594V101.947Z" fill="#E32124"/>
<path d="M684.801 102V197.268H714.79V104.564C714.79 96.4678 719.385 82.6315 741.411 82.6315C744.869 82.6315 752.685 83.6162 755.185 84.0852V54.9894C752.48 54.3357 746.28 53.4683 739.874 53.4683C701.727 53.4683 684.801 77.3952 684.801 102" fill="#E32124"/>
</svg>
