<svg width="870" height="200" viewBox="0 0 870 200" fill="none" xmlns="http://www.w3.org/2000/svg">
<g clip-path="url(#clip0_1255_3881)">
<path d="M696 44.4444V62.2222H670.222V150.222H652.444V62.2222H640V44.4444H652.444C652.444 25.7777 659.556 10.6666 671.111 5.33328C682.667 -0.888938 696 -4.96022e-05 696 -4.96022e-05V17.7777C694.222 17.7777 688.889 16.8888 681.778 20.4444C674.667 24 670.222 32 670.222 43.5555V44.4444H696Z" fill="#F16122"/>
<path d="M376 62.2223V44.4445H350.222V1.77783H332.444V44.4445H320V62.2223H332.444V107.556C332.444 126.222 340.444 140.444 351.111 146.667C362.667 152.889 376 151.111 376 151.111V133.333C374.222 133.333 368.889 134.222 361.778 130.667C354.667 127.111 350.222 118.222 350.222 107.556V62.2223H376Z" fill="#F16122"/>
<path d="M446.223 62.2223V44.4445H420.445V1.77783H402.667V44.4445H390.223V62.2223H402.667V107.556C402.667 126.222 410.667 140.444 421.334 146.667C432.889 152.889 446.223 151.111 446.223 151.111V133.333C444.445 133.333 439.112 134.222 432 130.667C424.889 127.111 420.445 118.222 420.445 107.556V62.2223H446.223Z" fill="#F16122"/>
<path d="M284.445 105.778C284.445 122.667 276.445 133.333 262.223 133.333C248.889 133.333 240 122.667 240 105.778V44.4443H222.223V106.667C222.223 134.222 237.334 151.111 262.223 151.111C287.112 151.111 302.223 134.222 302.223 106.667V44.4443H284.445V105.778Z" fill="#F16122"/>
<path d="M736.889 1.77783H719.111V149.333H736.889V1.77783Z" fill="#F16122"/>
<path d="M52.4444 151.111C26.6667 151.111 4.44444 136.889 0 124.444L13.3333 112.889C19.5556 121.778 32 133.333 52.4444 133.333C72.8889 133.333 85.3333 125.333 85.3333 109.333C85.3333 92.4445 70.2222 87.1111 48.8889 81.7778C26.6667 76.4444 4.44444 69.3333 4.44444 40C3.55556 17.7778 24.8889 0 52.4444 0C76.4444 0 94.2222 11.5556 99.5556 20.4444L85.3333 32C78.2222 23.1111 65.7778 17.7778 52.4444 17.7778C33.7778 17.7778 21.3333 26.6667 21.3333 40.8889C21.3333 57.7778 34.6667 61.3333 55.1111 66.6667C79.1111 72.8889 102.222 81.7778 102.222 110.222C103.111 135.111 82.6667 151.111 52.4444 151.111Z" fill="#F16122"/>
<path d="M617.777 43.5557C604.444 43.5557 595.555 48.0001 589.332 56.0001V44.4446H571.555V150.222H589.332V88.0001C589.332 71.1112 603.555 61.3334 617.777 61.3334C619.555 61.3334 621.332 61.3334 623.11 62.2223V44.4446C621.332 43.5557 619.555 43.5557 617.777 43.5557Z" fill="#F16122"/>
<path d="M506.666 151.111C477.333 151.111 456.889 128 456.889 96.8887C456.889 65.7776 476.444 42.6665 504.889 42.6665C533.333 43.5554 551.111 64.8887 551.111 97.7776C551.111 99.5554 551.111 100.444 551.111 103.111V104H474.666C477.333 122.667 488.889 135.111 507.555 135.111C520 135.111 528 131.555 536.889 121.778L537.778 120.889L548.444 130.667L547.555 131.555C535.111 145.778 524.444 151.111 506.666 151.111ZM533.333 89.7776C531.555 73.7776 524.444 58.6665 504 58.6665C488 58.6665 476.444 71.111 473.778 89.7776H533.333Z" fill="#F16122"/>
<path d="M164.444 43.5556C152 43.5556 144 48.8889 139.555 53.3334V1.77783H121.777V150.222H139.555V88C139.555 71.1112 150.222 60.4445 164.444 60.4445C178.666 60.4445 185.777 72.8889 185.777 89.7778V149.333H203.555V89.7778C203.555 56.8889 185.777 43.5556 164.444 43.5556Z" fill="#F16122"/>
<path d="M822.222 44.4443V106.667C822.222 123.555 811.555 134.222 798.222 134.222C784.889 134.222 777.778 121.778 777.778 104.889V44.4443H760.889V104C760.889 137.778 777.778 151.111 799.111 151.111C810.666 151.111 819.555 145.778 823.111 141.333V156.444C823.111 168 818.666 175.111 811.555 178.667C804.444 182.222 800 181.333 797.333 181.333V199.111C797.333 199.111 810.666 200.889 822.222 194.667C832.889 188.444 840.889 174.222 840.889 155.555V44.4443H822.222Z" fill="#F16122"/>
<path d="M864 136.889C864 136 864 135.111 863.111 135.111C862.222 134.222 861.333 133.333 859.555 133.333H855.111V143.111H856.888V139.555H858.666L861.333 143.111H863.111L860.444 139.555C863.111 139.555 864 138.666 864 136.889ZM859.555 138.666H856.888V136H859.555C860.444 136 861.333 136.889 861.333 137.778C861.333 137.778 861.333 138.666 859.555 138.666ZM859.555 128.889C854.222 128.889 849.777 133.333 849.777 138.666C849.777 144 854.222 148.444 859.555 148.444C864.888 148.444 869.333 144 869.333 138.666C869.333 133.333 864.888 128.889 859.555 128.889ZM859.555 146.666C855.111 146.666 851.555 143.111 851.555 138.666C851.555 134.222 855.111 130.666 859.555 130.666C864 130.666 867.555 134.222 867.555 138.666C867.555 143.111 864 146.666 859.555 146.666Z" fill="#F16122"/>
</g>
<defs>
<clipPath id="clip0_1255_3881">
<rect width="869.333" height="200" fill="white"/>
</clipPath>
</defs>
</svg>
