<svg width="785" height="200" viewBox="0 0 785 200" fill="none" xmlns="http://www.w3.org/2000/svg">
<path d="M251.18 156.693L260.943 134.016C271.495 141.89 285.51 145.985 299.369 145.985C309.605 145.985 316.062 142.048 316.062 136.063C315.904 119.371 254.802 132.441 254.329 90.5517C254.172 69.2918 273.069 52.9139 299.841 52.9139C315.747 52.9139 331.652 56.8509 342.991 65.8273L333.857 88.9769C323.463 82.3627 310.55 77.6383 298.266 77.6383C289.92 77.6383 284.408 81.5753 284.408 86.6147C284.566 102.993 346.14 94.0162 346.77 134.016C346.77 155.749 328.345 171.024 301.888 171.024C282.518 171.024 264.723 166.457 251.18 156.693ZM625.825 125.827C620.943 134.331 611.81 140.158 601.258 140.158C585.668 140.158 573.069 127.56 573.069 111.969C573.069 96.3784 585.668 83.78 601.258 83.78C611.81 83.78 620.943 89.6068 625.825 98.1107L652.755 83.1501C642.676 65.1973 623.306 52.9139 601.258 52.9139C568.66 52.9139 542.203 79.3706 542.203 111.969C542.203 144.567 568.66 171.024 601.258 171.024C623.463 171.024 642.676 158.898 652.755 140.788L625.825 125.827V125.827ZM360.314 3.9375H394.014V168.819H360.314V3.9375ZM665.983 3.9375V168.819H699.684V119.371L739.684 168.819H782.833L731.967 110.079L779.054 55.2761H737.794L699.684 100.788V3.9375H665.983ZM494.172 126.142C489.29 134.174 479.211 140.158 467.873 140.158C452.282 140.158 439.684 127.56 439.684 111.969C439.684 96.3784 452.282 83.78 467.873 83.78C479.211 83.78 489.29 90.0792 494.172 98.2682V126.142ZM494.172 55.2761V68.6619C488.66 59.3706 474.959 52.9139 460.629 52.9139C431.022 52.9139 407.715 79.0556 407.715 111.812C407.715 144.567 431.022 171.024 460.629 171.024C474.959 171.024 488.66 164.567 494.172 155.276V168.662H527.873V55.2761H494.172Z" fill="black"/>
<path d="M42.8346 125.985C42.8346 137.481 33.5432 146.772 22.0472 146.772C10.5511 146.772 1.25977 137.481 1.25977 125.985C1.25977 114.489 10.5511 105.197 22.0472 105.197H42.8346V125.985ZM53.2283 125.985C53.2283 114.489 62.5196 105.197 74.0157 105.197C85.5117 105.197 94.8031 114.489 94.8031 125.985V177.953C94.8031 189.449 85.5117 198.741 74.0157 198.741C62.5196 198.741 53.2283 189.449 53.2283 177.953V125.985Z" fill="#E01E5A"/>
<path d="M74.0149 42.5201C62.5189 42.5201 53.2275 33.2288 53.2275 21.7327C53.2275 10.2367 62.5189 0.945312 74.0149 0.945312C85.511 0.945312 94.8023 10.2367 94.8023 21.7327V42.5201H74.0149ZM74.0149 53.0713C85.511 53.0713 94.8023 62.3626 94.8023 73.8587C94.8023 85.3548 85.511 94.6461 74.0149 94.6461H21.889C10.3929 94.6461 1.10156 85.3548 1.10156 73.8587C1.10156 62.3626 10.3929 53.0713 21.889 53.0713H74.0149Z" fill="#36C5F0"/>
<path d="M157.322 73.8587C157.322 62.3626 166.613 53.0713 178.109 53.0713C189.605 53.0713 198.897 62.3626 198.897 73.8587C198.897 85.3548 189.605 94.6461 178.109 94.6461H157.322V73.8587ZM146.928 73.8587C146.928 85.3548 137.637 94.6461 126.141 94.6461C114.645 94.6461 105.354 85.3548 105.354 73.8587V21.7327C105.354 10.2367 114.645 0.945312 126.141 0.945312C137.637 0.945312 146.928 10.2367 146.928 21.7327V73.8587V73.8587Z" fill="#2EB67D"/>
<path d="M126.141 157.166C137.637 157.166 146.928 166.457 146.928 177.953C146.928 189.449 137.637 198.741 126.141 198.741C114.645 198.741 105.354 189.449 105.354 177.953V157.166H126.141ZM126.141 146.772C114.645 146.772 105.354 137.481 105.354 125.985C105.354 114.489 114.645 105.197 126.141 105.197H178.267C189.763 105.197 199.054 114.489 199.054 125.985C199.054 137.481 189.763 146.772 178.267 146.772H126.141Z" fill="#ECB22E"/>
</svg>
