<svg width="1056" height="200" viewBox="0 0 1056 200" fill="none" xmlns="http://www.w3.org/2000/svg">
<g clip-path="url(#clip0_1255_3937)">
<path d="M969.935 62.1479H924.826L942.571 87.5967H965.436L946.206 197.073H986.265L1005.52 87.5967H1055.49L976.607 24.1377L969.935 62.1479Z" fill="#265EAC"/>
<path d="M186.972 0H4.97029L0 28.666H70.6638L41.0584 197.081H81.1184L110.73 28.666H182.002L186.972 0Z" fill="#265EAC"/>
<path d="M216.598 59.1113C165.678 59.1113 133.082 91.1612 126.612 128.396C119.438 169.738 144.841 200.001 196.231 200.001C219.193 200.001 240.674 195.682 258.128 185.982L263.548 155.146C246.499 167.361 224.8 174.187 206.419 174.187C180.8 174.187 160.434 163.521 163.637 139.054H269.497C270.772 136.148 272.3 131.062 273.402 124.716C278.532 95.1752 268.062 59.1113 216.598 59.1113ZM237.364 115.267H167.693C171.881 101.467 185.416 82.3869 210.056 82.3869C236.87 82.3869 239.704 102.772 237.364 115.267Z" fill="#265EAC"/>
<path d="M393.519 59.1191C368.516 59.1191 349.786 69.483 340.955 79.9597H340.021L304.758 59.1191C303.461 70.8129 301.73 86.6916 299.02 102.277L282.551 197.073H322.61L336.542 117.686C337.209 113.789 338.535 109.659 340.258 106.855C346.243 96.439 358.799 86.8468 374.717 86.8468C396.576 86.8468 402.525 101.595 399.169 120.947L385.773 197.073H425.839L439.946 116.933C447.352 74.2685 421.117 59.1191 393.519 59.1191Z" fill="#265EAC"/>
<path d="M874.078 59.1191C849.061 59.1191 830.354 69.483 821.521 79.9597H820.588L785.324 59.1191C784.027 70.8129 782.287 86.6916 779.578 102.277L763.125 197.073H803.169L817.109 117.686C817.769 113.789 819.095 109.659 820.812 106.855C826.803 96.439 839.358 86.8468 855.264 86.8468C877.149 86.8468 883.092 101.595 879.738 120.947L866.348 197.073H906.407L920.493 116.933C927.902 74.2685 901.675 59.1191 874.078 59.1191Z" fill="#265EAC"/>
<path d="M697.157 59.1113C646.237 59.1113 613.649 91.1612 607.178 128.396C600.005 169.738 625.407 200.001 676.79 200.001C699.75 200.001 721.24 195.682 738.687 185.982L744.115 155.146C727.068 167.361 705.374 174.187 686.971 174.187C661.366 174.187 641.022 163.521 644.201 139.054H750.076C751.33 136.148 752.866 131.062 753.988 124.716C759.089 95.1752 748.613 59.1113 697.157 59.1113ZM717.922 115.267H648.26C652.439 101.467 665.974 82.3869 690.607 82.3869C717.436 82.3869 720.269 102.772 717.922 115.267Z" fill="#265EAC"/>
<path d="M456.757 127.8C449.49 169.68 478.813 199.986 528.442 199.986C548.178 199.986 571.739 194.312 580.666 191.002L587.144 154.941C573.226 169.911 554.358 173.019 540.969 173.019C513.706 173.019 493.064 157.145 497.867 129.482C502.033 104.746 525.458 85.7369 555.996 85.7369C568.429 85.7369 585.304 89.9008 595.94 103.899L602.149 67.2184C593.535 63.9115 579.747 59.1914 559.336 59.1914C503.648 59.1904 463.778 87.4077 456.757 127.8Z" fill="#265EAC"/>
</g>
<defs>
<clipPath id="clip0_1255_3937">
<rect width="1055.49" height="200" fill="white"/>
</clipPath>
</defs>
</svg>
