<svg width="687" height="200" viewBox="0 0 687 200" fill="none" xmlns="http://www.w3.org/2000/svg">
<g clip-path="url(#clip0_1255_4349)">
<path d="M131.171 72.1961C144.085 81.4226 159.905 86.8513 176.991 86.8513V53.9889C173.758 53.9896 170.532 53.6526 167.369 52.9827V78.85C150.284 78.85 134.466 73.4213 121.549 64.1955V131.258C121.549 164.806 94.3387 192 60.7756 192C48.2524 192 36.6126 188.216 26.9434 181.726C37.9792 193.004 53.3694 200.001 70.396 200.001C103.961 200.001 131.173 172.807 131.173 139.257V72.1961H131.171V72.1961ZM143.042 39.042C136.442 31.8356 132.109 22.5227 131.171 12.2268V8H122.052C124.348 21.0861 132.177 32.266 143.042 39.042ZM48.1721 155.983C44.4848 151.15 42.4922 145.239 42.5011 139.161C42.5011 123.818 54.9468 111.377 70.3013 111.377C73.1629 111.376 76.0073 111.814 78.7343 112.679V79.082C75.5474 78.6454 72.331 78.4601 69.1159 78.5281V104.678C66.3868 103.813 63.5411 103.374 60.6788 103.377C45.3242 103.377 32.8793 115.816 32.8793 131.162C32.8793 142.012 39.1 151.406 48.1721 155.983Z" fill="#FF004F"/>
<path d="M121.547 64.1949C134.465 73.4206 150.283 78.8493 167.368 78.8493V52.982C157.831 50.9516 149.388 45.9705 143.04 39.042C132.175 32.2653 124.347 21.0854 122.051 8H98.099V139.256C98.0448 154.558 85.6204 166.948 70.2988 166.948C61.27 166.948 53.2488 162.646 48.1688 155.983C39.0975 151.406 32.8767 142.012 32.8767 131.163C32.8767 115.818 45.3217 103.378 60.6763 103.378C63.6181 103.378 66.4536 103.835 69.1134 104.679V78.5288C36.1398 79.2097 9.62109 106.138 9.62109 139.257C9.62109 155.789 16.2249 170.776 26.9429 181.727C36.6121 188.216 48.2519 192.001 60.7751 192.001C94.3389 192.001 121.548 164.805 121.548 131.258V64.1949H121.547Z" fill="black"/>
<path d="M167.368 52.9819V45.9875C158.768 46.0006 150.338 43.5934 143.041 39.0413C149.5 46.109 158.005 50.9824 167.368 52.9819ZM122.052 7.99989C121.833 6.74929 121.665 5.49044 121.548 4.2268V0H88.4765V131.257C88.4237 146.557 76 158.947 60.677 158.947C56.1784 158.947 51.931 157.88 48.1696 155.983C53.2496 162.646 61.2707 166.947 70.2995 166.947C85.6198 166.947 98.0462 154.558 98.0997 139.256V7.99989H122.052ZM69.1155 78.5287V71.0827C66.3521 70.7052 63.566 70.5157 60.7765 70.5171C27.2099 70.5164 0 97.7119 0 131.257C0 152.288 10.694 170.823 26.9443 181.726C16.2263 170.776 9.62252 155.787 9.62252 139.256C9.62252 106.138 36.1406 79.2096 69.1155 78.5287Z" fill="#00F2EA"/>
<path d="M550.573 164.499C574.589 164.499 594.059 145.187 594.059 121.366C594.059 97.5462 574.589 78.2305 550.573 78.2305H544.021C568.038 78.2305 587.508 97.5455 587.508 121.366C587.508 145.187 568.038 164.499 544.021 164.499H550.573Z" fill="#FF004F"/>
<path d="M543.426 78.2305H536.875C512.86 78.2305 493.387 97.5455 493.387 121.366C493.387 145.187 512.86 164.499 536.875 164.499H543.426C519.407 164.499 499.938 145.187 499.938 121.366C499.937 97.5462 519.407 78.2305 543.426 78.2305Z" fill="#00F2EA"/>
<path d="M212.824 58.7363V80.6H238.434V163.91H264.054V81.1902H284.901L292.05 58.737H212.824V58.7363ZM422.504 58.7363V80.6H448.114V163.91H473.735V81.1902H494.581L501.728 58.737H422.504V58.7363ZM296.819 71.1435C296.819 64.2927 302.411 58.7363 309.318 58.7363C316.232 58.7363 321.83 64.2927 321.83 71.1435C321.83 77.9951 316.236 83.5514 309.318 83.5514C302.411 83.548 296.819 77.9951 296.819 71.1435ZM296.819 92.4169H321.83V163.91H296.819V92.4169ZM332.554 58.7363V163.909H357.575V136.732L365.319 129.636L389.739 164.5H416.542L381.394 113.686L412.966 82.9577H382.588L357.575 107.773V58.7363H332.554ZM602.393 58.7363V163.909H627.417V136.732L635.158 129.636L659.585 164.5H686.392L651.244 113.686L682.814 82.9577H652.437L627.417 107.773V58.7363H602.393Z" fill="black"/>
<path d="M544.02 164.499C568.035 164.499 587.508 145.187 587.508 121.366C587.508 97.5462 568.035 78.2305 544.02 78.2305H543.426C519.409 78.2305 499.939 97.5455 499.939 121.366C499.939 145.187 519.409 164.499 543.426 164.499H544.02ZM522.575 121.366C522.575 109.779 532.047 100.393 543.728 100.393C555.4 100.393 564.871 109.779 564.871 121.366C564.871 132.953 555.4 142.344 543.728 142.344C532.047 142.342 522.575 132.953 522.575 121.366Z" fill="black"/>
</g>
<defs>
<clipPath id="clip0_1255_4349">
<rect width="686.391" height="200" fill="white"/>
</clipPath>
</defs>
</svg>
