<svg width="844" height="200" viewBox="0 0 844 200" fill="none" xmlns="http://www.w3.org/2000/svg">
<g clip-path="url(#clip0_1255_4417)">
<path fill-rule="evenodd" clip-rule="evenodd" d="M51.2187 80.6504C89.4301 67.4797 95.9341 33.1707 91.0561 1.62601C91.0561 0.487799 92.0317 -0.32521 93.0073 -6.47805e-06C129.593 17.8862 170.731 56.9106 170.731 115.447C170.731 160.325 135.934 200 85.365 200C67.3205 200.821 49.5166 195.608 34.7633 185.186C20.01 174.764 9.14758 159.726 3.8905 142.445C-1.36657 125.164 -0.718911 106.624 5.73126 89.7514C12.1814 72.8792 24.0668 58.6354 39.5114 49.2683C40.487 48.6179 41.7878 49.2683 41.7878 50.4065C42.2756 56.4228 43.9016 71.5447 50.5683 80.6504H51.2187V80.6504Z" fill="url(#paint0_linear_1255_4417)"/>
<path fill-rule="evenodd" clip-rule="evenodd" d="M278.373 164.391L281.138 161.139L289.756 188.456L288.617 189.594C282.113 195.611 272.357 198.7 259.837 198.7H259.349C247.967 198.7 239.024 195.448 232.845 189.432C226.666 183.253 223.414 173.985 223.414 162.277V87.8058H201.463V57.7245H223.414V21.4644H257.235V57.7245H284.065V87.8058H257.073V154.96C257.073 158.05 257.886 167.968 267.317 167.968C272.195 167.968 276.747 166.18 278.373 164.229V164.391ZM296.26 195.611V57.8871H330.081V195.611H296.26V195.611ZM313.008 1.62695C317.021 1.62708 320.944 2.81514 324.283 5.0414C327.621 7.26766 330.227 10.4325 331.77 14.1369C333.313 17.8414 333.725 21.9198 332.953 25.858C332.182 29.7962 330.262 33.418 327.436 36.2669C324.61 39.1158 321.004 41.0643 317.072 41.8668C313.14 42.6693 309.058 42.2899 305.341 40.7765C301.625 39.263 298.439 36.6832 296.187 33.3622C293.934 30.0412 292.715 26.1276 292.682 22.1148C292.682 11.0578 301.951 1.62695 313.008 1.62695ZM420.975 54.4725C450.243 54.4725 466.341 70.4074 466.341 99.5131V195.448H432.52V107.643C431.869 92.0335 424.39 84.879 408.455 84.879C394.146 84.879 382.601 93.6595 376.747 101.139V195.448H342.926V58.0497H376.747V72.6839C386.504 63.253 402.113 54.7977 420.975 54.7977V54.4725ZM578.861 72.1961V7.48061H612.682V195.773H578.861V181.464C573.686 186.923 567.46 191.278 560.558 194.268C553.656 197.258 546.22 198.821 538.699 198.863C501.788 198.863 477.073 169.92 477.073 126.83C477.073 83.5782 501.788 54.6351 538.699 54.6351C546.237 54.6695 553.688 56.2451 560.595 59.265C567.502 62.285 573.718 66.6855 578.861 72.1961ZM578.861 101.302C575.092 96.3926 570.276 92.3858 564.762 89.5729C559.249 86.7601 553.178 85.2121 546.991 85.0416C526.016 85.0416 512.032 101.79 512.032 126.83C512.032 151.708 526.016 168.456 546.991 168.456C559.186 168.456 572.52 161.952 578.861 152.521V101.302ZM691.707 54.6351C731.707 54.6351 759.512 85.5294 759.512 129.432V138.7H657.235C660.65 158.05 675.934 170.407 696.747 170.407C709.918 170.407 724.39 164.716 732.682 156.424L734.959 154.472L751.056 177.562L749.43 179.025C734.194 192.535 714.331 199.641 693.983 198.863C651.707 198.863 621.951 169.107 621.951 126.668C621.622 117.298 623.19 107.958 626.56 99.2095C629.931 90.4608 635.034 82.4832 641.564 75.7557C648.094 69.0283 655.916 63.6896 664.561 60.0602C673.205 56.4308 682.494 54.5855 691.869 54.6351H691.707ZM657.073 113.172H726.504C724.552 92.5213 707.479 83.0904 691.707 83.0904C667.967 83.0904 659.024 100.977 657.073 113.334V113.172ZM841.3 54.6351H843.739V88.7814L840.812 88.2936C838.373 87.8058 835.284 87.4806 832.195 87.4806C821.3 87.4806 806.178 95.1229 800.487 103.253V195.448H766.666V57.8871H800.65V73.1717C811.869 61.4644 826.666 54.6351 841.3 54.6351V54.6351Z" fill="#424242"/>
</g>
<defs>
<linearGradient id="paint0_linear_1255_4417" x1="170.731" y1="-0.0722656" x2="-26.8531" y2="168.098" gradientUnits="userSpaceOnUse">
<stop stop-color="#FF7854"/>
<stop offset="1" stop-color="#FD267D"/>
</linearGradient>
<clipPath id="clip0_1255_4417">
<rect width="843.902" height="200" fill="white"/>
</clipPath>
</defs>
</svg>
