<svg width="577" height="200" viewBox="0 0 577 200" fill="none" xmlns="http://www.w3.org/2000/svg">
<g clip-path="url(#clip0_1255_3790)">
<path d="M33.1459 142.837C35.5805 149.298 38.9512 154.823 43.2585 159.41C47.5659 163.999 52.6688 167.51 58.5673 169.944C64.4664 172.379 70.8801 173.596 77.8092 173.596C84.5511 173.596 90.871 172.332 96.7701 169.803C102.669 167.275 107.819 163.717 112.219 159.129C116.62 154.541 120.038 149.064 122.472 142.697C124.907 136.33 126.124 129.214 126.124 121.349V0H155.618V196.629H126.405V178.371C119.851 185.299 112.125 190.636 103.23 194.382C94.3349 198.127 84.7382 200 74.4385 200C63.9511 200 54.1667 198.174 45.084 194.522C36.002 190.871 28.1363 185.675 21.4888 178.933C14.8413 172.191 9.59733 164.093 5.75865 154.635C1.91934 145.178 0 134.645 0 123.034V0H29.4943V121.349C29.4943 129.214 30.7113 136.376 33.1459 142.837Z" fill="black"/>
<path d="M206.458 0V71.6291C213.013 65.0749 220.597 59.8787 229.211 56.0394C237.826 52.2001 247.189 50.2808 257.301 50.2808C267.789 50.2808 277.619 52.2467 286.795 56.1793C295.971 60.1118 303.93 65.4491 310.672 72.191C317.414 78.9329 322.751 86.8912 326.683 96.0672C330.616 105.244 332.582 114.981 332.582 125.281C332.582 135.58 330.616 145.271 326.683 154.353C322.751 163.436 317.414 171.348 310.672 178.089C303.93 184.831 295.971 190.168 286.795 194.101C277.619 198.033 267.788 199.999 257.301 199.999C247.189 199.999 237.779 198.08 229.071 194.241C220.363 190.402 212.732 185.205 206.178 178.651V196.629H178.088V0H206.458ZM209.689 144.663C212.216 150.656 215.728 155.899 220.223 160.394C224.717 164.888 229.96 168.446 235.953 171.068C241.946 173.69 248.406 175.001 255.335 175.001C262.077 175.001 268.444 173.69 274.436 171.068C280.428 168.446 285.624 164.889 290.026 160.394C294.427 155.9 297.938 150.656 300.56 144.663C303.181 138.671 304.492 132.21 304.492 125.281C304.492 118.352 303.181 111.845 300.56 105.758C297.938 99.6721 294.427 94.3821 290.026 89.8877C285.625 85.3939 280.429 81.8822 274.436 79.3543C268.443 76.8265 262.076 75.5616 255.335 75.5616C248.594 75.5616 242.227 76.8259 236.234 79.3543C230.242 81.8828 224.999 85.3939 220.504 89.8877C216.01 94.3821 212.451 99.6721 209.83 105.758C207.208 111.845 205.897 118.352 205.897 125.281C205.897 132.21 207.161 138.671 209.689 144.663Z" fill="black"/>
<path d="M348.59 96.3487C352.334 87.3599 357.485 79.4482 364.039 72.613C370.592 65.7779 378.365 60.394 387.354 56.4615C396.343 52.5289 406.08 50.563 416.567 50.563C426.867 50.563 436.417 52.4357 445.219 56.1805C454.02 59.926 461.604 65.1228 467.972 71.7708C474.339 78.4183 479.302 86.284 482.859 95.3661C486.417 104.449 488.196 114.327 488.196 125.001V134.271H371.624C372.56 140.077 374.433 145.46 377.242 150.422C380.051 155.385 383.562 159.692 387.775 163.344C391.989 166.996 396.764 169.852 402.101 171.911C407.438 173.971 413.103 175.001 419.096 175.001C436.137 175.001 449.901 167.978 460.388 153.933L480.894 169.102C473.778 178.652 464.976 186.143 454.49 191.574C444.002 197.004 432.205 199.72 419.096 199.72C408.422 199.72 398.45 197.846 389.18 194.102C379.911 190.357 371.858 185.113 365.023 178.371C358.188 171.629 352.804 163.717 348.872 154.635C344.939 145.553 342.973 135.674 342.973 125C342.971 114.888 344.845 105.338 348.59 96.3487ZM388.056 85.2529C380.097 91.9009 374.807 100.749 372.185 111.798H459.545C457.111 100.749 451.914 91.9009 443.955 85.2529C435.996 78.6054 426.68 75.2814 416.006 75.2814C405.331 75.2814 396.015 78.6054 388.056 85.2529Z" fill="black"/>
<path d="M541.286 88.4829C535.293 95.0371 532.297 103.932 532.297 115.168V196.63H503.926V53.371H532.015V71.0677C535.574 65.2624 540.209 60.6742 545.92 57.3035C551.632 53.9322 558.42 52.2466 566.286 52.2466H576.117V78.6512H564.319C554.956 78.6518 547.278 81.9286 541.286 88.4829Z" fill="black"/>
</g>
<defs>
<clipPath id="clip0_1255_3790">
<rect width="576.117" height="200" fill="white"/>
</clipPath>
</defs>
</svg>
