<svg width="1194" height="201" viewBox="0 0 1194 201" fill="none" xmlns="http://www.w3.org/2000/svg">
<g clip-path="url(#clip0_1255_4429)">
<path fill-rule="evenodd" clip-rule="evenodd" d="M318.902 1.25586L217.144 200.181H121.565L164.15 117.738H162.24C127.107 163.344 74.6885 193.367 0 200.181V118.879C0 118.879 47.78 116.057 75.8685 86.5255H0V1.25743H85.2681V71.3891L87.1819 71.3813L122.025 1.25743H186.512V70.9445L188.425 70.9414L224.576 1.25586H318.902Z" fill="#146EF5"/>
<path d="M873.791 178.225H901.252V20.5977H873.791V178.225Z" fill="#080808"/>
<path fill-rule="evenodd" clip-rule="evenodd" d="M722.401 176.613C728.37 179.094 734.439 180.334 740.609 180.334C750.802 180.334 759.922 177.854 767.969 172.891C776.017 167.929 782.253 161.088 786.68 152.371C791.106 143.585 793.318 133.627 793.318 122.494C793.318 111.362 791.039 101.404 786.479 92.6185C781.918 83.8335 775.581 77.0268 767.466 72.1984C759.353 67.3029 750.132 64.8887 739.803 64.9558C733.232 64.9558 726.928 66.2299 720.893 68.7783C714.856 71.3266 709.828 74.9479 705.803 79.6422C705.493 79.9996 705.191 80.3606 704.898 80.7251V20.6953H677.336V178.223H704.697L704.642 163.507C705.35 164.374 706.106 165.222 706.911 166.05C711.27 170.544 716.433 174.065 722.401 176.613ZM750.567 151.163C746.074 153.912 740.944 155.288 735.177 155.288C729.476 155.288 724.245 153.879 719.484 151.062C714.723 148.178 710.934 144.256 708.117 139.293C705.368 134.331 703.993 128.698 703.993 122.394C703.926 116.09 705.267 110.457 708.017 105.494C710.833 100.465 714.622 96.5752 719.383 93.8257C724.145 91.0091 729.409 89.6343 735.177 89.7014C740.944 89.6343 746.074 90.9755 750.567 93.725C755.127 96.4075 758.614 100.263 761.029 105.293C763.509 110.256 764.75 115.956 764.75 122.394C764.75 128.831 763.509 134.532 761.029 139.494C758.614 144.457 755.127 148.346 750.567 151.163Z" fill="#080808"/>
<path d="M358.688 30.1523H390.072L418.147 132.683L448.013 30.1523H474.167L506.558 130.625L533.516 30.1523H562.285L519.836 178.224H492.776L459.84 80.07L429.605 178.224H402.243L358.688 30.1523Z" fill="#080808"/>
<path fill-rule="evenodd" clip-rule="evenodd" d="M608.632 180.838C597.7 180.905 587.843 178.49 579.057 173.595C570.34 168.633 563.466 161.759 558.436 152.974C553.474 144.189 550.992 134.163 550.992 122.897C550.992 111.967 553.541 102.075 558.637 93.2224C563.734 84.3703 570.642 77.4631 579.359 72.5005C588.077 67.538 597.801 65.0566 608.531 65.0566C620.602 65.0566 631.165 67.7392 640.218 73.104C649.338 78.4689 656.145 86.0804 660.637 95.9384C665.198 105.729 666.841 116.962 665.567 129.636H579.402C579.643 134.686 580.903 139.28 583.182 143.417C585.73 147.978 589.285 151.532 593.844 154.08C598.404 156.628 603.502 157.902 609.135 157.902C613.426 157.836 617.416 157.098 621.105 155.69C624.793 154.215 627.911 152.236 630.461 149.756C633.075 147.274 634.919 144.457 635.992 141.306H664.762C663.019 149.017 659.531 155.891 654.3 161.927C649.07 167.895 642.497 172.556 634.584 175.909C626.671 179.262 618.02 180.905 608.632 180.838ZM583.283 101.974C581.675 104.776 580.562 107.794 579.942 111.027H637.058C636.644 106.943 635.383 103.221 633.276 99.8615C630.863 95.9049 627.577 92.8535 623.419 90.7077C619.261 88.4947 614.567 87.3881 609.336 87.3881C603.77 87.3881 598.707 88.6623 594.147 91.2106C589.587 93.759 585.965 97.3467 583.283 101.974Z" fill="#080808"/>
<path d="M813.538 67.37C813.538 58.3837 815.584 50.4034 819.675 43.4291C823.765 36.3876 829.499 30.9221 836.876 27.0326C844.319 23.0759 853.004 21.0306 862.929 20.8965V45.3402C858.301 45.4073 854.346 46.3798 851.059 48.2575C847.841 50.0681 845.359 52.717 843.615 56.2042C842.01 59.4146 841.143 63.1365 841.016 67.37H862.326V90.6067H841V178.223H813.538V90.6067H795.834V67.37H813.538Z" fill="#080808"/>
<path fill-rule="evenodd" clip-rule="evenodd" d="M971.061 180.638C959.863 180.638 949.837 178.19 940.984 173.295C932.2 168.332 925.292 161.491 920.263 152.774C915.3 143.989 912.818 134.031 912.818 122.898C912.818 111.699 915.3 101.707 920.263 92.9216C925.292 84.0695 932.2 77.1957 940.984 72.3002C949.837 67.4048 959.863 64.957 971.061 64.957C982.328 64.957 992.387 67.4048 1001.24 72.3002C1010.16 77.1957 1017.1 84.0359 1022.06 92.821C1027.02 101.606 1029.54 111.632 1029.61 122.898C1029.54 134.031 1027.02 143.989 1022.06 152.774C1017.17 161.491 1010.26 168.332 1001.34 173.295C992.421 178.19 982.328 180.638 971.061 180.638ZM971.061 155.39C976.963 155.39 982.194 154.048 986.754 151.365C991.314 148.616 994.835 144.793 997.316 139.898C999.797 134.935 1001.04 129.269 1001.04 122.898C1001.04 116.46 999.797 110.76 997.316 105.797C994.835 100.835 991.314 97.0124 986.754 94.3298C982.194 91.5803 976.963 90.2057 971.061 90.2057C965.227 90.2057 960.03 91.5803 955.47 94.3298C950.976 97.0124 947.489 100.835 945.008 105.797C942.527 110.76 941.32 116.46 941.387 122.898C941.387 129.269 942.627 134.935 945.109 139.898C947.657 144.793 951.144 148.616 955.571 151.365C960.064 154.048 965.227 155.39 971.061 155.39Z" fill="#080808"/>
<path d="M1059.28 67.3711H1028.7L1061.8 178.224H1088.55L1110.32 107.422L1133.82 178.224H1160.18L1193.37 67.3711H1165.71L1146.88 136.37L1126.08 67.3711H1099.32L1078.61 137.89L1059.28 67.3711Z" fill="#080808"/>
</g>
<defs>
<clipPath id="clip0_1255_4429">
<rect width="1193.37" height="200" fill="white" transform="translate(0 0.5)"/>
</clipPath>
</defs>
</svg>
