<svg width="679" height="200" viewBox="0 0 679 200" fill="none" xmlns="http://www.w3.org/2000/svg">
<g clip-path="url(#clip0_1255_3852)">
<path d="M345.211 162.059H324.77L289.621 113.449L254.222 162.059H233.781L279.151 99.4892L237.52 41.9048H257.962L289.621 85.5293L321.28 41.9048H341.721L299.841 99.4892L345.211 162.059ZM451.406 127.907C451.406 138.377 447.916 146.853 440.936 152.836C433.956 158.819 423.984 162.059 411.022 162.059H354.933V108.463H328.01L339.228 93.0078H354.933V41.9048H408.778C420.993 41.9048 430.217 44.8961 436.698 50.6296C443.179 56.3632 446.42 64.091 446.42 73.3144C446.42 84.7815 441.185 93.7557 430.715 99.4892C437.446 101.982 442.431 105.971 445.921 110.707C449.661 115.443 451.406 121.426 451.406 127.907ZM373.131 93.2571H407.532C414.512 93.2571 419.747 91.7614 423.237 88.5207C426.727 85.5293 428.472 80.7929 428.472 74.5609C428.472 69.3259 426.727 65.0881 422.987 62.0967C419.497 59.1053 414.262 57.6096 407.532 57.6096H373.131V93.2571ZM432.959 127.409C432.959 121.177 430.964 116.191 427.225 113.2C423.486 109.959 417.752 108.463 410.274 108.463H373.131V146.105H410.025C417.254 146.105 422.987 144.36 426.976 141.369C430.964 138.128 432.959 133.392 432.959 127.409ZM575.05 101.982C575.05 111.205 573.804 119.93 571.062 127.409C568.319 134.887 564.331 141.618 559.096 147.352C553.612 153.085 547.38 157.572 540.4 160.314C533.42 163.306 525.443 164.552 516.469 164.552C507.744 164.552 499.517 163.056 492.537 160.314C485.557 157.323 479.325 153.085 473.841 147.352C468.357 141.618 464.368 134.887 461.626 127.409C458.884 119.93 457.638 111.205 457.638 101.982C457.638 92.7585 458.884 84.0336 461.626 76.5551C464.368 69.0766 468.357 62.0967 473.841 56.3632C479.076 50.6297 485.308 46.3918 492.537 43.4004C499.517 40.6583 507.744 39.1626 516.469 39.1626C525.193 39.1626 533.171 40.6583 540.4 43.4004C547.38 46.1426 553.861 50.6297 559.096 56.3632C564.331 62.0967 568.569 69.0766 571.062 76.5551C573.554 84.0336 575.05 92.5092 575.05 101.982ZM476.583 101.982C476.583 116.191 480.322 127.409 487.552 135.635C494.781 143.862 504.254 148.099 516.469 148.099C528.434 148.099 538.156 143.862 545.385 135.635C552.615 127.409 556.105 116.191 556.105 101.982C556.105 87.7729 552.615 76.3058 545.385 68.0795C538.156 59.8531 528.434 55.6153 516.469 55.6153C504.503 55.6153 494.781 59.8531 487.552 68.0795C480.322 76.5551 476.583 87.7729 476.583 101.982ZM632.884 99.4892L674.763 41.9048H654.322L622.663 85.5293L591.004 41.9048H570.563L612.443 99.4892L567.073 162.059H587.514L622.663 113.449L658.061 162.059H678.503L632.884 99.4892Z" fill="#107B10"/>
<path d="M99.8755 80.1993C130.012 103.113 181.071 159.402 165.629 175.342C147.945 190.785 125.031 200 99.8755 200C74.7198 200 51.5567 190.785 34.122 175.342C18.4309 159.402 69.7385 103.113 99.6264 80.4483C99.6264 80.1993 99.8755 80.1993 99.8755 80.1993ZM151.93 14.6949C136.737 5.47945 120.05 0 99.8755 0C79.7011 0 63.0137 5.47945 47.8207 14.6949C47.5716 14.6949 47.5716 14.944 47.5716 15.193C47.5716 15.4421 47.8207 15.4421 48.0697 15.4421C67.4969 11.208 96.8867 27.8954 99.6264 29.6389H100.125C102.864 27.8954 132.254 11.208 151.681 15.4421C151.93 15.4421 152.179 15.4421 152.179 15.193C152.179 14.944 152.179 14.6949 151.93 14.6949ZM29.8879 28.6426C29.6388 28.6426 29.6389 28.8917 29.3898 28.8917C11.208 47.0735 0 72.2291 0 99.8755C0 122.54 7.72104 143.711 20.4234 160.399C20.4234 160.648 20.6725 160.648 20.9215 160.648C21.1706 160.648 21.1706 160.399 20.9215 160.149C13.2005 136.488 52.3038 79.4521 72.4782 55.5417L72.7273 55.2927C72.7273 55.0436 72.7273 55.0436 72.4782 55.0436C41.8431 24.6575 31.6314 27.8954 29.8879 28.6426ZM127.273 54.7945L127.024 55.0436C127.024 55.0436 127.024 55.2927 127.273 55.2927C147.447 79.203 186.301 136.239 178.829 159.9V160.399C179.078 160.399 179.328 160.399 179.328 160.149C192.03 143.462 199.751 122.291 199.751 99.6264C199.751 71.9801 188.543 46.8244 170.112 28.6426C169.863 28.3935 169.863 28.3935 169.614 28.3935C168.12 27.8954 157.908 24.6575 127.273 54.7945Z" fill="#107B10"/>
</g>
<defs>
<clipPath id="clip0_1255_3852">
<rect width="679" height="200" fill="white"/>
</clipPath>
</defs>
</svg>
