<svg width="896" height="200" viewBox="0 0 896 200" fill="none" xmlns="http://www.w3.org/2000/svg">
<g clip-path="url(#clip0_1255_4043)">
<path d="M279.726 31.2323C276.434 18.9323 266.767 9.26621 254.467 5.97365C232.196 1.78814e-06 142.85 0 142.85 0C142.85 0 53.5041 1.78814e-06 31.2322 5.97365C18.9323 9.26621 9.26621 18.9323 5.97365 31.2323C1.78814e-06 53.5041 0 99.9998 0 99.9998C0 99.9998 1.78814e-06 146.496 5.97365 168.768C9.26621 181.068 18.9323 190.734 31.2322 194.026C53.5041 200 142.85 200 142.85 200C142.85 200 232.196 200 254.467 194.026C266.767 190.734 276.434 181.068 279.726 168.768C285.7 146.496 285.7 99.9998 285.7 99.9998C285.7 99.9998 285.676 53.5041 279.726 31.2323Z" fill="#FF0000"/>
<path d="M114.252 142.854L188.476 100.004L114.252 57.1533V142.854Z" fill="white"/>
<path d="M346.022 130.036L313.943 14.1846H341.93L353.172 66.7009C356.041 79.6359 358.134 90.666 359.498 99.7911H360.321C361.262 93.253 363.379 82.2935 366.648 66.8891L378.289 14.1846H406.276L373.797 130.036V185.61H345.999V130.036H346.022Z" fill="#282828"/>
<path d="M414.696 181.937C409.052 178.127 405.03 172.2 402.631 164.157C400.256 156.114 399.057 145.437 399.057 132.078V113.898C399.057 100.422 400.421 89.5804 403.149 81.4196C405.877 73.2588 410.134 67.2851 415.919 63.5457C421.705 59.8063 429.301 57.9248 438.709 57.9248C447.975 57.9248 455.383 59.8298 460.979 63.6398C466.553 67.4497 470.645 73.4234 473.232 81.5137C475.819 89.6274 477.113 100.422 477.113 113.898V132.078C477.113 145.437 475.843 156.161 473.327 164.251C470.81 172.365 466.718 178.292 461.073 182.031C455.429 185.771 447.763 187.652 438.097 187.652C428.125 187.675 420.341 185.747 414.696 181.937ZM446.352 162.323C447.904 158.231 448.704 151.575 448.704 142.309V103.292C448.704 94.3076 447.928 87.7224 446.352 83.5832C444.776 79.4206 442.025 77.351 438.073 77.351C434.264 77.351 431.559 79.4206 430.007 83.5832C428.431 87.746 427.655 94.3076 427.655 103.292V142.309C427.655 151.575 428.407 158.254 429.913 162.323C431.418 166.415 434.122 168.461 438.073 168.461C442.025 168.461 444.776 166.415 446.352 162.323Z" fill="#282828"/>
<path d="M568.151 185.634H546.091L543.645 170.3H543.034C537.036 181.871 528.052 187.656 516.058 187.656C507.756 187.656 501.618 184.928 497.667 179.496C493.716 174.039 491.74 165.526 491.74 153.955V60.3751H519.939V152.308C519.939 157.906 520.55 161.88 521.773 164.256C522.996 166.631 525.042 167.83 527.911 167.83C530.357 167.83 532.709 167.078 534.967 165.573C537.225 164.067 538.871 162.162 539.976 159.858V60.3516H568.151V185.634Z" fill="#282828"/>
<path d="M644.752 36.8758H616.765V185.629H589.178V36.8758H561.191V14.2041H644.752V36.8758Z" fill="#282828"/>
<path d="M712.766 185.634H690.706L688.26 170.3H687.649C681.652 181.871 672.668 187.656 660.673 187.656C652.371 187.656 646.233 184.928 642.282 179.496C638.331 174.039 636.355 165.526 636.355 153.955V60.3751H664.554V152.308C664.554 157.906 665.165 161.88 666.388 164.256C667.611 166.631 669.657 167.83 672.527 167.83C674.972 167.83 677.324 167.078 679.582 165.573C681.84 164.067 683.486 162.162 684.591 159.858V60.3516H712.766V185.634Z" fill="#282828"/>
<path d="M806.086 80.3868C804.369 72.4848 801.617 66.7698 797.808 63.2185C793.998 59.6673 788.753 57.9034 782.074 57.9034C776.9 57.9034 772.055 59.3615 767.563 62.3013C763.071 65.2411 759.59 69.0746 757.144 73.8488H756.933V7.85645H729.77V185.608H753.052L755.921 173.755H756.533C758.72 177.988 761.989 181.304 766.34 183.774C770.691 186.22 775.536 187.443 780.851 187.443C790.376 187.443 797.408 183.045 801.9 174.272C806.392 165.476 808.649 151.765 808.649 133.092V113.266C808.649 99.272 807.779 88.289 806.086 80.3868ZM780.239 131.492C780.239 140.617 779.863 147.767 779.11 152.941C778.358 158.115 777.111 161.808 775.324 163.971C773.56 166.158 771.161 167.24 768.174 167.24C765.846 167.24 763.706 166.699 761.73 165.594C759.755 164.512 758.156 162.866 756.933 160.702V89.606C757.873 86.1958 759.52 83.4207 761.848 81.2335C764.153 79.0463 766.693 77.9644 769.397 77.9644C772.267 77.9644 774.477 79.0933 776.03 81.3276C777.605 83.5853 778.687 87.3483 779.299 92.6634C779.91 97.9785 780.216 105.528 780.216 115.335V131.492H780.239Z" fill="#282828"/>
<path d="M848.655 138.712C848.655 146.755 848.89 152.776 849.361 156.798C849.831 160.819 850.819 163.736 852.324 165.594C853.829 167.428 856.134 168.345 859.262 168.345C863.472 168.345 866.388 166.699 867.94 163.43C869.516 160.161 870.363 154.705 870.504 147.085L894.822 148.519C894.963 149.601 895.033 151.106 895.033 153.011C895.033 164.582 891.858 173.237 885.532 178.952C879.206 184.667 870.245 187.536 858.674 187.536C844.775 187.536 835.038 183.185 829.464 174.46C823.867 165.735 821.092 152.259 821.092 134.008V112.136C821.092 93.3452 823.985 79.6105 829.77 70.9558C835.556 62.301 845.457 57.9736 859.497 57.9736C869.163 57.9736 876.595 59.7375 881.769 63.2888C886.943 66.84 890.588 72.3433 892.705 79.8457C894.822 87.348 895.88 97.696 895.88 110.913V132.362H848.655V138.712ZM852.23 79.6811C850.795 81.4449 849.855 84.3377 849.361 88.3593C848.89 92.381 848.655 98.4721 848.655 106.657V115.641H869.281V106.657C869.281 98.6132 868.999 92.5221 868.458 88.3593C867.917 84.1966 866.929 81.2803 865.494 79.5635C864.06 77.8702 861.849 77 858.862 77C855.852 77.0235 853.641 77.9172 852.23 79.6811Z" fill="#282828"/>
</g>
<defs>
<clipPath id="clip0_1255_4043">
<rect width="895.88" height="200" fill="white"/>
</clipPath>
</defs>
</svg>
