<svg width="890" height="200" viewBox="0 0 890 200" fill="none" xmlns="http://www.w3.org/2000/svg">
<g clip-path="url(#clip0_1255_3915)">
<path fill-rule="evenodd" clip-rule="evenodd" d="M360.75 29.25C341.25 9.74999 315.75 0 290 0C264.5 0 238.75 9.74999 219.25 29.25C180.25 68.25 180.25 131.5 219.25 170.75C258.25 209.75 321.5 209.75 360.75 170.75C399.75 131.75 399.75 68.25 360.75 29.25ZM332.5 142.5C309 166 271 166 247.75 142.5C224.25 119 224.25 81 247.75 57.75C271.25 34.25 309.25 34.25 332.5 57.75C355.75 81 355.75 119 332.5 142.5Z" fill="#2D8CFF"/>
<path fill-rule="evenodd" clip-rule="evenodd" d="M570.75 29.25C551.25 9.74999 525.75 0 500 0C474.5 0 448.75 9.74999 429.25 29.25C390.25 68.25 390.25 131.5 429.25 170.75C468.25 209.75 531.5 209.75 570.75 170.75C609.75 131.75 609.75 68.25 570.75 29.25ZM542.5 142.5C519 166 481 166 457.75 142.5C434.25 119 434.25 81 457.75 57.75C481.25 34.25 519.25 34.25 542.5 57.75C565.75 81 565.75 119 542.5 142.5Z" fill="#2D8CFF"/>
<path fill-rule="evenodd" clip-rule="evenodd" d="M40 199.5L50 200H200L199.5 190C198.25 173.5 186.5 161.5 170 160.5L160 160H70L190 40L189.5 30C188.75 13.5 176.5 1.24999 160 0.499992L150 0H0L0.499992 10C1.74999 26.25 13.75 38.5 30 39.5L40 40H130L10 160L10.5 170C11.5 186.5 23.5 198.5 40 199.5Z" fill="#2D8CFF"/>
<path fill-rule="evenodd" clip-rule="evenodd" d="M724.5 60C728 66 729 72.5 729.5 80L730 90V160L730.5 170C731.5 186.25 743.5 198.5 760 199.5L770 200V90L770.5 80C771 72.5 772 65.75 775.5 59.75C782.5 47.75 795.25 40 810 40C824.75 40 837.75 48 844.75 60C848.25 66 849.25 72.75 849.5 80L850 90V160L850.5 170C851.5 186.5 863.5 198.5 880 199.5L890 200V90V80C890 35.75 854.25 0 810 0C786 0 764.75 10.5 750 27C735.25 10.5 714 0 690 0C673.5 0 658 5 645.25 13.75C637.5 5 620 0 610 0V200L620 199.5C636.75 198.5 648.75 186.5 649.5 170L650 160V90L650.5 80C651 72.5 652 65.75 655.5 60C662.5 48 675.25 40 690 40C704.75 40 717.75 48 724.5 60Z" fill="#2D8CFF"/>
</g>
<defs>
<clipPath id="clip0_1255_3915">
<rect width="890" height="200" fill="white"/>
</clipPath>
</defs>
</svg>
