<svg width="200" height="200" viewBox="0 0 200 200" fill="none" xmlns="http://www.w3.org/2000/svg">
<path d="M97.34 79.23C94.6384 79.1434 91.9481 79.6156 89.4375 80.6171C86.9269 81.6185 84.6502 83.1277 82.75 85.05C78.9167 88.93 77 93.9134 77 100C77 106.087 78.9133 111.087 82.74 115C84.6387 116.924 86.9152 118.435 89.4261 119.436C91.9371 120.438 94.6281 120.909 97.33 120.82C100.043 120.904 102.745 120.431 105.268 119.43C107.791 118.429 110.082 116.921 112 115C115.873 111.127 117.81 106.127 117.81 100C117.81 93.8734 115.873 88.8734 112 85C110.078 83.091 107.786 81.5946 105.265 80.6025C102.745 79.6103 100.048 79.1433 97.34 79.23Z" fill="black"/>
<path d="M100 35C87.1442 35 74.5771 38.8122 63.8879 45.9545C53.1987 53.0968 44.8675 63.2484 39.9478 75.1256C35.0281 87.0028 33.7409 100.072 36.249 112.681C38.757 125.29 44.9477 136.872 54.0381 145.962C63.1285 155.052 74.7104 161.243 87.3191 163.751C99.9279 166.259 112.997 164.972 124.874 160.052C136.752 155.132 146.903 146.801 154.046 136.112C161.188 125.423 165 112.856 165 100C164.979 82.7674 158.124 66.2467 145.939 54.0615C133.753 41.8762 117.233 35.0212 100 35ZM136.82 136.83H117.82V128.14C112.133 135.313 104.133 138.897 93.82 138.89C84 138.89 75.5767 135.133 68.55 127.62C61.5233 120.107 58.0067 110.9 58 100C58 89.1 61.51 79.8934 68.53 72.38C75.55 64.8667 83.9733 61.11 93.8 61.11C104.113 61.11 112.113 64.6934 117.8 71.86V63.17H136.8L136.82 136.83Z" fill="black"/>
<path d="M200 100C200 92.57 193.41 86 191.83 79C190.2 71.82 193.24 63 190.12 56.56C187 50.12 178.12 46.9 173.63 41.24C169.14 35.58 168 26.35 162.35 21.81C156.7 17.27 147.45 18.3 140.87 15.13C134.29 11.96 129.43 4.13002 122.26 2.49002C115.26 0.910022 107.43 5.83002 100 5.83002C92.57 5.83002 84.69 0.910022 77.74 2.49002C70.57 4.12002 65.61 12 59.13 15.13C52.65 18.26 43.3 17.3 37.65 21.81C32 26.32 30.9 35.6 26.37 41.28C21.84 46.96 13.06 50 9.88 56.6C6.7 63.2 9.8 71.86 8.17 79C6.59 86 0 92.57 0 100C0 107.43 6.59 114 8.17 121C9.8 128.18 6.76 137 9.88 143.44C13 149.88 21.88 153.1 26.37 158.76C30.86 164.42 31.97 173.69 37.65 178.23C43.33 182.77 52.55 181.74 59.13 184.91C65.71 188.08 70.57 195.91 77.74 197.55C84.74 199.13 92.57 194.21 100 194.21C107.43 194.21 115.31 199.13 122.26 197.55C129.43 195.92 134.39 188.03 140.87 184.91C147.35 181.79 156.7 182.74 162.35 178.23C168 173.72 169.1 164.44 173.63 158.76C178.16 153.08 186.94 150.02 190.12 143.44C193.3 136.86 190.2 128.18 191.83 121C193.41 114 200 107.43 200 100ZM100 169C86.3531 169 73.0126 164.953 61.6657 157.371C50.3187 149.79 41.4748 139.013 36.2523 126.405C31.0299 113.797 29.6634 99.9235 32.3258 86.5388C34.9882 73.1541 41.5598 60.8595 51.2096 51.2097C60.8595 41.5598 73.1541 34.9882 86.5388 32.3258C99.9235 29.6635 113.797 31.0299 126.405 36.2523C139.013 41.4748 149.79 50.3187 157.371 61.6657C164.953 73.0127 169 86.3531 169 100C168.981 118.294 161.706 135.834 148.77 148.77C135.834 161.706 118.294 168.981 100 169Z" fill="black"/>
</svg>
