<svg width="200" height="200" viewBox="0 0 200 200" fill="none" xmlns="http://www.w3.org/2000/svg">
<path d="M97.34 79.23C94.6384 79.1434 91.9481 79.6156 89.4375 80.6171C86.9269 81.6186 84.6502 83.1277 82.75 85.05C78.9167 88.9301 77 93.9134 77 100C77 106.087 78.9133 111.087 82.74 115C84.6387 116.924 86.9152 118.435 89.4261 119.436C91.9371 120.438 94.6281 120.909 97.33 120.82C100.043 120.904 102.745 120.431 105.268 119.43C107.791 118.429 110.082 116.921 112 115C115.873 111.127 117.81 106.127 117.81 100C117.81 93.8734 115.873 88.8734 112 85C110.078 83.0911 107.786 81.5947 105.265 80.6025C102.745 79.6103 100.048 79.1433 97.34 79.23Z" fill="#0084FF"/>
<path fill-rule="evenodd" clip-rule="evenodd" d="M100 35C87.1442 35 74.5772 38.8122 63.888 45.9545C53.1988 53.0968 44.8676 63.2484 39.9479 75.1256C35.0282 87.0028 33.7409 100.072 36.249 112.681C38.757 125.29 44.9477 136.872 54.0381 145.962C63.1285 155.052 74.7104 161.243 87.3192 163.751C99.9279 166.259 112.997 164.972 124.874 160.052C136.752 155.132 146.903 146.801 154.046 136.112C161.188 125.423 165 112.856 165 100C164.979 82.7674 158.124 66.2467 145.939 54.0614C133.753 41.8762 117.233 35.0212 100 35ZM136.82 136.83H117.82V128.14C112.133 135.313 104.133 138.897 93.82 138.89C84 138.89 75.5767 135.133 68.55 127.62C61.5234 120.107 58.0067 110.9 58 100C58 89.1 61.51 79.8933 68.53 72.38C75.55 64.8667 83.9734 61.11 93.8 61.11C104.113 61.11 112.113 64.6933 117.8 71.86V63.17H136.8L136.82 136.83Z" fill="#0084FF"/>
<path fill-rule="evenodd" clip-rule="evenodd" d="M195.683 87.8171C197.831 91.7574 200 95.7372 200 100C200 104.263 197.831 108.243 195.683 112.183C194.087 115.11 192.503 118.016 191.83 121C191.129 124.086 191.303 127.45 191.475 130.804C191.705 135.254 191.933 139.688 190.12 143.44C188.305 147.196 184.666 149.804 181.034 152.408C178.302 154.366 175.575 156.322 173.63 158.76C171.683 161.202 170.369 164.309 169.055 167.417C167.313 171.538 165.571 175.659 162.35 178.23C159.119 180.809 154.678 181.603 150.256 182.393C146.945 182.984 143.644 183.574 140.87 184.91C138.105 186.241 135.617 188.441 133.115 190.653C129.755 193.624 126.37 196.616 122.26 197.55C118.33 198.444 114.102 197.258 109.827 196.06C106.542 195.139 103.228 194.21 100 194.21C96.7745 194.21 93.4736 195.137 90.198 196.057C85.9281 197.257 81.7012 198.444 77.74 197.55C73.6447 196.613 70.303 193.657 66.964 190.703C64.4571 188.486 61.9517 186.269 59.13 184.91C56.3031 183.548 52.989 182.961 49.6776 182.375C45.2813 181.597 40.8898 180.82 37.65 178.23C34.3983 175.631 32.6444 171.482 30.8966 167.347C29.5914 164.259 28.2896 161.18 26.37 158.76C24.4308 156.315 21.6727 154.326 18.9134 152.336C15.284 149.718 11.6525 147.099 9.88 143.44C8.10672 139.78 8.32332 135.351 8.54142 130.891C8.70706 127.504 8.87357 124.099 8.17 121C7.4965 118.016 5.91269 115.11 4.317 112.183C2.16925 108.243 0 104.263 0 100C0 95.7372 2.16925 91.7574 4.317 87.8171C5.91269 84.8896 7.4965 81.9839 8.17 79C8.8704 75.932 8.69747 72.5833 8.52471 69.238C8.29542 64.7981 8.06643 60.364 9.88 56.6C11.6963 52.8302 15.3397 50.2219 18.9745 47.6196C21.7034 45.666 24.4274 43.7157 26.37 41.28C28.3175 38.8381 29.6311 35.7309 30.9447 32.6233C32.6868 28.5025 34.429 24.3811 37.65 21.81C40.8772 19.2339 45.3116 18.4425 49.7288 17.6542C53.0449 17.0623 56.3513 16.4722 59.13 15.13C61.8919 13.796 64.3776 11.5991 66.876 9.39095C70.2395 6.41827 73.6259 3.4253 77.74 2.49002C81.6702 1.59653 85.8979 2.7817 90.1734 3.98028C93.4584 4.90119 96.7717 5.83002 100 5.83002C103.226 5.83002 106.526 4.90281 109.802 3.98268C114.072 2.78328 118.299 1.59593 122.26 2.49002C126.355 3.42675 129.697 6.38289 133.036 9.33667C135.543 11.5543 138.048 13.7706 140.87 15.13C143.696 16.4915 147.014 17.0782 150.329 17.6642C154.731 18.4427 159.127 19.2198 162.35 21.81C165.581 24.4066 167.338 28.5374 169.089 32.657C170.4 35.7402 171.708 38.8172 173.63 41.24C175.569 43.6845 178.327 45.6739 181.087 47.6642C184.716 50.2821 188.348 52.9014 190.12 56.56C191.893 60.2203 191.677 64.6493 191.459 69.1091C191.293 72.4961 191.126 75.9008 191.83 79C192.503 81.9839 194.087 84.8896 195.683 87.8171ZM61.6657 157.371C73.0126 164.953 86.3531 169 100 169C118.294 168.981 135.834 161.706 148.77 148.77C161.706 135.834 168.981 118.294 169 100C169 86.3531 164.953 73.0127 157.371 61.6657C149.79 50.3187 139.013 41.4748 126.405 36.2523C113.797 31.0299 99.9235 29.6635 86.5388 32.3258C73.1541 34.9882 60.8595 41.5598 51.2096 51.2097C41.5598 60.8595 34.9882 73.1541 32.3258 86.5388C29.6634 99.9235 31.0299 113.797 36.2523 126.405C41.4748 139.013 50.3187 149.79 61.6657 157.371Z" fill="#0084FF"/>
</svg>
