<svg width="200" height="200" viewBox="0 0 200 200" fill="none" xmlns="http://www.w3.org/2000/svg">
<g clip-path="url(#clip0_1113_4945)">
<path d="M106 157H94V0L106 10V157Z" fill="url(#paint0_linear_1113_4945)"/>
<path d="M68 157H80V30.4302L68 40.4302V157Z" fill="url(#paint1_linear_1113_4945)"/>
<path d="M55 157H43V70.4302L55 60.4302V157Z" fill="url(#paint2_linear_1113_4945)"/>
<path d="M157 157H145V60.4302L157 70.4302V157Z" fill="url(#paint3_linear_1113_4945)"/>
<path d="M120 157H132V40.4302L120 30.4302V157Z" fill="url(#paint4_linear_1113_4945)"/>
<path d="M6 191.79L4.91 199.57H0L5.06 170.46H11.9L17.15 199.57H12.09L10.85 191.79H6ZM10.26 187.66C9.54 182.71 8.86 178.02 8.5 174.73H8.34C8.21 177.13 7.26 183.36 6.64 187.66H10.26Z" fill="#262933"/>
<path d="M33.22 191V192.8C33.22 194.96 33.92 196.17 35.76 196.17C37.6 196.17 38.14 194.51 38.14 192.62C38.14 189.49 37.41 188.52 34.04 186.06C30.67 183.6 28.86 182 28.86 177.69C28.86 173.86 30.11 169.99 35.78 169.99C41.45 169.99 42.47 173.83 42.47 176.99V178.55H37.67V177.12C37.67 175.12 37.3 173.86 35.67 173.86C34.04 173.86 33.67 175.13 33.67 177.06C33.67 178.99 34.09 180.12 36.85 181.99C41.55 185.22 42.99 187.09 42.99 191.99C42.99 196.12 41.43 199.99 35.57 199.99C29.71 199.99 28.35 196.56 28.35 192.72V191H33.22Z" fill="#262933"/>
<path d="M70 199.57H66.22C66.0825 198.851 65.9957 198.122 65.96 197.39C65.09 199.33 63.26 200 61.24 200C56.62 200 55.13 196.9 55.13 192V178.29C55.13 173.54 57.13 170.04 62.58 170.04C69.17 170.04 69.87 174.53 69.87 177.66V178.6H65V177.44C65 175.9 64.76 174.13 62.55 174.13C60.78 174.13 60.03 175.26 60.03 177.59V192.48C60.03 194.81 60.76 196.02 62.51 196.02C64.61 196.02 65.12 194.4 65.12 191.4V187.15H62.4V183.29H70V199.57Z" fill="#262933"/>
<path d="M88 191.79L86.9 199.57H82L87 170.46H93.84L99.09 199.57H94.05L92.81 191.79H88ZM92.26 187.66C91.54 182.71 90.86 178.02 90.5 174.73H90.3C90.17 177.13 89.22 183.36 88.6 187.66H92.26Z" fill="#262933"/>
<path d="M115.65 186.56V199.56H110.81V170.46H117.51C122.29 170.46 125.11 172.24 125.11 177.46V178.57C125.11 183.04 123.11 184.18 121.92 184.64C123.75 185.44 124.79 186.64 124.79 190.64C124.71 193.623 124.807 196.609 125.08 199.58H120.4C119.99 197.83 120.08 193.04 120.08 190.93C120.08 187.38 119.58 186.57 116.77 186.57L115.65 186.56ZM115.65 182.85H116.76C119.32 182.85 120.26 181.95 120.26 178.79V177.79C120.26 175.54 119.76 174.17 117.02 174.17H115.65V182.85Z" fill="#262933"/>
<path d="M138.11 170.46H144.82C151.48 170.46 153.1 173.66 153.1 179.07V190.23C153.1 194.68 152.28 199.57 144.82 199.57H138.11V170.46ZM143 195.75H144.55C147.74 195.75 148.22 193.85 148.22 190.84V178.71C148.22 176.04 147.72 174.32 144.52 174.32H143V195.75Z" fill="#262933"/>
<path d="M171 170.46V199.57H166.16V170.46H171Z" fill="#262933"/>
<path d="M188.88 191.79L187.78 199.57H182.85L187.91 170.46H194.75L200 199.57H194.94L193.71 191.79H188.88ZM193.13 187.66C192.42 182.71 191.73 178.02 191.37 174.73H191.19C191.06 177.13 190.12 183.36 189.49 187.66H193.13Z" fill="#262933"/>
</g>
<defs>
<linearGradient id="paint0_linear_1113_4945" x1="126" y1="142.97" x2="126" y2="36.2702" gradientUnits="userSpaceOnUse">
<stop stop-color="#FF8A11"/>
<stop offset="1" stop-color="#FFDA6A"/>
</linearGradient>
<linearGradient id="paint1_linear_1113_4945" x1="126" y1="142.97" x2="126" y2="36.2702" gradientUnits="userSpaceOnUse">
<stop stop-color="#FF8A11"/>
<stop offset="1" stop-color="#FFDA6A"/>
</linearGradient>
<linearGradient id="paint2_linear_1113_4945" x1="126" y1="142.97" x2="126" y2="36.2702" gradientUnits="userSpaceOnUse">
<stop stop-color="#FF8A11"/>
<stop offset="1" stop-color="#FFDA6A"/>
</linearGradient>
<linearGradient id="paint3_linear_1113_4945" x1="126" y1="142.97" x2="126" y2="36.2702" gradientUnits="userSpaceOnUse">
<stop stop-color="#FF8A11"/>
<stop offset="1" stop-color="#FFDA6A"/>
</linearGradient>
<linearGradient id="paint4_linear_1113_4945" x1="126" y1="142.97" x2="126" y2="36.2702" gradientUnits="userSpaceOnUse">
<stop stop-color="#FF8A11"/>
<stop offset="1" stop-color="#FFDA6A"/>
</linearGradient>
<clipPath id="clip0_1113_4945">
<rect width="200" height="200" fill="white"/>
</clipPath>
</defs>
</svg>
