<svg width="200" height="200" viewBox="0 0 200 200" fill="none" xmlns="http://www.w3.org/2000/svg">
<g clip-path="url(#clip0_1113_4960)">
<path d="M94 157H106V10L94 0V157Z" fill="black"/>
<path d="M68 157H80V30.43L68 40.43V157Z" fill="black"/>
<path d="M43 157H55V60.43L43 70.43V157Z" fill="black"/>
<path d="M145 157H157V70.43L145 60.43V157Z" fill="black"/>
<path d="M120 157H132V40.43L120 30.43V157Z" fill="black"/>
<path d="M5.06 170.46L0 199.57H4.93L6 191.79H10.83L12.07 199.57H17.13L11.9 170.46H5.06ZM6.64 187.66C7.26 183.36 8.21 177.13 8.34 174.73H8.52C8.88 178.02 9.52 182.73 10.28 187.66H6.64Z" fill="black"/>
<path d="M36.88 182C34.12 180.13 33.7 179.13 33.7 177.07C33.7 175.01 34.12 173.87 35.7 173.87C37.28 173.87 37.7 175.1 37.7 177.12V178.56H42.5V177C42.5 173.85 41.6 170 35.81 170C30.02 170 28.89 173.87 28.89 177.7C28.89 182.01 30.7 183.59 34.07 186.07C37.44 188.55 38.17 189.5 38.17 192.63C38.17 194.52 37.68 196.18 35.79 196.18C33.9 196.18 33.25 194.97 33.25 192.81V191H28.38V192.72C28.38 196.56 29.8 199.99 35.6 199.99C41.4 199.99 43 196.09 43 192C43 187.09 41.58 185.22 36.88 182Z" fill="black"/>
<path d="M62.4 187.15H65.15V191.4C65.15 194.4 64.64 196.02 62.54 196.02C60.79 196.02 60.06 194.81 60.06 192.48V177.59C60.06 175.26 60.81 174.13 62.58 174.13C64.79 174.13 65.03 175.9 65.03 177.44V178.6H69.87V177.66C69.87 174.53 69.17 170.04 62.58 170.04C57.13 170.04 55.13 173.54 55.13 178.29V192C55.13 196.93 56.62 200 61.24 200C63.24 200 65.09 199.33 65.96 197.39C65.9957 198.122 66.0825 198.85 66.22 199.57H70V183.29H62.4V187.15Z" fill="black"/>
<path d="M87 170.46L82 199.57H86.92L88.02 191.79H92.85L94.09 199.57H99.15L93.9 170.46H87ZM88.58 187.66C89.2 183.36 90.15 177.13 90.28 174.73H90.46C90.82 178.02 91.46 182.73 92.22 187.66H88.58Z" fill="black"/>
<path d="M117.51 170.46H110.81V199.57H115.65V186.57H116.77C119.58 186.57 120.08 187.38 120.08 190.93C120.08 193.04 119.99 197.83 120.4 199.58H125.08C124.807 196.608 124.71 193.623 124.79 190.64C124.79 186.69 123.79 185.47 121.92 184.64C123.13 184.18 125.11 183.04 125.11 178.57V177.46C125.11 172.24 122.29 170.46 117.51 170.46ZM120.26 178.79C120.26 181.95 119.32 182.85 116.76 182.85H115.65V174.17H117C119.74 174.17 120.24 175.54 120.24 177.79L120.26 178.79Z" fill="black"/>
<path d="M144.82 170.46H138.11V199.57H144.82C152.28 199.57 153.1 194.68 153.1 190.23V179.07C153.1 173.66 151.48 170.46 144.82 170.46ZM148.17 190.84C148.17 193.84 147.69 195.75 144.5 195.75H143V174.32H144.52C147.71 174.32 148.22 176.04 148.22 178.71L148.17 190.84Z" fill="black"/>
<path d="M170.96 170.46H166.12V199.57H170.96V170.46Z" fill="black"/>
<path d="M194.75 170.46H187.91L182.85 199.57H187.78L188.88 191.79H193.71L194.94 199.57H200L194.75 170.46ZM189.49 187.66C190.12 183.36 191.06 177.13 191.19 174.73H191.37C191.73 178.02 192.37 182.73 193.13 187.66H189.49Z" fill="black"/>
</g>
<defs>
<clipPath id="clip0_1113_4960">
<rect width="200" height="200" fill="white"/>
</clipPath>
</defs>
</svg>
