<svg width="200" height="200" viewBox="0 0 200 200" fill="none" xmlns="http://www.w3.org/2000/svg">
<g clip-path="url(#clip0_1113_4409)">
<path d="M166.79 39.1099L56.4404 62.0999C50.2283 63.3852 44.6488 66.772 40.6417 71.6899C36.6345 76.6077 34.4445 82.7562 34.4404 89.0999V169.52C34.4418 173.62 35.357 177.668 37.1195 181.37C38.8819 185.072 41.4473 188.335 44.629 190.921C47.8107 193.507 51.5288 195.351 55.5128 196.32C59.4968 197.288 63.6466 197.357 67.6604 196.52L178 173.52C184.213 172.235 189.792 168.848 193.799 163.93C197.806 159.012 199.996 152.864 200 146.52V66.1199C200 62.0201 199.086 57.9718 197.325 54.2695C195.564 50.5672 193 47.3039 189.819 44.717C186.638 42.1301 182.921 40.2846 178.937 39.3147C174.954 38.3447 170.804 38.2748 166.79 39.1099Z" fill="#FBB03B"/>
<path d="M132.3 3.46L22 26.45C15.7879 27.7353 10.2084 31.1221 6.20126 36.0399C2.19411 40.9578 0.00408653 47.1063 0 53.45L0 133.87C0.00171554 137.969 0.916759 142.016 2.67862 145.717C4.44047 149.418 7.00487 152.68 10.1854 155.266C13.3659 157.852 17.0827 159.697 21.0654 160.666C25.0482 161.635 29.1969 161.705 33.21 160.87L143.56 137.87C149.772 136.585 155.352 133.198 159.359 128.28C163.366 123.362 165.556 117.214 165.56 110.87V30.47C165.561 26.3649 164.647 22.3113 162.882 18.6046C161.118 14.8979 158.549 11.6316 155.363 9.04378C152.176 6.45594 148.452 4.61182 144.462 3.64584C140.473 2.67986 136.317 2.61637 132.3 3.46Z" fill="#5C47C4"/>
<path d="M59.6696 115.74L65.2896 114.52V136.29L59.6696 137.51V134.94C58.8568 136.155 57.812 137.197 56.5953 138.007C55.3786 138.817 54.0139 139.379 52.5796 139.66C51.2931 140.009 49.9411 140.04 48.6399 139.751C47.3387 139.462 46.1272 138.861 45.1096 138C44.0547 137.06 43.2268 135.893 42.6881 134.587C42.1494 133.281 41.914 131.87 41.9996 130.46C41.9989 127.245 43.0961 124.126 45.1096 121.62C46.9145 119.106 49.5677 117.331 52.5796 116.62C55.6296 115.96 57.9896 116.5 59.6696 118.26V115.74ZM49.3096 133.29C49.9209 133.74 50.6267 134.045 51.3734 134.182C52.1202 134.319 52.8883 134.284 53.6196 134.08C55.3477 133.732 56.8982 132.787 57.9996 131.41C59.129 130.071 59.7394 128.371 59.7196 126.62C59.7693 125.865 59.6393 125.109 59.3404 124.413C59.0414 123.718 58.5819 123.103 57.9996 122.62C57.3851 122.168 56.6755 121.863 55.925 121.728C55.1745 121.593 54.403 121.631 53.6696 121.84C51.9691 122.206 50.4456 123.145 49.3536 124.499C48.2617 125.853 47.6672 127.541 47.6696 129.28C47.6142 130.03 47.7335 130.782 48.018 131.478C48.3026 132.174 48.7447 132.794 49.3096 133.29Z" fill="white"/>
<path d="M83.6999 115.92L78.7899 117V126C78.7522 126.283 78.7834 126.571 78.8809 126.839C78.9784 127.107 79.1393 127.347 79.3499 127.54C79.8543 127.824 80.4489 127.903 81.0099 127.76C81.9178 127.61 82.8161 127.406 83.6999 127.15V132.25C79.8499 133.52 77.1199 133.75 75.5399 132.93C73.9599 132.11 73.1699 130.21 73.1699 127.22V118.17L69.3799 118.99V113.59L73.1699 112.77V108.37L78.7899 105.46V111.55L83.6999 110.48V115.92Z" fill="white"/>
<path d="M91.3201 106.26C90.907 106.367 90.4747 106.378 90.0568 106.291C89.6388 106.205 89.2465 106.023 88.9101 105.76C88.581 105.499 88.3186 105.163 88.1448 104.781C87.9709 104.398 87.8905 103.98 87.9101 103.56C87.9703 102.585 88.3345 101.654 88.9515 100.897C89.5686 100.14 90.4075 99.5954 91.3501 99.34C91.7713 99.2252 92.2138 99.2115 92.6413 99.3001C93.0688 99.3887 93.4693 99.5772 93.8101 99.85C94.1388 100.114 94.4007 100.451 94.5745 100.835C94.7482 101.219 94.829 101.639 94.8101 102.06C94.7981 103.03 94.444 103.965 93.8101 104.7C93.1879 105.495 92.3069 106.047 91.3201 106.26ZM88.5401 131.26V109.47L94.1501 108.25V130L88.5401 131.26Z" fill="white"/>
<path d="M110.52 127.08C107.24 127.793 104.504 127.283 102.31 125.55C101.209 124.654 100.334 123.511 99.7589 122.212C99.1836 120.914 98.9237 119.498 99.0004 118.08C99.0035 114.818 100.166 111.664 102.28 109.18C104.341 106.579 107.245 104.779 110.49 104.09C112.406 103.619 114.417 103.713 116.28 104.36C117.955 104.928 119.373 106.073 120.28 107.59L115.45 111.47C115.018 110.675 114.305 110.069 113.45 109.77C112.486 109.431 111.443 109.382 110.45 109.63C108.797 109.977 107.317 110.894 106.27 112.22C105.181 113.519 104.592 115.165 104.61 116.86C104.562 117.593 104.686 118.328 104.975 119.004C105.263 119.68 105.707 120.278 106.27 120.75C106.86 121.193 107.545 121.493 108.271 121.625C108.996 121.757 109.743 121.717 110.45 121.51C111.547 121.281 112.574 120.798 113.45 120.1C114.323 119.434 115.012 118.556 115.45 117.55L120.33 119.28C119.371 121.214 118.007 122.919 116.33 124.28C114.642 125.659 112.651 126.618 110.52 127.08Z" fill="white"/>
<path d="M140.38 98.22L146 97V118.77L140.38 120V117.43C139.567 118.645 138.522 119.687 137.305 120.497C136.089 121.307 134.724 121.869 133.29 122.15C131.999 122.492 130.645 122.515 129.344 122.217C128.042 121.92 126.833 121.31 125.82 120.44C124.772 119.506 123.948 118.347 123.409 117.05C122.871 115.753 122.632 114.352 122.71 112.95C122.709 109.735 123.806 106.616 125.82 104.11C127.633 101.615 130.285 99.8577 133.29 99.16C136.34 98.5 138.7 99.04 140.38 100.8V98.22ZM130 115.77C130.611 116.22 131.317 116.525 132.064 116.662C132.81 116.799 133.578 116.764 134.31 116.56C136.021 116.203 137.553 115.259 138.64 113.89C139.769 112.551 140.38 110.851 140.36 109.1C140.409 108.345 140.279 107.589 139.98 106.893C139.682 106.198 139.222 105.583 138.64 105.1C138.025 104.648 137.316 104.343 136.565 104.208C135.815 104.073 135.043 104.111 134.31 104.32C132.609 104.686 131.086 105.625 129.994 106.979C128.902 108.333 128.307 110.02 128.31 111.76C128.26 112.514 128.387 113.269 128.681 113.965C128.974 114.661 129.426 115.279 130 115.77Z" fill="white"/>
</g>
<defs>
<clipPath id="clip0_1113_4409">
<rect width="200" height="200" fill="white"/>
</clipPath>
</defs>
</svg>
