<svg width="200" height="200" viewBox="0 0 200 200" fill="none" xmlns="http://www.w3.org/2000/svg">
<g clip-path="url(#clip0_1113_4793)">
<path d="M171.52 38.54V110.89C171.495 118.602 168.827 126.073 163.961 132.056C159.096 138.039 152.326 142.174 144.78 143.77L34.4805 166.77V169.55C34.4819 173.65 35.3971 177.698 37.1595 181.4C38.9219 185.102 41.4873 188.365 44.669 190.951C47.8507 193.537 51.5688 195.381 55.5528 196.35C59.5369 197.318 63.6867 197.387 67.7005 196.55L178.04 173.55C184.253 172.265 189.832 168.878 193.839 163.96C197.846 159.042 200.036 152.894 200.04 146.55V66.12C200.04 62.4185 199.295 58.7549 197.849 55.3472C196.404 51.9396 194.288 48.8574 191.627 46.2843C188.966 43.7111 185.815 41.6995 182.361 40.3691C178.906 39.0386 175.22 38.4166 171.52 38.54Z" fill="black"/>
<path d="M53.6201 121.8C51.9196 122.166 50.3961 123.105 49.3042 124.459C48.2122 125.813 47.6177 127.5 47.6201 129.24C47.5724 129.992 47.7002 130.745 47.9935 131.439C48.2868 132.133 48.7376 132.75 49.3101 133.24C49.9214 133.69 50.6272 133.995 51.374 134.132C52.1207 134.269 52.8889 134.234 53.6201 134.03C55.3412 133.695 56.8907 132.768 58.0001 131.41C59.1295 130.071 59.7399 128.371 59.7201 126.62C59.7698 125.865 59.6398 125.108 59.3409 124.413C59.0419 123.718 58.5824 123.103 58.0001 122.62C57.3831 122.154 56.6665 121.837 55.9065 121.695C55.1465 121.553 54.3639 121.589 53.6201 121.8Z" fill="black"/>
<path d="M134.33 104.28C132.63 104.646 131.106 105.585 130.014 106.939C128.922 108.293 128.328 109.981 128.33 111.72C128.282 112.472 128.41 113.225 128.703 113.919C128.997 114.614 129.448 115.23 130.02 115.72C130.631 116.17 131.337 116.475 132.084 116.612C132.831 116.749 133.599 116.714 134.33 116.51C136.041 116.153 137.573 115.209 138.66 113.84C139.789 112.501 140.4 110.801 140.38 109.05C140.43 108.295 140.3 107.539 140.001 106.843C139.702 106.148 139.242 105.533 138.66 105.05C138.045 104.6 137.335 104.297 136.584 104.163C135.834 104.03 135.063 104.07 134.33 104.28Z" fill="black"/>
<path d="M132.3 3.46L22 26.45C15.7879 27.7353 10.2084 31.1221 6.20126 36.0399C2.19411 40.9578 0.00408653 47.1063 0 53.45L0 133.87C0.00171554 137.969 0.916759 142.016 2.67862 145.717C4.44047 149.418 7.00487 152.68 10.1854 155.266C13.3659 157.852 17.0827 159.697 21.0654 160.666C25.0482 161.635 29.1969 161.705 33.21 160.87L143.56 137.87C149.772 136.585 155.352 133.198 159.359 128.28C163.366 123.362 165.556 117.214 165.56 110.87V30.47C165.561 26.3649 164.647 22.3113 162.882 18.6046C161.118 14.8979 158.549 11.6316 155.363 9.04378C152.176 6.45594 148.452 4.61182 144.462 3.64584C140.473 2.67986 136.317 2.61637 132.3 3.46ZM65.3 136.29L59.68 137.51V134.94C58.8672 136.155 57.8224 137.197 56.6057 138.007C55.389 138.817 54.0244 139.379 52.59 139.66C51.3021 140.011 49.9482 140.043 48.645 139.754C47.3419 139.464 46.1287 138.863 45.11 138C44.0551 137.06 43.2272 135.893 42.6885 134.587C42.1498 133.281 41.9144 131.87 42 130.46C41.9993 127.245 43.0965 124.126 45.11 121.62C46.9149 119.106 49.5682 117.33 52.58 116.62C55.63 115.96 57.99 116.5 59.67 118.26V115.69L65.29 114.47L65.3 136.29ZM83.7 115.92L78.79 117V126C78.7523 126.283 78.7835 126.571 78.8811 126.839C78.9786 127.107 79.1394 127.347 79.35 127.54C79.8544 127.824 80.449 127.903 81.01 127.76C81.9179 127.61 82.8162 127.406 83.7 127.15V132.25C79.85 133.52 77.12 133.75 75.54 132.93C73.96 132.11 73.17 130.21 73.17 127.22V118.17L69.38 118.99V113.59L73.17 112.77V108.37L78.79 105.46V111.55L83.7 110.48V115.92ZM94.15 130L88.54 131.22V109.47L94.15 108.25V130ZM93.78 104.68C93.1653 105.469 92.2959 106.02 91.32 106.24C90.9069 106.347 90.4746 106.358 90.0566 106.271C89.6387 106.185 89.2464 106.003 88.91 105.74C88.5808 105.479 88.3185 105.143 88.1446 104.761C87.9707 104.378 87.8903 103.96 87.91 103.54C87.9701 102.565 88.3343 101.634 88.9514 100.877C89.5685 100.12 90.4073 99.5754 91.35 99.32C91.7712 99.2051 92.2136 99.1914 92.6411 99.2801C93.0687 99.3687 93.4692 99.5571 93.81 99.83C94.1387 100.094 94.4006 100.431 94.5743 100.815C94.7481 101.199 94.8288 101.619 94.81 102.04C94.7943 103.021 94.4291 103.964 93.78 104.7V104.68ZM116.31 124.26C114.627 125.636 112.643 126.595 110.52 127.06C107.24 127.773 104.503 127.263 102.31 125.53C101.211 124.636 100.338 123.496 99.7631 122.201C99.188 120.907 98.9265 119.495 99 118.08C99.0031 114.818 100.166 111.664 102.28 109.18C104.341 106.579 107.244 104.779 110.49 104.09C112.406 103.619 114.416 103.713 116.28 104.36C117.954 104.928 119.372 106.073 120.28 107.59L115.45 111.47C115.017 110.675 114.304 110.069 113.45 109.77C112.485 109.43 111.442 109.382 110.45 109.63C108.796 109.977 107.317 110.894 106.27 112.22C105.18 113.519 104.592 115.165 104.61 116.86C104.561 117.593 104.686 118.328 104.974 119.004C105.263 119.68 105.707 120.278 106.27 120.75C106.86 121.193 107.544 121.493 108.27 121.625C108.996 121.756 109.742 121.717 110.45 121.51C111.546 121.28 112.574 120.798 113.45 120.1C114.323 119.434 115.011 118.556 115.45 117.55L120.33 119.28C119.365 121.216 117.994 122.921 116.31 124.28V124.26ZM146 118.77L140.38 120V117.43C139.567 118.645 138.522 119.687 137.306 120.497C136.089 121.307 134.724 121.869 133.29 122.15C132 122.492 130.645 122.515 129.344 122.217C128.042 121.92 126.833 121.31 125.82 120.44C124.772 119.506 123.948 118.347 123.41 117.05C122.871 115.753 122.632 114.352 122.71 112.95C122.709 109.735 123.807 106.616 125.82 104.11C127.633 101.615 130.286 99.8577 133.29 99.16C136.34 98.5 138.7 99.04 140.38 100.8V98.22L146 97V118.77Z" fill="black"/>
</g>
<defs>
<clipPath id="clip0_1113_4793">
<rect width="200" height="200" fill="white"/>
</clipPath>
</defs>
</svg>
