<svg width="200" height="200" viewBox="0 0 200 200" fill="none" xmlns="http://www.w3.org/2000/svg">
<g clip-path="url(#clip0_1108_265)">
<path d="M200 62.8V91.93C200 151.61 155.23 200 100 200C44.77 200 0 151.61 0 91.93V62.8L104.38 170.74L200 62.8Z" fill="url(#paint0_linear_1108_265)"/>
<path d="M4.38 62.6699C3.12 62.6699 1.87 62.6699 0.63 62.7699C0.212689 66.4419 0.00235673 70.1344 0 73.8299C0 128.83 44.77 173.45 100 173.45C101.26 173.45 102.5 173.45 103.75 173.36C104.162 169.688 104.373 165.995 104.38 162.3C104.38 107.28 59.61 62.6699 4.38 62.6699Z" fill="url(#paint1_linear_1108_265)"/>
<path d="M199.38 62.7999C146.47 65.3999 104.38 108.95 104.38 162.3C104.38 107.3 59.61 62.6699 4.38 62.6699C3.12 62.6699 1.87 62.6699 0.63 62.7699C0.212689 66.4419 0.00235673 70.1344 0 73.8299C0 128.83 44.77 173.45 100 173.45C101.26 173.45 102.5 173.45 103.75 173.36C104.17 173.36 104.59 173.36 105 173.36C157.91 170.76 200 127.21 200 73.8599C199.997 70.1647 199.79 66.4724 199.38 62.7999Z" fill="url(#paint2_linear_1108_265)"/>
<path d="M100 72C119.882 72 136 55.8823 136 36C136 16.1177 119.882 0 100 0C80.1177 0 64 16.1177 64 36C64 55.8823 80.1177 72 100 72Z" fill="#6F4A9E"/>
</g>
<defs>
<linearGradient id="paint0_linear_1108_265" x1="100" y1="209.42" x2="100" y2="143.67" gradientUnits="userSpaceOnUse">
<stop stop-color="#FF8A11"/>
<stop offset="1" stop-color="#E81894"/>
</linearGradient>
<linearGradient id="paint1_linear_1108_265" x1="114.71" y1="191.29" x2="32.85" y2="95.4199" gradientUnits="userSpaceOnUse">
<stop stop-color="#B03B83"/>
<stop offset="1" stop-color="#6F4A9E"/>
</linearGradient>
<linearGradient id="paint2_linear_1108_265" x1="100" y1="153.56" x2="100" y2="81.3499" gradientUnits="userSpaceOnUse">
<stop stop-color="#FF8A11"/>
<stop offset="1" stop-color="#E81894"/>
</linearGradient>
<clipPath id="clip0_1108_265">
<rect width="200" height="200" fill="white"/>
</clipPath>
</defs>
</svg>
