<svg width="200" height="200" viewBox="0 0 200 200" fill="none" xmlns="http://www.w3.org/2000/svg">
<path d="M58 142.35V97.6498L100 74.3198L142 97.6498V142.35L100 165.68L58 142.35Z" fill="#FF480D"/>
<path d="M125 53.89V19H138V0H62V19H75V53.89L28 80V160L100 200L172 160V80L125 53.89ZM68 13V6H132V13H68ZM166 156.47L100 193.14L34 156.47V83.53L77.91 59.13L81 57.42V19H119V57.42L122.09 59.13L166 83.53V156.47Z" fill="#3B3D3C"/>
<path d="M98.5 59C102.642 59 106 55.6421 106 51.5C106 47.3579 102.642 44 98.5 44C94.3579 44 91 47.3579 91 51.5C91 55.6421 94.3579 59 98.5 59Z" fill="#FF480D"/>
<path d="M90.5 33C92.9853 33 95 30.9853 95 28.5C95 26.0147 92.9853 24 90.5 24C88.0147 24 86 26.0147 86 28.5C86 30.9853 88.0147 33 90.5 33Z" fill="#FF480D"/>
<path d="M108.25 33C109.493 33 110.5 31.9926 110.5 30.75C110.5 29.5074 109.493 28.5 108.25 28.5C107.007 28.5 106 29.5074 106 30.75C106 31.9926 107.007 33 108.25 33Z" fill="#FF480D"/>
<path d="M119 76C120.657 76 122 74.6569 122 73C122 71.3431 120.657 70 119 70C117.343 70 116 71.3431 116 73C116 74.6569 117.343 76 119 76Z" fill="#FF480D"/>
<path d="M73 84C74.6569 84 76 82.6569 76 81C76 79.3431 74.6569 78 73 78C71.3431 78 70 79.3431 70 81C70 82.6569 71.3431 84 73 84Z" fill="#FF480D"/>
</svg>
