<svg width="200" height="200" viewBox="0 0 200 200" fill="none" xmlns="http://www.w3.org/2000/svg">
<g clip-path="url(#clip0_1108_156)">
<path d="M27.9997 84.88C27.1092 84.5105 26.1893 84.2161 25.2497 84C23.4197 83.57 21.5897 83.12 19.7397 82.74C17.8897 82.36 16.0597 82 14.1997 81.68C12.3397 81.36 10.4997 81.09 8.62974 80.9C7.76248 80.7806 6.88333 81.0107 6.1857 81.5395C5.48806 82.0684 5.02909 82.8527 4.90974 83.72C4.79039 84.5872 5.02045 85.4664 5.5493 86.164C6.07815 86.8616 6.86248 87.3206 7.72974 87.44C9.56974 87.76 11.4397 88 13.3097 88.2C15.1797 88.4 17.0397 88.56 18.9197 88.67C20.7997 88.78 22.6897 88.87 24.5697 88.96C25.5208 89.0113 26.4746 88.9778 27.4197 88.86C28.425 88.7676 29.4137 88.5423 30.3597 88.19C30.5498 88.1163 30.7158 87.9918 30.8397 87.83C31.008 87.5996 31.0792 87.3124 31.038 87.0301C30.9969 86.7477 30.8467 86.4928 30.6197 86.32C29.812 85.7293 28.9314 85.2453 27.9997 84.88Z" fill="url(#paint0_linear_1108_156)"/>
<path d="M46.0002 51.3501C46.1635 51.2009 46.2614 50.9933 46.2727 50.7724C46.2839 50.5515 46.2075 50.335 46.0602 50.1701C44.4491 48.4199 42.7038 46.7983 40.8402 45.3201C39.0068 43.8534 37.1602 42.4134 35.3002 41.0001C33.4402 39.5601 31.5502 38.1901 29.6602 36.8001C27.7702 35.4101 25.8702 34.0801 23.9402 32.8001L23.6802 32.6401C23.2404 32.3794 22.7531 32.209 22.2468 32.1386C21.7404 32.0683 21.2252 32.0996 20.731 32.2305C20.2369 32.3614 19.7737 32.5895 19.3687 32.9013C18.9636 33.2132 18.6247 33.6025 18.3717 34.0468C18.1187 34.491 17.9567 34.9811 17.8952 35.4886C17.8336 35.9961 17.8738 36.5108 18.0133 37.0026C18.1528 37.4944 18.3888 37.9535 18.7076 38.3531C19.0264 38.7527 19.4216 39.0848 19.8702 39.3301C21.8702 40.4901 23.9302 41.6301 26.0102 42.7001C28.0902 43.7701 30.1502 44.8801 32.2502 45.9201C34.3502 46.9601 36.4402 48.0001 38.5702 49.0001C40.7153 50.0207 42.9351 50.8765 45.2102 51.5601C45.349 51.5916 45.4934 51.5889 45.631 51.5524C45.7686 51.5158 45.8953 51.4464 46.0002 51.3501Z" fill="url(#paint1_linear_1108_156)"/>
<path d="M67.7299 16.42C68.7999 18.19 69.9199 19.93 71.0499 21.67C72.2529 23.4536 73.7042 25.0564 75.3599 26.43C75.5689 26.5907 75.8264 26.6753 76.0899 26.67C76.237 26.6662 76.3819 26.6333 76.5163 26.5734C76.6507 26.5135 76.772 26.4277 76.8732 26.3209C76.9745 26.2141 77.0537 26.0884 77.1063 25.951C77.1589 25.8136 77.1839 25.6671 77.1799 25.52C77.0951 23.3706 76.6976 21.2449 75.9999 19.21C75.2999 17.26 74.5799 15.31 73.8099 13.39C72.3189 9.54229 70.6163 5.77988 68.7099 2.12004C68.2271 1.25481 67.4292 0.609061 66.4824 0.317133C65.5355 0.0252055 64.5125 0.109579 63.6263 0.5527C62.74 0.99582 62.0588 1.76357 61.7242 2.69622C61.3896 3.62887 61.4275 4.65461 61.8299 5.56004C63.5952 9.28587 65.5649 12.9114 67.7299 16.42Z" fill="url(#paint2_linear_1108_156)"/>
<path d="M121.12 26.43C122.513 24.8351 123.818 23.166 125.03 21.43C126.24 19.73 127.38 17.99 128.49 16.24C129.6 14.49 130.67 12.73 131.72 10.95C132.77 9.16998 133.72 7.35998 134.72 5.51998C135.176 4.60631 135.251 3.54884 134.927 2.58022C134.604 1.61159 133.909 0.811148 132.995 0.354976C132.081 -0.101196 131.024 -0.175731 130.055 0.147769C129.087 0.47127 128.286 1.16631 127.83 2.07998C126.91 3.92998 126.09 5.81998 125.28 7.71998C124.47 9.61998 123.73 11.55 123.01 13.49C122.29 15.43 121.57 17.38 120.95 19.37C120.306 21.3762 119.772 23.4159 119.35 25.48C119.306 25.6609 119.314 25.8503 119.373 26.0269C119.431 26.2036 119.537 26.3605 119.68 26.48C119.777 26.5736 119.891 26.6468 120.017 26.6951C120.142 26.7434 120.276 26.7659 120.411 26.7613C120.545 26.7566 120.677 26.7249 120.799 26.6679C120.921 26.611 121.03 26.5301 121.12 26.43Z" fill="url(#paint3_linear_1108_156)"/>
<path d="M173.81 38.0801C174.198 37.7564 174.519 37.3592 174.755 36.9114C174.99 36.4636 175.135 35.9738 175.181 35.4701C175.227 34.9663 175.173 34.4584 175.023 33.9754C174.872 33.4924 174.628 33.0438 174.305 32.6551C173.981 32.2663 173.584 31.9452 173.136 31.71C172.688 31.4747 172.198 31.33 171.695 31.284C171.191 31.238 170.683 31.2917 170.2 31.4421C169.717 31.5924 169.268 31.8363 168.88 32.1601C167.24 33.5301 165.61 34.9401 164.01 36.3701C162.41 37.8001 160.83 39.2701 159.26 40.7501C157.69 42.2301 156.13 43.7501 154.6 45.2301C153.031 46.7727 151.596 48.4454 150.31 50.2301C150.232 50.3428 150.183 50.4723 150.165 50.608C150.148 50.7436 150.163 50.8815 150.21 51.0101C150.288 51.2182 150.446 51.3871 150.647 51.4806C150.849 51.5741 151.08 51.5847 151.29 51.5101C153.342 50.7352 155.326 49.7885 157.22 48.6801C159.08 47.5901 160.93 46.4701 162.76 45.3401C164.59 44.2101 166.42 43.0601 168.22 41.8901C170.02 40.7201 171.8 39.5201 173.56 38.2901L173.81 38.0801Z" fill="url(#paint4_linear_1108_156)"/>
<path d="M194.819 80.8499C194.68 80.4394 194.46 80.0605 194.174 79.7348C193.888 79.409 193.54 79.1429 193.151 78.9516C192.762 78.7603 192.339 78.6475 191.906 78.6198C191.474 78.5921 191.04 78.6499 190.629 78.7899C188.749 79.4399 186.899 80.1699 185.059 80.9399C183.219 81.7099 181.399 82.4999 179.589 83.3399C177.779 84.1799 175.979 85.0499 174.179 85.9199C173.267 86.3532 172.391 86.8581 171.559 87.4299C170.678 87.997 169.869 88.6686 169.149 89.4299C168.986 89.5975 168.887 89.8169 168.869 90.0499C168.853 90.195 168.866 90.3419 168.908 90.4818C168.949 90.6217 169.019 90.7516 169.113 90.8638C169.206 90.976 169.321 91.068 169.451 91.1344C169.581 91.2008 169.724 91.2401 169.869 91.2499C170.922 91.3496 171.983 91.3228 173.029 91.1699C174.043 91.0386 175.046 90.8314 176.029 90.5499C177.949 89.9999 179.879 89.4699 181.779 88.8799C183.679 88.2899 185.579 87.6799 187.459 87.0299C189.339 86.3799 191.139 85.7299 192.999 84.9999C193.775 84.6713 194.396 84.0583 194.734 83.2867C195.073 82.5151 195.103 81.6433 194.819 80.8499Z" fill="url(#paint5_linear_1108_156)"/>
<path d="M133.859 45.61C131.169 43.8662 128.343 42.3413 125.409 41.05C122.487 39.8015 119.479 38.7622 116.409 37.94C113.356 37.1637 110.256 36.5826 107.129 36.2C105.579 36.06 104.019 35.86 102.469 35.82L100.139 35.72H97.7193C91.3034 35.8969 84.9542 37.071 78.8993 39.2C72.8068 41.3491 67.1004 44.4657 61.9993 48.43C56.8599 52.4473 52.5155 57.3886 49.1893 63C47.5536 65.8114 46.1875 68.7712 45.1093 71.84C44.0831 74.8897 43.3171 78.0209 42.8193 81.2C41.8641 87.4688 41.9249 93.8505 42.9993 100.1C44.1376 106.307 46.4052 112.252 49.6893 117.64C52.8864 122.878 56.9432 127.54 61.6893 131.43C66.3502 135.283 71.655 138.282 77.3593 140.29C82.7141 142.07 88.3943 142.654 93.9993 142C96.4561 141.779 98.8828 141.299 101.239 140.57C105.766 139.002 109.974 136.631 113.659 133.57C117.379 130.524 120.598 126.913 123.199 122.87C125.905 118.718 127.764 114.072 128.669 109.2C129.125 106.66 129.226 104.068 128.969 101.5C128.708 98.8736 128.033 96.3052 126.969 93.89C125.894 91.4904 124.465 89.2657 122.729 87.29C120.859 85.1049 118.483 83.4092 115.809 82.35C113.024 81.3074 109.99 81.1228 107.099 81.82C104.859 82.3762 102.734 83.3205 100.819 84.61C99.2805 82.8429 97.4714 81.3308 95.4593 80.13C94.2665 79.4408 92.9844 78.9192 91.6493 78.58C90.3436 78.2289 89.0009 78.0342 87.6493 78C84.9219 77.902 82.2142 78.4972 79.7793 79.73C77.306 80.9738 75.2437 82.9042 73.8393 85.29C72.4606 87.6426 71.7678 90.3341 71.8393 93.06C71.918 95.6357 72.5345 98.1666 73.6493 100.49C74.7464 102.729 76.2252 104.759 78.0193 106.49C79.7152 108.105 81.5451 109.574 83.4893 110.88C85.3693 112.17 87.2793 113.35 89.0393 114.65C90.8262 115.868 92.361 117.42 93.5593 119.22C94.1173 120.142 94.5004 121.159 94.6893 122.22C94.8395 123.325 94.8395 124.445 94.6893 125.55C95.0377 124.457 95.2164 123.317 95.2193 122.17C95.1944 120.989 94.9503 119.822 94.4993 118.73C93.5087 116.586 92.0776 114.674 90.2993 113.12C86.9593 109.93 83.2993 107.31 80.5893 104.12C79.2636 102.575 78.221 100.808 77.5093 98.9C76.8383 97.0772 76.5292 95.1411 76.5993 93.2C76.7037 91.3422 77.3046 89.5464 78.3393 88C79.3276 86.547 80.6885 85.3865 82.2793 84.64C83.9098 83.902 85.6914 83.5594 87.4793 83.64C89.2702 83.7158 91.0192 84.2052 92.5893 85.07C94.0153 85.9491 95.3197 87.0115 96.4693 88.23C95.7549 88.9889 95.087 89.7904 94.4693 90.63C92.8831 92.7111 91.6871 95.0624 90.9393 97.57C90.5177 99.0099 90.3952 100.521 90.5793 102.01C90.7026 102.885 90.9874 103.729 91.4193 104.5C91.8827 105.287 92.5061 105.969 93.2493 106.5C94.5536 107.467 96.1092 108.036 97.7293 108.14C99.4099 108.21 101.068 107.729 102.449 106.77C103.695 105.893 104.722 104.739 105.449 103.4C106.148 102.132 106.602 100.745 106.789 99.31C106.977 97.8899 106.913 96.4477 106.599 95.05C106.304 93.7725 105.885 92.5267 105.349 91.33C105.129 90.85 104.889 90.33 104.639 89.91C105.855 89.2921 107.161 88.8734 108.509 88.67C110.05 88.4373 111.625 88.6489 113.049 89.28C114.534 89.9727 115.838 90.9995 116.859 92.28C118.06 93.7127 119.069 95.2961 119.859 96.99C121.449 100.457 122.071 104.289 121.659 108.08C121.158 112.125 119.899 116.04 117.949 119.62C110.599 133.81 94.0793 141.7 79.6093 134.68C74.9305 132.355 70.7095 129.204 67.1493 125.38C63.6376 121.643 60.7294 117.382 58.5293 112.75C56.4416 108.25 55.1879 103.408 54.8293 98.46C54.5929 93.5894 55.1124 88.7115 56.3693 84C57.6163 79.3919 59.5731 75.0061 62.1693 71C64.7125 67.0253 67.8798 63.4866 71.5493 60.52C75.3044 57.5395 79.5104 55.1765 84.0093 53.52C88.5463 51.8834 93.3094 50.9591 98.1293 50.78H99.9293L101.799 50.83C103.049 50.83 104.279 50.98 105.529 51.05C107.978 51.3062 110.409 51.7102 112.809 52.26C122.349 54.3499 130.866 59.6874 136.907 67.3606C142.948 75.0338 146.137 84.5665 145.929 94.33C145.805 104.359 142.515 114.092 136.529 122.14C133.513 126.208 129.972 129.859 125.999 133C123.98 134.614 121.873 136.117 119.689 137.5C117.499 138.883 115.232 140.142 112.899 141.27C107.933 143.478 102.841 145.392 97.6493 147C92.3193 148.8 86.8293 150.5 81.3593 153.31C78.3324 154.74 75.6355 156.783 73.4393 159.31C72.173 160.83 71.2945 162.635 70.8793 164.57C70.6341 165.687 70.5968 166.839 70.7693 167.97C70.9676 169.168 71.4249 170.307 72.1093 171.31C72.8597 172.362 73.7908 173.273 74.8593 174C74.2621 175.397 73.9854 176.909 74.0494 178.427C74.1134 179.945 74.5166 181.429 75.2293 182.77C76.0128 184.237 77.0029 185.584 78.1693 186.77C78.7215 187.352 79.3093 187.9 79.9293 188.41C80.3693 188.76 80.8393 189.07 81.3093 189.41C80.8527 190.035 80.4607 190.705 80.1393 191.41C79.4362 192.919 79.2669 194.622 79.6593 196.24C79.8831 196.99 80.2204 197.702 80.6593 198.35C81.0718 198.958 81.5589 199.513 82.1093 200C81.4992 198.789 81.2034 197.445 81.2493 196.09C81.3447 194.895 81.8214 193.763 82.6093 192.86C83.1302 192.224 83.7358 191.662 84.4093 191.19C86.2902 192.137 88.2597 192.898 90.2893 193.46C93.1777 194.252 96.14 194.745 99.1293 194.93C102.158 195.153 105.201 195.022 108.199 194.54C108.969 194.4 109.749 194.23 110.569 194C111.486 193.743 112.369 193.377 113.199 192.91C113.884 192.525 114.48 192 114.949 191.37C115.381 190.783 115.653 190.094 115.739 189.37C115.782 188.918 115.748 188.461 115.639 188.02C115.621 187.918 115.595 187.817 115.559 187.72L115.499 187.53C115.17 186.5 114.67 185.533 114.019 184.67C112.762 183.119 111.111 181.935 109.239 181.24C107.636 180.633 105.95 180.273 104.239 180.17C101.116 179.959 97.9789 180.273 94.9593 181.1C92.0003 181.87 89.1726 183.077 86.5693 184.68C85.9193 185.09 85.2793 185.54 84.6593 186.02L84.4593 185.9C83.4725 185.195 82.555 184.398 81.7193 183.52C80.9522 182.671 80.3244 181.706 79.8593 180.66C79.5432 180.007 79.3791 179.291 79.3791 178.565C79.3791 177.839 79.5432 177.123 79.8593 176.47C80.3393 176.63 80.8593 176.78 81.3093 176.92C84.2535 177.726 87.2666 178.255 90.3093 178.5C96.2463 179.012 102.226 178.706 108.079 177.59C111.239 177.046 114.308 176.067 117.199 174.68C118.115 174.218 118.974 173.651 119.759 172.99C120.002 172.783 120.232 172.563 120.449 172.33C120.707 172.062 120.945 171.774 121.159 171.47C121.417 171.119 121.642 170.744 121.829 170.35C122.226 169.492 122.428 168.556 122.419 167.61C122.446 167.277 122.446 166.943 122.419 166.61C122.34 165.865 122.148 165.137 121.849 164.45C121.291 163.158 120.41 162.032 119.289 161.18C118.413 160.516 117.442 159.986 116.409 159.61C115.545 159.289 114.655 159.042 113.749 158.87C112.13 158.567 110.486 158.417 108.839 158.42C105.786 158.422 102.74 158.733 99.7493 159.35C93.8266 160.461 88.1419 162.592 82.9493 165.65C81.5869 166.489 80.2959 167.439 79.0893 168.49C78.6481 168.234 78.2609 167.894 77.9493 167.49C77.7193 167.06 77.6793 166.92 77.8293 166.17C78.0296 165.327 78.431 164.544 78.9993 163.89C80.6297 162.299 82.5699 161.06 84.6993 160.25C89.7489 158.344 94.9247 156.79 100.189 155.6C105.847 154.283 111.423 152.637 116.889 150.67C119.701 149.556 122.439 148.267 125.089 146.81C127.752 145.366 130.318 143.75 132.769 141.97C137.751 138.368 142.205 134.087 145.999 129.25C149.844 124.333 152.913 118.856 155.099 113.01C157.285 107.115 158.527 100.912 158.779 94.63C159.35 81.7792 155.504 69.1203 147.879 58.76C144.034 53.5698 139.285 49.1153 133.859 45.61ZM101.649 98.76C101.613 99.5344 101.411 100.292 101.058 100.982C100.704 101.672 100.207 102.278 99.5993 102.76C99.0974 103.12 98.4862 103.295 97.8699 103.255C97.2536 103.214 96.6703 102.962 96.2193 102.54C96.0492 102.393 95.9115 102.212 95.8151 102.009C95.7187 101.806 95.6656 101.585 95.6593 101.36C95.6177 100.595 95.7334 99.8289 95.9993 99.11C96.6749 97.3317 97.6944 95.7041 98.9993 94.32C99.3588 93.9105 99.7393 93.52 100.139 93.15C100.239 93.33 100.349 93.51 100.439 93.69C100.859 94.5315 101.194 95.4125 101.439 96.32C101.658 97.1137 101.729 97.9406 101.649 98.76ZM109.859 187.45C109.929 187.42 109.999 187.35 109.859 187.45V187.45ZM103.639 186.58C104.729 186.705 105.8 186.96 106.829 187.34C107.35 187.537 107.839 187.81 108.279 188.15C107.859 188.3 107.409 188.43 106.949 188.55C101.87 189.752 96.5881 189.82 91.4793 188.75C90.9893 188.64 90.4793 188.51 90.0393 188.37C94.3936 186.812 99.0302 186.202 103.639 186.58ZM114.169 167.51C114.169 167.63 114.279 167.64 114.169 167.51V167.51ZM100.919 166.44C103.456 166.087 106.021 165.97 108.579 166.09C109.739 166.146 110.89 166.311 112.019 166.58C112.479 166.689 112.927 166.84 113.359 167.03C112.325 167.512 111.251 167.903 110.149 168.2C108.969 168.54 107.719 168.84 106.449 169.09C101.267 170.075 96.0041 170.57 90.7293 170.57C89.5093 170.57 88.2893 170.57 87.0993 170.42C91.4753 168.394 96.1362 167.052 100.919 166.44Z" fill="url(#paint6_linear_1108_156)"/>
</g>
<defs>
<linearGradient id="paint0_linear_1108_156" x1="18.0297" y1="-0.290005" x2="18.0297" y2="173.8" gradientUnits="userSpaceOnUse">
<stop stop-color="#FF8A11"/>
<stop offset="1" stop-color="#E81894"/>
</linearGradient>
<linearGradient id="paint1_linear_1108_156" x1="32.1002" y1="-0.28994" x2="32.1002" y2="173.8" gradientUnits="userSpaceOnUse">
<stop stop-color="#FF8A11"/>
<stop offset="1" stop-color="#E81894"/>
</linearGradient>
<linearGradient id="paint2_linear_1108_156" x1="69.3199" y1="-0.289961" x2="69.3199" y2="173.8" gradientUnits="userSpaceOnUse">
<stop stop-color="#FF8A11"/>
<stop offset="1" stop-color="#E81894"/>
</linearGradient>
<linearGradient id="paint3_linear_1108_156" x1="127.19" y1="-0.290024" x2="127.19" y2="173.8" gradientUnits="userSpaceOnUse">
<stop stop-color="#FF8A11"/>
<stop offset="1" stop-color="#E81894"/>
</linearGradient>
<linearGradient id="paint4_linear_1108_156" x1="162.68" y1="-0.289945" x2="162.68" y2="173.8" gradientUnits="userSpaceOnUse">
<stop stop-color="#FF8A11"/>
<stop offset="1" stop-color="#E81894"/>
</linearGradient>
<linearGradient id="paint5_linear_1108_156" x1="181.929" y1="-0.290064" x2="181.929" y2="173.8" gradientUnits="userSpaceOnUse">
<stop stop-color="#FF8A11"/>
<stop offset="1" stop-color="#E81894"/>
</linearGradient>
<linearGradient id="paint6_linear_1108_156" x1="100.469" y1="-0.290028" x2="100.469" y2="173.8" gradientUnits="userSpaceOnUse">
<stop stop-color="#FF8A11"/>
<stop offset="1" stop-color="#E81894"/>
</linearGradient>
<clipPath id="clip0_1108_156">
<rect width="200" height="200" fill="white"/>
</clipPath>
</defs>
</svg>
