<svg width="200" height="200" viewBox="0 0 200 200" fill="none" xmlns="http://www.w3.org/2000/svg">
<g clip-path="url(#clip0_1108_352)">
<path d="M65.3409 78.6901C62.4204 72.6221 61.1184 65.9022 61.5612 59.1826C62.004 52.4629 64.1765 45.9719 67.8679 40.3396C71.5593 34.7073 76.6442 30.1251 82.629 27.0377C88.6138 23.9503 95.2951 22.4626 102.024 22.7191C108.754 22.9756 115.302 24.9676 121.035 28.5016C126.767 32.0356 131.488 36.9916 134.74 42.8885C137.992 48.7855 139.665 55.423 139.595 62.1569C139.525 68.8907 137.715 75.4921 134.341 81.3201L102.821 136L112.271 152.37L148.551 89.5301C155.712 76.8108 157.566 61.7803 153.712 47.7018C149.858 33.6233 140.607 21.6332 127.966 14.3345C115.325 7.03585 100.316 5.01775 86.1963 8.71837C72.0767 12.419 59.9866 21.5396 52.5509 34.1001C48.6019 40.8482 46.1429 48.3634 45.3391 56.1406C44.5353 63.9178 45.4054 71.777 47.8909 79.1901C50.4186 78.8737 52.9634 78.7134 55.5109 78.7101L65.3409 78.6901Z" fill="url(#paint0_linear_1108_352)"/>
<path d="M192.491 110.49C188.573 103.613 183.212 97.6655 176.777 93.058C170.341 88.4505 162.984 85.2921 155.211 83.8C154.224 86.1582 153.092 88.4526 151.821 90.67L146.881 99.22C153.623 99.6342 160.142 101.79 165.802 105.476C171.462 109.162 176.07 114.254 179.175 120.252C182.28 126.251 183.776 132.953 183.517 139.703C183.258 146.452 181.254 153.02 177.699 158.763C174.144 164.507 169.16 169.23 163.235 172.473C157.309 175.715 150.644 177.365 143.89 177.262C137.136 177.159 130.524 175.306 124.7 171.885C118.876 168.463 114.039 163.589 110.661 157.74L79.1908 103.24H60.3008L96.4808 165.92C97.7248 168.059 99.1043 170.117 100.611 172.08L100.911 172.47C106.064 179.103 112.673 184.461 120.229 188.13C127.784 191.8 136.082 193.681 144.481 193.63C154.21 193.629 163.767 191.067 172.192 186.202C180.617 181.337 187.614 174.34 192.478 165.915C197.343 157.489 199.904 147.932 199.904 138.203C199.905 128.474 197.344 118.916 192.481 110.49H192.491Z" fill="url(#paint1_linear_1108_352)"/>
<path d="M88.1504 159.66C84.4914 165.231 79.4675 169.772 73.5571 172.852C67.6467 175.931 61.0463 177.447 54.3844 177.255C47.7225 177.062 41.2207 175.168 35.4979 171.752C29.7751 168.336 25.0218 163.513 21.6904 157.74C18.2632 151.802 16.459 145.067 16.4589 138.21C16.4589 131.354 18.263 124.619 21.6901 118.681C25.1173 112.742 30.0466 107.811 35.9832 104.381C41.9197 100.951 48.6543 99.1434 55.5104 99.1401H118.58L128 82.7801H55.5104C48.1693 82.6815 40.8817 84.0423 34.0707 86.7834C27.2598 89.5245 21.0613 93.5914 15.8351 98.7479C10.6089 103.904 6.45917 110.048 3.62681 116.821C0.794458 123.595 -0.664062 130.863 -0.664062 138.205C-0.664062 145.547 0.794458 152.816 3.62681 159.589C6.45917 166.363 10.6089 172.506 15.8351 177.662C21.0613 182.819 27.2598 186.886 34.0707 189.627C40.8817 192.368 48.1693 193.729 55.5104 193.63C63.4508 193.677 71.3064 191.996 78.5327 188.705C85.7591 185.414 92.1834 180.591 97.3604 174.57C95.7428 172.481 94.2662 170.286 92.9404 168L88.1504 159.66Z" fill="url(#paint2_linear_1108_352)"/>
</g>
<defs>
<linearGradient id="paint0_linear_1108_352" x1="64.6909" y1="15.0101" x2="145.621" y2="114.02" gradientUnits="userSpaceOnUse">
<stop stop-color="#B03B83"/>
<stop offset="0.56" stop-color="#E72E6C"/>
<stop offset="1" stop-color="#FFC400"/>
</linearGradient>
<linearGradient id="paint1_linear_1108_352" x1="100.651" y1="90.6901" x2="187.901" y2="185.26" gradientUnits="userSpaceOnUse">
<stop stop-color="#D83B83"/>
<stop offset="1" stop-color="#6F4A9E"/>
</linearGradient>
<linearGradient id="paint2_linear_1108_352" x1="9.12043" y1="158.78" x2="125.76" y2="107.05" gradientUnits="userSpaceOnUse">
<stop stop-color="#9C2383"/>
<stop offset="1" stop-color="#E72E6C"/>
</linearGradient>
<clipPath id="clip0_1108_352">
<rect width="200" height="200" fill="white"/>
</clipPath>
</defs>
</svg>
