<svg width="200" height="200" viewBox="0 0 200 200" fill="none" xmlns="http://www.w3.org/2000/svg">
<path d="M31.5802 100C31.6008 82.6587 38.1997 65.971 50.0448 53.3055C61.8899 40.64 78.0991 32.94 95.4002 31.76L112.14 10.82C89.8864 7.77935 67.2999 13.1696 48.8175 25.9319C30.335 38.6942 17.2925 57.9061 12.2519 79.7937C7.21133 101.681 10.537 124.663 21.5756 144.224C32.6143 163.784 50.568 178.511 71.9102 185.51L78.2902 164.87C64.696 160.304 52.8768 151.588 44.4971 139.951C36.1175 128.313 31.5997 114.34 31.5802 100Z" fill="black"/>
<path d="M127.59 14.3199L121.27 34.9999C136.428 39.9522 149.38 50.0449 157.885 63.5334C166.391 77.0219 169.917 93.0583 167.853 108.871C165.789 124.683 158.265 139.277 146.582 150.131C134.899 160.984 119.792 167.414 103.87 168.31L87.2803 189.11C109.624 192.338 132.364 187.052 150.992 174.299C169.62 161.546 182.775 142.258 187.849 120.26C192.922 98.2619 189.542 75.1608 178.381 55.5377C167.219 35.9146 149.091 21.2028 127.59 14.3199Z" fill="black"/>
<path d="M126.24 83.21L102.4 80.28L126.94 0L56.79 87.72L73.76 115.75L97.6 118.68L72.46 200L143.21 111.25L126.24 83.21Z" fill="black"/>
</svg>
