<svg width="200" height="200" viewBox="0 0 200 200" fill="none" xmlns="http://www.w3.org/2000/svg">
<g clip-path="url(#clip0_1113_4839)">
<path d="M174 0H128.81C118.517 0 108.645 4.0889 101.367 11.3672C94.0889 18.6455 90 28.5169 90 38.81V84H135.19C145.483 84 155.355 79.9111 162.633 72.6328C169.911 65.3545 174 55.4831 174 45.19V0Z" fill="black"/>
<path d="M49.57 84H84V49.57C84 41.7275 80.8846 34.2063 75.3391 28.6609C69.7937 23.1154 62.2725 20 54.43 20H20V54.43C20 58.3132 20.7649 62.1584 22.2509 65.7459C23.7369 69.3335 25.915 72.5933 28.6609 75.3391C31.4067 78.085 34.6665 80.2631 38.2541 81.7491C41.8416 83.2351 45.6868 84 49.57 84Z" fill="black"/>
<path d="M38.81 90H84V135.19C84 145.483 79.9111 155.355 72.6328 162.633C65.3545 169.911 55.4831 174 45.19 174H0V128.81C0 118.517 4.0889 108.645 11.3672 101.367C18.6455 94.0889 28.5169 90 38.81 90Z" fill="black"/>
<path d="M140.82 200H200V140.82C200 127.342 194.646 114.415 185.115 104.885C175.585 95.3542 162.658 90 149.18 90H90V149.18C90 162.658 95.3542 175.585 104.885 185.115C114.415 194.646 127.342 200 140.82 200Z" fill="black"/>
</g>
<defs>
<clipPath id="clip0_1113_4839">
<rect width="200" height="200" fill="white"/>
</clipPath>
</defs>
</svg>
