<svg width="200" height="200" viewBox="0 0 200 200" fill="none" xmlns="http://www.w3.org/2000/svg">
<g clip-path="url(#clip0_1108_396)">
<mask id="mask0_1108_396" style="mask-type:luminance" maskUnits="userSpaceOnUse" x="0" y="14" width="201" height="172">
<path d="M14.25 166.09C29.31 191.09 65.55 191.7 80.59 166.65C85.3517 158.716 88.0281 149.707 88.37 140.46L88.85 127.65C88.85 127.65 66 148.5 56.58 147.22C53.4 146.79 55.82 140.89 56.97 137.97C61.34 126.97 87.89 99.91 87.89 99.91C87.89 99.91 90 61.58 93.75 51.07C95.69 45.63 97.94 43.14 100 42.15C102.06 43.15 104.31 45.63 106.25 51.07C110 61.58 112.11 99.91 112.11 99.91C112.11 99.91 138.66 126.91 143.03 137.97C144.18 140.89 146.6 146.79 143.42 147.22C133.99 148.5 111.15 127.65 111.15 127.65L111.63 140.46C111.991 150.228 114.957 159.723 120.22 167.96C135.32 191.58 170.37 190.96 185.12 167.13C194.739 151.589 199.888 133.697 200 115.42C200.41 61.14 156.68 15.95 102.4 14.68C84.5069 14.2515 66.8266 18.6332 51.2044 27.3679C35.5821 36.1025 22.5904 48.8699 13.5851 64.3378C4.57987 79.8056 -0.108954 97.4069 0.00799474 115.305C0.124944 133.203 5.04338 150.741 14.25 166.09Z" fill="white"/>
</mask>
<g mask="url(#mask0_1108_396)">
<path d="M14.25 166.09C29.31 191.09 65.55 191.7 80.59 166.65C85.3517 158.716 88.0281 149.707 88.37 140.46L88.85 127.65C88.85 127.65 66 148.5 56.58 147.22C53.4 146.79 55.82 140.89 56.97 137.97C61.34 126.97 87.89 99.91 87.89 99.91C87.89 99.91 90 61.58 93.75 51.07C95.69 45.63 97.94 43.14 100 42.15C102.06 43.15 104.31 45.63 106.25 51.07C110 61.58 112.11 99.91 112.11 99.91C112.11 99.91 138.66 126.91 143.03 137.97C144.18 140.89 146.6 146.79 143.42 147.22C133.99 148.5 111.15 127.65 111.15 127.65L111.63 140.46C111.991 150.228 114.957 159.723 120.22 167.96C135.32 191.58 170.37 190.96 185.12 167.13C194.739 151.589 199.888 133.697 200 115.42C200.41 61.14 156.68 15.95 102.4 14.68C84.5069 14.2515 66.8266 18.6332 51.2044 27.3679C35.5821 36.1025 22.5904 48.8699 13.5851 64.3378C4.57987 79.8056 -0.108954 97.4069 0.00799474 115.305C0.124944 133.203 5.04338 150.741 14.25 166.09Z" fill="#FBB03B"/>
<path d="M266.25 49.0001C266.25 100.43 222.6 142.12 168.75 142.12C114.9 142.12 71.25 100.46 71.25 49.0001C71.25 -2.45988 97.4 -20.3799 151.25 -20.3799C205.1 -20.3799 266.25 -2.39989 266.25 49.0001Z" fill="url(#paint0_linear_1108_396)"/>
<path d="M113.75 201.53C113.75 259.17 -31.2502 216.05 -31.2502 158.4C-31.2502 100.75 -37.6002 97.1499 16.2498 97.1499C70.0998 97.1499 113.75 143.88 113.75 201.53Z" fill="url(#paint1_linear_1108_396)"/>
</g>
</g>
<defs>
<linearGradient id="paint0_linear_1108_396" x1="226.1" y1="123.85" x2="110.55" y2="-14.4699" gradientUnits="userSpaceOnUse">
<stop stop-color="#01DDA5"/>
<stop offset="1" stop-color="#3CADE2"/>
</linearGradient>
<linearGradient id="paint1_linear_1108_396" x1="93.4198" y1="229.67" x2="-14.4402" y2="100.56" gradientUnits="userSpaceOnUse">
<stop stop-color="#FF8A11"/>
<stop offset="1" stop-color="#E81894"/>
</linearGradient>
<clipPath id="clip0_1108_396">
<rect width="200" height="200" fill="white"/>
</clipPath>
</defs>
</svg>
