<svg width="792" height="200" viewBox="0 0 792 200" fill="none" xmlns="http://www.w3.org/2000/svg">
<g clip-path="url(#clip0_1255_4295)">
<path d="M108.894 64.836L73.216 153.469H116.117L131.138 196.37H1.04883L81.8727 3.24793H138.123L218.685 196.37H161.443L108.894 64.836ZM700.965 108.943L701.216 107.964C701.706 106.042 702.303 104.311 702.959 102.818C705.347 97.5047 708.476 93.5047 712.285 90.9375C716.117 88.3584 720.392 87.045 724.977 87.045C728.989 87.045 732.858 88.0718 736.488 90.0659C740.117 92.0718 743.21 95.2121 745.694 99.4032C747.115 101.827 748.118 104.729 748.655 108.024L748.822 108.943H700.965ZM785.861 90.5315C783.986 86.2927 781.777 82.3524 779.258 78.7584C776.738 75.1524 773.885 71.8808 770.744 68.9554C764.452 63.1285 757.24 58.639 749.3 55.63C741.371 52.6211 733.001 51.0927 724.416 51.0927C711.819 51.0927 700.07 54.1017 689.479 60.036C678.9 65.9584 670.303 74.4718 663.915 85.3375C657.526 96.1912 654.279 109.206 654.279 124.012C654.279 135.714 656.416 146.317 660.607 155.523C664.798 164.74 670.673 172.597 678.064 178.89C685.455 185.194 694.123 190.066 703.807 193.349C713.503 196.645 724.177 198.317 735.544 198.317C743.771 198.317 751.95 197.397 759.843 195.558C767.556 193.767 775.019 191.057 782.04 187.511V149.732C774.84 153.003 767.891 155.606 761.347 157.457C754.446 159.415 747.27 160.418 739.986 160.418C732.129 160.418 725.144 159.081 719.222 156.454C713.276 153.803 708.464 149.732 704.965 144.335C703.903 142.699 702.971 140.824 702.183 138.758L701.777 137.672H790.434C790.601 135.224 790.816 132.537 791.079 129.505C791.353 126.4 791.497 123.224 791.497 120.108C791.497 108.967 789.598 99.0211 785.861 90.5315ZM592.786 143.057C591.317 145.517 589.61 147.69 587.676 149.588C585.741 151.463 583.58 153.051 581.216 154.34C576.476 156.884 571.389 158.185 566.088 158.185C563.007 158.185 559.855 157.779 556.715 156.979L556.118 156.824V93.0629L556.726 92.9196C560.094 92.1554 563.7 91.7733 567.473 91.7733C572.774 91.7733 577.717 92.9196 582.171 95.2002C586.649 97.4808 590.303 101.063 593.073 105.815C595.807 110.555 597.204 116.681 597.204 124.012C597.204 131.726 595.712 138.137 592.786 143.057ZM638.386 91.3673C634.458 82.3405 629.049 74.7584 622.303 68.836C615.556 62.9136 608.022 58.4718 599.903 55.642C591.771 52.8002 583.389 51.3673 574.995 51.3673C568.583 51.3673 562.565 52.036 557.097 53.3375L556.118 53.5763V1.12256H507.914V187.2C516.571 191.129 525.634 194.078 534.816 195.964C544.189 197.899 554.517 198.878 565.538 198.878C575.401 198.878 585.192 197.254 594.625 194.054C604.034 190.854 612.595 186.042 620.094 179.737C627.568 173.445 633.55 165.529 637.825 156.227C642.112 146.914 644.297 135.893 644.297 123.451C644.297 111.2 642.303 100.394 638.386 91.3673ZM446.959 143.272C445.765 145.732 444.392 147.905 442.828 149.755C441.264 151.594 439.532 153.111 437.622 154.317C433.801 156.693 429.538 157.911 424.953 157.911C420.38 157.911 416.117 156.693 412.297 154.317C408.464 151.917 405.335 148.215 402.959 143.272C400.595 138.376 399.413 132.084 399.413 124.561C399.413 116.872 400.595 110.532 402.959 105.72C405.335 100.872 408.464 97.2061 412.297 94.8181C416.117 92.442 420.38 91.2241 424.953 91.2241C429.538 91.2241 433.789 92.442 437.622 94.8181C441.443 97.2061 444.583 100.872 446.959 105.72C449.312 110.543 450.517 116.884 450.517 124.561C450.517 132.072 449.312 138.364 446.959 143.272ZM487.7 84.0838C481.132 73.1345 472.261 64.7285 461.312 59.0688C455.819 56.239 450.028 54.1136 443.962 52.6808C437.885 51.2599 431.544 50.5315 424.953 50.5315C411.807 50.5315 399.568 53.4091 388.607 59.0688C377.658 64.7285 368.738 73.1345 362.076 84.0957C355.413 95.033 352.046 108.645 352.046 124.561C352.046 140.478 355.413 154.102 362.076 165.039C368.738 175.988 377.67 184.454 388.607 190.209C399.568 195.964 411.795 198.878 424.953 198.878C437.932 198.878 450.112 195.964 461.168 190.209C472.201 184.454 481.132 175.988 487.7 165.051C494.267 154.102 497.598 140.478 497.598 124.561C497.598 108.645 494.267 95.033 487.7 84.0838ZM293.801 156.573L293.192 156.729C289.801 157.517 286.291 157.911 282.709 157.911C277.598 157.911 272.703 156.705 268.165 154.34C263.592 151.964 259.879 148.299 257.12 143.463C254.386 138.627 252.989 132.37 252.989 124.848C252.989 117.146 254.326 110.746 256.977 105.827C259.64 100.872 263.365 97.2061 268.046 94.9255C272.667 92.645 277.885 91.4987 283.556 91.4987C286.84 91.4987 290.088 91.8808 293.192 92.633L293.801 92.7882V156.573ZM293.801 1.12256V52.5852L292.858 52.4061C288.32 51.5345 283.592 51.0927 278.828 51.0927C269.694 51.0927 260.595 52.6569 251.831 55.7733C243.067 58.8778 235.162 63.642 228.309 69.9345C221.479 76.239 215.867 84.0599 211.676 93.1942C207.473 102.305 205.347 113.051 205.347 125.123C205.347 137.923 207.652 149.123 212.213 158.424C216.774 167.737 222.84 175.463 230.219 181.397C237.622 187.332 246.04 191.773 255.27 194.603C264.523 197.433 273.944 198.878 283.27 198.878C294.649 198.878 305.168 197.851 314.541 195.833C323.723 193.851 332.87 190.854 341.718 186.926V1.12256H293.801Z" fill="black"/>
</g>
<defs>
<clipPath id="clip0_1255_4295">
<rect width="791" height="200" fill="white" transform="translate(0.75)"/>
</clipPath>
</defs>
</svg>
