<svg width="642" height="200" viewBox="0 0 642 200" fill="none" xmlns="http://www.w3.org/2000/svg">
<g clip-path="url(#clip0_1255_4339)">
<path d="M338.487 50.2503C338.487 57.4575 332.681 63.2633 325.474 63.2633C318.267 63.2633 312.461 57.4575 312.461 50.2503C312.461 43.043 318.066 37.2372 325.474 37.2372C332.881 37.4374 338.487 43.2432 338.487 50.2503ZM284.833 76.4765C284.833 77.6777 284.833 79.6797 284.833 79.6797C284.833 79.6797 278.627 71.6717 265.414 71.6717C243.592 71.6717 226.575 88.2883 226.575 111.311C226.575 134.134 243.392 150.951 265.414 150.951C278.827 150.951 284.833 142.743 284.833 142.743V146.146C284.833 147.748 286.034 148.949 287.636 148.949H303.852V73.6737C303.852 73.6737 289.037 73.6737 287.636 73.6737C286.034 73.6737 284.833 75.0751 284.833 76.4765ZM284.833 124.725C281.83 129.129 275.824 132.933 268.617 132.933C255.804 132.933 245.994 124.925 245.994 111.311C245.994 97.6977 255.804 89.6897 268.617 89.6897C275.624 89.6897 282.03 93.6937 284.833 97.8979V124.725ZM315.864 73.6737H335.083V148.949H315.864V73.6737ZM602.951 71.6717C589.738 71.6717 583.532 79.6797 583.532 79.6797V37.4374H564.313V148.949C564.313 148.949 579.127 148.949 580.529 148.949C582.13 148.949 583.332 147.548 583.332 146.146V142.743C583.332 142.743 589.538 150.951 602.751 150.951C624.573 150.951 641.59 134.134 641.59 111.311C641.59 88.4885 624.573 71.6717 602.951 71.6717ZM599.748 132.733C592.341 132.733 586.535 128.929 583.532 124.525V97.6977C586.535 93.6937 592.941 89.4895 599.748 89.4895C612.561 89.4895 622.371 97.4975 622.371 111.111C622.371 124.725 612.561 132.733 599.748 132.733ZM554.303 104.304V149.149H535.083V106.507C535.083 94.0941 531.079 89.0891 520.269 89.0891C514.463 89.0891 508.457 92.0921 504.653 96.4965V148.949H485.434V73.6737H500.649C502.251 73.6737 503.452 75.0751 503.452 76.4765V79.6797C509.057 73.8739 516.465 71.6717 523.872 71.6717C532.281 71.6717 539.288 74.0741 544.893 78.8789C551.7 84.4845 554.303 91.6917 554.303 104.304ZM438.787 71.6717C425.574 71.6717 419.368 79.6797 419.368 79.6797V37.4374H400.148V148.949C400.148 148.949 414.963 148.949 416.365 148.949C417.966 148.949 419.167 147.548 419.167 146.146V142.743C419.167 142.743 425.374 150.951 438.587 150.951C460.409 150.951 477.426 134.134 477.426 111.311C477.626 88.4885 460.609 71.6717 438.787 71.6717ZM435.584 132.733C428.176 132.733 422.371 128.929 419.368 124.525V97.6977C422.371 93.6937 428.777 89.4895 435.584 89.4895C448.397 89.4895 458.207 97.4975 458.207 111.111C458.207 124.725 448.397 132.733 435.584 132.733ZM383.532 71.6717C389.338 71.6717 392.341 72.6727 392.341 72.6727V90.4905C392.341 90.4905 376.325 85.0851 366.315 96.4965V149.149H347.095V73.6737C347.095 73.6737 361.91 73.6737 363.312 73.6737C364.913 73.6737 366.114 75.0751 366.114 76.4765V79.6797C369.718 75.4755 377.526 71.6717 383.532 71.6717ZM183.932 142.142C182.931 139.74 181.93 137.137 180.929 134.935C179.328 131.331 177.726 127.928 176.325 124.725L176.124 124.525C162.311 94.4945 147.496 64.0641 131.88 34.034L131.28 32.8328C129.678 29.8298 128.076 26.6266 126.475 23.4234C124.473 19.8198 122.471 16.016 119.268 12.4124C112.861 4.4044 103.652 0 93.8422 0C83.8322 0 74.8232 4.4044 68.2166 12.012C65.2136 15.6156 63.0114 19.4194 61.0094 23.023C59.4078 26.2262 57.8062 29.4294 56.2046 32.4324L55.604 33.6336C40.1885 63.6637 25.1735 94.0941 11.3597 124.124L11.1595 124.525C9.75811 127.728 8.15651 131.131 6.55491 134.735C5.55391 136.937 4.55291 139.339 3.55191 141.942C0.949305 149.349 0.148505 156.356 1.14951 163.564C3.35171 178.579 13.3617 191.191 27.1755 196.797C32.3807 198.999 37.7861 200 43.3917 200C44.9933 200 46.9953 199.8 48.5969 199.6C55.2036 198.799 62.0104 196.597 68.617 192.793C76.8252 188.188 84.633 181.582 93.4418 171.972C102.251 181.582 110.259 188.188 118.267 192.793C124.873 196.597 131.68 198.799 138.287 199.6C139.888 199.8 141.89 200 143.492 200C149.097 200 154.703 198.999 159.708 196.797C173.722 191.191 183.532 178.378 185.734 163.564C187.336 156.557 186.535 149.55 183.932 142.142ZM93.642 152.553C82.8312 138.939 75.8242 126.126 73.4218 115.315C72.4208 110.711 72.2206 106.707 72.8212 103.103C73.2216 99.8999 74.4228 97.0971 76.0244 94.6947C79.8282 89.2893 86.2346 85.8859 93.642 85.8859C101.049 85.8859 107.656 89.0891 111.26 94.6947C112.861 97.0971 114.062 99.8999 114.463 103.103C115.063 106.707 114.863 110.911 113.862 115.315C111.46 125.926 104.453 138.739 93.642 152.553ZM173.522 161.962C172.12 172.372 165.113 181.381 155.304 185.385C150.499 187.387 145.294 187.988 140.088 187.387C135.083 186.787 130.078 185.185 124.873 182.182C117.666 178.178 110.459 171.972 102.05 162.763C115.264 146.547 123.272 131.732 126.275 118.519C127.676 112.312 127.876 106.707 127.276 101.502C126.475 96.4965 124.673 91.8919 121.87 87.8879C115.664 78.8789 105.254 73.6737 93.642 73.6737C82.0304 73.6737 71.62 79.0791 65.4138 87.8879C62.611 91.8919 60.8092 96.4965 60.0084 101.502C59.2076 106.707 59.4078 112.513 61.0094 118.519C64.0124 131.732 72.2206 146.747 85.2336 162.963C77.0254 172.172 69.618 178.378 62.4108 182.382C57.2056 185.385 52.2006 186.987 47.1955 187.588C41.7901 188.188 36.5849 187.387 31.9803 185.586C22.1705 181.582 15.1635 172.573 13.7621 162.162C13.1615 157.157 13.5619 152.152 15.5639 146.547C16.1645 144.545 17.1655 142.543 18.1665 140.14C19.5679 136.937 21.1695 133.534 22.7711 130.13L22.9713 129.73C36.7851 99.8999 51.6 69.4695 67.0154 39.8398L67.616 38.6386C69.2176 35.6356 70.8192 32.4324 72.4208 29.4294C74.0224 26.2262 75.8242 23.2232 78.0264 20.6206C82.2306 15.8158 87.8362 13.2132 94.0424 13.2132C100.249 13.2132 105.854 15.8158 110.058 20.6206C112.261 23.2232 114.062 26.2262 115.664 29.4294C117.266 32.4324 118.867 35.6356 120.469 38.6386L121.069 39.8398C136.285 69.6697 151.099 100.1 164.913 129.93V130.13C166.515 133.333 167.916 136.937 169.518 140.14C170.519 142.543 171.52 144.545 172.12 146.547C173.722 151.752 174.323 156.757 173.522 161.962Z" fill="black"/>
</g>
<defs>
<clipPath id="clip0_1255_4339">
<rect width="640.841" height="200" fill="white" transform="translate(0.75)"/>
</clipPath>
</defs>
</svg>
