<svg width="826" height="200" viewBox="0 0 826 200" fill="none" xmlns="http://www.w3.org/2000/svg">
<g clip-path="url(#clip0_1255_3957)">
<path d="M773.722 121.167V66.3389H755.375V48.4195H773.722V16.4139H793.35V48.4195H818.95V66.3389H793.35V119.672C793.35 131.408 798.258 136.742 807.431 136.742C811.056 136.742 813.617 136.314 816.392 135.033L823.217 151.889C818.736 153.808 814.042 154.664 807.431 154.664C785.456 154.664 773.722 142.503 773.722 121.167V121.167ZM647.211 100.686C647.211 71.0301 667.694 45.0051 698.417 45.0051C729.564 45.0051 749.619 66.9773 749.619 100.686C749.619 102.18 749.406 104.313 749.406 104.313H666.842C667.908 126.502 683.908 138.447 700.122 138.447C711.642 138.447 723.161 133.755 728.711 120.527L746.206 127.78C740.019 142.713 724.656 156.369 700.55 156.369C668.55 156.369 647.211 132.261 647.211 100.686V100.686ZM697.989 62.9245C683.483 62.9245 671.961 72.7384 668.119 88.0995H728.711C728.072 78.9245 720.389 62.9245 697.989 62.9245V62.9245ZM551.003 138.447H550.15V152.952H531.378V0.199497H551.003V48.4162L550.15 62.9245H551.003C556.978 53.3245 569.994 45.0023 586.633 45.0023C613.086 45.0023 636.342 68.6828 636.342 100.686C636.342 132.688 613.086 156.369 586.633 156.369C569.994 156.369 556.978 148.047 551.003 138.447ZM616.714 100.686C616.714 77.2162 600.928 62.9245 583.433 62.9245C565.939 62.9245 550.15 76.7912 550.15 100.686C550.15 124.58 565.939 138.447 583.433 138.447C600.928 138.447 616.714 124.155 616.714 100.686ZM418.314 121.377C418.314 97.6992 439.647 84.8964 464.183 84.8964C478.264 84.8964 488.503 88.9492 492.558 91.2992V88.3131C492.558 72.5242 479.969 62.9242 465.247 62.9242C454.369 62.9242 443.914 68.2576 440.289 78.0714L422.369 70.3909C425.994 60.7909 438.581 45.002 464.822 45.002C490.425 45.002 511.331 60.3659 511.331 89.8076V152.955H492.558V138.449H491.703C485.944 147.194 475.278 156.369 457.356 156.369C436.019 156.369 418.314 143.141 418.314 121.377V121.377ZM492.558 107.938C492.558 107.938 484.239 101.11 467.594 101.11C446.9 101.11 438.794 112.208 438.794 121.805C438.794 132.902 450.314 138.449 460.556 138.449C476.131 138.449 492.558 125.005 492.558 107.938V107.938ZM329.356 48.4159L328.503 62.9214H329.356C334.903 53.3214 348.131 45.002 362.425 45.002C389.092 45.002 402.319 63.1353 402.319 88.952V152.955H382.692V91.9381C382.692 70.177 371.811 62.9214 356.878 62.9214C339.808 62.9214 329.356 79.1381 329.356 95.1381V152.955H309.728V0.201997H329.356V48.4159V48.4159ZM209.678 138.446H208.825L209.678 152.952V199.038H190.05V48.4159H208.825V62.9242H209.678C215.653 53.3242 228.667 45.002 245.308 45.002C271.761 45.002 295.017 68.6826 295.017 100.685C295.017 132.688 271.761 156.369 245.308 156.369C228.667 156.369 215.653 148.046 209.678 138.446V138.446ZM275.389 100.685C275.389 77.2159 259.6 62.9242 242.108 62.9242C224.611 62.9242 208.825 76.7909 208.825 100.685C208.825 124.58 224.611 138.446 242.108 138.446C259.6 138.446 275.389 124.155 275.389 100.685ZM149.519 152.955H169.147V0.201997H149.519V152.955ZM58.4278 0.199219L0.822266 152.955H22.5862L37.5167 111.566H101.736L116.458 152.955H138.217L80.6139 0.199219H58.4278ZM69.0917 24.3076H69.9473L94.9084 93.2159H44.1334L69.0917 24.3076V24.3076Z" fill="black"/>
</g>
<defs>
<clipPath id="clip0_1255_3957">
<rect width="825" height="200" fill="white" transform="translate(0.75)"/>
</clipPath>
</defs>
</svg>
