<svg width="840" height="200" viewBox="0 0 840 200" fill="none" xmlns="http://www.w3.org/2000/svg">
<g clip-path="url(#clip0_1255_3834)">
<path d="M197.694 186.708H151.188L136.961 152.392H59.4524L46.4904 186.708H0.75L70.6305 13.3918H120.694L197.694 186.708ZM96.2988 54.8063L70.8873 122.147H124.254L96.2988 54.8063ZM366.631 13.3918H404.241V186.708H361.035V78.4495L314.277 132.827H307.672L260.917 78.4495V186.706H217.711V13.3918H255.32L310.972 77.6843L366.631 13.3918ZM513.714 13.3918C576.987 13.3918 609.51 52.7759 609.51 100.297C609.51 150.105 578.003 186.708 508.882 186.708H437.218V13.3918H513.714ZM480.421 154.942H508.624C552.079 154.942 565.041 125.457 565.041 100.04C565.041 70.305 549.029 45.1534 508.115 45.1534H480.42V154.942H480.421ZM695.465 54.4866L640.988 0H839.311V198.33L784.834 143.85V54.4866H695.465ZM695.402 65.4046L639.314 121.49V199.999H717.813L773.897 143.914H695.402V65.4046Z" fill="black"/>
</g>
<defs>
<clipPath id="clip0_1255_3834">
<rect width="838.561" height="200" fill="white" transform="translate(0.75)"/>
</clipPath>
</defs>
</svg>
