<svg width="1078" height="200" viewBox="0 0 1078 200" fill="none" xmlns="http://www.w3.org/2000/svg">
<g clip-path="url(#clip0_1255_4277)">
<path d="M93.3264 0C102.497 0 110.968 0.69869 118.741 2.79476C126.514 4.19214 132.89 7.07424 138.567 10.5677C144.243 14.0611 148.436 19.0393 151.318 25.4148C154.112 31.7904 155.597 39.5633 155.597 48.0349C155.597 57.9039 153.501 66.3755 148.523 72.7511C144.243 79.1266 137.257 84.8035 128.698 88.9956C140.75 92.4891 149.92 98.8646 155.51 107.336C161.099 115.808 164.68 126.376 164.68 138.428C164.68 148.297 162.584 156.769 159.003 163.843C155.51 170.917 149.833 177.293 143.457 181.485C137.082 185.764 129.309 189.258 120.837 191.354C112.366 193.45 103.894 194.847 95.4225 194.847L0.75 195.022V0H93.3264ZM87.6496 79.1266C95.4225 79.1266 101.798 77.0306 106.689 73.4498C111.58 69.869 113.763 63.5808 113.763 55.8079C113.763 51.5284 113.064 47.3362 111.667 44.5415C110.27 41.7467 108.174 39.5633 105.291 37.4672C102.497 36.0699 99.6146 34.6725 96.1212 33.9738C92.6277 33.2751 89.0469 33.2751 84.8548 33.2751H43.8941V79.214C43.8941 79.1266 87.6496 79.1266 87.6496 79.1266ZM89.7456 162.533C94.0251 162.533 98.2173 161.834 101.798 161.135C105.291 160.437 108.872 159.039 111.667 156.856C114.462 154.672 116.645 152.576 118.741 149.083C120.139 145.59 121.536 141.31 121.536 136.332C121.536 126.463 118.741 119.389 113.064 114.41C107.388 110.131 99.6146 108.035 90.4443 108.035H43.8941V162.445H89.7456V162.533Z" fill="black"/>
<path d="M226.166 161.834C231.843 167.51 240.314 170.305 251.581 170.305C259.354 170.305 266.428 168.209 272.105 164.628C277.782 160.349 281.275 156.157 282.672 151.877H317.257C311.581 168.82 303.109 180.873 291.843 188.646C280.576 195.72 267.126 199.912 250.882 199.912C239.616 199.912 229.659 197.816 220.489 194.235C211.319 190.742 204.244 185.764 197.869 178.689C191.493 172.314 186.602 164.541 183.72 155.371C180.227 146.2 178.742 136.331 178.742 124.978C178.742 114.41 180.14 104.454 183.72 95.2833C187.301 86.113 192.192 78.34 198.568 71.2658C204.943 64.8903 212.716 59.2134 221.188 55.72C230.358 52.2265 239.528 50.0431 250.882 50.0431C262.934 50.0431 273.502 52.1392 282.672 57.1173C291.843 62.0955 298.917 67.685 304.594 76.1566C310.271 83.9296 314.463 93.0999 317.345 102.969C318.742 112.838 319.441 122.794 318.742 134.061H216.297C216.297 145.589 220.489 156.157 226.166 161.834ZM270.707 87.5977C265.729 82.6195 257.956 79.8248 248.786 79.8248C242.41 79.8248 237.519 81.2221 233.24 83.3182C228.961 85.4143 226.166 88.2964 223.371 91.0911C220.576 93.8859 219.092 97.4667 218.393 100.96C217.694 104.454 216.995 107.336 216.995 110.13H280.576C279.179 99.6501 275.598 92.5759 270.707 87.5977ZM208.524 13.4492H287.65V32.4885H208.524V13.4492Z" fill="black"/>
<path d="M373.851 0V73.4498H374.55C379.528 64.9782 385.816 59.3013 393.589 55.8079C401.362 52.3144 408.436 50.131 416.209 50.131C426.777 50.131 435.248 51.5284 441.624 54.4105C447.999 57.2052 453.676 61.4847 457.17 66.4629C460.663 71.441 463.545 77.7293 464.943 84.8035C466.34 91.8777 467.039 99.6507 467.039 108.821V195.721H428.174V115.895C428.174 103.843 426.078 95.3712 422.497 89.7817C418.916 84.1921 412.716 81.2227 403.545 81.2227C392.978 81.2227 385.205 84.7162 380.925 90.393C375.947 96.7686 373.851 107.336 373.851 121.485V195.721H334.986V0H373.851Z" fill="black"/>
<path d="M495.423 74.9349C499.702 68.5594 504.593 64.3672 510.969 60.0877C517.344 56.5943 524.419 53.7122 532.191 52.3148C539.964 50.9174 547.737 50.2188 555.51 50.2188C562.584 50.2188 569.659 50.9174 577.432 51.6161C584.506 52.3148 591.58 54.4109 597.257 57.293C603.632 60.0877 607.825 64.3672 612.104 69.3454C615.598 74.3236 617.781 81.3978 617.781 89.8694V164.105C617.781 170.481 618.48 176.856 619.178 182.446C619.877 188.123 621.973 193.014 624.157 195.896H584.593C583.196 194.498 582.497 191.616 581.798 189.52C581.1 187.424 581.1 184.542 581.1 182.446C574.724 188.821 567.65 193.014 559.178 195.896C550.707 198.69 542.235 199.389 533.763 199.389C526.689 199.389 521.012 198.69 514.724 196.594C509.047 195.197 504.157 192.315 499.178 188.821C494.899 185.328 491.405 181.048 488.611 175.372C486.515 169.695 485.117 164.105 485.117 156.332C485.117 148.559 486.515 141.485 489.397 136.507C492.191 131.529 495.772 127.337 499.964 123.756C504.244 120.961 509.833 118.079 515.51 116.682C521.187 115.284 526.777 113.887 533.152 113.188C538.829 112.489 544.419 111.791 550.095 111.092C555.772 110.393 560.663 109.695 564.943 108.996C569.222 107.599 572.715 106.201 575.51 104.018C578.305 101.922 579.004 99.0397 579.004 94.8476C579.004 90.5681 578.305 87.0746 576.908 84.9786C575.51 82.8825 573.414 80.6991 571.231 79.3017C569.135 77.9043 566.253 77.2056 563.458 76.507C560.663 75.8083 557.082 75.8083 553.589 75.8083C545.816 75.8083 540.139 77.2056 535.947 80.7864C531.667 84.2799 528.873 89.9567 528.174 97.031H489.309C489.047 88.2974 491.842 80.5244 495.423 74.9349ZM572.453 130.044C570.357 130.743 567.475 131.441 564.681 132.14C561.886 132.839 559.004 132.839 555.51 133.538C552.715 134.236 549.135 134.236 546.34 134.935C543.545 135.634 540.663 136.332 537.868 137.031C535.074 137.73 532.191 139.127 530.794 140.524C528.698 141.922 527.301 144.018 525.816 146.201C523.72 148.996 523.72 151.878 523.72 155.372C523.72 158.865 524.419 161.747 525.816 163.843C527.213 165.939 528.611 168.123 530.794 169.52C532.89 170.917 535.772 171.616 538.567 172.315C541.362 173.014 544.244 173.014 547.737 173.014C555.51 173.014 561.187 171.616 565.379 169.52C569.659 166.725 572.453 163.843 574.55 160.35C576.646 156.856 578.043 153.276 578.043 149.782C578.742 146.289 578.742 143.407 578.742 141.31V126.463C576.646 127.861 574.55 129.345 572.453 130.044Z" fill="black"/>
<path d="M676.296 53.7122V73.5375H676.994C681.973 65.0659 688.261 59.3891 696.034 55.8956C703.807 52.4022 712.278 50.2188 720.051 50.2188C730.619 50.2188 739.09 51.6161 745.466 54.4982C752.54 57.293 757.518 61.5725 761.012 66.5506C764.505 71.5288 767.387 77.817 769.484 84.8912C770.881 91.9655 771.58 99.7384 771.58 108.909V195.808H732.715V115.983C732.715 103.931 730.619 95.4589 727.038 89.8694C723.545 84.1925 717.169 80.6991 707.213 80.6991C696.645 80.6991 688.872 84.9786 683.894 91.2668C678.916 97.6423 676.82 108.21 676.82 122.358V196.594H637.955V53.7122C638.13 53.7122 676.296 53.7122 676.296 53.7122Z" fill="black"/>
<path d="M858.653 79.1265C852.278 79.1265 847.387 80.5239 843.108 83.406C838.828 86.2007 835.335 89.7815 832.54 94.6723C829.745 98.9518 828.26 103.843 826.863 109.52C825.466 115.196 825.466 120.087 825.466 125.764C825.466 130.742 826.164 136.332 826.863 141.31C828.26 146.987 829.658 151.179 832.54 155.458C835.335 159.738 838.217 163.231 842.409 166.026C846.688 168.821 851.579 170.306 857.955 170.306C867.125 170.306 874.199 167.511 879.876 162.533C884.854 157.554 888.348 150.48 889.046 141.31H926.514C923.719 160.349 916.645 174.498 904.592 184.454C892.54 194.323 876.994 199.301 857.955 199.301C847.387 199.301 837.431 197.205 828.959 193.624C819.789 190.131 812.715 185.153 806.339 178.777C799.963 172.402 795.073 164.629 791.492 156.157C787.998 146.987 786.514 137.816 786.514 127.161C786.514 115.895 787.911 105.939 791.492 96.7684C794.985 87.5981 799.265 79.1265 805.64 72.0523C812.016 64.978 819.789 59.9999 828.26 55.8077C837.431 52.3143 847.3 50.1309 858.653 50.1309C867.125 50.1309 874.898 51.5282 882.671 53.6243C890.444 55.7204 897.518 59.3012 903.195 63.4933C909.57 67.7728 914.461 73.3623 918.042 80.4365C921.536 86.8121 923.719 95.2837 924.418 104.454H886.252C884.767 87.5981 875.597 79.1265 858.653 79.1265Z" fill="black"/>
<path d="M985.116 161.833C990.793 167.51 999.964 170.305 1010.53 170.305C1018.3 170.305 1025.38 168.209 1031.06 164.628C1036.73 160.349 1040.23 156.156 1041.62 151.877H1075.51C1069.83 168.82 1061.36 180.873 1050.09 188.646C1038.83 195.72 1025.38 199.912 1009.13 199.912C997.867 199.912 987.911 197.816 978.741 194.235C969.571 190.742 962.496 185.763 956.121 178.689C949.745 172.314 944.854 164.541 941.972 155.37C938.479 146.2 936.994 136.331 936.994 124.977C936.994 114.41 938.391 104.453 941.972 95.2831C945.466 86.1128 950.444 78.3399 956.819 71.2657C963.195 64.8901 970.968 59.2133 979.44 55.7198C988.61 52.2264 998.479 50.043 1009.13 50.043C1021.19 50.043 1031.75 52.139 1040.23 57.1172C1049.4 62.0954 1056.47 67.6849 1062.15 76.1565C1067.82 83.9294 1072.02 93.0997 1074.9 102.969C1077.69 112.838 1078.39 123.493 1077.69 134.759H975.247C975.247 145.589 979.44 156.157 985.116 161.833ZM1030.36 87.5976C1025.38 82.6194 1017.61 79.8246 1008.44 79.8246C1002.06 79.8246 997.169 81.222 992.889 83.3181C988.61 85.4141 985.116 88.2962 983.02 91.091C980.924 93.8858 978.741 97.4665 978.042 100.96C977.343 104.453 976.645 107.336 976.645 110.13H1040.23C1038.13 99.65 1034.55 92.5757 1030.36 87.5976Z" fill="black"/>
</g>
<defs>
<clipPath id="clip0_1255_4277">
<rect width="1077.21" height="200" fill="white" transform="translate(0.75)"/>
</clipPath>
</defs>
</svg>
