<svg width="612" height="200" viewBox="0 0 612 200" fill="none" xmlns="http://www.w3.org/2000/svg">
<g clip-path="url(#clip0_1255_3929)">
<path d="M235.302 174.466C212.575 159.825 181.73 157.256 131.986 171.057C78.9562 183.519 61.2752 191.507 38.055 175.471C29.1344 167.593 25.9361 154.909 28.3243 136.639C33.8634 106.855 48.8325 78.1923 75.4212 46.3989C90.2628 29.86 104.029 15.6667 122.208 9.9672C136.14 6.39176 134.838 17.341 133.152 18.907C131.373 18.907 128.385 19.1872 126.075 20.6943C124.201 22.148 119.056 26.8419 118.779 33.156C118.381 42.8219 128.384 40.8101 132.699 35.503C137.349 29.5226 144.222 18.0702 138.816 7.39652C136.55 3.59737 132.634 0.971715 127.773 0.0776629C111.128 -0.873651 95.6248 7.06135 81.3177 15.8339C50.0281 37.5698 24.9985 67.6881 10.8357 100.656C2.67013 120.547 -4.71439 149.041 6.35475 172.232C14.9173 188.323 32.6945 196.871 53.9036 195.083C68.7788 193.52 86.7659 188.713 98.8635 185.81C110.961 182.902 172.887 161.615 193.234 198.664C193.234 198.664 200 185.53 216.91 185.249C230.811 183.967 250.866 189.274 265.471 200C260.605 192.683 246.81 181.898 235.302 174.466V174.466Z" fill="black"/>
<path d="M138.302 50.1423C126.719 42.5432 103.44 57.071 84.7951 81.9907C67.7447 104.344 60.3824 130.323 68.3945 142.337C80.3134 156.473 102.439 135.911 111.849 124.905L113.063 123.619C119.462 116.746 124.405 108.476 129.19 100.541C129.19 100.541 133.588 93.2767 133.798 92.9407C136.516 92.4399 139.79 91.6573 143.479 90.5953C143.426 90.7617 129.364 114.398 130.799 126.13C131.245 129.709 130.904 142.784 143.67 146.75C160.683 149.602 174.269 136.413 186.254 124.679C186.254 124.679 188.297 122.725 189.452 121.61C189.159 122.78 188.778 124.342 188.778 124.342C183.797 141.664 190.512 145.298 194.712 146.64C207.405 150.33 222.568 131.889 222.617 131.889C222.224 137.698 221.074 142.503 227.197 146.359C232.977 148.428 238.826 145.274 243.272 142.312C259.286 131.025 272.188 113.36 282.609 98.0905H275.962C275.883 98.0905 259.56 121.75 248.96 126.892C248.943 126.892 247.015 127.882 245.903 127.099C244.527 125.924 245.07 123.484 245.92 121.756C245.973 121.643 286.845 50.7539 286.845 50.7539H267.547C267.547 50.7539 265.439 54.1644 265.268 54.3881C265.138 54.2766 264.829 53.6903 264.614 53.4093C252.658 36.8705 225.582 62.3101 205.197 91.8115C197.349 103.156 187.358 115.928 176.997 125.147C176.997 125.147 161.648 139.217 155.09 129.108C152.693 124.861 153.43 118.651 154.782 114.574C162.418 92.8377 175.575 73.1113 190.547 61.2084C194.774 57.9139 199.368 56.9611 201.648 58.3583C203.82 59.6455 204.17 62.8278 202.796 65.0075C199.309 64.8961 196.516 65.9558 194.244 68.3028C189.77 72.9967 188.216 77.5235 189.638 81.7708C196.548 91.6046 210.33 72.1592 209.664 60.3136C209.426 56.0663 207.16 52.0442 203.778 50.0866C198.738 47.0708 191.05 47.8518 186.074 50.2561C179.413 52.7695 168.87 61.5413 162.715 68.3593C154.967 76.9096 141.679 86.4075 137.524 85.344C138.885 81.7105 150.109 58.7461 138.302 50.1423V50.1423ZM231.342 84.1147C235.096 78.9192 246.022 65.0052 248.686 62.659C257.645 54.7775 261.226 58.2453 261.536 60.7022C253.175 75.6766 243.306 92.8316 234.028 108.254C234.048 108.199 231.125 112.668 231.125 112.668C227.027 118.925 222.901 124.289 216.171 128.032C215.211 128.313 213.629 128.426 212.577 127.641C211.309 126.802 210.809 125.405 210.952 123.952C211.355 119.148 216.247 104.455 231.342 84.1147V84.1147ZM126.357 93.1102C126.357 93.1102 126.189 93.6149 126.106 93.7798C126.085 93.7798 117.693 107.468 117.693 107.468C112.628 114.23 106.303 122.725 98.3983 126.802C96.0551 127.585 92.8164 128.089 91.1657 126.023C87.6666 121.831 89.47 116.02 90.9351 111.327L91.4535 109.651C95.6543 98.2531 102.32 88.1933 108.807 78.8619C108.888 78.8069 109.07 78.7512 109.135 78.7512C109.151 78.8069 109.177 78.8069 109.188 78.9192C113.259 86.7404 120.892 90.3708 126.601 92.0497C126.635 92.0497 126.672 92.1055 126.672 92.2177C126.673 92.3841 126.58 92.6094 126.357 93.1102V93.1102ZM134.308 76.9638C134.272 77.0753 130.57 85.5677 130.57 85.5677C130.035 86.0143 129.189 85.7914 128.22 85.5677L126.558 85.2867C121.341 83.6673 117.406 80.2026 116.193 76.0683C114.519 68.0218 121.393 61.7077 124.422 59.418C127.328 57.4047 131.845 56.3434 134.469 58.4117C136.087 60.312 136.7 62.7697 136.7 65.4534C136.7 69.0846 135.58 73.1632 134.308 76.9638V76.9638Z" fill="black"/>
<path d="M378.274 102.889C376.414 98.8664 371.996 96.2957 367.288 96.5744C352.001 97.9724 337.048 110.544 329.197 128.591C325.077 137.867 322.829 145.521 321.354 157.702C326.108 152.228 335.804 143.232 346.808 138.315C346.808 138.315 348.305 126.637 355.94 116.244C358.829 111.94 364.611 105.012 371.103 106.855C376.775 108.756 374.781 124.457 367.243 139.652C361.664 150.829 353.129 162.007 344.492 169.716C336.856 176.198 325.559 184.02 315.675 177.987C309.449 174.3 306.274 166.588 306.945 156.642C309.919 128.425 322.764 104.398 341.145 77.019C360.098 51.5955 380.99 25.5015 409.135 11.5861C414.875 8.68098 420.192 8.01063 424.787 9.79874C424.787 9.79874 398.367 24.3265 385.773 51.2038C382.57 58.0218 378.114 67.2387 382.601 75.3974C384.946 79.6432 389.109 79.9791 392.461 79.7554C407.898 76.1784 417.871 61.7629 426.02 48.5774C430.745 38.5756 434.944 28.6296 434.944 17.5658C434.944 16.2251 434.874 14.4377 434.761 13.0955C442.136 9.18565 457.259 16.1128 457.259 16.1128C469.077 20.0257 494.241 39.304 502.73 42.9901C506.87 38.1854 513.675 30.9223 517.506 27.2896L511.96 23.8806C503.08 18.4606 493.695 13.3192 484.456 8.2351C463.476 -3.21807 446.399 0.804014 437.708 3.93358C434.292 5.16204 431.17 6.22406 431.17 6.22406C424.72 -0.81612 414.142 -0.1473 406.347 1.7538C378.316 9.7995 352.291 29.4114 324.389 63.4411C303.876 90.0946 291.151 113.116 284.369 135.857C279.141 151.166 277.553 173.684 290.312 187.039C301.161 198.379 315.546 195.923 325.704 191.845C347.713 181.005 367.495 157.647 377.351 130.771C379.73 122.781 382.37 111.495 378.274 102.889V102.889ZM428.883 18.6843C425.97 52.0986 399.997 71.7128 393.57 73.2749C389.676 74.0559 383.03 72.3251 388.962 58.302C397.699 39.4139 412.615 23.379 428.618 15.1646C429.008 16.5618 428.998 17.4535 428.883 18.6843V18.6843Z" fill="black"/>
<path d="M582.955 22.9287C568.984 30.8645 554.501 36.0036 536.969 34.2162C532.11 39.6935 527.38 45.3365 523.02 51.1467C547.626 57.4051 573.713 43.4919 588.262 30.2506C603.652 16.8956 611.544 0.078125 611.544 0.078125C611.544 0.078125 600.008 13.2637 582.955 22.9287Z" fill="black"/>
<path d="M308.579 67.5518L318.92 50.7549H300.594L290.256 67.5518H308.579Z" fill="black"/>
<path d="M536.897 176.021C534.926 177.361 532.158 176.331 533.193 173.258C535.771 165.436 546.022 149.494 546.022 149.494L574.574 98.8543H555.016C554.087 100.381 552.099 103.888 552.099 103.888C551.194 102.381 548.488 99.0291 547.374 98.3053C542.596 95.2857 535.586 96.7134 530.75 99.4506C509.724 111.745 494.383 136.036 482.285 154.979C482.285 154.979 469.549 176.036 462.479 177.602C456.96 178.049 457.529 170.614 457.768 168.882C459.902 156.364 464.858 144.463 469.851 133.679C480.007 126.639 491.596 117.419 502.129 107.306C524.986 85.4565 544.256 60.7032 547.073 55.1717C547.073 55.1717 544.024 55.7871 540.424 55.8978C522.839 80.4273 486.854 116.078 475.945 121.385C480.778 109.761 512.002 54.2769 538.574 27.7363L542.756 23.7119C549.221 17.3978 555.921 10.9165 561.141 9.85451C561.693 9.79878 562.403 9.85451 563.016 11.1418C563.249 16.0579 561.419 19.6906 559.319 23.8249L556.377 29.8604C556.377 29.8604 560.544 29.0778 563.282 28.1814C566.458 22.2056 569.975 15.4983 568.679 7.50982C568.246 4.93914 566.385 2.98383 563.953 2.53642C556.027 1.02776 547.388 6.89292 540.437 11.6441L540.156 11.8106C504.424 39.8049 474.251 80.1479 447.871 135.242C445.959 136.693 438.572 138.427 437.317 137.588C439.922 132.225 443.202 125.015 444.843 117.193C445.127 114.957 445.391 112.667 445.391 110.433C445.391 105.623 444.237 101.099 439.928 97.9709C434.877 95.4559 428.634 96.6302 424.425 98.529C405.568 106.352 391.475 125.687 381.305 141.609C375.835 151.725 370.382 162.56 368.872 174.967C367.808 184.688 369.973 190.946 375.5 194.076C381.184 196.98 388.338 193.962 391.149 192.511C410.252 182.453 423.6 162.283 434.121 143.842C434.54 143.787 440.284 143.621 444.629 142.502C444.687 142.502 444.712 142.502 444.808 142.56C444.559 143.395 442.314 150.102 442.314 150.102C435.645 169.658 432.561 182.958 438.86 190.835C447.861 201.955 462.762 190.445 474.884 175.244C472.282 193.46 481.723 196.31 488.919 194.915C497.185 192.681 506.397 183.85 510.671 179.326C509.299 184.633 509.672 194.133 517.192 195.082C522.346 196.035 526.203 193.231 530.667 190.828C546.676 182.11 565.841 153.062 570.817 144.663H564.292C557.219 155.353 548.219 169.368 536.897 176.021V176.021ZM393.193 174.075C392.178 172.567 391.841 170.917 391.808 169.133C391.613 158.177 403.401 138.556 411.721 127.867C411.739 127.867 411.739 127.867 411.739 127.867C415.226 135.502 423.122 140.41 427.888 142.478C421.968 155.666 401.664 183.909 393.193 174.075V174.075ZM431.229 136.582C430.665 136.976 420.708 133.621 418.784 124.402C417.152 116.465 422.618 110.263 427.906 107.137C430.176 105.348 433.594 104.735 436.103 105.625C438.43 107.192 439.061 109.988 439.061 113C439.061 114.848 438.816 116.746 438.6 118.478C438.6 118.478 438.559 118.814 438.552 118.87C436.893 125.07 434.354 131.162 431.229 136.582V136.582ZM511.088 170.556C511.079 170.556 509.199 172.231 509.199 172.231C506.513 174.633 503.749 177.203 500.412 175.918C499.491 175.582 498.843 174.355 498.687 173.402C498.535 166.529 501.63 160.161 504.631 153.959L505.401 152.338C514.035 137.922 524.07 120.936 538.809 109.148C541.292 107.356 543.987 105.85 546.832 107.024C547.486 107.637 548.248 108.7 548.248 109.761C548.248 110.097 547.95 110.991 547.777 111.269C543.661 117.921 539.741 124.905 535.929 131.609C528.478 144.852 520.75 158.54 511.088 170.556V170.556Z" fill="black"/>
</g>
<defs>
<clipPath id="clip0_1255_3929">
<rect width="610.795" height="200" fill="white" transform="translate(0.75)"/>
</clipPath>
</defs>
</svg>
