<svg width="624" height="200" viewBox="0 0 624 200" fill="none" xmlns="http://www.w3.org/2000/svg">
<path fill-rule="evenodd" clip-rule="evenodd" d="M612.96 105.966C614.271 104.436 616.596 104.506 617.789 106.137H617.78L622.323 112.348C623.184 113.541 623.178 115.188 622.278 116.35C614.393 126.579 600.576 136.424 583.905 137.377C570.746 138.125 559.894 133.14 553.987 123.715C552.817 121.85 550.238 121.741 548.926 123.504C541.917 132.913 533.437 140.271 524.601 140.778C508.862 141.675 504.418 131.119 508.309 107.846C508.7 105.529 506.668 103.571 504.48 104.148C501.217 105.014 497.752 105.396 494.238 105.092C492.775 104.967 491.404 105.857 490.963 107.307C485.138 126.438 471.277 144.234 453.336 145.264C441.883 145.92 424.773 139.358 426.485 111.942C426.627 109.711 424.625 107.955 422.564 108.579C418.973 109.671 415.105 110.186 411.167 109.851C409.707 109.726 408.342 110.615 407.901 112.067C402.077 131.197 388.216 148.994 370.274 150.023C358.821 150.679 341.712 144.118 343.423 116.701C343.565 114.469 341.564 112.714 339.503 113.339C335.911 114.431 332.044 114.954 328.106 114.61C326.646 114.486 325.281 115.375 324.839 116.826C319.012 135.957 305.154 153.753 287.213 154.783C279.065 155.251 268.045 152.059 262.985 140.31C262.01 138.04 259.087 137.696 257.64 139.67C250.556 149.337 241.927 156.967 232.916 157.482C223.68 158.013 218.628 154.307 216.431 147.698C215.652 145.366 212.735 144.811 211.161 146.66C204.857 154.073 197.675 159.503 190.411 159.916C179.211 160.564 172.763 152.262 172.232 142.206C171.617 130.472 176.692 116.732 182.359 101.737C183.146 99.6537 181.722 97.3986 179.571 97.305C176.302 97.1652 172.569 96.8215 169.06 96.1659C167.478 95.8621 165.942 96.8451 165.492 98.4524C158.79 122.381 148.527 145.834 139.869 159.698C138.902 161.25 136.9 161.664 135.446 160.595L128.834 155.727C127.477 154.72 127.11 152.786 128.017 151.327C140.529 131.283 151.639 99.9034 155.469 76.6925C155.709 75.2102 156.916 74.1102 158.363 74.0243L167.156 73.5171C169.173 73.4001 170.762 75.2804 170.395 77.3478L170.357 77.5664C170.027 79.4076 171.257 81.1395 173.034 81.3817C180.92 82.4664 192.705 82.5984 200.703 82.2866C202.952 82.2008 204.542 84.5258 203.724 86.7025C197.307 103.773 188.709 127.429 189.203 136.791C189.428 141.02 191.295 143.329 194.578 143.142C200.861 142.784 210.524 130.152 217.848 116.085C217.983 115.835 218.08 115.563 218.14 115.281C220.608 104.267 224.27 91.9857 227.971 79.5772L228.2 78.8068C228.583 77.5119 229.7 76.6067 231.004 76.5288L241.537 75.928C243.711 75.803 245.338 77.9877 244.678 80.1487C244.136 81.931 243.596 83.7011 243.061 85.4553C233.793 115.833 226.009 141.344 236.492 140.747C243.344 140.356 253.052 128.732 261.403 112.184C261.538 111.91 261.635 111.622 261.695 111.318C262.115 109.156 262.625 106.894 263.247 104.53C268.116 85.0819 273.638 65.8164 279.166 46.5276C280.872 40.5746 282.579 34.6193 284.267 28.6558C284.642 27.3372 285.766 26.4088 287.086 26.3307L297.896 25.7144C300.094 25.5896 301.719 27.7975 301.029 29.9743C296.711 43.5185 292.198 57.9444 287.911 71.8319C287.011 74.7578 290.144 77.1918 292.619 75.5066C296.884 72.5888 301.817 70.6537 306.593 70.3807C318.76 69.6863 327.043 79.6963 327.836 94.7774C327.881 95.5733 327.928 96.4315 327.949 97.305C327.993 98.9754 329.246 100.325 330.845 100.465C336.571 100.972 342.425 99.2715 346.947 95.2379C347.412 94.8242 347.726 94.2625 347.883 93.6537C352.366 76.2469 357.314 58.9695 362.265 41.6705C363.961 35.7479 365.658 29.8227 367.337 23.8887C367.71 22.5702 368.835 21.6417 370.156 21.5637L380.964 20.9474C383.161 20.8226 384.79 23.0305 384.1 25.2072C379.78 38.7515 375.267 53.1773 370.979 67.0648C370.079 69.9907 373.215 72.4247 375.687 70.7396C379.954 67.8217 384.887 65.8869 389.661 65.6136C401.828 64.9195 410.11 74.9292 410.907 90.0109C410.951 90.806 410.995 91.665 411.019 92.5385C411.055 94.208 412.316 95.558 413.912 95.6986C419.639 96.2052 425.493 94.5041 430.015 90.4705C430.479 90.0577 430.793 89.4957 430.953 88.8872C435.436 71.4801 440.381 54.203 445.335 36.9043C447.032 30.9814 448.726 25.0559 450.405 19.1217C450.781 17.8032 451.906 16.8748 453.224 16.7967L464.035 16.1804C466.232 16.0555 467.857 18.2635 467.167 20.4403C462.85 33.9845 458.337 48.4102 454.05 62.2978C453.15 65.2236 456.282 67.6579 458.758 65.9728C463.022 63.0546 467.955 61.1199 472.731 60.8468C484.898 60.1525 493.181 70.1621 493.977 85.2436C494.022 86.0472 494.066 86.8976 494.087 87.7712C494.134 89.4329 495.378 90.7906 496.974 90.9312C502.514 91.4225 508.181 89.8466 512.635 86.094C513.129 85.6803 513.473 85.0952 513.639 84.4553C518.744 64.7789 526.241 39.0012 533.469 14.3313C533.851 13.0284 534.973 12.1233 536.279 12.0453L546.992 11.429C549.166 11.3041 550.792 13.4731 550.14 15.6342C540.191 48.6679 532.08 77.5664 527.606 94.614C521.66 117.739 521.429 124.409 528.19 124.019C533.866 123.692 541.511 115.64 548.722 103.469C549.009 102.993 549.157 102.447 549.181 101.893C550.125 77.5273 565.064 55.362 587.269 54.0902C602.143 53.2398 610.292 64.4748 610.875 75.53C611.986 96.6343 591.125 110.124 570.906 108.875C568.552 108.727 566.841 111.256 567.877 113.455C570.702 119.494 576.648 122.865 586.798 122.279C596.455 121.734 606.581 113.401 612.96 105.966ZM278.749 111.887C273.952 131.119 279.777 138.648 287.311 138.219C299.679 137.509 311.645 114.844 310.724 97.3518C310.318 89.7139 305.85 85.7348 300.633 86.0318C291.943 86.5308 282.588 96.5404 278.749 111.887ZM361.818 107.128C357.021 126.36 362.845 133.889 370.381 133.46H370.372C382.741 132.75 394.712 110.085 393.791 92.593C393.395 84.9549 388.918 80.9758 383.7 81.2722C375.012 81.7717 365.658 91.7817 361.818 107.128ZM444.888 102.369C440.091 121.601 445.916 129.13 453.449 128.701H453.443C465.802 127.991 477.783 105.326 476.862 87.8339C476.462 80.1955 471.988 76.2167 466.771 76.5131C458.083 77.0123 448.726 87.0226 444.888 102.369ZM595.081 77.2309C595.007 72.1908 591.909 68.5395 586.887 68.8282H586.881C577.015 69.3976 569.292 80.0785 566.835 93.0375C566.444 95.0975 567.951 97.0166 569.968 96.9695C582.712 96.6503 595.486 88.2393 595.081 77.2309ZM132.465 86.5873C131.175 47.5379 105.785 21.7681 68.2643 23.11C52.1545 23.8434 33.7202 29.9524 19.8518 40.8752C18.5474 41.905 18.21 43.793 19.0946 45.2286L24.9794 54.8095C25.9839 56.4478 28.1204 56.7833 29.5823 55.5663C40.1375 46.7967 54.5459 41.0469 68.4068 40.4382C94.12 39.3693 113.011 55.8316 114.114 87.6326C115.493 124.661 90.6043 167.018 50.61 169.311C49.2156 169.39 47.7614 169.421 46.3069 169.421C44.2679 169.421 42.7613 167.431 43.2709 165.371C50.9849 134.233 59.9884 100.841 69.1716 69.7659C69.8088 67.6046 68.1894 65.4513 66.0231 65.5763L54.3283 66.2473C53.0165 66.3252 51.8919 67.2381 51.5096 68.5486C42.6861 99.0855 33.8553 132.205 25.909 163.281C25.4516 165.075 23.63 166.105 21.9358 165.527C17.7902 164.116 14.0045 162.508 10.7809 160.628C9.23664 159.723 7.28007 160.363 6.48543 162.016L1.46274 172.518C0.720581 174.071 1.26783 175.974 2.72966 176.809C14.1169 183.269 31.4041 186.959 48.7809 185.969C105.965 182.691 133.979 129.872 132.465 86.6027V86.5873ZM244.844 38.6091C237.887 39.0069 231.717 46.8246 232.152 55.0635C232.437 60.4936 235.923 64.1215 241.335 63.8174C248.292 63.4194 254.634 55.1882 254.222 47.3472C253.937 41.9172 249.866 38.3204 244.844 38.6091Z" fill="black"/>
</svg>
