<svg width="500" height="200" viewBox="0 0 500 200" fill="none" xmlns="http://www.w3.org/2000/svg">
<g clip-path="url(#clip0_1255_3970)">
<path d="M65.3527 43.7295C30.2048 43.7295 0.916016 58.641 0.916016 103.628C0.916016 139.268 20.6106 161.712 66.2603 161.712C119.992 161.712 123.437 126.317 123.437 126.317H97.4009C97.4009 126.317 91.8187 145.376 64.6721 145.376C42.5619 145.376 26.6594 130.44 26.6594 109.505H126.159V96.3679C126.159 75.6566 113.011 43.7295 65.3527 43.7295V43.7295ZM64.4452 60.5193C85.4918 60.5193 99.84 73.4129 99.84 92.7377H27.2352C27.2352 72.2221 45.9633 60.5193 64.4452 60.5193V60.5193Z" fill="black"/>
<path d="M126.141 0.166016V139.119C126.141 147.006 125.578 158.081 125.578 158.081H150.411C150.411 158.081 151.302 150.127 151.302 142.858C151.302 142.858 163.571 162.052 196.931 162.052C232.06 162.052 255.922 137.663 255.922 102.72C255.922 70.2137 234.004 44.0692 196.987 44.0692C162.324 44.0692 151.553 62.7876 151.553 62.7876V0.166016H126.141ZM190.578 61.2561C214.433 61.2561 229.603 78.961 229.603 102.72C229.603 128.198 212.083 144.865 190.748 144.865C165.287 144.865 151.553 124.985 151.553 102.947C151.553 82.4119 163.877 61.2561 190.578 61.2561Z" fill="black"/>
<path d="M317.636 43.7295C264.758 43.7295 261.367 72.6826 261.367 77.3092H287.686C287.686 77.3092 289.067 60.4059 315.821 60.4059C333.206 60.4059 346.678 68.3634 346.678 83.6621V89.1075H315.821C274.856 89.1075 253.199 101.091 253.199 125.41C253.199 149.343 273.209 162.365 300.251 162.365C337.103 162.365 348.975 142.001 348.975 142.001C348.975 150.101 349.6 158.082 349.6 158.082H372.997C372.997 158.082 372.089 148.189 372.089 141.859V87.1505C372.089 51.2787 343.155 43.7295 317.636 43.7295V43.7295ZM346.678 105.444V112.704C346.678 122.174 340.834 145.716 306.433 145.716C287.595 145.716 279.518 136.315 279.518 125.41C279.518 105.571 306.718 105.444 346.678 105.444V105.444Z" fill="black"/>
<path d="M357.918 48.2715H387.527L430.02 133.404L472.416 48.2715H499.238L422.014 199.834H393.88L416.164 157.584L357.918 48.2715Z" fill="black"/>
</g>
<defs>
<clipPath id="clip0_1255_3970">
<rect width="498.653" height="200" fill="white" transform="translate(0.75)"/>
</clipPath>
</defs>
</svg>
