<svg width="1035" height="200" viewBox="0 0 1035 200" fill="none" xmlns="http://www.w3.org/2000/svg">
<g clip-path="url(#clip0_1255_4098)">
<path d="M81.6024 31.3303C69.4361 31.3303 65.9186 36.7264 65.9186 48.6279V68.3714H98.3704L95.1177 100.269H65.9312V197.069H26.9864V100.269H0.75V68.3714H26.9864V49.17C26.9864 16.9955 39.9596 0.000499564 76.1559 0.000499564C83.7406 -0.017151 91.3203 0.432929 98.8495 1.3495V31.3681L81.6024 31.3303Z" fill="black"/>
<path d="M101.068 128.661C101.068 92.7039 118.101 65.6229 153.793 65.6229C173.259 65.6229 185.148 75.6333 190.834 88.0643V68.3713H228.14V197.069H190.834V177.603C185.426 190.047 173.259 199.78 153.793 199.78C118.101 199.78 101.068 172.737 101.068 136.742V128.661ZM140.001 137.322C140.001 156.511 147.023 169.219 165.14 169.219C181.101 169.219 189.208 157.595 189.208 139.213V126.291C189.208 107.909 181.101 96.2845 165.14 96.2845C147.023 96.2845 140.001 108.993 140.001 128.182V137.322Z" fill="black"/>
<path d="M309.258 65.6607C324.387 65.6607 338.722 68.9134 346.564 74.3095L337.915 101.895C329.803 98.0319 320.94 95.9995 311.956 95.9441C290.863 95.9441 281.698 108.11 281.698 128.938V136.503C281.698 157.33 290.889 169.497 311.956 169.497C320.94 169.44 329.803 167.409 337.915 163.546L346.564 191.119C338.722 196.527 324.4 199.78 309.258 199.78C263.555 199.78 242.74 175.17 242.74 135.696V129.745C242.74 90.2706 263.555 65.6607 309.258 65.6607Z" fill="black"/>
<path d="M351.695 137.637V126.291C351.695 89.7916 372.51 65.7742 414.973 65.7742C454.989 65.7742 472.564 90.1068 472.564 125.799V146.349H390.615C391.434 163.924 399.276 171.766 420.873 171.766C435.485 171.766 450.892 168.791 462.251 163.924L469.374 190.589C459.099 196.01 438.007 200.057 419.36 200.057C370.077 200.045 351.695 175.46 351.695 137.637ZM390.628 120.869H437.679V117.629C437.679 103.572 432.006 92.414 414.985 92.414C397.398 92.4266 390.628 103.521 390.628 120.819V120.869Z" fill="black"/>
<path d="M616.883 136.78C616.883 172.737 599.585 199.818 563.931 199.818C544.465 199.818 530.95 190.085 525.541 177.641V197.107H488.777V3.74491L527.71 0.214783V86.1985C533.383 74.8516 545.827 65.6481 563.944 65.6481C599.636 65.6481 616.896 92.6913 616.896 128.686L616.883 136.78ZM577.951 127.854C577.951 109.737 570.928 96.2215 552.269 96.2215C536.308 96.2215 527.659 107.568 527.659 125.963V139.478C527.659 157.86 536.308 169.219 552.269 169.219C570.928 169.219 577.951 155.704 577.951 137.587V127.854Z" fill="black"/>
<path d="M629.906 135.96V129.48C629.906 92.4266 650.999 65.6607 693.991 65.6607C736.982 65.6607 758.087 92.4266 758.087 129.48V135.96C758.087 173.002 736.995 199.78 694.003 199.78C651.011 199.78 629.906 173.002 629.906 135.96ZM719.143 126.77C719.143 109.737 712.108 96.2214 693.928 96.2214C675.747 96.2214 668.775 109.737 668.775 126.77V138.671C668.775 155.704 675.81 169.219 693.928 169.219C712.045 169.219 719.143 155.704 719.143 138.671V126.77Z" fill="black"/>
<path d="M771.035 135.96V129.48C771.035 92.4266 792.128 65.6607 835.119 65.6607C878.111 65.6607 899.204 92.4266 899.204 129.48V135.96C899.204 173.002 878.111 199.78 835.119 199.78C792.128 199.78 771.035 173.002 771.035 135.96ZM860.272 126.77C860.272 109.737 853.237 96.2214 835.119 96.2214C817.002 96.2214 809.98 109.737 809.98 126.77V138.671C809.98 155.704 817.002 169.219 835.119 169.219C853.237 169.219 860.272 155.704 860.272 138.671V126.77Z" fill="black"/>
<path d="M952.736 129.745L991.126 68.3713H1032.49L992.21 131.913L1034.12 197.069H992.752L952.736 134.032V197.069H913.791V3.74491L952.736 0.214783V129.745Z" fill="black"/>
</g>
<defs>
<clipPath id="clip0_1255_4098">
<rect width="1033.37" height="200" fill="white" transform="translate(0.75)"/>
</clipPath>
</defs>
</svg>
