<svg width="741" height="200" viewBox="0 0 741 200" fill="none" xmlns="http://www.w3.org/2000/svg">
<g clip-path="url(#clip0_1255_4220)">
<path d="M143.19 85.6015H81.0435C79.4404 85.6015 78.1399 86.9026 78.1399 88.5069V118.891C78.1399 120.494 79.4404 121.799 81.0435 121.799H105.287V159.549C105.287 159.549 99.8428 161.405 84.7942 161.405C67.0385 161.405 42.2353 154.916 42.2353 100.375C42.2353 45.821 68.0623 38.6433 92.3103 38.6433C113.299 38.6433 122.342 42.3392 128.096 44.1193C129.904 44.6737 131.576 42.8735 131.576 41.2689L138.509 11.9114C138.509 11.1615 138.255 10.2575 137.399 9.64311C135.062 7.97689 120.807 -9.35048e-06 84.7942 -9.35048e-06C43.306 -9.35048e-06 0.75 17.6508 0.75 102.502C0.75 187.356 49.473 200 90.5317 200C124.527 200 145.151 185.472 145.151 185.472C146.001 185.002 146.092 183.815 146.092 183.27V88.5069C146.092 86.9026 144.794 85.6015 143.19 85.6015" fill="black"/>
<path d="M463.464 10.1662C463.464 8.54929 462.182 7.24497 460.579 7.24497H425.587C423.989 7.24497 422.689 8.54929 422.689 10.1662C422.689 10.1739 422.698 77.7889 422.698 77.7889H368.155V10.1662C368.155 8.54929 366.868 7.24497 365.268 7.24497H330.277C328.685 7.24497 327.387 8.54929 327.387 10.1662V193.27C327.387 194.885 328.685 196.2 330.277 196.2H365.268C366.868 196.2 368.155 194.885 368.155 193.27V114.95H422.698C422.698 114.95 422.603 193.264 422.603 193.27C422.603 194.885 423.901 196.2 425.501 196.2H460.576C462.179 196.2 463.461 194.885 463.464 193.27V10.1662Z" fill="black"/>
<path d="M209.221 34.1942C209.221 21.5944 199.119 11.4123 186.656 11.4123C174.205 11.4123 164.096 21.5944 164.096 34.1942C164.096 46.7809 174.205 56.9902 186.656 56.9902C199.119 56.9902 209.221 46.7809 209.221 34.1942Z" fill="black"/>
<path d="M206.719 154.645C206.719 149.954 206.719 70.1244 206.719 70.1244C206.719 68.5194 205.424 67.2076 203.824 67.2076H168.942C167.342 67.2076 165.91 68.8581 165.91 70.4624C165.91 70.4624 165.91 172.168 165.91 191.556C165.91 195.115 168.128 196.173 170.998 196.173C170.998 196.173 185.886 196.173 202.425 196.173C205.873 196.173 206.719 194.481 206.719 191.499C206.719 185.008 206.719 159.581 206.719 154.645" fill="black"/>
<path d="M596.45 67.4835H561.725C560.133 67.4835 558.836 68.796 558.836 70.4111V160.193C558.836 160.193 550.016 166.647 537.494 166.647C524.975 166.647 521.651 160.966 521.651 148.706C521.651 136.432 521.651 70.4111 521.651 70.4111C521.651 68.796 520.358 67.4835 518.764 67.4835H483.522C481.932 67.4835 480.629 68.796 480.629 70.4111C480.629 70.4111 480.629 118.223 480.629 154.635C480.629 191.049 500.924 199.957 528.843 199.957C551.747 199.957 570.214 187.304 570.214 187.304C570.214 187.304 571.093 193.972 571.49 194.763C571.889 195.551 572.925 196.348 574.045 196.348L596.465 196.249C598.056 196.249 599.358 194.934 599.358 193.326L599.348 70.4111C599.348 68.796 598.05 67.4835 596.45 67.4835" fill="black"/>
<path d="M677.658 166.536C665.614 166.169 657.445 160.704 657.445 160.704V102.719C657.445 102.719 665.505 97.7787 675.393 96.8957C687.897 95.7756 699.946 99.5528 699.946 129.382C699.946 160.836 694.508 167.044 677.658 166.536V166.536ZM691.354 63.3701C671.632 63.3701 658.218 72.1693 658.218 72.1693V10.167C658.218 8.55002 656.926 7.24569 655.33 7.24569H620.24C618.644 7.24569 617.348 8.55002 617.348 10.167V193.271C617.348 194.886 618.644 196.201 620.244 196.201C620.247 196.201 644.583 196.201 644.591 196.201C645.687 196.201 646.517 195.636 647.13 194.646C647.735 193.662 648.608 186.204 648.608 186.204C648.608 186.204 662.958 199.802 690.121 199.802C722.01 199.802 740.298 183.626 740.298 127.186C740.298 70.7455 711.09 63.3701 691.354 63.3701Z" fill="black"/>
<path d="M307.287 67.1909H281.039C281.039 67.1909 280.999 32.5216 280.999 32.5139C280.999 31.2019 280.323 30.5459 278.806 30.5459H243.036C241.646 30.5459 240.899 31.1572 240.899 32.4939V68.3279C240.899 68.3279 222.974 72.6554 221.762 73.0048C220.555 73.355 219.666 74.4678 219.666 75.796V98.3141C219.666 99.9333 220.96 101.239 222.56 101.239H240.899C240.899 101.239 240.899 124.791 240.899 155.412C240.899 195.649 269.123 199.603 288.169 199.603C296.871 199.603 307.281 196.807 309 196.173C310.039 195.791 310.643 194.714 310.643 193.547L310.672 168.775C310.672 167.16 309.308 165.853 307.771 165.853C306.242 165.853 302.329 166.475 298.3 166.475C285.408 166.475 281.039 160.48 281.039 152.721C281.039 144.967 281.037 101.239 281.037 101.239H307.287C308.887 101.239 310.182 99.9333 310.182 98.3141V70.1085C310.182 68.492 308.887 67.1909 307.287 67.1909" fill="black"/>
</g>
<defs>
<clipPath id="clip0_1255_4220">
<rect width="739.48" height="200" fill="white" transform="translate(0.75)"/>
</clipPath>
</defs>
</svg>
