<svg width="593" height="200" viewBox="0 0 593 200" fill="none" xmlns="http://www.w3.org/2000/svg">
<path d="M252.38 102.565C252.38 130.326 230.662 150.782 204.01 150.782C177.358 150.782 155.641 130.326 155.641 102.565C155.641 74.6085 177.358 54.3477 204.01 54.3477C230.662 54.3477 252.38 74.6085 252.38 102.565ZM231.206 102.565C231.206 85.2172 218.619 73.3477 204.01 73.3477C189.401 73.3477 176.815 85.2172 176.815 102.565C176.815 119.739 189.401 131.782 204.01 131.782C218.619 131.782 231.206 119.717 231.206 102.565Z" fill="black"/>
<path d="M356.727 102.565C356.727 130.326 335.01 150.782 308.358 150.782C281.706 150.782 259.988 130.326 259.988 102.565C259.988 74.6303 281.706 54.3477 308.358 54.3477C335.01 54.3477 356.727 74.6085 356.727 102.565ZM335.553 102.565C335.553 85.2172 322.967 73.3477 308.358 73.3477C293.749 73.3477 281.162 85.2172 281.162 102.565C281.162 119.739 293.749 131.782 308.358 131.782C322.967 131.782 335.553 119.717 335.553 102.565Z" fill="black"/>
<path d="M456.728 57.2607V143.826C456.728 179.435 435.728 193.978 410.902 193.978C387.532 193.978 373.467 178.348 368.163 165.565L386.597 157.891C389.88 165.739 397.923 175 410.88 175C426.771 175 436.619 165.195 436.619 146.739V139.804H435.88C431.141 145.652 422.01 150.761 410.489 150.761C386.38 150.761 364.293 129.761 364.293 102.739C364.293 75.5216 386.38 54.3477 410.489 54.3477C421.989 54.3477 431.119 59.4564 435.88 65.1303H436.619V57.2824H456.728V57.2607ZM438.119 102.739C438.119 85.7607 426.793 73.3477 412.38 73.3477C397.771 73.3477 385.532 85.7607 385.532 102.739C385.532 119.543 397.771 131.782 412.38 131.782C426.793 131.782 438.119 119.543 438.119 102.739Z" fill="black"/>
<path d="M489.881 6.52148V147.826H469.229V6.52148H489.881Z" fill="black"/>
<path d="M570.358 118.435L586.793 129.391C581.489 137.239 568.706 150.761 546.619 150.761C519.228 150.761 498.771 129.587 498.771 102.544C498.771 73.8696 519.402 54.3262 544.25 54.3262C569.271 54.3262 581.511 74.2392 585.511 85.0001L587.706 90.4783L523.25 117.174C528.185 126.848 535.858 131.783 546.619 131.783C557.402 131.783 564.88 126.478 570.358 118.435ZM519.771 101.087L562.858 83.1957C560.489 77.174 553.358 72.9783 544.967 72.9783C534.206 72.9783 519.228 82.4783 519.771 101.087V101.087Z" fill="black"/>
<path d="M77.468 90.0215V69.565H146.403C147.077 73.1302 147.425 77.3476 147.425 81.9128C147.425 97.2606 143.229 116.239 129.707 129.761C116.555 143.456 99.7506 150.761 77.4897 150.761C36.2289 150.761 1.5332 117.152 1.5332 75.891C1.5332 34.6302 36.2289 1.02148 77.4897 1.02148C100.316 1.02148 116.577 9.97801 128.794 21.6519L114.359 36.0867C105.598 27.8693 93.7289 21.478 77.468 21.478C47.3376 21.478 23.7723 45.7606 23.7723 75.891C23.7723 106.021 47.3376 130.304 77.468 130.304C97.0115 130.304 108.142 122.456 115.272 115.326C121.055 109.543 124.859 101.282 126.359 89.9997L77.468 90.0215V90.0215Z" fill="black"/>
</svg>
