<svg width="938" height="200" viewBox="0 0 938 200" fill="none" xmlns="http://www.w3.org/2000/svg">
<g clip-path="url(#clip0_1255_4239)">
<path d="M140.625 103.125C140.625 142.187 109.062 173.75 70.3125 173.75C31.5625 173.75 0 142.5 0 103.125C0 63.75 31.5625 32.5 70.3125 32.5C109.062 32.5 140.625 64.0625 140.625 103.125Z" fill="black"/>
<path d="M217.812 103.125C217.812 140 202.188 169.687 182.813 169.687C163.438 169.687 147.812 140 147.812 103.125C147.812 66.25 163.438 36.5625 182.813 36.5625C201.875 36.5625 217.812 66.5625 217.812 103.125Z" fill="black"/>
<path d="M249.062 103.125C249.062 135.938 243.438 162.812 236.562 162.812C229.687 162.812 224.062 135.938 224.062 103.125C224.062 70.3125 229.687 43.4375 236.562 43.4375C243.75 43.4375 249.062 70.3125 249.062 103.125Z" fill="black"/>
<path d="M443.125 38.75L443.437 37.1875H403.438L366.25 124.375L329.063 37.1875H285.938V38.75H286.25C293.437 40.3125 297.187 42.8125 297.187 51.5625V155.313C297.187 164.063 293.437 166.563 286.25 168.125H285.938V169.688H315.313V168.125H315C307.813 166.563 304.063 164.063 304.063 155.313V57.5L351.875 169.688H354.688L403.75 54.375V157.812C403.125 164.687 399.375 166.875 392.812 168.438H392.5V170H443.437V168.438H443.125C436.563 166.875 432.813 164.687 432.188 157.812V51.5625C432.188 42.8125 435.938 40.3125 443.125 38.75ZM466.563 107.187C467.5 88.4375 474.063 75 485.313 75C488.75 75 491.563 76.25 494.063 78.4375C498.75 83.125 501.25 92.8125 500.625 107.5H466.563V107.187ZM465.938 112.5H525.625V112.187C525.312 97.8125 521.25 86.875 513.438 79.375C506.563 72.8125 496.25 69.0625 485.625 69.0625H485.313C479.688 69.0625 472.813 70.3125 468.125 72.8125C462.5 75.3125 457.812 79.0625 453.75 84.0625C447.187 92.1875 443.438 103.125 442.188 115.312C442.188 115.625 442.188 115.937 442.188 116.562C442.188 116.875 442.188 117.187 442.188 117.5C442.188 118.125 442.188 118.75 442.188 119.375C442.188 120.313 442.188 121.563 442.188 122.5C442.813 150.313 457.812 172.5 484.375 172.5C507.812 172.5 521.25 155.313 524.687 132.5L523.125 131.875C517.187 144.063 506.562 151.563 494.375 150.625C477.5 150 464.688 133.125 465.938 112.5ZM593.125 150.312C591.25 155 587.188 157.5 581.563 157.5C575.938 157.5 570.938 153.75 567.5 146.875C563.75 139.687 561.562 129.062 561.562 116.875C561.562 91.25 569.375 74.6875 581.875 74.6875C586.875 74.6875 590.938 77.1875 593.125 81.5625V150.312ZM632.5 168.438C625.312 166.562 621.562 164.062 621.562 154.687V30.9375L577.187 44.0625V45.625H577.5C583.75 45 587.812 45.9375 590.312 48.125C592.187 50 593.125 52.5 593.125 56.25V73.125C588.75 70.3125 583.437 69.0625 577.187 69.0625C564.375 69.0625 552.812 74.375 544.375 84.375C535.625 94.6875 530.937 108.437 530.937 124.687C530.937 153.437 545 172.813 566.25 172.813C578.75 172.813 588.438 165.937 593.125 154.687V170H632.812L632.5 168.438ZM670.625 47.8125C670.625 38.75 663.75 31.875 654.688 31.875C645.625 31.875 638.75 38.75 638.75 47.8125C638.75 56.875 645.625 63.75 654.688 63.75C663.75 63.75 670.625 56.875 670.625 47.8125ZM680.937 168.438C673.75 166.562 670 164.062 670 154.687V69.375L630.312 80.9375V82.5H630.625C639.375 83.125 641.563 86.25 641.563 96.25V170H681.25L680.937 168.438ZM783.125 168.438C775.938 166.562 772.188 164.062 772.188 154.687V69.375L734.062 80.625V82.1875H734.375C741.562 82.8125 743.437 85.9375 743.437 96.25V150.312C740.937 155 736.563 157.812 731.25 157.812C722.5 157.812 717.812 151.875 717.812 141.25V69.375L678.125 80.9375V82.5H678.438C687.188 83.125 689.375 86.25 689.375 96.25V141.875C689.375 145 689.687 148.125 690.312 151.25L690.938 154.375C694.375 166.563 703.125 172.813 716.875 172.813C728.437 172.813 738.75 165.625 743.437 154.375V170H783.125V168.438ZM937.5 170V168.438H937.187C929.375 166.562 926.25 163.125 926.25 156.25V98.125C926.25 80 915.938 69.375 899.063 69.375C886.563 69.375 876.25 76.5625 872.188 87.8125C869.063 75.9375 859.687 69.375 846.25 69.375C834.375 69.375 825 75.625 820.938 86.25V69.6875L781.25 80.625V82.1875H781.563C790 82.8125 792.5 85.9375 792.5 95.9375V170.312H829.688V168.75H829.375C823.125 167.187 820.938 164.687 820.938 157.5V90.625C822.5 86.875 825.937 82.1875 832.5 82.1875C840.625 82.1875 845 87.8125 845 99.0625V170H882.187V168.438H881.875C875.625 166.875 873.438 164.375 873.438 157.188V98.125C873.438 95.9375 873.125 93.75 872.812 91.5625C874.687 87.1875 878.125 82.1875 885 82.1875C893.438 82.1875 897.5 87.8125 897.5 99.0625V170H937.5V170Z" fill="black"/>
</g>
<defs>
<clipPath id="clip0_1255_4239">
<rect width="937.5" height="200" fill="white"/>
</clipPath>
</defs>
</svg>
