<svg width="994" height="200" viewBox="0 0 994 200" fill="none" xmlns="http://www.w3.org/2000/svg">
<g clip-path="url(#clip0_1255_4023)">
<path fill-rule="evenodd" clip-rule="evenodd" d="M39.0956 157.56C35.7971 152.22 33.2736 143.393 33.2736 131.895C33.2736 104.021 41.1793 74.9948 54.0903 55.5079C63.2212 41.7173 74.1322 32.7016 86.9804 32.7016C102.854 32.7018 112.802 42.6283 120.54 50.8482C124.406 54.9559 129.784 61.7305 136.034 70.6327L123.232 90.3037C120.429 94.6082 117.224 99.6686 113.791 105.09C105.589 118.04 96.0841 133.049 87.6401 144.733C72.6872 165.414 64.928 167.518 56.4463 167.518C49.8704 167.518 43.4202 164.555 39.0956 157.56ZM11.3678 175.822C4.24738 163.979 0.75 148.44 0.75 130.733C0.75 98.5341 9.58766 64.974 26.3939 39.0578L26.3936 39.0576C41.3046 16.0733 62.8229 0 87.5035 0H87.5039C101.797 8.43011e-05 116.006 4.23049 130.844 16.3456C138.665 22.7287 146.734 31.1009 155.411 42.0855C162.462 32.5616 170.066 23.5545 178.247 16.4188C190.352 5.86387 203.41 0 216.551 0C238.614 0 259.63 12.7853 275.713 36.7644C293.315 63.0262 301.86 96.1047 301.86 130.241C301.86 150.534 297.86 165.445 291.054 177.225C287.933 182.632 283.406 188.037 277.206 192.224C270.342 196.858 261.428 200 250.101 200H250.1C236.697 200 224.823 197.089 211.692 184.702C201.598 175.194 189.797 158.304 180.718 143.12L153.713 98.0105C152.943 96.7242 152.177 95.4565 151.415 94.208C150.646 95.5689 149.869 96.9448 149.085 98.3351L139.598 115.141C120.541 148.932 115.713 156.628 106.185 169.33C89.483 191.571 75.2212 200 56.4463 200C34.1741 200 20.0903 190.356 11.3678 175.822ZM170.188 62.4586C175.199 69.8941 180.436 78.1605 185.954 87.3508L193.692 100.251C212.373 131.372 223.001 147.382 229.221 154.932C237.221 164.628 242.823 167.518 250.1 167.518H250.101C252.408 167.518 254.5 167.253 256.392 166.752C269.641 163.239 273.168 148.128 273.168 131.141H273.169C273.169 103.476 266.719 72.7749 252.509 50.8377C242.425 35.2775 229.357 25.7696 214.98 25.7696C199.431 25.7696 186.918 37.4974 172.855 58.4084C171.969 59.7247 171.08 61.0752 170.188 62.4586ZM402.708 6.32458H365.085V196.482H395.776V50.7434L451.87 151.665H480.666L536.771 50.7434V196.482H567.462V6.32458H530.656L466.677 122.052L402.708 6.32458ZM625.19 114.304C628.362 93.7906 641.619 77.2251 663.629 77.2251C686.164 77.2251 698.352 93.1727 699.891 114.304H625.19ZM664.164 51.4136C622.656 51.4136 594.76 82.8272 594.76 125.989C594.76 167.11 621.546 199.874 666.478 199.874C691.211 199.874 710.75 191.728 726.111 177.602L709.807 157.633C698.52 168.262 686.614 174.073 667.567 174.073C643.692 174.073 628.886 159.037 625.19 136.722H729.368V128.293C729.368 82.4293 704.991 51.4136 664.164 51.4136ZM738.331 79.9476H766.582V147.173C766.582 182.136 782.561 199.602 814.53 199.602C823.033 199.602 830.886 198.534 839.116 196.209V171.351C832.509 172.45 828.038 173.12 820.237 173.12C803.148 173.12 796.195 165.393 796.195 143.644V79.9476H839.116V54.8167H796.195V13.2565H766.582V54.8167H738.331V79.9476ZM925.095 78.3141C944.593 78.3141 957.86 89.3717 963.807 104.387V146.9C958.122 161.361 943.86 172.984 923.881 172.984C898.467 172.984 883.535 154.136 883.535 125.581C883.535 96.2932 899.755 78.3141 925.095 78.3141ZM964.352 196.482H993.42V54.8167H964.352V73.0157C953.996 59.2251 938.666 51.4136 919.127 51.4136C879.598 51.4136 853.242 83.1309 853.242 125.581C853.242 167.633 878.98 199.874 917.493 199.874C941.441 199.874 956.226 188.325 964.352 176.649V196.482Z" fill="black"/>
</g>
<defs>
<clipPath id="clip0_1255_4023">
<rect width="992.67" height="200" fill="white" transform="translate(0.75)"/>
</clipPath>
</defs>
</svg>
