<svg width="939" height="200" viewBox="0 0 939 200" fill="none" xmlns="http://www.w3.org/2000/svg">
<g clip-path="url(#clip0_1255_4397)">
<path d="M390.75 40.0002V160H369.916V65.8336H369.638L332.416 160H318.527L280.472 65.8336H280.194V160H261.027V40.0002H291.027L325.472 128.889H326.027L362.416 40.0002H390.75V40.0002ZM407.972 49.1669C407.972 45.8336 409.083 43.0558 411.583 40.8336C414.083 38.6113 416.861 37.5002 420.194 37.5002C423.805 37.5002 426.861 38.6113 429.083 40.8336C431.305 43.0558 432.694 45.8336 432.694 49.1669C432.694 52.5002 431.583 55.278 429.083 57.5002C426.583 59.7224 423.805 60.8336 420.194 60.8336C416.583 60.8336 413.805 59.7224 411.583 57.5002C409.361 55.0002 407.972 52.2224 407.972 49.1669ZM430.472 73.8891V160H410.194V73.8891H430.472ZM491.861 145.278C494.916 145.278 498.25 144.722 501.861 143.056C505.472 141.667 508.805 139.722 511.861 137.5V156.389C508.527 158.334 504.916 159.722 500.75 160.556C496.583 161.389 492.138 161.945 487.138 161.945C474.361 161.945 464.083 158.056 456.305 150C448.25 141.945 444.361 131.667 444.361 119.445C444.361 105.556 448.527 94.1669 456.583 85.278C464.638 76.3891 476.027 71.9447 491.027 71.9447C494.916 71.9447 498.805 72.5002 502.416 73.3336C506.305 74.1669 509.361 75.5558 511.583 76.6669V96.1113C508.527 93.8891 505.194 91.9447 502.138 90.8336C498.805 89.7224 495.472 88.8891 492.138 88.8891C484.083 88.8891 477.694 91.3891 472.694 96.6669C467.694 101.945 465.472 108.889 465.472 117.778C465.472 126.389 467.972 133.334 472.694 138.056C477.416 142.778 483.805 145.278 491.861 145.278ZM569.361 72.5002C571.027 72.5002 572.416 72.5002 573.805 72.778C575.194 73.0558 576.305 73.3336 577.138 73.6113V94.1669C576.027 93.3336 574.638 92.5002 572.416 91.9447C570.194 91.3891 567.972 90.8336 564.916 90.8336C559.916 90.8336 555.75 93.0558 552.416 97.2224C549.083 101.389 547.138 107.778 547.138 116.667V160H526.861V73.8891H547.138V87.5002H547.416C549.361 82.778 552.138 79.1669 555.75 76.3891C559.638 73.8891 564.083 72.5002 569.361 72.5002ZM578.25 118.334C578.25 104.167 582.416 92.778 590.194 84.4447C598.25 76.1113 609.361 71.9447 623.527 71.9447C636.861 71.9447 647.416 75.8336 654.916 83.8891C662.416 91.9447 666.305 102.778 666.305 116.389C666.305 130.278 662.138 141.389 654.361 149.722C646.305 158.056 635.472 162.222 621.583 162.222C608.25 162.222 597.694 158.334 589.916 150.556C582.138 142.5 578.25 131.667 578.25 118.334ZM599.361 117.5C599.361 126.389 601.305 133.334 605.472 138.056C609.638 142.778 615.472 145.278 622.972 145.278C630.194 145.278 636.027 143.056 639.916 138.056C643.805 133.334 645.75 126.389 645.75 116.945C645.75 107.778 643.805 100.834 639.916 95.8336C636.027 91.1113 630.194 88.6113 623.25 88.6113C615.75 88.6113 610.194 91.1113 606.027 96.1113C601.305 101.389 599.361 108.334 599.361 117.5ZM696.583 96.6669C696.583 99.4447 697.416 101.945 699.361 103.611C701.305 105.278 705.194 107.222 711.583 109.722C719.638 113.056 725.472 116.667 728.527 120.556C731.861 124.722 733.527 129.445 733.527 135.278C733.527 143.334 730.472 149.722 724.083 154.722C717.972 159.722 709.361 161.945 698.805 161.945C695.194 161.945 691.305 161.389 686.861 160.556C682.416 159.722 678.805 158.611 675.75 157.222V137.222C679.361 139.722 683.527 141.945 687.694 143.334C691.861 144.722 695.75 145.556 699.361 145.556C703.805 145.556 707.416 145 709.361 143.611C711.583 142.222 712.694 140.278 712.694 137.222C712.694 134.445 711.583 132.222 709.361 130C707.138 128.056 702.694 125.834 696.583 123.334C689.083 120.278 683.805 116.667 680.75 112.778C677.694 108.889 676.027 103.889 676.027 97.778C676.027 90.0002 679.083 83.6113 685.194 78.6113C691.305 73.6113 699.361 71.1113 709.083 71.1113C712.138 71.1113 715.472 71.3891 719.083 72.2224C722.694 73.0558 726.027 73.8891 728.527 74.7224V94.4447C725.75 92.778 722.694 91.1113 719.083 89.7224C715.472 88.3335 711.861 87.778 708.527 87.778C704.638 87.778 701.583 88.6113 699.638 90.0002C697.694 91.9447 696.583 93.8891 696.583 96.6669ZM742.138 118.334C742.138 104.167 746.305 92.778 754.083 84.4447C762.138 76.1113 773.25 71.9447 787.416 71.9447C800.75 71.9447 811.305 75.8336 818.805 83.8891C826.305 91.9447 830.194 102.778 830.194 116.389C830.194 130.278 826.027 141.389 818.25 149.722C810.194 158.056 799.361 162.222 785.472 162.222C772.138 162.222 761.583 158.334 753.805 150.556C746.305 142.5 742.138 131.667 742.138 118.334ZM763.25 117.5C763.25 126.389 765.194 133.334 769.361 138.056C773.527 142.778 779.361 145.278 786.861 145.278C794.083 145.278 799.916 143.056 803.805 138.056C807.694 133.334 809.638 126.389 809.638 116.945C809.638 107.778 807.694 100.834 803.805 95.8336C799.916 91.1113 794.083 88.6113 787.138 88.6113C779.638 88.6113 774.083 91.1113 769.916 96.1113C765.472 101.389 763.25 108.334 763.25 117.5ZM897.694 90.5558H867.416V160H846.861V90.5558H832.416V73.8891H846.861V61.9447C846.861 53.0558 849.916 45.5558 855.75 39.7224C861.583 33.8891 869.083 31.1113 878.25 31.1113C880.75 31.1113 882.972 31.3891 884.916 31.3891C886.861 31.3891 888.527 31.9447 889.916 32.5002V50.0002C889.361 49.7224 887.972 49.1669 886.305 48.6113C884.638 48.0558 882.694 47.778 880.472 47.778C876.305 47.778 872.972 49.1669 870.75 51.6669C868.527 54.1669 867.416 58.3336 867.416 63.3336V73.6113H897.694V54.1669L917.972 48.0558V73.6113H938.527V90.278H917.972V130.556C917.972 135.834 919.083 139.445 920.75 141.667C922.694 143.889 925.75 145 929.916 145C931.027 145 932.416 144.722 934.083 144.167C935.75 143.611 937.138 143.056 938.25 142.222V158.889C936.861 159.722 934.916 160.278 931.861 160.834C928.805 161.389 926.027 161.667 922.972 161.667C914.361 161.667 907.972 159.445 903.805 155C899.638 150.556 897.416 143.611 897.416 134.445L897.694 90.5558Z" fill="black"/>
<path d="M95.75 0H0.75V95H95.75V0Z" fill="black"/>
<path d="M200.75 0H105.75V95H200.75V0Z" fill="black"/>
<path d="M95.75 105H0.75V200H95.75V105Z" fill="black"/>
<path d="M200.75 105H105.75V200H200.75V105Z" fill="black"/>
</g>
<defs>
<clipPath id="clip0_1255_4397">
<rect width="937.778" height="200" fill="white" transform="translate(0.75)"/>
</clipPath>
</defs>
</svg>
