<svg width="738" height="200" viewBox="0 0 738 200" fill="none" xmlns="http://www.w3.org/2000/svg">
<g clip-path="url(#clip0_1255_3982)">
<path d="M630.068 187.285C640.339 188.278 650.594 189.349 660.833 190.459L683.437 134.644L704.924 195.602C715.953 196.985 726.966 198.431 737.955 199.948L700.289 93.0457L737.971 0.00170898H706.057L705.729 0.455109L685.376 50.7211L667.508 0.00170898H636.001L668.532 92.311L630.068 187.285V187.285Z" fill="black"/>
<path d="M606.234 185.1V0.00512695H574.734V182.506C585.247 183.311 595.752 184.186 606.234 185.1" fill="black"/>
<path d="M369.64 174.747C378.144 174.747 386.632 174.809 395.113 174.88V106.879H432.951V77.9201H395.113V28.9906H438.688V0.000488281H363.488V174.771C365.536 174.771 367.584 174.745 369.64 174.745" fill="black"/>
<path d="M271.846 176.516C282.335 176.141 292.84 175.829 303.361 175.571V28.9937H332.797V0.00317383H242.402V28.9937H271.846V176.516Z" fill="black"/>
<path d="M30.9675 196.037V85.7587L68.2586 191.582C79.7249 190.292 91.2148 189.081 102.728 187.94V0.00732422H72.5105V114.233L32.2649 0.00732422H30.9675H0.75V200H0.937581C10.9267 198.617 20.9393 197.304 30.9675 196.037" fill="black"/>
<path d="M212.037 28.9913V0.000732422H136.83V155.778V184.775V184.801C161.787 182.643 186.83 180.838 211.975 179.368V179.343V170.988V150.353C197.437 151.197 182.93 152.174 168.454 153.253V106.887H206.292V77.9127H168.454V28.9913H212.037V28.9913Z" fill="black"/>
<path d="M501.115 148.969V0H469.482V147.601V176.591V176.623C494.643 177.545 519.709 178.835 544.69 180.453V180.415V171.051V151.425C530.191 150.487 515.668 149.674 501.115 148.97" fill="black"/>
</g>
<defs>
<clipPath id="clip0_1255_3982">
<rect width="737.221" height="200" fill="white" transform="translate(0.75)"/>
</clipPath>
</defs>
</svg>
