<svg width="986" height="200" viewBox="0 0 986 200" fill="none" xmlns="http://www.w3.org/2000/svg">
<g clip-path="url(#clip0_1255_4459)">
<path d="M655.547 0.0820312H827.117V31.7493H759.057V198.347H725.024V31.7493H655.547V0.0820312Z" fill="black"/>
<path d="M373.378 0.0820312V31.7493H235.853V82.6924H346.45V114.36H235.853V166.68H373.378V198.347H201.823V31.7493H201.809V0.0820312H373.378Z" fill="black"/>
<path d="M459.051 0.166016H414.516L574.031 198.431H618.696L538.928 99.3666L618.568 0.317279L574.031 0.386104L516.631 71.6749L459.051 0.166016Z" fill="black"/>
<path d="M504.749 141.788L482.447 114.059L414.387 198.583H459.049L504.749 141.788Z" fill="black"/>
<path fill-rule="evenodd" clip-rule="evenodd" d="M203.017 198.347L43.2878 0H0.75V198.265H34.7802V42.379L160.267 198.347H203.017Z" fill="black"/>
<path d="M834.768 197.134C832.275 197.134 830.155 196.271 828.38 194.544C826.605 192.817 825.728 190.727 825.75 188.25C825.728 185.842 826.605 183.774 828.38 182.047C830.155 180.321 832.275 179.457 834.768 179.457C837.165 179.457 839.263 180.321 841.038 182.047C842.838 183.774 843.735 185.842 843.76 188.25C843.735 189.886 843.32 191.386 842.49 192.726C841.638 194.09 840.555 195.158 839.193 195.93C837.855 196.725 836.38 197.134 834.768 197.134Z" fill="black"/>
<path d="M892.851 113.613H907.931V171.712C907.908 177.051 906.753 181.618 904.496 185.458C902.213 189.298 899.053 192.229 894.996 194.296C890.961 196.341 886.233 197.387 880.861 197.387C875.948 197.387 871.546 196.5 867.626 194.774C863.706 193.047 860.593 190.457 858.311 187.048C856.003 183.64 854.873 179.391 854.873 174.302H869.978C870.001 176.529 870.508 178.46 871.476 180.073C872.443 181.686 873.781 182.913 875.488 183.776C877.216 184.64 879.201 185.072 881.436 185.072C883.858 185.072 885.933 184.572 887.616 183.549C889.298 182.549 890.591 181.05 891.491 179.05C892.366 177.074 892.828 174.62 892.851 171.712V113.613Z" fill="black"/>
<path d="M969.977 136.334C969.61 132.813 967.995 130.064 965.182 128.11C962.345 126.133 958.68 125.156 954.182 125.156C951.025 125.156 948.305 125.633 946.045 126.565C943.785 127.519 942.032 128.791 940.832 130.404C939.635 132.018 939.035 133.858 938.987 135.926C938.987 137.653 939.402 139.152 940.21 140.402C941.017 141.674 942.1 142.742 943.507 143.605C944.89 144.491 946.435 145.218 948.12 145.809C949.825 146.4 951.532 146.9 953.237 147.309L961.1 149.24C964.26 149.967 967.327 150.945 970.255 152.194C973.182 153.421 975.835 154.989 978.162 156.875C980.492 158.761 982.337 161.033 983.697 163.691C985.057 166.349 985.75 169.462 985.75 173.052C985.75 177.892 984.505 182.14 981.99 185.821C979.477 189.479 975.857 192.342 971.107 194.41C966.38 196.455 960.662 197.5 953.93 197.5C947.427 197.5 941.755 196.5 936.982 194.501C932.187 192.524 928.45 189.616 925.752 185.798C923.055 181.981 921.602 177.323 921.395 171.848H936.337C936.545 174.71 937.467 177.096 939.035 179.028C940.625 180.936 942.7 182.345 945.237 183.299C947.797 184.231 950.655 184.708 953.815 184.708C957.112 184.708 960.017 184.208 962.53 183.231C965.02 182.254 966.98 180.891 968.387 179.119C969.817 177.369 970.532 175.301 970.555 172.938C970.532 170.78 969.885 168.985 968.64 167.576C967.372 166.168 965.62 164.986 963.382 164.032C961.125 163.078 958.495 162.214 955.497 161.464L945.952 159.056C939.057 157.306 933.592 154.648 929.602 151.081C925.592 147.514 923.607 142.788 923.607 136.857C923.607 131.995 924.945 127.723 927.645 124.065C930.317 120.407 933.985 117.567 938.62 115.545C943.277 113.5 948.535 112.5 954.39 112.5C960.34 112.5 965.55 113.5 970.047 115.545C974.542 117.567 978.072 120.384 980.63 123.974C983.19 127.564 984.527 131.677 984.597 136.334H969.977Z" fill="black"/>
</g>
<defs>
<clipPath id="clip0_1255_4459">
<rect width="985" height="200" fill="white" transform="translate(0.75)"/>
</clipPath>
</defs>
</svg>
