<svg width="813" height="200" viewBox="0 0 813 200" fill="none" xmlns="http://www.w3.org/2000/svg">
<g clip-path="url(#clip0_1255_3868)">
<path fill-rule="evenodd" clip-rule="evenodd" d="M0.810547 100.166C0.810547 154.884 43.3596 199.971 107.003 200H706.511C770.155 199.971 812.689 154.884 812.689 100.166C812.689 45.4765 770.054 -0.17251 706.612 0.000490257H106.917C43.4462 -0.172535 0.810547 45.4765 0.810547 100.166ZM25.8701 100.036C25.8701 58.381 56.7834 24.6705 107.191 24.584H706.295C756.702 24.6705 787.63 58.381 787.63 100.036C787.63 141.706 756.904 175.647 706.295 175.474H107.191C56.6248 175.647 25.8701 141.706 25.8701 100.036Z" fill="black"/>
<path d="M81.3385 52.7437H110.695L151.283 118.406L151.268 52.7437H180.364V146.911H151.297L110.507 81.2491V146.911H81.3379V52.7437H81.3385Z" fill="black"/>
<path d="M338.609 62.4326H366.956V75.1065H382.283V84.4209H366.956L366.985 146.911H338.609L338.623 84.4209H323.238V75.1353L338.623 75.1066L338.609 62.4327L338.609 62.4326Z" fill="black"/>
<path d="M196.57 84.291H224.888V146.925H196.57V84.291Z" fill="black"/>
<path d="M196.498 52.7148H224.888V71.978H196.498V52.7148Z" fill="black"/>
<path d="M692.756 80.0376C669.903 80.0376 651.375 95.7538 651.375 115.176C651.375 134.583 669.903 150.328 692.756 150.328C715.624 150.328 734.123 134.583 734.123 115.176C734.123 95.7538 715.624 80.0376 692.756 80.0376ZM704.132 115.089C704.132 115.089 704.104 124.548 704.104 128.354C704.104 138.332 698.221 142.441 692.526 142.441C686.845 142.441 680.919 138.332 680.919 128.354C680.919 124.548 680.933 114.844 680.933 114.844C680.933 114.844 680.949 105.602 680.949 101.81C680.949 91.8608 686.903 87.7803 692.527 87.7803C698.179 87.7803 704.105 91.8608 704.105 101.81C704.105 105.602 704.091 112.623 704.134 115.118V115.089L704.132 115.089Z" fill="black"/>
<path d="M614.406 115.291V104.088C614.406 94.3988 607.716 91.9477 603.318 91.9477C598.805 91.9477 592.216 94.3988 592.216 104.088V115.234V126.379C592.216 136.083 598.806 138.577 603.318 138.577C607.716 138.577 614.406 136.083 614.406 126.379V115.291V115.291ZM614.219 52.7437H642.148V146.897H614.161C614.161 146.897 614.147 143.854 614.147 143.292C603.319 150.069 591.092 150.069 581.547 145.657C578.995 144.446 562.197 136.386 562.197 114.585C562.197 98.0611 577.769 80.0091 598.186 81.8114C604.905 82.4026 609.678 84.8537 614.219 87.4202V52.7437H614.219Z" fill="black"/>
<path d="M291.171 81.4074C301.768 81.1046 323.223 88.0255 323.079 112.811C323.05 117.237 323.065 146.896 323.065 146.896H294.949V105.775C294.949 100.31 289.729 94.2543 282.001 94.2543C274.287 94.2543 268.563 100.31 268.563 105.775C268.563 108.442 268.591 146.896 268.591 146.896H240.49L240.461 84.2911L268.592 84.2623C268.592 84.2623 268.563 89.2944 268.592 90.8516C274.013 85.6898 281.828 81.667 291.171 81.4075" fill="black"/>
<path d="M521.263 81.4074C531.846 81.1046 553.329 88.0255 553.185 112.811C553.156 117.237 553.185 146.896 553.185 146.896H525.04V105.775C525.04 100.31 519.821 94.2543 512.092 94.2543C504.378 94.2543 498.669 100.31 498.669 105.775C498.669 108.442 498.697 146.896 498.697 146.896H470.596V84.2911L498.697 84.2623C498.697 84.2623 498.669 89.2944 498.697 90.8516C504.104 85.6898 511.905 81.667 521.262 81.4075" fill="black"/>
<path d="M432.184 124.995C432.184 124.995 432.198 125.283 432.198 128.801C432.198 140.25 424.672 142.802 420.49 142.802C416.324 142.802 408.638 140.25 408.638 128.801C408.638 125.37 408.667 115.882 408.667 115.882C408.667 115.882 462.001 115.911 462.001 115.854C462.001 96.4463 443.257 80.3696 420.231 80.3696C397.204 80.3696 378.547 96.0858 378.547 115.522C378.547 134.958 397.204 150.66 420.231 150.66C439.335 150.66 455.484 139.76 460.401 124.966L432.184 124.995H432.184ZM408.668 106.107C408.61 100.628 408.725 96.9653 410.528 93.8365C412.734 89.9723 416.8 88.1412 420.491 88.1123C424.168 88.1411 428.234 89.9723 430.425 93.8365C432.228 96.9653 432.329 100.628 432.285 106.107H408.668V106.107Z" fill="black"/>
<path d="M739.962 63.0815C742.716 63.0815 745.181 62.9085 745.181 59.5923C745.181 56.9392 742.773 56.4634 740.51 56.4634H736.098V63.0815H739.962V63.0815ZM736.098 75.1354H732.854V53.7095H740.986C746.061 53.7095 748.57 55.5695 748.57 59.8085C748.57 63.6439 746.162 65.302 743.019 65.7057L749.103 75.1354H745.47L739.803 65.8355H736.098V75.1354V75.1354Z" fill="black"/>
<path d="M740.006 79.9226C748.426 79.9226 755.059 73.3333 755.059 64.3794C755.059 55.5697 748.426 48.9516 740.006 48.9516C731.513 48.9516 724.866 55.5697 724.866 64.3794C724.866 73.3333 731.513 79.9226 740.006 79.9226ZM721.146 64.3794C721.146 53.7097 729.783 45.8516 740.006 45.8516C750.142 45.8516 758.793 53.7097 758.793 64.3794C758.793 75.1356 750.142 83.0226 740.006 83.0226C729.783 83.0226 721.146 75.1356 721.146 64.3794Z" fill="black"/>
</g>
<defs>
<clipPath id="clip0_1255_3868">
<rect width="812" height="200" fill="white" transform="translate(0.75)"/>
</clipPath>
</defs>
</svg>
