<svg width="273" height="200" viewBox="0 0 273 200" fill="none" xmlns="http://www.w3.org/2000/svg">
<g clip-path="url(#clip0_1255_4345)">
<path d="M270.477 193.673C270.477 196.587 268.337 198.543 265.804 198.543V198.525C263.199 198.543 261.098 196.587 261.098 193.673C261.098 190.761 263.199 188.81 265.804 188.81C268.338 188.809 270.477 190.76 270.477 193.673ZM272.373 193.673C272.373 189.673 269.266 187.352 265.804 187.352C262.318 187.352 259.211 189.673 259.211 193.673C259.211 197.67 262.319 200.001 265.804 200.001C269.267 200.001 272.373 197.67 272.373 193.673ZM264.714 194.207H265.418L267.048 197.069H268.837L267.032 194.087C267.965 194.02 268.732 193.576 268.732 192.32C268.732 190.76 267.657 190.258 265.834 190.258H263.198V197.069H264.714V194.207M264.714 193.054V191.414H265.768C266.342 191.414 267.123 191.461 267.123 192.16C267.123 192.921 266.719 193.054 266.043 193.054H264.714" fill="black"/>
<path d="M228.134 158.83L236.325 181.237H219.69L228.134 158.83ZM219.362 150.106L200.487 197.929H213.816L216.801 189.479H239.139L241.964 197.929H256.433L237.418 150.1L219.362 150.106ZM181.468 197.947H194.99V150.091L181.465 150.088L181.468 197.947ZM87.5927 150.088L76.3108 188.018L65.5034 150.091L50.9129 150.088L66.3481 197.947H85.8291L101.389 150.088H87.5927V150.088ZM142.252 160.509H148.064C156.495 160.509 161.949 164.294 161.949 174.118C161.949 183.944 156.495 187.73 148.064 187.73H142.252V160.509ZM128.843 150.088V197.947H150.766C162.446 197.947 166.26 196.006 170.383 191.65C173.296 188.592 175.181 181.88 175.181 174.544C175.181 167.815 173.586 161.817 170.806 158.079C165.797 151.395 158.582 150.088 147.814 150.088H128.843V150.088ZM0.75 150.021V197.947H14.3868V161.557L24.9531 161.56C28.4518 161.56 30.9457 162.432 32.6305 164.232C34.7674 166.508 35.64 170.182 35.64 176.902V197.947H48.854V171.468C48.854 152.57 36.8085 150.021 25.0227 150.021H0.75V150.021ZM107.08 150.088L107.085 197.947H120.602V150.088H107.08V150.088Z" fill="black"/>
<path d="M37.0909 54.7961C37.0909 54.7961 54.4829 29.1354 89.209 26.4807V17.171C50.7455 20.2601 17.4375 52.8369 17.4375 52.8369C17.4375 52.8369 36.3026 107.373 89.209 112.366V102.47C50.3838 97.586 37.0909 54.7961 37.0909 54.7961ZM89.209 82.7907V91.8531C59.8658 86.6217 51.7208 56.1192 51.7208 56.1192C51.7208 56.1192 65.8097 40.5116 89.209 37.9806V47.9247C89.1913 47.9247 89.1789 47.9193 89.1642 47.9193C76.883 46.4455 67.2889 57.9184 67.2889 57.9184C67.2889 57.9184 72.6664 77.2324 89.209 82.7907ZM89.209 0V17.171C90.3382 17.0845 91.4673 17.011 92.6026 16.9724C136.332 15.4986 164.824 52.8369 164.824 52.8369C164.824 52.8369 132.099 92.629 98.0063 92.629C94.8817 92.629 91.9565 92.3392 89.209 91.8523V102.47C91.5585 102.769 93.9945 102.944 96.5364 102.944C128.262 102.944 151.206 86.7415 173.422 67.565C177.105 70.5149 192.185 77.6915 195.285 80.8331C174.161 98.5181 124.932 112.774 97.0225 112.774C94.3322 112.774 91.7486 112.611 89.209 112.366V127.286H209.797V0H89.209ZM89.209 37.9806V26.4814C90.3266 26.4034 91.4526 26.3431 92.6026 26.3068C124.048 25.3191 144.678 53.3292 144.678 53.3292C144.678 53.3292 122.396 84.2761 98.504 84.2761C95.0656 84.2761 91.9828 83.7236 89.2083 82.7907V47.9247C101.45 49.4039 103.914 54.8115 111.274 67.0804L127.643 53.2782C127.643 53.2782 115.694 37.6073 95.551 37.6073C93.3615 37.6065 91.2663 37.7603 89.209 37.9806Z" fill="black"/>
</g>
<defs>
<clipPath id="clip0_1255_4345">
<rect width="271.623" height="200" fill="white" transform="translate(0.75)"/>
</clipPath>
</defs>
</svg>
