<svg width="986" height="200" viewBox="0 0 986 200" fill="none" xmlns="http://www.w3.org/2000/svg">
<g clip-path="url(#clip0_1255_4079)">
<path d="M459.314 56.9476C447.585 56.9476 436.122 61.3461 427.725 69.7433C419.328 78.1405 415.062 89.7367 415.062 101.333C415.062 113.062 419.194 124.525 427.458 133.056C435.722 141.586 447.185 145.985 458.915 145.985C470.644 145.985 482.107 141.586 490.504 133.189C498.901 124.792 503.166 113.196 503.166 101.599C503.166 89.87 499.034 78.4071 490.771 69.8767C482.373 61.4795 471.044 56.9476 459.314 56.9476ZM482.773 106.664C482.507 108.264 481.974 109.863 481.44 111.463C480.907 112.929 480.107 114.395 479.308 115.728C478.508 117.061 477.575 118.26 476.509 119.327C475.442 120.393 474.243 121.326 473.043 122.259C471.71 123.059 470.377 123.859 468.911 124.392C467.445 125.058 465.846 125.458 464.246 125.725C462.647 125.991 460.914 126.125 459.314 126.125C457.582 126.125 455.982 125.991 454.383 125.591C452.783 125.325 451.184 124.792 449.718 124.259C448.251 123.725 446.919 122.926 445.586 122.126C444.386 121.326 443.186 120.26 442.12 119.194C441.054 118.127 440.121 116.928 439.321 115.595C438.521 114.262 437.722 112.796 437.188 111.329C436.522 109.73 436.122 108.131 435.856 106.531C435.589 104.798 435.456 103.066 435.456 101.333C435.456 99.6 435.589 97.8673 435.989 96.1345C436.255 94.535 436.789 92.9356 437.322 91.3361C437.855 89.87 438.655 88.4038 439.454 87.0709C440.254 85.738 441.187 84.5384 442.253 83.4721C443.32 82.4057 444.519 81.4728 445.719 80.5398C447.052 79.74 448.385 78.9403 449.851 78.4071C451.317 77.7407 452.917 77.3408 454.516 77.0742C456.115 76.8076 457.848 76.6744 459.448 76.6744C461.18 76.6744 462.78 76.8077 464.379 77.2075C465.979 77.4741 467.578 78.0073 469.045 78.5404C470.511 79.0736 471.844 79.8733 473.176 80.673C474.376 81.4728 475.576 82.5391 476.642 83.6054C477.708 84.6717 478.641 85.8713 479.441 87.2042C480.241 88.5371 481.041 90.0032 481.574 91.4694C482.24 93.0689 482.64 94.6684 482.907 96.2678C483.173 98.0006 483.306 99.7333 483.306 101.466C483.173 103.332 483.04 104.932 482.773 106.664Z" fill="black"/>
<path d="M294.035 22.6924C282.439 13.3622 268.977 6.83105 254.449 3.36554C246.185 1.36621 237.787 0.433193 229.257 0.166615C222.992 -0.0999626 216.595 0.0333182 210.33 0.0333182H120.626C114.362 0.0333182 107.964 0.0333263 101.699 0.166615C93.169 0.433193 84.9051 1.36621 76.5079 3.36554C61.9794 6.83105 48.6505 13.3622 37.0544 22.6924C13.5955 41.4862 0 69.8767 0 100C0 130.123 13.5955 158.514 37.0544 177.308C48.6505 186.638 62.1126 193.169 76.6411 196.634C84.905 198.634 93.3023 199.567 101.833 199.833C108.097 200.1 114.495 199.967 120.76 199.967H210.463C216.728 199.967 223.126 199.967 229.39 199.833C237.921 199.567 246.185 198.634 254.582 196.634C269.11 193.169 282.439 186.638 294.035 177.308C317.494 158.514 331.09 130.123 331.09 100C331.09 69.8767 317.494 41.4862 294.035 22.6924ZM250.183 126.924C245.785 129.99 240.853 131.856 235.655 132.656C230.457 133.455 225.125 133.322 219.927 133.322H111.296C105.965 133.322 100.766 133.455 95.5682 132.656C90.2366 131.856 85.4382 129.99 81.0397 126.924C72.2426 120.793 66.911 110.796 66.911 100C66.911 89.2036 72.2426 79.2069 81.0397 73.0756C85.4382 70.01 90.3699 68.1439 95.5682 67.3442C100.766 66.5445 106.098 66.6778 111.296 66.6778H219.927C225.258 66.6778 230.457 66.5445 235.655 67.3442C240.986 68.1439 245.785 70.01 250.183 73.0756C258.98 79.2069 264.312 89.2036 264.312 100C264.445 110.796 259.114 120.793 250.183 126.924Z" fill="black"/>
<path d="M818.661 98.9337C818.661 101.333 818.66 103.732 818.527 105.998C818.394 107.464 818.261 109.064 817.994 110.53C817.461 113.329 816.528 115.995 815.062 118.394C811.33 124.259 804.665 127.191 798.001 127.324C791.203 127.457 784.672 124.658 781.073 118.527C779.607 115.995 778.674 113.329 778.141 110.53C777.474 106.798 777.208 102.799 777.208 99.0669C777.208 96.5344 777.074 94.1353 777.074 91.6028V78.807V58.5471H756.814V93.0689C756.814 96.4011 756.814 99.7334 756.948 103.066C757.081 105.465 757.081 107.997 757.348 110.396C757.881 116.128 758.947 121.726 761.48 127.058C766.811 137.854 777.208 144.119 788.804 145.451C794.535 146.118 800.4 145.585 805.865 143.985C811.196 142.386 816.794 139.72 820.66 135.588C820.793 138.254 821.06 141.186 821.193 143.852H838.92V58.5471H818.661V98.9337Z" fill="black"/>
<path d="M927.424 110.53C924.492 102.266 917.294 97.2009 909.697 94.2685C905.432 92.5357 901.033 91.6027 896.635 90.5364C894.635 90.1366 892.769 89.7367 890.77 89.2035C889.17 88.8037 887.438 88.2705 885.838 87.6041C884.105 86.8043 882.373 85.8713 881.173 84.4051C880.107 83.2055 879.574 81.606 879.84 80.0066C880.107 78.1405 881.173 76.5411 882.639 75.3415C883.706 74.5417 884.772 73.8753 885.972 73.4754C887.571 72.8089 889.17 72.5424 890.77 72.2758C894.102 71.876 897.434 72.1425 900.633 72.8089C905.565 73.8753 910.097 75.7413 914.362 78.4071C917.694 73.742 921.16 69.2102 924.492 64.5451C917.694 59.6134 910.097 56.5477 901.833 55.2148C897.168 54.5484 892.503 54.4151 887.971 55.0815C884.372 55.6147 880.906 56.4144 877.574 57.8806C873.176 59.7467 869.177 62.4125 866.111 66.2778C863.846 68.9436 862.246 72.1425 861.313 75.4747C860.113 79.6067 860.113 84.0053 861.446 88.2705C862.646 92.1359 864.912 95.3348 867.844 98.0006C874.109 103.465 883.039 105.465 890.637 107.064C893.302 107.597 895.968 108.131 898.634 108.93C900.767 109.597 903.032 110.263 904.898 111.463C906.365 112.396 907.831 113.595 908.764 115.062C909.564 116.394 909.963 117.861 909.83 119.327C909.697 120.793 909.164 121.993 908.231 123.192C907.164 124.525 905.831 125.458 904.365 126.258C902.366 127.191 900.233 127.724 898.101 127.991C895.168 128.39 891.969 128.257 889.037 127.857C885.705 127.457 882.639 126.658 879.44 125.591C874.642 123.859 870.51 121.326 866.511 118.261C862.912 123.059 859.314 127.857 855.715 132.656C862.113 137.987 869.444 141.853 877.441 144.252C881.84 145.451 886.371 146.251 891.036 146.384C894.768 146.518 898.367 146.251 902.099 145.718C906.765 144.918 911.43 143.452 915.562 140.92C918.627 139.054 921.16 136.788 923.426 133.989C926.225 130.39 927.958 126.125 928.624 121.593C929.024 117.861 928.757 114.129 927.424 110.53V110.53Z" fill="black"/>
<path d="M568.744 125.325C564.079 126.391 559.014 126.258 554.349 124.792C549.684 123.326 545.685 120.393 542.753 116.395C539.954 112.396 538.488 107.597 538.221 102.799C537.955 98.0007 538.888 92.9357 541.154 88.6705C543.553 84.1387 547.018 81.073 551.683 79.0737C553.683 78.2739 555.682 77.6075 557.815 77.3409C560.614 76.9411 563.146 76.8078 565.945 77.2077C570.877 77.7408 575.409 79.6069 579.541 82.2726C583.673 77.0744 587.671 71.8761 591.803 66.8111C584.739 61.2129 576.742 58.014 567.945 57.081C559.281 56.148 550.35 57.4809 542.353 61.213C534.356 65.0783 527.958 71.0764 523.693 78.9404C519.561 86.6712 517.828 95.6015 518.228 104.265C518.628 112.929 521.294 121.593 526.358 128.79C531.423 136.121 538.621 141.32 547.018 144.119C555.282 146.918 564.346 147.451 572.876 145.585C581.407 143.719 589.404 139.587 595.535 133.189C590.87 128.391 586.338 123.592 581.673 118.794C577.808 121.993 573.41 124.259 568.744 125.325V125.325Z" fill="black"/>
<path d="M734.955 13.3623H713.629V143.985H734.955V13.3623Z" fill="black"/>
<path d="M669.91 98.9337C669.91 101.333 669.91 103.732 669.777 105.998C669.644 107.464 669.511 109.064 669.244 110.53C668.711 113.329 667.778 115.995 666.312 118.394C662.58 124.259 655.915 127.191 649.251 127.324C642.453 127.457 635.922 124.658 632.323 118.527C630.857 115.995 629.924 113.329 629.391 110.53C628.724 106.798 628.458 102.799 628.458 99.0669C628.458 96.5344 628.324 94.1353 628.324 91.6028V78.807V58.5471H608.064V93.0689C608.064 96.4011 608.064 99.7334 608.198 103.066C608.331 105.465 608.331 107.997 608.597 110.396C609.131 116.128 610.197 121.726 612.73 127.058C618.061 137.854 628.458 144.119 640.054 145.451C645.785 146.118 651.65 145.585 657.115 143.985C662.446 142.386 668.044 139.72 671.91 135.588C672.043 138.254 672.31 141.186 672.443 143.852H689.637V58.5471H669.91V98.9337Z" fill="black"/>
</g>
<defs>
<clipPath id="clip0_1255_4079">
<rect width="986" height="200" fill="white"/>
</clipPath>
</defs>
</svg>
