<svg width="1053" height="200" viewBox="0 0 1053 200" fill="none" xmlns="http://www.w3.org/2000/svg">
<g clip-path="url(#clip0_1255_4233)">
<path d="M736.691 41.4353C720.515 41.4353 708.962 46.9647 703.291 57.4235L700.244 63.0588V44.1647H673.891V159.282H701.609V90.8C701.609 74.4353 710.491 65.0471 725.997 65.0471C740.773 65.0471 749.244 74.1765 749.244 90.1176V159.282H776.962V85.1647C776.962 57.8 761.903 41.4353 736.691 41.4353V41.4353ZM602.315 41.4353C569.621 41.4353 549.303 61.8235 549.303 94.6706V110.835C549.303 142.4 569.797 162.024 602.773 162.024C624.821 162.024 640.279 153.929 650.009 137.318L632.82 127.447C625.632 137.035 614.162 142.965 602.773 142.965C586.079 142.965 576.103 132.659 576.103 115.388V110.812H653.503V91.7059C653.503 61.1176 633.409 41.4353 602.315 41.4353V41.4353ZM628.291 92.1882H576.103V89.4353C576.103 70.4706 585.409 60.0235 602.315 60.0235C618.585 60.0235 628.291 70.3294 628.291 87.6V92.1882ZM1052.1 25.2118V3.18824H956.279V25.2118H989.879V137.271H956.279V159.282H1052.1V137.271H1018.5V25.2118H1052.1V25.2118ZM325.456 0C282.644 0 256.044 26.6824 256.044 69.6235V92.8471C256.044 135.8 282.632 162.471 325.456 162.471C368.279 162.471 394.868 135.8 394.868 92.8471V69.6235C394.856 26.6824 368.256 0 325.456 0ZM366.232 94.4353C366.232 122.953 351.373 139.318 325.456 139.318C299.538 139.318 284.668 122.953 284.668 94.4353V68.0353C284.668 39.5177 299.526 23.1529 325.444 23.1529C351.362 23.1529 366.221 39.5177 366.221 68.0353L366.232 94.4353ZM481.891 41.4941C467.35 41.4941 454.75 47.5059 448.197 57.6L445.209 62.1882V44.1647H418.868V198.894H446.573V142.859L449.55 147.259C455.785 156.494 467.962 162.024 482.115 162.024C506.009 162.024 530.115 146.4 530.115 111.518V91.9176C530.115 66.8 515.256 41.4353 481.879 41.4353L481.891 41.4941ZM502.409 110.2C502.409 128.753 491.585 140.282 474.173 140.282C457.938 140.282 446.597 128.106 446.597 110.659V93.3647C446.597 75.6471 458.032 63.2824 474.397 63.2824C491.691 63.2824 502.432 74.8118 502.432 93.3647L502.409 110.2V110.2ZM853.55 3.24706L797.609 159.282H825.726L836.432 125.824H900.726L900.832 126.153L911.42 159.282H939.573L883.585 3.18824L853.55 3.24706ZM843.35 103.859L868.573 24.8588L893.55 103.765L843.35 103.859V103.859ZM184.053 81.3906C186.277 74.6936 187.047 67.5991 186.31 60.5811C185.573 53.5631 183.347 46.7832 179.781 40.6941C168.931 21.8106 147.126 12.0965 125.832 16.66C119.936 10.1012 112.417 5.20943 104.032 2.4759C95.6468 -0.257639 86.6898 -0.736671 78.0608 1.08691C69.4318 2.9105 61.4345 6.97249 54.8721 12.8649C48.3097 18.7574 43.4133 26.2728 40.6747 34.6565C33.7603 36.0745 27.2283 38.952 21.5151 43.0967C15.8019 47.2414 11.0392 52.5578 7.54524 58.6906C-3.42182 77.5435 -0.932406 101.326 13.7005 117.5C11.4685 124.194 10.6917 131.287 11.4221 138.306C12.1525 145.324 14.3733 152.106 17.9358 158.196C28.797 177.087 50.6158 186.8 71.9229 182.231C76.6076 187.506 82.3638 191.721 88.8071 194.594C95.2505 197.467 102.233 198.933 109.288 198.893C131.113 198.913 150.452 184.822 157.118 164.039C164.032 162.618 170.563 159.74 176.276 155.596C181.988 151.451 186.752 146.136 190.248 140.005C201.083 121.185 198.583 97.5306 184.053 81.3906V81.3906ZM109.286 185.876C100.574 185.891 92.1351 182.837 85.4488 177.252L86.6252 176.585L126.224 153.727C127.21 153.149 128.028 152.325 128.598 151.335C129.169 150.345 129.472 149.224 129.478 148.081V92.2506L146.219 101.935C146.302 101.977 146.373 102.038 146.428 102.113C146.483 102.188 146.519 102.274 146.533 102.366V148.631C146.49 169.184 129.839 185.834 109.286 185.878V185.876ZM29.2264 151.688C24.8573 144.144 23.2885 135.301 24.7958 126.714L25.9723 127.42L65.6099 150.276C66.5907 150.852 67.7074 151.156 68.8446 151.156C69.9819 151.156 71.0985 150.852 72.0794 150.276L120.499 122.362V141.692C120.495 141.792 120.468 141.889 120.42 141.977C120.373 142.065 120.306 142.141 120.225 142.2L80.117 165.333C62.2935 175.6 39.5229 169.495 29.2264 151.688V151.688ZM18.797 65.4353C23.1965 57.8421 30.1408 52.0505 38.4005 49.0859V96.1329C38.3856 97.2698 38.6761 98.3898 39.2416 99.376C39.8072 100.362 40.6271 101.179 41.6158 101.74L89.8005 129.538L73.0594 139.222C72.9688 139.27 72.8678 139.296 72.7652 139.296C72.6627 139.296 72.5617 139.27 72.4711 139.222L32.4417 116.128C14.6535 105.819 8.55348 83.0647 18.797 65.2388V65.4353V65.4353ZM156.335 97.3882L107.993 69.3165L124.695 59.6718C124.785 59.6237 124.886 59.5985 124.989 59.5985C125.091 59.5985 125.192 59.6237 125.283 59.6718L165.313 82.8035C171.434 86.3355 176.423 91.5355 179.699 97.7964C182.974 104.057 184.402 111.121 183.814 118.163C183.226 125.204 180.647 131.934 176.378 137.565C172.11 143.196 166.327 147.496 159.706 149.965V102.915C159.672 101.781 159.343 100.674 158.752 99.7052C158.161 98.736 157.328 97.9371 156.335 97.3871V97.3882ZM172.997 72.3353L171.821 71.6294L132.262 48.5765C131.275 47.9974 130.152 47.6922 129.008 47.6922C127.864 47.6922 126.74 47.9974 125.753 48.5765L77.3723 76.4894V57.16C77.3623 57.062 77.3789 56.9631 77.4203 56.8737C77.4617 56.7842 77.5264 56.7076 77.6076 56.6518L117.637 33.5576C123.772 30.0232 130.787 28.3088 137.861 28.6148C144.935 28.9209 151.775 31.2348 157.582 35.2859C163.389 39.337 167.923 44.9578 170.653 51.4909C173.382 58.024 174.196 65.1994 172.997 72.1777V72.3341V72.3353ZM68.237 106.601L51.4958 96.9565C51.4122 96.9059 51.3407 96.8375 51.2864 96.7561C51.2321 96.6748 51.1964 96.5826 51.1817 96.4859V50.3388C51.1911 43.2598 53.2155 36.3297 57.0183 30.3588C60.821 24.3879 66.245 19.6229 72.656 16.6209C79.067 13.619 86.2001 12.5041 93.2214 13.4066C100.243 14.3092 106.862 17.1919 112.305 21.7176L111.129 22.3847L71.5299 45.2424C70.5445 45.8204 69.7263 46.6449 69.1558 47.6347C68.5853 48.6245 68.282 49.7458 68.2758 50.8882L68.237 106.601V106.601ZM77.3335 86.9976L98.897 74.5694L120.499 86.9976V111.854L98.9746 124.284L77.3735 111.854L77.3346 86.9976H77.3335Z" fill="black"/>
</g>
<defs>
<clipPath id="clip0_1255_4233">
<rect width="1051.76" height="200" fill="white" transform="translate(0.75)"/>
</clipPath>
</defs>
</svg>
