<svg width="1208" height="201" viewBox="0 0 1208 201" fill="none" xmlns="http://www.w3.org/2000/svg">
<g clip-path="url(#clip0_1255_4427)">
<path d="M0.75 19.1369C0.75 10.648 7.03183 4.87548 16.879 4.87548H63.9928C106.692 4.87548 135.725 28.3899 135.725 62.94C135.725 96.8958 106.947 122.108 63.9928 122.108H57.4563C40.9877 122.108 32.4987 130.597 32.4987 144.264V182.974C32.4987 193.925 26.2169 200.801 16.6244 200.801C7.03183 200.801 0.75 193.925 0.75 182.974V19.1369ZM32.4987 68.2032C32.4987 85.4358 41.2424 93.67 57.9656 93.67H62.0403C85.5547 93.67 102.872 84.0775 102.872 63.0249C102.872 41.9723 85.6396 32.3797 62.0403 32.3797H58.0505C41.3272 32.3797 32.5836 40.614 32.5836 57.8466V68.2032H32.4987ZM135.809 185.69C135.809 194.689 142.091 200.716 151.684 200.716C157.966 200.716 163.738 196.641 167.049 188.152L172.821 172.787C177.49 160.478 185.725 154.706 194.723 154.706H246.76C255.758 154.706 263.993 160.478 268.662 172.787L274.434 188.152C277.745 196.641 283.432 200.716 289.799 200.716C299.392 200.716 305.674 194.689 305.674 185.69C305.674 183.229 305.164 180.173 304.061 177.201L241.921 15.5716C238.101 5.72438 229.358 0.800781 220.869 0.800781C212.38 0.800781 203.636 5.72438 199.816 15.5716L137.677 177.201C136.319 180.257 135.809 183.229 135.809 185.69ZM196.336 112.261C196.336 109.29 197.185 106.488 198.543 102.414L210.343 69.8161C212.55 63.5342 216.37 60.4782 220.784 60.4782C225.198 60.4782 229.018 63.4493 231.225 69.8161L243.025 102.414C244.383 106.488 245.232 109.29 245.232 112.261C245.232 120.495 240.563 126.268 228.254 126.268H213.483C201.005 126.268 196.336 120.495 196.336 112.261ZM295.232 19.7312C295.232 10.9875 301.514 4.96037 311.701 4.96037H437.677C447.779 4.96037 454.146 10.9875 454.146 19.7312C454.146 28.4748 447.864 34.502 437.677 34.502H416.624C399.901 34.502 390.903 42.9909 390.903 62.4307V182.719C390.903 193.925 384.621 200.801 374.774 200.801C364.927 200.801 358.645 193.925 358.645 182.719V62.4307C358.645 42.9909 349.646 34.502 332.923 34.502H311.871C301.514 34.502 295.232 28.4748 295.232 19.7312ZM483.687 182.974C483.687 193.925 489.969 200.801 499.561 200.801C509.154 200.801 515.436 193.925 515.436 182.974V139.426C515.436 127.117 522.567 121.853 531.31 121.853H533.517C539.29 121.853 545.062 125.419 548.543 130.597L590.139 191.718C593.959 197.49 598.882 200.716 605.164 200.716C613.399 200.716 619.935 193.84 619.935 185.69C619.935 182.38 618.831 178.814 616.37 175.249L588.696 136.37C585.385 131.701 584.027 127.881 584.027 124.57C584.027 117.694 590.054 112.77 597.185 107.592C610.088 97.9994 624.01 85.4358 624.01 61.3271C624.01 27.6259 597.694 4.87548 554.4 4.87548H499.307C489.46 4.87548 483.432 10.648 483.432 19.1369V182.974H483.687ZM515.436 65.7414V57.5071C515.436 39.6802 524.774 32.2948 538.95 32.2948H552.618C576.132 32.2948 591.242 41.0385 591.242 61.3271C591.242 81.6157 575.368 90.8687 551.769 90.8687H538.865C524.774 90.9536 515.436 83.5682 515.436 65.7414ZM664.757 182.38V19.1369C664.757 10.648 670.784 4.87548 680.631 4.87548H784.196C794.044 4.87548 800.071 10.648 800.071 19.1369C800.071 27.6259 794.044 33.3984 784.196 33.3984H718.747C705.843 33.3984 696.59 41.0385 696.59 55.5546V61.5818C696.59 76.0979 705.928 83.738 718.747 83.738H769.426C779.273 83.738 785.3 89.5105 785.3 97.9994C785.3 106.488 779.273 112.261 769.426 112.261H720.699C707.796 112.261 696.59 120.24 696.59 136.37V144.01C696.59 160.139 707.796 168.118 720.699 168.118H784.281C794.129 168.118 800.156 173.891 800.156 182.38C800.156 190.869 794.129 196.641 784.281 196.641H680.716C670.784 196.641 664.757 190.869 664.757 182.38ZM818.916 100.801C818.916 41.6327 863.314 0.800781 915.351 0.800781C967.388 0.800781 1011.79 41.6327 1011.79 100.801C1011.79 159.969 967.388 200.801 915.351 200.801C863.314 200.801 818.916 159.969 818.916 100.801ZM855.079 100.801C855.079 142.397 879.697 168.967 915.351 168.967C950.92 168.967 975.623 142.397 975.623 100.801C975.623 58.8653 951.005 32.6344 915.351 32.6344C879.782 32.5495 855.079 58.8653 855.079 100.801ZM1049.82 182.974C1049.82 193.925 1056.1 200.801 1065.69 200.801C1075.28 200.801 1081.56 193.925 1081.56 182.974V99.1879C1081.56 89.086 1087.59 84.1624 1093.87 84.1624C1098.8 84.1624 1102.87 86.8789 1105.93 91.8025L1158.47 179.748C1165.61 191.802 1172.14 200.801 1185.55 200.801C1198.46 200.801 1207.71 191.463 1207.71 176.437V18.6276C1207.71 7.67684 1201.43 0.800781 1191.84 0.800781C1182.24 0.800781 1175.96 7.67684 1175.96 18.6276V102.414C1175.96 112.516 1169.94 117.439 1163.65 117.439C1158.73 117.439 1154.57 114.723 1151.6 109.799L1099.05 21.8534C1091.92 9.79908 1085.38 0.800781 1071.97 0.800781C1059.07 0.800781 1049.82 10.1386 1049.82 25.1641V182.974Z" fill="black"/>
</g>
<defs>
<clipPath id="clip0_1255_4427">
<rect width="1206.96" height="200" fill="white" transform="translate(0.75 0.800781)"/>
</clipPath>
</defs>
</svg>
