<svg width="597" height="200" viewBox="0 0 597 200" fill="none" xmlns="http://www.w3.org/2000/svg">
<g clip-path="url(#clip0_1255_4322)">
<path d="M596.744 -0.00012207V149.363H562.759V-0.00012207H596.744ZM550.248 50.4093V149.636H520.038V141.083C516.217 144.813 511.849 147.634 507.027 149.636C502.158 151.729 496.881 152.821 491.239 152.821C484.142 152.821 477.545 151.501 471.494 148.862C465.443 146.087 460.166 142.311 455.707 137.579C451.203 132.802 447.654 127.252 445.016 120.928C442.513 114.468 441.285 107.507 441.285 100.091C441.285 92.675 442.513 85.8051 445.016 79.4812C447.654 73.0207 451.203 67.3793 455.707 62.6022C460.155 57.8615 465.528 54.0833 471.494 51.5012C477.545 48.7259 484.142 47.3156 491.239 47.3156C496.881 47.3156 502.158 48.362 507.027 50.5003C511.895 52.5021 516.262 55.3228 520.038 59.0535V50.5003H550.248V50.4093ZM496.699 122.611C502.886 122.611 507.936 120.519 511.894 116.242C515.989 112.011 518.036 106.597 518.036 99.9999C518.036 93.403 515.989 87.9435 511.894 83.7578C507.936 79.5267 502.841 77.3884 496.699 77.3884C490.557 77.3884 485.37 79.4812 481.276 83.7578C477.318 87.989 475.361 93.403 475.361 99.9999C475.361 106.597 477.363 112.056 481.276 116.242C485.37 120.473 490.511 122.611 496.699 122.611ZM392.786 -0.00012207C401.749 -0.00012207 409.392 1.27376 415.716 3.77604C422.04 6.27832 427.363 9.7815 431.731 14.2856C436.189 18.9262 439.693 24.2037 442.195 30.1637C444.697 36.1236 445.926 42.5386 445.926 49.4085C445.926 56.2783 444.697 62.6933 442.195 68.6532C439.739 74.5582 436.188 79.9456 431.731 84.5313C427.409 89.0354 422.04 92.5386 415.716 95.0409C409.392 97.5431 401.749 98.817 392.786 98.817H376.408V149.59H341.831V-0.00012207H392.786ZM387.827 68.0617C392.468 68.0617 395.971 67.6068 398.519 66.6514C401.158 65.605 403.341 64.2401 405.025 62.6932C408.573 59.372 410.348 54.9589 410.348 49.4084C410.348 43.8579 408.573 39.4448 405.025 36.1236C403.296 34.5312 401.158 33.2574 398.519 32.3474C396.017 31.301 392.468 30.7551 387.827 30.7551H376.362V68.0617H387.827ZM214.442 50.4093H251.976L277.454 97.9981H277.864L300.566 50.4093H335.325L260.848 200H226.271L260.257 131.574L214.442 50.4093ZM207.754 50.4093V149.636H177.545V141.083C173.723 144.813 169.356 147.634 164.533 149.636C159.665 151.729 154.388 152.821 148.746 152.821C141.649 152.821 135.052 151.501 129.001 148.862C122.95 146.087 117.672 142.311 113.214 137.579C108.755 132.802 105.161 127.252 102.522 120.928C100.02 114.468 98.7917 107.507 98.7917 100.091C98.7917 92.675 100.02 85.8051 102.522 79.4812C105.161 73.0207 108.71 67.3793 113.214 62.6022C117.653 57.8516 123.029 54.0719 129.001 51.5012C135.052 48.7259 141.649 47.3156 148.746 47.3156C154.388 47.3156 159.665 48.362 164.533 50.5003C169.401 52.5021 173.769 55.3228 177.545 59.0535V50.5003H207.754V50.4093ZM154.206 122.611C160.393 122.611 165.443 120.519 169.447 116.242C173.542 112.011 175.589 106.597 175.589 99.9999C175.589 93.403 173.542 87.9435 169.447 83.7578C165.489 79.5267 160.393 77.3884 154.206 77.3884C148.018 77.3884 142.877 79.4812 138.783 83.7578C134.824 87.989 132.868 93.403 132.868 99.9999C132.868 106.597 134.87 112.056 138.783 116.242C142.877 120.473 148.018 122.611 154.206 122.611ZM51.7034 -0.00012207C60.6661 -0.00012207 68.3095 1.27376 74.6334 3.77604C80.9573 6.27832 86.2803 9.7815 90.648 14.2856C95.1066 18.9262 98.6097 24.2037 101.112 30.1637C103.614 36.1236 104.843 42.5386 104.843 49.4085C104.843 56.2783 103.614 62.6933 101.112 68.6532C98.6561 74.5582 95.1057 79.9456 90.648 84.5313C86.3258 89.0354 80.9573 92.5386 74.6334 95.0409C68.3095 97.5431 60.6661 98.817 51.7034 98.817H35.3249V149.59H0.748047V-0.00012207H51.7034ZM46.7899 68.0617C51.4305 68.0617 54.9337 67.6068 57.4814 66.6514C60.1202 65.605 62.304 64.2401 63.9873 62.6932C67.536 59.372 69.3104 54.9589 69.3104 49.4084C69.3104 43.8579 67.536 39.4448 63.9873 36.1236C62.2585 34.5312 60.1202 33.2574 57.4814 32.3474C54.9791 31.301 51.4305 30.7551 46.7899 30.7551H35.3249V68.0617H46.7899Z" fill="black"/>
</g>
<defs>
<clipPath id="clip0_1255_4322">
<rect width="595.996" height="200" fill="white" transform="translate(0.75)"/>
</clipPath>
</defs>
</svg>
