<svg width="692" height="200" viewBox="0 0 692 200" fill="none" xmlns="http://www.w3.org/2000/svg">
<path d="M97.2268 62.1294L81.107 100.462C79.0803 99.4423 74.2485 98.3015 69.685 98.3015C65.1216 98.3015 60.5447 99.4423 56.102 101.603C47.3375 106.046 40.8681 114.931 40.8681 127.749V197.946H0.75V61.3509H39.7273V80.5174H40.4923C49.6327 68.3303 63.5914 59.3242 81.7513 59.3242C88.3549 59.3242 94.7035 60.5993 97.2402 62.116L97.2268 62.1294Z" fill="black"/>
<path d="M89.4688 130.045C89.4688 90.5707 116.514 59.3379 157.008 59.3379C193.69 59.3379 219.97 86.1281 219.97 123.83C219.97 130.434 219.339 136.648 217.943 142.621H126.03C130.218 156.969 142.66 168.136 161.316 168.136C171.597 168.136 186.201 164.458 194.066 158.365L206.508 188.323C194.952 196.188 177.315 200 161.826 200C118.541 200 89.4688 172.069 89.4688 130.058V130.045ZM125.265 117.482H183.02C183.02 99.9661 171.087 90.6915 156.484 90.6915C139.975 90.6915 128.808 101.349 125.252 117.482H125.265Z" fill="black"/>
<path d="M564.19 0C577.653 0 588.685 11.0462 588.685 24.495C588.685 37.9438 577.639 48.99 564.19 48.99C550.742 48.99 539.695 37.9438 539.695 24.495C539.695 11.0462 550.742 0 564.19 0ZM584.243 197.96H544.125V61.365H584.243V197.96Z" fill="black"/>
<path d="M331.276 2.46875L331.156 74.3163H330.391C319.344 63.7801 307.412 59.4582 291.803 59.4582C253.335 59.4582 227.82 90.436 227.82 129.655C227.82 168.874 251.684 199.986 290.528 199.986C306.781 199.986 322.136 194.402 332.042 181.705H333.182V197.959H371.395V2.46875H331.276ZM333.182 165.397H331.854L322.901 156.096C317.076 161.908 309.103 165.397 299.789 165.397C280.139 165.397 266.395 149.855 266.395 129.695C266.395 109.535 280.139 93.9928 299.789 93.9928C319.438 93.9928 333.182 109.535 333.182 129.695V165.397Z" fill="black"/>
<path d="M484.489 2.46875L484.369 74.3163H483.604C472.557 63.7801 460.625 59.4582 445.015 59.4582C406.548 59.4582 381.033 90.436 381.033 129.655C381.033 168.874 404.897 199.986 443.74 199.986C459.994 199.986 475.349 194.402 485.254 181.705H486.395V197.959H524.607V2.46875H484.489ZM486.207 165.397H484.879L475.926 156.096C470.101 161.908 462.128 165.397 452.814 165.397C433.164 165.397 419.42 149.855 419.42 129.695C419.42 109.535 433.164 93.9928 452.814 93.9928C472.463 93.9928 486.207 109.535 486.207 129.695V165.397Z" fill="black"/>
<path d="M662.049 61.3633H691.376V95.5087H662.049V197.958H621.931V95.5087H592.738V61.3633H621.931V24.2383H662.049V61.3633Z" fill="black"/>
</svg>
