<svg width="1349" height="200" viewBox="0 0 1349 200" fill="none" xmlns="http://www.w3.org/2000/svg">
<g clip-path="url(#clip0_1255_3811)">
<path d="M826.877 113.678C824.782 113.31 817.756 112.142 815.698 111.764C804.598 109.768 795.093 107.173 795.093 96.0053C795.093 86.4163 805.145 81.9426 817.656 81.9426C836.272 81.9426 852.598 90.3784 854.461 91.3095L864.666 64.3895C860.74 62.3521 844.129 53.4784 817.972 53.4784C794.014 53.4784 764.751 66.059 764.751 97.3579C764.751 125.368 784.766 134.358 804.056 137.753C806.719 138.242 815.093 139.673 817.487 140.091C830.461 142.284 837.587 147.116 837.587 155.604C837.587 166.38 827.466 171.431 812.145 171.431C787.614 171.431 773.219 164.12 769.061 162.41L757.756 188.748C761.266 190.557 778.014 200 810.693 200C842.403 200 867.851 184.295 867.851 155.064C867.603 127.854 849.314 117.531 826.877 113.678Z" fill="black"/>
<path d="M923.703 4.45728L893.693 21.0589V56.2152H877.893V84.9157H893.693V146.963C893.693 173.468 904.587 197.268 943.014 197.268H955.029V168.542H950.524C931.635 168.542 923.703 157.642 923.703 142.837V84.9157H958.172V56.2152H923.703V4.45728" fill="black"/>
<path d="M1158.17 82.6584C1169.88 82.6584 1181.88 87.9853 1185.48 100.874L1212.71 90.5158C1205.08 63.559 1180.04 53.4784 1157.95 53.4784C1118.37 53.4784 1102.41 78.0574 1102.41 101.947V151.521C1102.41 175.401 1118.37 200 1157.95 200C1180.04 200 1205.08 189.905 1212.71 162.948L1185.48 152.595C1181.88 165.469 1169.88 170.826 1158.17 170.826C1137.78 170.826 1132.37 159.663 1132.37 146.937V106.522C1132.37 93.8095 1137.78 82.6584 1158.17 82.6584Z" fill="black"/>
<path d="M1286.49 119.568L1342.6 56.2152H1305.69L1257.43 111.437V4.46305H1227.4V197.268H1257.43V152.374L1267.29 141.248L1310.26 197.268H1346.28L1286.49 119.568Z" fill="black"/>
<path d="M1042.12 86.9942H1010.92C1005.96 86.9942 1001.93 91.0258 1001.93 95.9684V129.832H971.145V95.9684C971.145 74.0047 988.939 56.2152 1010.92 56.2152H1042.12V86.9942" fill="black"/>
<path d="M1016.72 166.484H1047.95C1052.89 166.484 1056.93 162.459 1056.93 157.5V123.647H1087.71V157.5C1087.71 179.463 1069.91 197.268 1047.95 197.268H1016.72V166.484Z" fill="black"/>
<path d="M507.792 56.2152H542.251V84.9157H507.792V142.837C507.792 157.642 515.72 168.542 534.593 168.542H539.098V197.268H527.077C488.639 197.268 477.778 173.468 477.778 146.963V84.9157H427.266V142.837C427.266 157.642 435.208 168.542 454.081 168.542H458.571V197.268H446.546C408.125 197.268 397.239 173.468 397.239 146.963V84.9157H382.025V56.2152H397.239V21.0589L427.266 4.45728V56.2152H477.778V21.0589L507.792 4.45728V56.2152" fill="black"/>
<path d="M183.797 53.4783C174.303 53.4783 164.671 55.3168 156.003 58.9883V4.45728H125.986V197.268H156.003V87.0478C162.035 83.2583 170.713 80.9952 179.198 80.9952C198.065 80.9952 206.945 91.4841 206.945 106.953V197.268H236.934V102.854C236.934 74.3831 216.313 53.4783 183.797 53.4783" fill="black"/>
<path d="M335.922 169.217C330.217 172.294 322.997 174.058 315.813 174.058C293.412 174.058 284.991 162.648 284.991 146.91V56.2153H254.98V147.463C254.98 182.932 275.48 200 312.119 200C329.666 200 349.096 195.563 365.922 188.279V56.2153H335.922V169.217Z" fill="black"/>
<path d="M69.8658 113.678C67.7874 113.31 60.75 112.142 58.6858 111.764C47.6086 109.768 38.0814 107.173 38.0814 96.0053C38.0814 86.4163 48.1246 81.9426 60.6495 81.9426C79.2616 81.9426 95.5874 90.3784 97.45 91.3095L107.649 64.3895C103.749 62.3521 87.1231 53.4784 60.9495 53.4784C37.0082 53.4784 7.74016 66.059 7.74016 97.3579C7.74016 125.368 27.7339 134.358 47.0494 137.753C49.7076 138.242 58.0874 139.673 60.4974 140.091C73.4658 142.284 80.561 147.116 80.561 155.604C80.561 166.38 70.4705 171.431 55.1558 171.431C30.602 171.431 16.2085 164.12 12.0452 162.41L0.75 188.748C4.27179 190.557 21.0132 200 53.6921 200C85.4026 200 110.851 184.295 110.851 155.064C110.577 127.854 92.2921 117.531 69.8658 113.678Z" fill="black"/>
<path d="M636.328 116.046H585.723V105.783C585.723 94.3358 591.47 82.0579 611.181 82.0579C630.181 82.0579 636.328 94.0153 636.328 105.226V116.046ZM666.344 101.947C666.344 76.1474 646.681 53.4684 611.323 53.4684C571.186 53.4684 555.775 78.5321 555.775 101.947V148.795C555.775 181.205 576.486 200 611.323 200C642.054 200 658.007 182.231 662.744 171.558L637.407 156.336C635.244 162.605 625.212 171.4 611.523 171.4C592.965 171.4 585.828 161.046 585.828 148.074L585.723 140.347H666.344V101.947Z" fill="black"/>
<path d="M685.551 102V197.268H715.54V104.564C715.54 96.4678 720.135 82.6315 742.161 82.6315C745.619 82.6315 753.435 83.6162 755.935 84.0852V54.9894C753.23 54.3357 747.03 53.4683 740.624 53.4683C702.477 53.4683 685.551 77.3952 685.551 102" fill="black"/>
</g>
<defs>
<clipPath id="clip0_1255_3811">
<rect width="1348" height="200" fill="white" transform="translate(0.75)"/>
</clipPath>
</defs>
</svg>
