<svg width="871" height="200" viewBox="0 0 871 200" fill="none" xmlns="http://www.w3.org/2000/svg">
<g clip-path="url(#clip0_1255_3895)">
<path d="M696.75 44.4444V62.2222H670.972V150.222H653.194V62.2222H640.75V44.4444H653.194C653.194 25.7777 660.306 10.6666 671.861 5.33328C683.417 -0.888938 696.75 -4.96022e-05 696.75 -4.96022e-05V17.7777C694.972 17.7777 689.639 16.8888 682.528 20.4444C675.417 24 670.972 32 670.972 43.5555V44.4444H696.75Z" fill="black"/>
<path d="M376.75 62.2223V44.4445H350.972V1.77783H333.194V44.4445H320.75V62.2223H333.194V107.556C333.194 126.222 341.194 140.444 351.861 146.667C363.417 152.889 376.75 151.111 376.75 151.111V133.333C374.972 133.333 369.639 134.222 362.528 130.667C355.417 127.111 350.972 118.222 350.972 107.556V62.2223H376.75Z" fill="black"/>
<path d="M446.973 62.2223V44.4445H421.195V1.77783H403.417V44.4445H390.973V62.2223H403.417V107.556C403.417 126.222 411.417 140.444 422.084 146.667C433.639 152.889 446.973 151.111 446.973 151.111V133.333C445.195 133.333 439.862 134.222 432.75 130.667C425.639 127.111 421.195 118.222 421.195 107.556V62.2223H446.973Z" fill="black"/>
<path d="M285.195 105.778C285.195 122.667 277.195 133.333 262.973 133.333C249.639 133.333 240.75 122.667 240.75 105.778V44.4443H222.973V106.667C222.973 134.222 238.084 151.111 262.973 151.111C287.862 151.111 302.973 134.222 302.973 106.667V44.4443H285.195V105.778Z" fill="black"/>
<path d="M737.639 1.77783H719.861V149.333H737.639V1.77783Z" fill="black"/>
<path d="M53.1944 151.111C27.4167 151.111 5.19444 136.889 0.75 124.444L14.0833 112.889C20.3056 121.778 32.75 133.333 53.1944 133.333C73.6389 133.333 86.0833 125.333 86.0833 109.333C86.0833 92.4445 70.9722 87.1111 49.6389 81.7778C27.4167 76.4444 5.19444 69.3333 5.19444 40C4.30556 17.7778 25.6389 0 53.1944 0C77.1944 0 94.9722 11.5556 100.306 20.4444L86.0833 32C78.9722 23.1111 66.5278 17.7778 53.1944 17.7778C34.5278 17.7778 22.0833 26.6667 22.0833 40.8889C22.0833 57.7778 35.4167 61.3333 55.8611 66.6667C79.8611 72.8889 102.972 81.7778 102.972 110.222C103.861 135.111 83.4167 151.111 53.1944 151.111Z" fill="black"/>
<path d="M618.527 43.5557C605.194 43.5557 596.305 48.0001 590.082 56.0001V44.4446H572.305V150.222H590.082V88.0001C590.082 71.1112 604.305 61.3334 618.527 61.3334C620.305 61.3334 622.082 61.3334 623.86 62.2223V44.4446C622.082 43.5557 620.305 43.5557 618.527 43.5557Z" fill="black"/>
<path d="M507.416 151.111C478.083 151.111 457.639 128 457.639 96.8887C457.639 65.7776 477.194 42.6665 505.639 42.6665C534.083 43.5554 551.861 64.8887 551.861 97.7776C551.861 99.5554 551.861 100.444 551.861 103.111V104H475.416C478.083 122.667 489.639 135.111 508.305 135.111C520.75 135.111 528.75 131.555 537.639 121.778L538.528 120.889L549.194 130.667L548.305 131.555C535.861 145.778 525.194 151.111 507.416 151.111ZM534.083 89.7776C532.305 73.7776 525.194 58.6665 504.75 58.6665C488.75 58.6665 477.194 71.111 474.528 89.7776H534.083Z" fill="black"/>
<path d="M165.194 43.5556C152.75 43.5556 144.75 48.8889 140.305 53.3334V1.77783H122.527V150.222H140.305V88C140.305 71.1112 150.972 60.4445 165.194 60.4445C179.416 60.4445 186.527 72.8889 186.527 89.7778V149.333H204.305V89.7778C204.305 56.8889 186.527 43.5556 165.194 43.5556Z" fill="black"/>
<path d="M822.972 44.4443V106.667C822.972 123.555 812.305 134.222 798.972 134.222C785.639 134.222 778.528 121.778 778.528 104.889V44.4443H761.639V104C761.639 137.778 778.528 151.111 799.861 151.111C811.416 151.111 820.305 145.778 823.861 141.333V156.444C823.861 168 819.416 175.111 812.305 178.667C805.194 182.222 800.75 181.333 798.083 181.333V199.111C798.083 199.111 811.416 200.889 822.972 194.667C833.639 188.444 841.639 174.222 841.639 155.555V44.4443H822.972Z" fill="black"/>
<path d="M864.75 136.889C864.75 136 864.75 135.111 863.861 135.111C862.972 134.222 862.083 133.333 860.305 133.333H855.861V143.111H857.638V139.555H859.416L862.083 143.111H863.861L861.194 139.555C863.861 139.555 864.75 138.666 864.75 136.889ZM860.305 138.666H857.638V136H860.305C861.194 136 862.083 136.889 862.083 137.778C862.083 137.778 862.083 138.666 860.305 138.666ZM860.305 128.889C854.972 128.889 850.527 133.333 850.527 138.666C850.527 144 854.972 148.444 860.305 148.444C865.638 148.444 870.083 144 870.083 138.666C870.083 133.333 865.638 128.889 860.305 128.889ZM860.305 146.666C855.861 146.666 852.305 143.111 852.305 138.666C852.305 134.222 855.861 130.666 860.305 130.666C864.75 130.666 868.305 134.222 868.305 138.666C868.305 143.111 864.75 146.666 860.305 146.666Z" fill="black"/>
</g>
<defs>
<clipPath id="clip0_1255_3895">
<rect width="869.333" height="200" fill="white" transform="translate(0.75)"/>
</clipPath>
</defs>
</svg>
