<svg width="785" height="200" viewBox="0 0 785 200" fill="none" xmlns="http://www.w3.org/2000/svg">
<path d="M251.93 156.693L261.693 134.016C272.245 141.89 286.26 145.985 300.119 145.985C310.355 145.985 316.812 142.048 316.812 136.063C316.654 119.371 255.552 132.441 255.079 90.5517C254.922 69.2918 273.819 52.9139 300.591 52.9139C316.497 52.9139 332.402 56.8509 343.741 65.8273L334.607 88.9769C324.213 82.3627 311.3 77.6383 299.016 77.6383C290.67 77.6383 285.158 81.5753 285.158 86.6147C285.316 102.993 346.89 94.0162 347.52 134.016C347.52 155.749 329.095 171.024 302.638 171.024C283.268 171.024 265.473 166.457 251.93 156.693ZM626.575 125.827C621.693 134.331 612.56 140.158 602.008 140.158C586.418 140.158 573.819 127.56 573.819 111.969C573.819 96.3784 586.418 83.78 602.008 83.78C612.56 83.78 621.693 89.6068 626.575 98.1107L653.505 83.1501C643.426 65.1973 624.056 52.9139 602.008 52.9139C569.41 52.9139 542.953 79.3706 542.953 111.969C542.953 144.567 569.41 171.024 602.008 171.024C624.213 171.024 643.426 158.898 653.505 140.788L626.575 125.827V125.827ZM361.064 3.9375H394.764V168.819H361.064V3.9375ZM666.733 3.9375V168.819H700.434V119.371L740.434 168.819H783.583L732.717 110.079L779.804 55.2761H738.544L700.434 100.788V3.9375H666.733ZM494.922 126.142C490.04 134.174 479.961 140.158 468.623 140.158C453.032 140.158 440.434 127.56 440.434 111.969C440.434 96.3784 453.032 83.78 468.623 83.78C479.961 83.78 490.04 90.0792 494.922 98.2682V126.142ZM494.922 55.2761V68.6619C489.41 59.3706 475.709 52.9139 461.379 52.9139C431.772 52.9139 408.465 79.0556 408.465 111.812C408.465 144.567 431.772 171.024 461.379 171.024C475.709 171.024 489.41 164.567 494.922 155.276V168.662H528.623V55.2761H494.922Z" fill="black"/>
<path d="M43.5846 125.985C43.5846 137.481 34.2932 146.772 22.7972 146.772C11.3011 146.772 2.00977 137.481 2.00977 125.985C2.00977 114.489 11.3011 105.197 22.7972 105.197H43.5846V125.985ZM53.9783 125.985C53.9783 114.489 63.2696 105.197 74.7657 105.197C86.2617 105.197 95.5531 114.489 95.5531 125.985V177.953C95.5531 189.449 86.2617 198.741 74.7657 198.741C63.2696 198.741 53.9783 189.449 53.9783 177.953V125.985Z" fill="black"/>
<path d="M74.7649 42.5201C63.2689 42.5201 53.9775 33.2288 53.9775 21.7327C53.9775 10.2367 63.2689 0.945312 74.7649 0.945312C86.261 0.945312 95.5523 10.2367 95.5523 21.7327V42.5201H74.7649ZM74.7649 53.0713C86.261 53.0713 95.5523 62.3626 95.5523 73.8587C95.5523 85.3548 86.261 94.6461 74.7649 94.6461H22.639C11.1429 94.6461 1.85156 85.3548 1.85156 73.8587C1.85156 62.3626 11.1429 53.0713 22.639 53.0713H74.7649Z" fill="black"/>
<path d="M158.072 73.8587C158.072 62.3626 167.363 53.0713 178.859 53.0713C190.355 53.0713 199.647 62.3626 199.647 73.8587C199.647 85.3548 190.355 94.6461 178.859 94.6461H158.072V73.8587ZM147.678 73.8587C147.678 85.3548 138.387 94.6461 126.891 94.6461C115.395 94.6461 106.104 85.3548 106.104 73.8587V21.7327C106.104 10.2367 115.395 0.945312 126.891 0.945312C138.387 0.945312 147.678 10.2367 147.678 21.7327V73.8587V73.8587Z" fill="black"/>
<path d="M126.891 157.166C138.387 157.166 147.678 166.457 147.678 177.953C147.678 189.449 138.387 198.741 126.891 198.741C115.395 198.741 106.104 189.449 106.104 177.953V157.166H126.891ZM126.891 146.772C115.395 146.772 106.104 137.481 106.104 125.985C106.104 114.489 115.395 105.197 126.891 105.197H179.017C190.513 105.197 199.804 114.489 199.804 125.985C199.804 137.481 190.513 146.772 179.017 146.772H126.891Z" fill="black"/>
</svg>
