<svg width="1057" height="200" viewBox="0 0 1057 200" fill="none" xmlns="http://www.w3.org/2000/svg">
<g clip-path="url(#clip0_1255_3946)">
<path d="M970.685 62.1479H925.576L943.321 87.5967H966.186L946.956 197.073H987.015L1006.27 87.5967H1056.24L977.357 24.1377L970.685 62.1479Z" fill="black"/>
<path d="M187.722 0H5.72029L0.75 28.666H71.4138L41.8084 197.081H81.8684L111.48 28.666H182.752L187.722 0Z" fill="black"/>
<path d="M217.348 59.1113C166.428 59.1113 133.832 91.1612 127.362 128.396C120.188 169.738 145.591 200.001 196.981 200.001C219.943 200.001 241.424 195.682 258.878 185.982L264.298 155.146C247.249 167.361 225.55 174.187 207.169 174.187C181.55 174.187 161.184 163.521 164.387 139.054H270.247C271.522 136.148 273.05 131.062 274.152 124.716C279.282 95.1752 268.812 59.1113 217.348 59.1113ZM238.114 115.267H168.443C172.631 101.467 186.166 82.3869 210.806 82.3869C237.62 82.3869 240.454 102.772 238.114 115.267Z" fill="black"/>
<path d="M394.269 59.1191C369.266 59.1191 350.536 69.483 341.705 79.9597H340.771L305.508 59.1191C304.211 70.8129 302.48 86.6916 299.77 102.277L283.301 197.073H323.36L337.292 117.686C337.959 113.789 339.285 109.659 341.008 106.855C346.993 96.439 359.549 86.8468 375.467 86.8468C397.326 86.8468 403.275 101.595 399.919 120.947L386.523 197.073H426.589L440.696 116.933C448.102 74.2685 421.867 59.1191 394.269 59.1191Z" fill="black"/>
<path d="M874.828 59.1191C849.811 59.1191 831.104 69.483 822.271 79.9597H821.338L786.074 59.1191C784.777 70.8129 783.037 86.6916 780.328 102.277L763.875 197.073H803.919L817.859 117.686C818.519 113.789 819.845 109.659 821.562 106.855C827.553 96.439 840.108 86.8468 856.014 86.8468C877.899 86.8468 883.842 101.595 880.488 120.947L867.098 197.073H907.157L921.243 116.933C928.652 74.2685 902.425 59.1191 874.828 59.1191Z" fill="black"/>
<path d="M697.907 59.1113C646.987 59.1113 614.399 91.1612 607.928 128.396C600.755 169.738 626.157 200.001 677.54 200.001C700.5 200.001 721.99 195.682 739.437 185.982L744.865 155.146C727.818 167.361 706.124 174.187 687.721 174.187C662.116 174.187 641.772 163.521 644.951 139.054H750.826C752.08 136.148 753.616 131.062 754.738 124.716C759.839 95.1752 749.363 59.1113 697.907 59.1113ZM718.672 115.267H649.01C653.189 101.467 666.724 82.3869 691.357 82.3869C718.186 82.3869 721.019 102.772 718.672 115.267Z" fill="black"/>
<path d="M457.507 127.8C450.24 169.68 479.563 199.986 529.192 199.986C548.928 199.986 572.489 194.312 581.416 191.002L587.894 154.941C573.976 169.911 555.108 173.019 541.719 173.019C514.456 173.019 493.814 157.145 498.617 129.482C502.783 104.746 526.208 85.7369 556.746 85.7369C569.179 85.7369 586.054 89.9008 596.69 103.899L602.899 67.2184C594.285 63.9115 580.497 59.1914 560.086 59.1914C504.398 59.1904 464.528 87.4077 457.507 127.8Z" fill="black"/>
</g>
<defs>
<clipPath id="clip0_1255_3946">
<rect width="1055.49" height="200" fill="white" transform="translate(0.75)"/>
</clipPath>
</defs>
</svg>
