<svg width="845" height="200" viewBox="0 0 845 200" fill="none" xmlns="http://www.w3.org/2000/svg">
<g clip-path="url(#clip0_1255_4421)">
<path fill-rule="evenodd" clip-rule="evenodd" d="M51.9687 80.6504C90.1801 67.4797 96.6841 33.1707 91.8061 1.62601C91.8061 0.487799 92.7817 -0.32521 93.7573 -6.47805e-06C130.343 17.8862 171.481 56.9106 171.481 115.447C171.481 160.325 136.684 200 86.115 200C68.0705 200.821 50.2666 195.608 35.5133 185.186C20.76 174.764 9.89758 159.726 4.6405 142.445C-0.616572 125.164 0.0310893 106.624 6.48126 89.7514C12.9314 72.8792 24.8168 58.6354 40.2614 49.2683C41.237 48.6179 42.5378 49.2683 42.5378 50.4065C43.0256 56.4228 44.6516 71.5447 51.3183 80.6504H51.9687V80.6504Z" fill="black"/>
<path fill-rule="evenodd" clip-rule="evenodd" d="M279.123 164.391L281.888 161.139L290.506 188.456L289.367 189.594C282.863 195.611 273.107 198.7 260.587 198.7H260.099C248.717 198.7 239.774 195.448 233.595 189.432C227.416 183.253 224.164 173.985 224.164 162.277V87.8058H202.213V57.7245H224.164V21.4644H257.985V57.7245H284.815V87.8058H257.823V154.96C257.823 158.05 258.636 167.968 268.067 167.968C272.945 167.968 277.497 166.18 279.123 164.229V164.391ZM297.01 195.611V57.8871H330.831V195.611H297.01V195.611ZM313.758 1.62695C317.771 1.62708 321.694 2.81514 325.033 5.0414C328.371 7.26766 330.977 10.4325 332.52 14.1369C334.063 17.8414 334.475 21.9198 333.703 25.858C332.932 29.7962 331.012 33.418 328.186 36.2669C325.36 39.1158 321.754 41.0643 317.822 41.8668C313.89 42.6693 309.808 42.2899 306.091 40.7765C302.375 39.263 299.189 36.6832 296.937 33.3622C294.684 30.0412 293.465 26.1276 293.432 22.1148C293.432 11.0578 302.701 1.62695 313.758 1.62695ZM421.725 54.4725C450.993 54.4725 467.091 70.4074 467.091 99.5131V195.448H433.27V107.643C432.619 92.0335 425.14 84.879 409.205 84.879C394.896 84.879 383.351 93.6595 377.497 101.139V195.448H343.676V58.0497H377.497V72.6839C387.254 63.253 402.863 54.7977 421.725 54.7977V54.4725ZM579.611 72.1961V7.48061H613.432V195.773H579.611V181.464C574.436 186.923 568.21 191.278 561.308 194.268C554.406 197.258 546.97 198.821 539.449 198.863C502.538 198.863 477.823 169.92 477.823 126.83C477.823 83.5782 502.538 54.6351 539.449 54.6351C546.987 54.6695 554.438 56.2451 561.345 59.265C568.252 62.285 574.468 66.6855 579.611 72.1961ZM579.611 101.302C575.842 96.3926 571.026 92.3858 565.512 89.5729C559.999 86.7601 553.928 85.2121 547.741 85.0416C526.766 85.0416 512.782 101.79 512.782 126.83C512.782 151.708 526.766 168.456 547.741 168.456C559.936 168.456 573.27 161.952 579.611 152.521V101.302ZM692.457 54.6351C732.457 54.6351 760.262 85.5294 760.262 129.432V138.7H657.985C661.4 158.05 676.684 170.407 697.497 170.407C710.668 170.407 725.14 164.716 733.432 156.424L735.709 154.472L751.806 177.562L750.18 179.025C734.944 192.535 715.081 199.641 694.733 198.863C652.457 198.863 622.701 169.107 622.701 126.668C622.372 117.298 623.94 107.958 627.31 99.2095C630.681 90.4608 635.784 82.4832 642.314 75.7557C648.844 69.0283 656.666 63.6896 665.311 60.0602C673.955 56.4308 683.244 54.5855 692.619 54.6351H692.457ZM657.823 113.172H727.254C725.302 92.5213 708.229 83.0904 692.457 83.0904C668.717 83.0904 659.774 100.977 657.823 113.334V113.172ZM842.05 54.6351H844.489V88.7814L841.562 88.2936C839.123 87.8058 836.034 87.4806 832.945 87.4806C822.05 87.4806 806.928 95.1229 801.237 103.253V195.448H767.416V57.8871H801.4V73.1717C812.619 61.4644 827.416 54.6351 842.05 54.6351V54.6351Z" fill="black"/>
</g>
<defs>
<clipPath id="clip0_1255_4421">
<rect width="843.902" height="200" fill="white" transform="translate(0.75)"/>
</clipPath>
</defs>
</svg>
