<svg width="577" height="200" viewBox="0 0 577 200" fill="none" xmlns="http://www.w3.org/2000/svg">
<g clip-path="url(#clip0_1255_3784)">
<path d="M33.8959 142.837C36.3305 149.298 39.7012 154.823 44.0085 159.41C48.3159 163.999 53.4188 167.51 59.3173 169.944C65.2164 172.379 71.6301 173.596 78.5592 173.596C85.3011 173.596 91.621 172.332 97.5201 169.803C103.419 167.275 108.569 163.717 112.969 159.129C117.37 154.541 120.788 149.064 123.222 142.697C125.657 136.33 126.874 129.214 126.874 121.349V0H156.368V196.629H127.155V178.371C120.601 185.299 112.875 190.636 103.98 194.382C95.0849 198.127 85.4882 200 75.1885 200C64.7011 200 54.9167 198.174 45.834 194.522C36.752 190.871 28.8863 185.675 22.2388 178.933C15.5913 172.191 10.3473 164.093 6.50865 154.635C2.66934 145.178 0.75 134.645 0.75 123.034V0H30.2443V121.349C30.2443 129.214 31.4613 136.376 33.8959 142.837Z" fill="black"/>
<path d="M207.208 0V71.6291C213.763 65.0749 221.347 59.8787 229.961 56.0394C238.576 52.2001 247.939 50.2808 258.051 50.2808C268.539 50.2808 278.369 52.2467 287.545 56.1793C296.721 60.1118 304.68 65.4491 311.422 72.191C318.164 78.9329 323.501 86.8912 327.433 96.0672C331.366 105.244 333.332 114.981 333.332 125.281C333.332 135.58 331.366 145.271 327.433 154.353C323.501 163.436 318.164 171.348 311.422 178.089C304.68 184.831 296.721 190.168 287.545 194.101C278.369 198.033 268.538 199.999 258.051 199.999C247.939 199.999 238.529 198.08 229.821 194.241C221.113 190.402 213.482 185.205 206.928 178.651V196.629H178.838V0H207.208ZM210.439 144.663C212.966 150.656 216.478 155.899 220.973 160.394C225.467 164.888 230.71 168.446 236.703 171.068C242.696 173.69 249.156 175.001 256.085 175.001C262.827 175.001 269.194 173.69 275.186 171.068C281.178 168.446 286.374 164.889 290.776 160.394C295.177 155.9 298.688 150.656 301.31 144.663C303.931 138.671 305.242 132.21 305.242 125.281C305.242 118.352 303.931 111.845 301.31 105.758C298.688 99.6721 295.177 94.3821 290.776 89.8877C286.375 85.3939 281.179 81.8822 275.186 79.3543C269.193 76.8265 262.826 75.5616 256.085 75.5616C249.344 75.5616 242.977 76.8259 236.984 79.3543C230.992 81.8828 225.749 85.3939 221.254 89.8877C216.76 94.3821 213.201 99.6721 210.58 105.758C207.958 111.845 206.647 118.352 206.647 125.281C206.647 132.21 207.911 138.671 210.439 144.663Z" fill="black"/>
<path d="M349.34 96.3487C353.084 87.3599 358.235 79.4482 364.789 72.613C371.342 65.7779 379.115 60.394 388.104 56.4615C397.093 52.5289 406.83 50.563 417.317 50.563C427.617 50.563 437.167 52.4357 445.969 56.1805C454.77 59.926 462.354 65.1228 468.722 71.7708C475.089 78.4183 480.052 86.284 483.609 95.3661C487.167 104.449 488.946 114.327 488.946 125.001V134.271H372.374C373.31 140.077 375.183 145.46 377.992 150.422C380.801 155.385 384.312 159.692 388.525 163.344C392.739 166.996 397.514 169.852 402.851 171.911C408.188 173.971 413.853 175.001 419.846 175.001C436.887 175.001 450.651 167.978 461.138 153.933L481.644 169.102C474.528 178.652 465.726 186.143 455.24 191.574C444.752 197.004 432.955 199.72 419.846 199.72C409.172 199.72 399.2 197.846 389.93 194.102C380.661 190.357 372.608 185.113 365.773 178.371C358.938 171.629 353.554 163.717 349.622 154.635C345.689 145.553 343.723 135.674 343.723 125C343.721 114.888 345.595 105.338 349.34 96.3487ZM388.806 85.2529C380.847 91.9009 375.557 100.749 372.935 111.798H460.295C457.861 100.749 452.664 91.9009 444.705 85.2529C436.746 78.6054 427.43 75.2814 416.756 75.2814C406.081 75.2814 396.765 78.6054 388.806 85.2529Z" fill="black"/>
<path d="M542.036 88.4829C536.043 95.0371 533.047 103.932 533.047 115.168V196.63H504.676V53.371H532.765V71.0677C536.324 65.2624 540.959 60.6742 546.67 57.3035C552.382 53.9322 559.17 52.2466 567.036 52.2466H576.867V78.6512H565.069C555.706 78.6518 548.028 81.9286 542.036 88.4829Z" fill="black"/>
</g>
<defs>
<clipPath id="clip0_1255_3784">
<rect width="576.117" height="200" fill="white" transform="translate(0.75)"/>
</clipPath>
</defs>
</svg>
