<svg width="629" height="200" viewBox="0 0 629 200" fill="none" xmlns="http://www.w3.org/2000/svg">
<g clip-path="url(#clip0_1255_4326)">
<path d="M193.155 100.002C191.256 -2.52923 55.1804 -40.5039 2.64873 55.0657C5.18038 56.9644 8.34494 59.4961 10.2437 60.7619C6.4462 68.9898 3.28165 77.8505 2.01582 86.0784C1.38291 91.7746 0.75 97.4708 0.75 103.8C0.75 156.964 43.788 200.002 96.9525 200.002C150.117 200.002 193.155 156.964 193.155 103.8C193.155 102.534 193.155 101.268 193.155 100.002ZM24.8006 117.091C23.5348 127.218 24.1677 131.015 24.1677 132.281L21.6361 132.914C21.0032 131.015 18.4715 125.319 17.8386 117.091C15.307 86.0784 36.193 58.2303 68.4715 53.167C98.2184 48.7366 126.066 67.091 133.028 93.0404L130.497 93.6733C129.864 93.0404 128.598 91.1417 124.168 86.0784C88.7247 50.0024 32.3956 66.4581 24.8006 117.091ZM115.94 134.18C110.877 141.142 103.282 145.572 94.4209 145.572C79.8639 145.572 67.8386 133.547 67.8386 118.99C67.8386 105.066 78.5981 93.6733 92.5222 93.0404C100.75 92.4075 108.978 97.4708 112.775 104.433C116.573 112.661 115.307 122.154 108.978 129.116C111.509 131.015 114.041 132.914 115.94 134.18ZM171.003 135.445C157.079 167.091 128.598 183.547 98.2184 182.914C39.3576 179.749 22.269 112.661 61.5095 87.9771L63.4082 89.8758C62.7753 90.5087 60.2437 92.4075 57.0791 100.002C52.6487 108.863 51.3829 117.091 52.0158 122.787C55.1804 170.256 121.003 179.749 143.788 132.914C172.269 68.3568 95.6867 3.16697 27.3323 53.167L26.0665 51.2682C43.788 23.4201 78.5981 10.7619 112.142 18.9898C163.408 32.2809 191.256 85.4454 171.003 135.445Z" fill="black"/>
<path d="M286.824 62.0224V106.326C286.824 124.048 276.064 137.339 256.444 137.339C236.824 137.339 226.064 124.048 226.064 106.326V62.0224H241.887V105.06C241.887 115.82 246.951 122.149 256.444 122.149C265.938 122.149 271.001 115.82 271.001 105.06V62.0224H286.824ZM346.951 115.187C346.951 127.845 336.824 137.339 320.368 137.339H294.419V62.6553H319.102C333.659 62.6553 343.153 69.6173 343.153 80.3768C343.153 88.6047 339.356 93.668 333.659 96.1996C341.254 99.3642 346.951 105.06 346.951 115.187ZM310.875 77.2123V93.0351H319.102C324.166 93.0351 327.33 89.8705 327.33 85.4401C327.33 81.0097 324.166 77.8452 319.102 77.8452L310.875 77.2123ZM319.735 122.782C326.697 122.782 330.495 119.617 330.495 113.288C330.495 106.959 326.697 103.795 319.735 103.795H310.875V122.149L319.735 122.782ZM353.28 62.6553H369.102V136.706H353.28V62.6553ZM407.71 93.0351C420.368 97.4654 426.697 103.162 426.697 114.554C426.697 129.744 414.672 138.605 400.748 138.605C388.09 138.605 377.963 132.908 374.166 122.149L386.824 112.655C389.356 119.617 395.052 123.415 401.381 123.415C406.444 123.415 410.242 120.25 410.242 115.82C410.242 111.389 407.077 108.858 396.951 105.06C385.558 100.63 376.697 94.9338 376.697 82.9085C376.697 70.8832 386.824 62.0224 400.748 62.0224C412.14 62.0224 421.001 66.4528 424.799 75.3135L412.14 84.1743C409.609 78.4781 405.811 75.3135 400.115 75.3135C395.052 75.3135 391.887 77.8452 391.887 81.6426C392.52 86.073 396.951 89.2376 407.71 93.0351ZM507.077 99.9971C507.077 121.516 491.254 137.972 469.102 137.972C446.318 137.972 431.128 121.516 431.128 102.529C431.128 89.8705 436.191 80.3768 443.153 74.6806L440.621 72.149C446.318 66.4528 456.444 62.0224 468.47 62.0224C491.254 61.3895 507.077 78.4781 507.077 99.9971ZM490.621 99.9971C490.621 86.7059 482.394 77.2123 469.102 77.2123C461.508 77.2123 455.811 80.3768 452.647 83.5414L455.178 86.073C451.381 89.2376 447.583 93.668 447.583 101.896C447.583 113.288 455.811 122.782 469.102 122.782C482.394 122.782 490.621 113.288 490.621 99.9971ZM529.862 78.4781V95.5667H561.507V107.592H529.862V136.706H513.406V62.6553H564.039V77.8452H529.862V78.4781ZM628.596 78.4781H607.71V137.339H591.887V78.4781H570.368V62.6553H627.963V78.4781H628.596Z" fill="black"/>
</g>
<defs>
<clipPath id="clip0_1255_4326">
<rect width="627.848" height="200" fill="white" transform="translate(0.75)"/>
</clipPath>
</defs>
</svg>
