<svg width="879" height="200" viewBox="0 0 879 200" fill="none" xmlns="http://www.w3.org/2000/svg">
<g clip-path="url(#clip0_1255_3826)">
<path d="M115.721 74.2802H168.504V167.754H0.75V74.2802H53.5331V120.921H115.529V74.2802H115.721ZM294.224 122.073C294.224 138.004 283.859 147.217 269.464 147.217C255.452 147.217 244.896 137.812 244.896 122.073V46.833H221.479V121.881C221.479 151.44 242.593 170.25 269.656 170.25C296.911 170.25 317.833 151.44 317.833 121.881V46.833H294.416V122.073H294.224ZM378.101 81.5739C369.08 81.5739 359.099 85.4127 353.917 94.2418V83.8772H332.036V167.754H354.685V119.386C354.685 109.597 360.443 101.919 370.424 101.919C381.364 101.919 385.971 109.213 385.971 118.618V167.562H408.619V114.779C408.428 96.3532 398.831 81.5739 378.101 81.5739ZM461.211 116.891C461.211 116.891 453.533 115.355 448.735 114.395C443.936 113.436 441.057 110.941 441.057 106.91C441.057 102.111 445.28 98.6564 451.23 98.6564C459.675 98.6564 462.938 102.879 463.706 108.061H483.284C483.092 96.5451 474.071 81.5739 451.614 81.5739C433.571 81.5739 420.328 94.0499 420.328 109.021C420.328 120.729 427.621 130.518 443.744 133.973L455.261 136.468C461.786 137.812 464.282 140.883 464.282 144.722C464.282 149.136 460.251 152.975 452.765 152.975C443.744 152.975 438.754 147.793 437.602 141.843H417.449C418.6 154.319 427.621 170.25 452.957 170.25C474.838 170.25 485.971 156.238 485.971 142.61C486.163 130.326 477.717 120.345 461.211 116.891ZM582.516 125.528C582.516 150.864 566.585 169.674 542.976 169.674C531.46 169.674 522.823 165.067 518.792 159.501V200H496.143V83.8772H518.024V94.2418C521.863 87.7159 531.076 81.9578 543.744 81.9578C568.312 81.9578 582.516 100.768 582.516 125.528ZM560.251 125.72C560.251 110.941 551.038 102.303 539.522 102.303C528.005 102.303 518.6 110.941 518.6 125.72C518.6 140.499 528.005 149.328 539.522 149.328C551.038 149.328 560.251 140.691 560.251 125.72ZM690.769 83.8772H712.65V167.754H690.001V157.39C686.163 164.107 677.333 169.674 665.817 169.674C642.209 169.674 626.278 150.864 626.278 125.528C626.278 100.576 640.481 81.9578 664.857 81.9578C677.525 81.9578 686.547 87.7159 690.577 94.2418V83.8772H690.769ZM690.385 125.72C690.385 110.941 680.98 102.303 669.464 102.303C657.948 102.303 648.735 110.941 648.735 125.72C648.735 140.691 657.948 149.328 669.464 149.328C680.98 149.328 690.385 140.499 690.385 125.72ZM593.072 167.562H615.721V46.833H593.072V167.562ZM847.199 81.5739C839.138 81.5739 829.925 84.261 824.55 90.787V46.833H801.902V167.562H824.55V118.426C825.126 109.213 830.692 102.111 840.289 102.111C851.23 102.111 855.836 109.405 855.836 118.81V167.754H878.485V114.971C878.293 96.3532 868.504 81.5739 847.199 81.5739ZM766.585 116.891C766.585 116.891 758.907 115.355 754.109 114.395C749.31 113.436 746.431 110.941 746.431 106.91C746.431 102.111 750.654 98.6564 756.604 98.6564C765.049 98.6564 768.312 102.879 769.08 108.061H788.658C788.466 96.5451 779.445 81.5739 756.988 81.5739C738.946 81.5739 725.702 94.0499 725.702 109.021C725.702 120.729 732.996 130.518 749.119 133.973L760.635 136.468C767.161 137.812 769.656 140.883 769.656 144.722C769.656 149.136 765.625 152.975 758.14 152.975C749.119 152.975 744.128 147.793 742.977 141.843H722.823C723.975 154.319 732.996 170.25 758.332 170.25C780.213 170.25 791.345 156.238 791.345 142.61C791.537 130.326 783.092 120.345 766.585 116.891ZM115.721 0H53.5331V46.833H115.529V0H115.721Z" fill="black"/>
</g>
<defs>
<clipPath id="clip0_1255_3826">
<rect width="877.543" height="200" fill="white" transform="translate(0.75)"/>
</clipPath>
</defs>
</svg>
