<svg width="873" height="200" viewBox="0 0 873 200" fill="none" xmlns="http://www.w3.org/2000/svg">
<path d="M435.688 50.0001C401.719 50.0001 377.226 72.1539 377.226 105.385C377.226 138.615 404.796 160.769 438.765 160.769C459.288 160.769 477.38 152.646 488.58 138.954L465.042 125.354C458.826 132.154 449.38 136.123 438.765 136.123C424.026 136.123 411.503 128.431 406.857 116.123H493.073C493.75 112.677 494.15 109.108 494.15 105.354C494.15 72.1539 469.657 50.0001 435.688 50.0001ZM406.58 94.6154C410.426 82.3385 420.95 74.6154 435.657 74.6154C450.396 74.6154 460.919 82.3385 464.734 94.6154H406.58ZM767.011 50.0001C733.042 50.0001 708.55 72.1539 708.55 105.385C708.55 138.615 736.119 160.769 770.088 160.769C790.611 160.769 808.703 152.646 819.903 138.954L796.365 125.354C790.149 132.154 780.703 136.123 770.088 136.123C755.35 136.123 742.826 128.431 738.18 116.123H824.396C825.073 112.677 825.473 109.108 825.473 105.354C825.473 72.1539 800.98 50.0001 767.011 50.0001ZM737.934 94.6154C741.78 82.3385 752.303 74.6154 767.011 74.6154C781.75 74.6154 792.273 82.3385 796.088 94.6154H737.934ZM617.842 105.385C617.842 123.846 629.903 136.154 648.611 136.154C661.288 136.154 670.796 130.4 675.688 121.015L699.319 134.646C689.534 150.954 671.196 160.769 648.611 160.769C614.611 160.769 590.15 138.615 590.15 105.385C590.15 72.1539 614.642 50.0001 648.611 50.0001C671.196 50.0001 689.503 59.8154 699.319 76.1231L675.688 89.7539C670.796 80.3693 661.288 74.6154 648.611 74.6154C629.934 74.6154 617.842 86.9231 617.842 105.385ZM871.626 16.1539V157.692H843.934V16.1539H871.626ZM115.411 0.769287L229.103 197.692H1.71875L115.411 0.769287ZM399.657 16.1539L314.396 163.846L229.134 16.1539H261.103L314.396 108.462L367.688 16.1539H399.657ZM580.919 53.077V82.8924C577.842 82.0001 574.58 81.3847 571.073 81.3847C553.196 81.3847 540.303 93.6924 540.303 112.154V157.692H512.611V53.077H540.303V81.3847C540.303 65.7539 558.488 53.077 580.919 53.077Z" fill="black"/>
</svg>
