<svg width="1195" height="201" viewBox="0 0 1195 201" fill="none" xmlns="http://www.w3.org/2000/svg">
<g clip-path="url(#clip0_1255_4442)">
<path fill-rule="evenodd" clip-rule="evenodd" d="M319.652 1.25586L217.894 200.181H122.315L164.9 117.738H162.99C127.857 163.344 75.4385 193.367 0.75 200.181V118.879C0.75 118.879 48.53 116.057 76.6185 86.5255H0.75V1.25743H86.0181V71.3891L87.9319 71.3813L122.775 1.25743H187.262V70.9445L189.175 70.9414L225.326 1.25586H319.652Z" fill="black"/>
<path d="M874.541 178.225H902.002V20.5977H874.541V178.225Z" fill="black"/>
<path fill-rule="evenodd" clip-rule="evenodd" d="M723.151 176.613C729.12 179.094 735.189 180.334 741.359 180.334C751.552 180.334 760.672 177.854 768.719 172.891C776.767 167.929 783.003 161.088 787.43 152.371C791.856 143.585 794.068 133.627 794.068 122.494C794.068 111.362 791.789 101.404 787.229 92.6185C782.668 83.8335 776.331 77.0268 768.216 72.1984C760.103 67.3029 750.882 64.8887 740.553 64.9558C733.982 64.9558 727.678 66.2299 721.643 68.7783C715.606 71.3266 710.578 74.9479 706.553 79.6422C706.243 79.9996 705.941 80.3606 705.648 80.7251V20.6953H678.086V178.223H705.447L705.392 163.507C706.1 164.374 706.856 165.222 707.661 166.05C712.02 170.544 717.183 174.065 723.151 176.613ZM751.317 151.163C746.824 153.912 741.694 155.288 735.927 155.288C730.226 155.288 724.995 153.879 720.234 151.062C715.473 148.178 711.684 144.256 708.867 139.293C706.118 134.331 704.743 128.698 704.743 122.394C704.676 116.09 706.017 110.457 708.767 105.494C711.583 100.465 715.372 96.5752 720.133 93.8257C724.895 91.0091 730.159 89.6343 735.927 89.7014C741.694 89.6343 746.824 90.9755 751.317 93.725C755.877 96.4075 759.364 100.263 761.779 105.293C764.259 110.256 765.5 115.956 765.5 122.394C765.5 128.831 764.259 134.532 761.779 139.494C759.364 144.457 755.877 148.346 751.317 151.163Z" fill="black"/>
<path d="M359.438 30.1523H390.822L418.897 132.683L448.763 30.1523H474.917L507.308 130.625L534.266 30.1523H563.035L520.586 178.224H493.526L460.59 80.07L430.355 178.224H402.993L359.438 30.1523Z" fill="black"/>
<path fill-rule="evenodd" clip-rule="evenodd" d="M609.382 180.838C598.45 180.905 588.593 178.49 579.807 173.595C571.09 168.633 564.216 161.759 559.186 152.974C554.224 144.189 551.742 134.163 551.742 122.897C551.742 111.967 554.291 102.075 559.387 93.2224C564.484 84.3703 571.392 77.4631 580.109 72.5005C588.827 67.538 598.551 65.0566 609.281 65.0566C621.352 65.0566 631.915 67.7392 640.968 73.104C650.088 78.4689 656.895 86.0804 661.387 95.9384C665.948 105.729 667.591 116.962 666.317 129.636H580.152C580.393 134.686 581.653 139.28 583.932 143.417C586.48 147.978 590.035 151.532 594.594 154.08C599.154 156.628 604.252 157.902 609.885 157.902C614.176 157.836 618.166 157.098 621.855 155.69C625.543 154.215 628.661 152.236 631.211 149.756C633.825 147.274 635.669 144.457 636.742 141.306H665.512C663.769 149.017 660.281 155.891 655.05 161.927C649.82 167.895 643.247 172.556 635.334 175.909C627.421 179.262 618.77 180.905 609.382 180.838ZM584.033 101.974C582.425 104.776 581.312 107.794 580.692 111.027H637.808C637.394 106.943 636.133 103.221 634.026 99.8615C631.613 95.9049 628.327 92.8535 624.169 90.7077C620.011 88.4947 615.317 87.3881 610.086 87.3881C604.52 87.3881 599.457 88.6623 594.897 91.2106C590.337 93.759 586.715 97.3467 584.033 101.974Z" fill="black"/>
<path d="M814.288 67.37C814.288 58.3837 816.334 50.4034 820.425 43.4291C824.515 36.3876 830.249 30.9221 837.626 27.0326C845.069 23.0759 853.754 21.0306 863.679 20.8965V45.3402C859.051 45.4073 855.096 46.3798 851.809 48.2575C848.591 50.0681 846.109 52.717 844.365 56.2042C842.76 59.4146 841.893 63.1365 841.766 67.37H863.076V90.6067H841.75V178.223H814.288V90.6067H796.584V67.37H814.288Z" fill="black"/>
<path fill-rule="evenodd" clip-rule="evenodd" d="M971.811 180.638C960.613 180.638 950.587 178.19 941.734 173.295C932.95 168.332 926.042 161.491 921.013 152.774C916.05 143.989 913.568 134.031 913.568 122.898C913.568 111.699 916.05 101.707 921.013 92.9216C926.042 84.0695 932.95 77.1957 941.734 72.3002C950.587 67.4048 960.613 64.957 971.811 64.957C983.078 64.957 993.137 67.4048 1001.99 72.3002C1010.91 77.1957 1017.85 84.0359 1022.81 92.821C1027.77 101.606 1030.29 111.632 1030.36 122.898C1030.29 134.031 1027.77 143.989 1022.81 152.774C1017.92 161.491 1011.01 168.332 1002.09 173.295C993.171 178.19 983.078 180.638 971.811 180.638ZM971.811 155.39C977.713 155.39 982.944 154.048 987.504 151.365C992.064 148.616 995.585 144.793 998.066 139.898C1000.55 134.935 1001.79 129.269 1001.79 122.898C1001.79 116.46 1000.55 110.76 998.066 105.797C995.585 100.835 992.064 97.0124 987.504 94.3298C982.944 91.5803 977.713 90.2057 971.811 90.2057C965.977 90.2057 960.78 91.5803 956.22 94.3298C951.726 97.0124 948.239 100.835 945.758 105.797C943.277 110.76 942.07 116.46 942.137 122.898C942.137 129.269 943.377 134.935 945.859 139.898C948.407 144.793 951.894 148.616 956.321 151.365C960.814 154.048 965.977 155.39 971.811 155.39Z" fill="black"/>
<path d="M1060.03 67.3711H1029.45L1062.55 178.224H1089.3L1111.07 107.422L1134.57 178.224H1160.93L1194.12 67.3711H1166.46L1147.63 136.37L1126.83 67.3711H1100.07L1079.36 137.89L1060.03 67.3711Z" fill="black"/>
</g>
<defs>
<clipPath id="clip0_1255_4442">
<rect width="1193.37" height="200" fill="white" transform="translate(0.75 0.5)"/>
</clipPath>
</defs>
</svg>
