<svg width="680" height="200" viewBox="0 0 680 200" fill="none" xmlns="http://www.w3.org/2000/svg">
<g clip-path="url(#clip0_1255_3849)">
<path d="M345.961 162.059H325.52L290.371 113.449L254.972 162.059H234.531L279.901 99.4892L238.27 41.9048H258.712L290.371 85.5293L322.03 41.9048H342.471L300.591 99.4892L345.961 162.059ZM452.156 127.907C452.156 138.377 448.666 146.853 441.686 152.836C434.706 158.819 424.734 162.059 411.772 162.059H355.683V108.463H328.76L339.978 93.0078H355.683V41.9048H409.528C421.743 41.9048 430.967 44.8961 437.448 50.6296C443.929 56.3632 447.17 64.091 447.17 73.3144C447.17 84.7815 441.935 93.7557 431.465 99.4892C438.196 101.982 443.181 105.971 446.671 110.707C450.411 115.443 452.156 121.426 452.156 127.907ZM373.881 93.2571H408.282C415.262 93.2571 420.497 91.7614 423.987 88.5207C427.477 85.5293 429.222 80.7929 429.222 74.5609C429.222 69.3259 427.477 65.0881 423.737 62.0967C420.247 59.1053 415.012 57.6096 408.282 57.6096H373.881V93.2571ZM433.709 127.409C433.709 121.177 431.714 116.191 427.975 113.2C424.236 109.959 418.502 108.463 411.024 108.463H373.881V146.105H410.775C418.004 146.105 423.737 144.36 427.726 141.369C431.714 138.128 433.709 133.392 433.709 127.409ZM575.8 101.982C575.8 111.205 574.554 119.93 571.812 127.409C569.069 134.887 565.081 141.618 559.846 147.352C554.362 153.085 548.13 157.572 541.15 160.314C534.17 163.306 526.193 164.552 517.219 164.552C508.494 164.552 500.267 163.056 493.287 160.314C486.307 157.323 480.075 153.085 474.591 147.352C469.107 141.618 465.118 134.887 462.376 127.409C459.634 119.93 458.388 111.205 458.388 101.982C458.388 92.7585 459.634 84.0336 462.376 76.5551C465.118 69.0766 469.107 62.0967 474.591 56.3632C479.826 50.6297 486.058 46.3918 493.287 43.4004C500.267 40.6583 508.494 39.1626 517.219 39.1626C525.943 39.1626 533.921 40.6583 541.15 43.4004C548.13 46.1426 554.611 50.6297 559.846 56.3632C565.081 62.0967 569.319 69.0766 571.812 76.5551C574.304 84.0336 575.8 92.5092 575.8 101.982ZM477.333 101.982C477.333 116.191 481.072 127.409 488.302 135.635C495.531 143.862 505.004 148.099 517.219 148.099C529.184 148.099 538.906 143.862 546.135 135.635C553.365 127.409 556.855 116.191 556.855 101.982C556.855 87.7729 553.365 76.3058 546.135 68.0795C538.906 59.8531 529.184 55.6153 517.219 55.6153C505.253 55.6153 495.531 59.8531 488.302 68.0795C481.072 76.5551 477.333 87.7729 477.333 101.982ZM633.634 99.4892L675.513 41.9048H655.072L623.413 85.5293L591.754 41.9048H571.313L613.193 99.4892L567.823 162.059H588.264L623.413 113.449L658.811 162.059H679.253L633.634 99.4892Z" fill="black"/>
<path d="M100.625 80.1993C130.762 103.113 181.821 159.402 166.379 175.342C148.695 190.785 125.781 200 100.625 200C75.4698 200 52.3067 190.785 34.872 175.342C19.1809 159.402 70.4885 103.113 100.376 80.4483C100.376 80.1993 100.625 80.1993 100.625 80.1993ZM152.68 14.6949C137.487 5.47945 120.8 0 100.625 0C80.4511 0 63.7637 5.47945 48.5707 14.6949C48.3216 14.6949 48.3216 14.944 48.3216 15.193C48.3216 15.4421 48.5707 15.4421 48.8197 15.4421C68.2469 11.208 97.6367 27.8954 100.376 29.6389H100.875C103.614 27.8954 133.004 11.208 152.431 15.4421C152.68 15.4421 152.929 15.4421 152.929 15.193C152.929 14.944 152.929 14.6949 152.68 14.6949ZM30.6379 28.6426C30.3888 28.6426 30.3889 28.8917 30.1398 28.8917C11.958 47.0735 0.75 72.2291 0.75 99.8755C0.75 122.54 8.47104 143.711 21.1734 160.399C21.1734 160.648 21.4225 160.648 21.6715 160.648C21.9206 160.648 21.9206 160.399 21.6715 160.149C13.9505 136.488 53.0538 79.4521 73.2282 55.5417L73.4773 55.2927C73.4773 55.0436 73.4773 55.0436 73.2282 55.0436C42.5931 24.6575 32.3814 27.8954 30.6379 28.6426ZM128.023 54.7945L127.774 55.0436C127.774 55.0436 127.774 55.2927 128.023 55.2927C148.197 79.203 187.051 136.239 179.579 159.9V160.399C179.828 160.399 180.078 160.399 180.078 160.149C192.78 143.462 200.501 122.291 200.501 99.6264C200.501 71.9801 189.293 46.8244 170.862 28.6426C170.613 28.3935 170.613 28.3935 170.364 28.3935C168.87 27.8954 158.658 24.6575 128.023 54.7945Z" fill="black"/>
</g>
<defs>
<clipPath id="clip0_1255_3849">
<rect width="679" height="200" fill="white" transform="translate(0.75)"/>
</clipPath>
</defs>
</svg>
