<svg width="897" height="200" viewBox="0 0 897 200" fill="none" xmlns="http://www.w3.org/2000/svg">
<g clip-path="url(#clip0_1255_4057)">
<path fill-rule="evenodd" clip-rule="evenodd" d="M280.476 31.2323C277.184 18.9323 267.517 9.26621 255.217 5.97365C232.946 0 143.6 0 143.6 0C143.6 0 54.2541 0 31.9822 5.97365C19.6823 9.26621 10.0162 18.9323 6.72365 31.2323C0.75 53.5041 0.75 99.9998 0.75 99.9998C0.75 99.9998 0.75 146.496 6.72365 168.768C10.0162 181.068 19.6823 190.734 31.9822 194.026C54.2541 200 143.6 200 143.6 200C143.6 200 232.946 200 255.217 194.026C267.517 190.734 277.184 181.068 280.476 168.768C286.45 146.496 286.45 99.9998 286.45 99.9998C286.45 99.9998 286.426 53.5041 280.476 31.2323ZM115.003 142.854L189.227 100.004L115.003 57.1533V142.854ZM314.694 14.1846L346.773 130.036H346.75V185.61H374.548V130.036L407.027 14.1846H379.04L367.399 66.8891C364.13 82.2935 362.013 93.253 361.072 99.7911H360.249C358.885 90.666 356.792 79.6359 353.923 66.7009L342.681 14.1846H314.694ZM415.446 181.937C409.802 178.127 405.78 172.2 403.381 164.157C401.006 156.114 399.807 145.437 399.807 132.078V113.898C399.807 100.422 401.171 89.5803 403.899 81.4194C406.627 73.2587 410.884 67.285 416.669 63.5456C422.455 59.8062 430.051 57.9247 439.459 57.9247C448.725 57.9247 456.133 59.8297 461.73 63.6397C467.304 67.4496 471.396 73.4233 473.983 81.5135C476.57 89.6273 477.864 100.422 477.864 113.898V132.078C477.864 145.437 476.594 156.161 474.078 164.251C471.561 172.365 467.469 178.292 461.824 182.031C456.18 185.771 448.513 187.652 438.847 187.652C428.875 187.675 421.091 185.747 415.446 181.937ZM447.102 162.323C448.654 158.231 449.454 151.575 449.454 142.309V103.292C449.454 94.3075 448.678 87.7223 447.102 83.5831C445.526 79.4204 442.775 77.3508 438.823 77.3508C435.014 77.3508 432.309 79.4204 430.757 83.5831C429.181 87.7459 428.405 94.3075 428.405 103.292V142.309C428.405 151.575 429.157 158.254 430.663 162.323C432.168 166.415 434.872 168.461 438.823 168.461C442.775 168.461 445.526 166.415 447.102 162.323ZM546.843 185.634H568.903V60.3515H540.728V159.858C539.623 162.162 537.977 164.067 535.719 165.573C533.461 167.078 531.109 167.83 528.663 167.83C525.794 167.83 523.748 166.631 522.525 164.256C521.302 161.88 520.691 157.906 520.691 152.308V60.375H492.492V153.955C492.492 165.526 494.468 174.039 498.419 179.496C502.37 184.928 508.508 187.656 516.81 187.656C528.804 187.656 537.788 181.871 543.786 170.3H544.397L546.843 185.634ZM645.504 36.8757H617.517V185.629H589.93V36.8757H561.943V14.2041H645.504V36.8757ZM691.457 185.634H713.516V60.3515H685.341V159.858C684.237 162.162 682.591 164.067 680.333 165.573C678.075 167.078 675.723 167.83 673.278 167.83C670.408 167.83 668.362 166.631 667.139 164.256C665.916 161.88 665.305 157.906 665.305 152.308V60.375H637.106V153.955C637.106 165.526 639.082 174.039 643.033 179.496C646.984 184.928 653.122 187.656 661.424 187.656C673.419 187.656 682.403 181.871 688.4 170.3H689.011L691.457 185.634ZM806.838 80.3868C805.121 72.4848 802.369 66.7698 798.56 63.2185C794.75 59.6673 789.505 57.9034 782.826 57.9034C777.652 57.9034 772.807 59.3615 768.315 62.3013C763.823 65.2411 760.342 69.0746 757.896 73.8488H757.685V7.85645H730.521V185.608H753.804L756.673 173.755H757.285C759.472 177.988 762.741 181.304 767.092 183.774C771.443 186.22 776.288 187.443 781.603 187.443C791.128 187.443 798.16 183.045 802.652 174.272C807.144 165.476 809.401 151.765 809.401 133.092V113.266C809.401 99.272 808.531 88.289 806.838 80.3868ZM780.991 131.492C780.991 140.617 780.615 147.767 779.862 152.941C779.11 158.115 777.863 161.808 776.076 163.971C774.312 166.158 771.913 167.24 768.926 167.24C766.598 167.24 764.458 166.699 762.482 165.594C760.507 164.512 758.908 162.866 757.685 160.702V89.606C758.625 86.1958 760.272 83.4207 762.6 81.2335C764.905 79.0463 767.445 77.9644 770.149 77.9644C773.019 77.9644 775.229 79.0933 776.782 81.3276C778.357 83.5853 779.439 87.3483 780.051 92.6634C780.662 97.9785 780.968 105.528 780.968 115.335V131.492H780.991ZM850.111 156.798C849.64 152.776 849.405 146.755 849.405 138.712V132.362H896.63V110.913C896.63 97.6959 895.572 87.3478 893.455 79.8455C891.338 72.3432 887.693 66.8399 882.519 63.2887C877.345 59.7374 869.913 57.9735 860.247 57.9735C846.207 57.9735 836.306 62.3009 830.52 70.9557C824.735 79.6103 821.842 93.345 821.842 112.136V134.008C821.842 152.259 824.617 165.735 830.214 174.46C835.788 183.185 845.525 187.536 859.424 187.536C870.995 187.536 879.956 184.667 886.282 178.952C892.608 173.237 895.783 164.582 895.783 153.011C895.783 151.106 895.713 149.601 895.572 148.519L871.254 147.085C871.113 154.705 870.266 160.161 868.69 163.43C867.138 166.699 864.222 168.345 860.012 168.345C856.884 168.345 854.579 167.428 853.074 165.594C851.569 163.736 850.581 160.819 850.111 156.798ZM850.111 88.3591C850.605 84.3375 851.545 81.4447 852.98 79.6809C854.391 77.917 856.602 77.0233 859.612 76.9998C862.599 76.9998 864.81 77.87 866.244 79.5633C867.679 81.2801 868.667 84.1964 869.208 88.3591C869.749 92.5219 870.031 98.6131 870.031 106.657V115.641H849.405V106.657C849.405 98.472 849.64 92.3808 850.111 88.3591Z" fill="black"/>
</g>
<defs>
<clipPath id="clip0_1255_4057">
<rect width="895.88" height="200" fill="white" transform="translate(0.75)"/>
</clipPath>
</defs>
</svg>
