<svg width="947" height="200" viewBox="0 0 947 200" fill="none" xmlns="http://www.w3.org/2000/svg">
<path d="M144.929 51.1249L144.077 78.4924L72.703 156.08C102.517 156.08 121.422 155.789 132.324 155.183C129.164 169.908 126.595 181.945 124.007 199.992C109.669 198.781 87.3169 198.479 64.9534 198.479C40.0243 198.479 18.2359 198.778 0.75 199.992L1.33274 172.315L72.703 95.037C41.4584 95.037 29.9891 95.3322 17.0969 95.6349C19.9539 81.7998 21.9632 66.4699 23.9687 51.1249C46.6123 52.0255 55.4971 52.3207 85.0238 52.3207C112.257 52.3245 127.726 52.0255 144.929 51.1249V51.1249ZM226.054 42.9963C179.605 42.9963 144.077 84.4979 144.077 134.136C144.077 171.422 165.57 199.992 207.418 199.992C254.143 199.992 289.398 158.483 289.398 108.554C289.402 71.5824 268.469 42.9963 226.054 42.9963V42.9963ZM212.004 160.103C201.681 160.103 195.668 150.767 195.668 132.425C195.668 105.058 206.846 83.1091 220.613 83.1091C230.637 83.1091 236.657 92.1383 236.657 110.772C236.653 137.837 225.77 160.103 212.004 160.103V160.103ZM882.569 40.9377C835.526 40.9377 799.522 82.988 799.522 133.25C799.522 171.043 821.299 199.992 863.695 199.992C911.029 199.992 946.75 157.938 946.75 107.362C946.754 69.8908 925.563 40.9377 882.569 40.9377V40.9377ZM867.452 159.944C857.126 159.944 851.117 150.608 851.117 132.266C851.117 104.899 862.298 82.954 876.061 82.954C886.081 82.954 892.113 91.9755 892.113 110.613C892.105 137.689 881.211 159.944 867.452 159.944V159.944ZM530.455 97.1372C534.186 71.5824 532.181 48.4191 503.808 48.4191C483.167 48.4191 460.811 65.8644 445.046 95.037C448.49 70.9693 446.477 48.4191 418.388 48.4191C397.179 48.4191 374.247 66.7613 358.476 97.1372C362.49 77.289 361.635 54.7274 360.485 49.9177C344.149 52.6272 329.823 54.1257 309.753 54.7274C310.328 68.5663 309.465 86.5982 306.884 103.756L300.293 148.86C297.712 166.612 294.844 187.062 291.975 199.996H345.292C345.584 192.167 347.593 179.841 349.023 169.015L353.609 138.045C357.333 117.882 373.381 94.1363 385.705 94.1363C392.872 94.1363 392.592 101.05 390.583 113.981L385.422 148.856C382.833 166.608 379.976 187.058 377.104 199.992H430.993C431.284 192.163 433.002 179.838 434.432 169.011L439.015 138.041C442.746 117.879 458.805 94.1326 471.122 94.1326C478.297 94.1326 478.013 100.74 476.855 109.769L463.982 199.989H513.162L530.455 97.1372ZM787.961 152.777L782.229 188.269C773.34 193.079 756.713 200 737.509 200C704.83 200 698.246 182.555 703.396 145.564L711.713 86.0154H695.631L700.172 47.4693L717.73 46.6216L724.326 18.6524L773.908 0L767.607 46.6179H801.72C800.577 51.4276 796.551 77.902 795.423 86.0116H762.154L754.7 141.049C752.694 155.183 753.849 160.3 763.581 160.3C770.763 160.292 781.358 156.08 787.961 152.777V152.777ZM599.881 171.948C617.927 169.711 630.346 152.315 633.331 134.957L633.835 130.306C626.081 128.573 614.873 127.252 604.005 128.58C593.656 129.84 585.044 134.143 580.412 140.372C576.919 144.845 575.164 150.196 575.943 156.576C577.12 166.131 587.689 173.435 599.881 171.948V171.948ZM584.521 199.436C559.051 202.566 542.277 192.454 537.24 169.458C534.08 154.987 538.466 138.503 546.136 128.667C556.41 115.805 573.15 107.548 593.58 105.054C610.022 103.014 623.875 104.021 636.832 106.473L637.369 104.252C637.74 100.698 638.114 97.1524 637.596 92.9065C636.253 82.0041 627.655 75.5104 606.427 78.1215C592.105 79.8812 578.478 85.0542 567.898 90.9425L557.606 59.8399C571.947 51.6055 590.023 45.3388 610.711 42.7996C650.227 37.952 677.994 50.5534 681.551 79.5255C682.493 87.2301 682.607 95.3965 681.634 102.806C676.56 138.627 673.309 165.582 671.883 183.648C671.652 186.445 671.671 191.251 671.921 198.062L622.884 198.017C623.928 195.194 624.863 191.364 625.695 186.562C626.248 183.402 626.641 179.418 626.887 174.589C616.523 188.81 602.276 197.256 584.521 199.436V199.436Z" fill="black"/>
</svg>
