<svg width="891" height="200" viewBox="0 0 891 200" fill="none" xmlns="http://www.w3.org/2000/svg">
<g clip-path="url(#clip0_1255_3909)">
<path fill-rule="evenodd" clip-rule="evenodd" d="M361.5 29.25C342 9.74999 316.5 0 290.75 0C265.25 0 239.5 9.74999 220 29.25C181 68.25 181 131.5 220 170.75C259 209.75 322.25 209.75 361.5 170.75C400.5 131.75 400.5 68.25 361.5 29.25ZM333.25 142.5C309.75 166 271.75 166 248.5 142.5C225 119 225 81 248.5 57.75C272 34.25 310 34.25 333.25 57.75C356.5 81 356.5 119 333.25 142.5Z" fill="black"/>
<path fill-rule="evenodd" clip-rule="evenodd" d="M571.5 29.25C552 9.74999 526.5 0 500.75 0C475.25 0 449.5 9.74999 430 29.25C391 68.25 391 131.5 430 170.75C469 209.75 532.25 209.75 571.5 170.75C610.5 131.75 610.5 68.25 571.5 29.25ZM543.25 142.5C519.75 166 481.75 166 458.5 142.5C435 119 435 81 458.5 57.75C482 34.25 520 34.25 543.25 57.75C566.5 81 566.5 119 543.25 142.5Z" fill="black"/>
<path fill-rule="evenodd" clip-rule="evenodd" d="M40.75 199.5L50.75 200H200.75L200.25 190C199 173.5 187.25 161.5 170.75 160.5L160.75 160H70.75L190.75 40L190.25 30C189.5 13.5 177.25 1.24999 160.75 0.499992L150.75 0H0.75L1.24999 10C2.49999 26.25 14.5 38.5 30.75 39.5L40.75 40H130.75L10.75 160L11.25 170C12.25 186.5 24.25 198.5 40.75 199.5Z" fill="black"/>
<path fill-rule="evenodd" clip-rule="evenodd" d="M725.25 60C728.75 66 729.75 72.5 730.25 80L730.75 90V160L731.25 170C732.25 186.25 744.25 198.5 760.75 199.5L770.75 200V90L771.25 80C771.75 72.5 772.75 65.75 776.25 59.75C783.25 47.75 796 40 810.75 40C825.5 40 838.5 48 845.5 60C849 66 850 72.75 850.25 80L850.75 90V160L851.25 170C852.25 186.5 864.25 198.5 880.75 199.5L890.75 200V90V80C890.75 35.75 855 0 810.75 0C786.75 0 765.5 10.5 750.75 27C736 10.5 714.75 0 690.75 0C674.25 0 658.75 5 646 13.75C638.25 5 620.75 0 610.75 0V200L620.75 199.5C637.5 198.5 649.5 186.5 650.25 170L650.75 160V90L651.25 80C651.75 72.5 652.75 65.75 656.25 60C663.25 48 676 40 690.75 40C705.5 40 718.5 48 725.25 60Z" fill="black"/>
</g>
<defs>
<clipPath id="clip0_1255_3909">
<rect width="890" height="200" fill="white" transform="translate(0.75)"/>
</clipPath>
</defs>
</svg>
