<svg width="760" height="200" viewBox="0 0 760 200" fill="none" xmlns="http://www.w3.org/2000/svg">
<path d="M98.34 79.23C95.6384 79.1434 92.9481 79.6156 90.4375 80.6171C87.9269 81.6185 85.6502 83.1277 83.75 85.05C79.9167 88.93 78 93.9134 78 100C78 106.087 79.9133 111.087 83.74 115C85.6387 116.924 87.9152 118.435 90.4261 119.436C92.9371 120.438 95.6281 120.909 98.33 120.82C101.043 120.904 103.745 120.431 106.268 119.43C108.791 118.429 111.082 116.921 113 115C116.873 111.127 118.81 106.127 118.81 100C118.81 93.8734 116.873 88.8734 113 85C111.078 83.091 108.786 81.5946 106.265 80.6025C103.745 79.6103 101.048 79.1433 98.34 79.23Z" fill="#0084FF"/>
<path d="M101 35C88.1442 35 75.5771 38.8122 64.8879 45.9545C54.1987 53.0968 45.8675 63.2484 40.9478 75.1256C36.0281 87.0028 34.7409 100.072 37.249 112.681C39.757 125.29 45.9477 136.872 55.0381 145.962C64.1285 155.052 75.7104 161.243 88.3191 163.751C100.928 166.259 113.997 164.972 125.874 160.052C137.752 155.132 147.903 146.801 155.046 136.112C162.188 125.423 166 112.856 166 100C165.979 82.7674 159.124 66.2467 146.939 54.0615C134.753 41.8762 118.233 35.0212 101 35ZM137.82 136.83H118.82V128.14C113.133 135.313 105.133 138.897 94.82 138.89C85 138.89 76.5767 135.133 69.55 127.62C62.5233 120.107 59.0067 110.9 59 100C59 89.1 62.51 79.8934 69.53 72.38C76.55 64.8667 84.9733 61.11 94.8 61.11C105.113 61.11 113.113 64.6934 118.8 71.86V63.17H137.8L137.82 136.83Z" fill="#0084FF"/>
<path d="M201 100C201 92.57 194.41 86 192.83 79C191.2 71.82 194.24 63 191.12 56.56C188 50.12 179.12 46.9 174.63 41.24C170.14 35.58 169 26.35 163.35 21.81C157.7 17.27 148.45 18.3 141.87 15.13C135.29 11.96 130.43 4.13002 123.26 2.49002C116.26 0.910022 108.43 5.83002 101 5.83002C93.57 5.83002 85.69 0.910022 78.74 2.49002C71.57 4.12002 66.61 12 60.13 15.13C53.65 18.26 44.3 17.3 38.65 21.81C33 26.32 31.9 35.6 27.37 41.28C22.84 46.96 14.06 50 10.88 56.6C7.7 63.2 10.8 71.86 9.17 79C7.59 86 1 92.57 1 100C1 107.43 7.59 114 9.17 121C10.8 128.18 7.76 137 10.88 143.44C14 149.88 22.88 153.1 27.37 158.76C31.86 164.42 32.97 173.69 38.65 178.23C44.33 182.77 53.55 181.74 60.13 184.91C66.71 188.08 71.57 195.91 78.74 197.55C85.74 199.13 93.57 194.21 101 194.21C108.43 194.21 116.31 199.13 123.26 197.55C130.43 195.92 135.39 188.03 141.87 184.91C148.35 181.79 157.7 182.74 163.35 178.23C169 173.72 170.1 164.44 174.63 158.76C179.16 153.08 187.94 150.02 191.12 143.44C194.3 136.86 191.2 128.18 192.83 121C194.41 114 201 107.43 201 100ZM101 169C87.3531 169 74.0126 164.953 62.6657 157.371C51.3187 149.79 42.4748 139.013 37.2523 126.405C32.0299 113.797 30.6634 99.9235 33.3258 86.5388C35.9882 73.1541 42.5598 60.8595 52.2096 51.2097C61.8595 41.5598 74.1541 34.9882 87.5388 32.3258C100.923 29.6635 114.797 31.0299 127.405 36.2523C140.013 41.4748 150.79 50.3187 158.371 61.6657C165.953 73.0127 170 86.3531 170 100C169.981 118.294 162.706 135.834 149.77 148.77C136.834 161.706 119.294 168.981 101 169Z" fill="#0084FF"/>
<path d="M456.051 54.8901C463.4 54.8901 469.945 56.4403 475.686 59.5406C481.428 62.5261 485.963 67.0618 489.293 73.1476C492.623 79.2334 494.288 86.6397 494.288 95.3665V151H478.787V97.6057C478.787 88.1899 476.433 81.0132 471.725 76.0757C467.132 71.0233 460.874 68.4971 452.951 68.4971C444.798 68.4971 438.31 71.1381 433.488 76.4201C428.665 81.5873 426.254 89.1085 426.254 98.9836V151H410.752V97.6057C410.752 88.1899 408.398 81.0132 403.69 76.0757C399.097 71.0233 392.839 68.4971 384.916 68.4971C376.763 68.4971 370.276 71.1381 365.453 76.4201C360.63 81.5873 358.219 89.1085 358.219 98.9836V151H342.545V56.6125H358.219V70.2195C361.319 65.2819 365.453 61.4927 370.62 58.8517C375.902 56.2106 381.701 54.8901 388.016 54.8901C395.939 54.8901 402.944 56.6699 409.03 60.2296C415.115 63.7892 419.651 69.0138 422.637 75.9034C425.278 69.2435 429.641 64.0763 435.727 60.4018C441.813 56.7274 448.587 54.8901 456.051 54.8901Z" fill="black"/>
<path d="M631.4 71.9419C634.156 66.545 638.06 62.3539 643.113 59.3684C648.28 56.3829 654.538 54.8901 661.887 54.8901V71.0807H657.753C640.185 71.0807 631.4 80.6113 631.4 99.6725V151H615.727V56.6125H631.4V71.9419Z" fill="black"/>
<path fill-rule="evenodd" clip-rule="evenodd" d="M663.789 103.462C663.789 93.8164 665.741 85.3766 669.645 78.1425C673.549 70.7936 678.889 65.1097 685.664 61.0908C692.553 57.0718 700.189 55.0624 708.571 55.0624C716.839 55.0624 724.016 56.8422 730.101 60.4018C736.187 63.9615 740.723 68.4397 743.708 73.8365V56.6125H759.555V151H743.708V133.432C740.608 138.943 735.958 143.536 729.757 147.211C723.671 150.77 716.552 152.55 708.399 152.55C700.017 152.55 692.438 150.483 685.664 146.35C678.889 142.216 673.549 136.417 669.645 128.953C665.741 121.49 663.789 112.992 663.789 103.462ZM743.708 103.634C743.708 96.5148 742.273 90.3142 739.402 85.0321C736.532 79.7501 732.628 75.7312 727.69 72.9753C722.867 70.1047 717.528 68.6693 711.672 68.6693C705.816 68.6693 700.476 70.0473 695.653 72.8031C690.831 75.5589 686.984 79.5779 684.113 84.8599C681.243 90.1419 679.807 96.3426 679.807 103.462C679.807 110.696 681.243 117.011 684.113 122.408C686.984 127.69 690.831 131.767 695.653 134.637C700.476 137.393 705.816 138.771 711.672 138.771C717.528 138.771 722.867 137.393 727.69 134.637C732.628 131.767 736.532 127.69 739.402 122.408C742.273 117.011 743.708 110.753 743.708 103.634Z" fill="black"/>
<path fill-rule="evenodd" clip-rule="evenodd" d="M509.665 78.1425C505.761 85.3766 503.809 93.8164 503.809 103.462C503.809 112.992 505.761 121.49 509.665 128.953C513.569 136.417 518.908 142.216 525.683 146.35C532.458 150.483 540.036 152.55 548.419 152.55C556.571 152.55 563.691 150.77 569.777 147.211C575.977 143.536 580.628 138.943 583.728 133.432V151H599.574V56.6125H583.728V73.8365C580.742 68.4397 576.207 63.9615 570.121 60.4018C564.035 56.8422 556.859 55.0624 548.591 55.0624C540.209 55.0624 532.573 57.0718 525.683 61.0908C518.908 65.1097 513.569 70.7936 509.665 78.1425ZM579.422 85.0321C582.293 90.3142 583.728 96.5148 583.728 103.634C583.728 110.753 582.293 117.011 579.422 122.408C576.551 127.69 572.647 131.767 567.71 134.637C562.887 137.393 557.547 138.771 551.691 138.771C545.835 138.771 540.496 137.393 535.673 134.637C530.85 131.767 527.004 127.69 524.133 122.408C521.262 117.011 519.827 110.696 519.827 103.462C519.827 96.3426 521.262 90.1419 524.133 84.8599C527.004 79.5779 530.85 75.5589 535.673 72.8031C540.496 70.0473 545.835 68.6693 551.691 68.6693C557.547 68.6693 562.887 70.1047 567.71 72.9753C572.647 75.7312 576.551 79.7501 579.422 85.0321Z" fill="black"/>
<path fill-rule="evenodd" clip-rule="evenodd" d="M236.482 78.1425C232.578 85.3766 230.626 93.8164 230.626 103.462C230.626 112.992 232.578 121.49 236.482 128.953C240.386 136.417 245.726 142.216 252.5 146.35C259.275 150.483 266.854 152.55 275.236 152.55C283.389 152.55 290.508 150.77 296.594 147.211C302.795 143.536 307.445 138.943 310.545 133.432V151H326.391V56.6125H310.545V73.8365C307.56 68.4397 303.024 63.9615 296.938 60.4018C290.853 56.8422 283.676 55.0624 275.408 55.0624C267.026 55.0624 259.39 57.0718 252.5 61.0908C245.726 65.1097 240.386 70.7936 236.482 78.1425ZM306.239 85.0321C309.11 90.3142 310.545 96.5148 310.545 103.634C310.545 110.753 309.11 117.011 306.239 122.408C303.369 127.69 299.465 131.767 294.527 134.637C289.704 137.393 284.365 138.771 278.509 138.771C272.653 138.771 267.313 137.393 262.49 134.637C257.668 131.767 253.821 127.69 250.95 122.408C248.08 117.011 246.644 110.696 246.644 103.462C246.644 96.3426 248.08 90.1419 250.95 84.8599C253.821 79.5779 257.668 75.5589 262.49 72.8031C267.313 70.0473 272.653 68.6693 278.509 68.6693C284.365 68.6693 289.704 70.1047 294.527 72.9753C299.465 75.7312 303.369 79.7501 306.239 85.0321Z" fill="black"/>
</svg>
