<svg width="716" height="200" viewBox="0 0 716 200" fill="none" xmlns="http://www.w3.org/2000/svg">
<g clip-path="url(#clip0_1113_4334)">
<path d="M141.53 156.3C131.106 164 118.75 168.655 105.836 169.748C92.9231 170.84 79.9603 168.326 68.3915 162.485C56.8228 156.645 47.1024 147.708 40.313 136.67C33.5235 125.631 29.9317 112.925 29.9374 99.9654C29.9432 87.0061 33.5463 74.3028 40.3456 63.2704C47.1448 52.238 56.8731 43.3096 68.447 37.4797C80.021 31.6498 92.9861 29.1472 105.898 30.2508C118.811 31.3543 131.163 36.0206 141.58 43.73L160.97 20.73C146.17 9.34558 128.479 2.33198 109.899 0.483294C91.3192 -1.36539 72.5928 2.02468 55.8402 10.2697C39.0876 18.5147 24.9779 31.2853 15.1087 47.1355C5.23956 62.9857 0.00511905 81.2824 -0.00194596 99.9541C-0.00901097 118.626 5.21159 136.926 15.0688 152.784C24.9259 168.642 39.0259 181.423 55.7723 189.681C72.5187 197.938 91.2425 201.343 109.824 199.508C128.405 197.673 146.102 190.673 160.91 179.3L141.53 156.3Z" fill="black"/>
<path d="M148.41 150.49L167.79 173.49C177.944 164.129 186.049 152.767 191.594 140.119C197.139 127.471 200.004 113.811 200.008 100.001C200.013 86.1908 197.157 72.5293 191.621 59.8775C186.084 47.2256 177.987 35.8577 167.84 26.49L148.44 49.49C155.267 56.0102 160.702 63.8471 164.415 72.5269C168.127 81.2068 170.042 90.5494 170.042 99.99C170.042 109.431 168.127 118.773 164.415 127.453C160.702 136.133 155.267 143.97 148.44 150.49H148.41Z" fill="#FF9900"/>
</g>
<path d="M566.467 6V166.6H585.607V6H566.467Z" fill="black"/>
<path fill-rule="evenodd" clip-rule="evenodd" d="M661.447 151.42C640.987 151.42 625.367 140.2 621.627 120.4H713.807C714.247 117.54 714.467 114.68 714.467 111.82C714.467 81.02 692.907 53.74 659.687 53.74C625.367 53.74 602.047 79.04 602.047 111.6C602.047 144.6 625.587 169.46 661.007 169.46C683.007 169.46 699.727 159.56 709.407 144.6L693.127 135.36C687.627 144.38 676.627 151.42 661.447 151.42ZM621.627 103.68C624.707 84.54 639.007 71.78 659.687 71.78C676.187 71.78 691.807 81.9 695.107 103.68H621.627Z" fill="black"/>
<path d="M504.669 169.46C471.449 169.46 446.809 144.16 446.809 111.6C446.809 79.04 471.449 53.74 504.669 53.74C526.449 53.74 544.929 65.18 553.289 82.56L537.229 91.8C531.729 80.14 519.409 72.44 504.669 72.44C482.669 72.44 465.949 89.38 465.949 111.6C465.949 133.6 482.669 150.54 504.669 150.54C519.629 150.54 531.729 142.84 537.889 131.4L554.169 140.86C544.929 158.02 526.229 169.46 504.669 169.46Z" fill="black"/>
<path d="M446.857 54.62C432.997 54.62 419.577 59.68 412.537 75.08V56.6H393.397V166.6H412.537V108.3C412.537 82.34 430.357 73.98 446.857 74.64V54.62Z" fill="black"/>
<path d="M361.337 36.58C354.077 36.58 348.357 30.86 348.357 23.82C348.357 16.78 354.077 10.84 361.337 10.84C368.377 10.84 374.097 16.78 374.097 23.82C374.097 30.86 368.377 36.58 361.337 36.58Z" fill="black"/>
<path d="M351.657 166.6V56.6H370.797V166.6H351.657Z" fill="black"/>
<path d="M232 111.6C232 144.16 256.64 169.46 289.86 169.46C311.42 169.46 330.12 158.02 339.36 140.86L323.08 131.4C316.92 142.84 304.82 150.54 289.86 150.54C267.86 150.54 251.14 133.6 251.14 111.6C251.14 89.38 267.86 72.44 289.86 72.44C304.6 72.44 316.92 80.14 322.42 91.8L338.48 82.56C330.12 65.18 311.64 53.74 289.86 53.74C256.64 53.74 232 79.04 232 111.6Z" fill="black"/>
<defs>
<clipPath id="clip0_1113_4334">
<rect width="200" height="200" fill="white"/>
</clipPath>
</defs>
</svg>
