<svg width="833" height="200" viewBox="0 0 833 200" fill="none" xmlns="http://www.w3.org/2000/svg">
<path d="M128 54C131.314 54 134 51.3137 134 48C134 44.6863 131.314 42 128 42C124.686 42 122 44.6863 122 48C122 51.3137 124.686 54 128 54Z" fill="#02BB36"/>
<path d="M64 58C66.2091 58 68 56.2091 68 54C68 51.7909 66.2091 50 64 50C61.7909 50 60 51.7909 60 54C60 56.2091 61.7909 58 64 58Z" fill="#02BB36"/>
<path d="M88 78C88 84.6274 82.6274 90 76 90C69.3726 90 64 84.6274 64 78C64 71.3726 69.3726 66 76 66C82.6274 66 88 71.3726 88 78Z" fill="#02BB36"/>
<path d="M86 148C86 154.627 80.6274 160 74 160C67.3726 160 62 154.627 62 148C62 141.373 67.3726 136 74 136C80.6274 136 86 141.373 86 148Z" fill="#02BB36"/>
<path d="M62 111C62 112.657 60.6569 114 59 114C57.3431 114 56 112.657 56 111C56 109.343 57.3431 108 59 108C60.6569 108 62 109.343 62 111Z" fill="#02BB36"/>
<path d="M136 117C137.657 117 139 115.657 139 114C139 112.343 137.657 111 136 111C134.343 111 133 112.343 133 114C133 115.657 134.343 117 136 117Z" fill="#02BB36"/>
<path d="M110 159C110 160.657 108.657 162 107 162C105.343 162 104 160.657 104 159C104 157.343 105.343 156 107 156C108.657 156 110 157.343 110 159Z" fill="#02BB36"/>
<path d="M100 100C102.209 100 104 98.2091 104 96C104 93.7909 102.209 92 100 92C97.7909 92 96 93.7909 96 96C96 98.2091 97.7909 100 100 100Z" fill="#02BB36"/>
<path d="M92 115C92 118.866 88.866 122 85 122C81.134 122 78 118.866 78 115C78 111.134 81.134 108 85 108C88.866 108 92 111.134 92 115Z" fill="#02BB36"/>
<path d="M142 82.5C142 91.6127 134.613 99 125.5 99C116.387 99 109 91.6127 109 82.5C109 73.3873 116.387 66 125.5 66C134.613 66 142 73.3873 142 82.5Z" fill="#02BB36"/>
<path d="M97 62C101.971 62 106 57.9706 106 53C106 48.0294 101.971 44 97 44C92.0294 44 88 48.0294 88 53C88 57.9706 92.0294 62 97 62Z" fill="#02BB36"/>
<path d="M134 133C134 141.284 127.284 148 119 148C110.716 148 104 141.284 104 133C104 124.716 110.716 118 119 118C127.284 118 134 124.716 134 133Z" fill="#02BB36"/>
<path d="M33.26 185C29.6067 185.082 25.9612 184.627 22.44 183.65C19.9313 182.942 17.6655 181.558 15.89 179.65C14.0111 177.483 12.6774 174.897 12 172.11C11.0126 168.039 10.5555 163.858 10.64 159.67V126.67C10.64 120.53 9.69 116.06 7.74 113.02C5.89765 110.294 3.15938 108.299 0 107.38L0 90.71C5.33 88.92 10.67 84.36 10.67 73.3V40.3C10.67 30.92 12.4 24.3 15.8 20.51C19.2 16.72 25.19 15 33.78 15H45V31.46H44.62C42.4039 31.4347 40.1887 31.5617 37.99 31.84C36.0015 32.0578 34.1292 32.8857 32.63 34.21C31.2254 35.6175 30.3044 37.435 30 39.4C29.6347 41.5501 29.4707 43.7295 29.51 45.91V75.05C29.5391 77.9616 29.3687 80.8717 29 83.76C28.7618 85.6165 28.246 87.4267 27.47 89.13C26.7514 90.637 25.7538 91.9943 24.53 93.13C22.8156 94.7027 20.9983 96.1592 19.09 97.49L15.36 100.13L19.17 102.65C21.0388 103.841 22.7665 105.24 24.32 106.82C25.5675 108.13 26.6002 109.628 27.38 111.26C28.2002 113.027 28.7465 114.909 29 116.84C29.3528 119.545 29.5198 122.272 29.5 125V154.14C29.4649 156.264 29.629 158.387 29.99 160.48C30.2812 162.392 31.146 164.17 32.47 165.58C33.8835 166.929 35.6783 167.808 37.61 168.1C39.8707 168.468 42.1599 168.632 44.45 168.59H45V185H33.26Z" fill="black"/>
<path d="M166.74 185C170.393 185.082 174.039 184.627 177.56 183.65C180.069 182.942 182.335 181.558 184.11 179.65C185.975 177.485 187.298 174.908 187.97 172.13C188.957 168.059 189.415 163.878 189.33 159.69V126.69C189.33 120.55 190.28 116.08 192.23 113.04C194.075 110.297 196.825 108.29 200 107.37V90.71C194.67 88.92 189.33 84.36 189.33 73.3V40.3C189.33 30.92 187.6 24.3 184.2 20.51C180.8 16.72 174.81 14.97 166.2 14.97H155V31.46H155.38C157.596 31.4347 159.811 31.5617 162.01 31.84C163.998 32.0578 165.871 32.8857 167.37 34.21C168.775 35.6175 169.696 37.435 170 39.4C170.365 41.5501 170.529 43.7295 170.49 45.91V75.05C170.451 77.9609 170.611 80.871 170.97 83.76C171.208 85.6165 171.724 87.4267 172.5 89.13C173.219 90.637 174.216 91.9943 175.44 93.13C177.154 94.7027 178.972 96.1592 180.88 97.49L184.61 100.13L180.8 102.65C178.931 103.841 177.204 105.24 175.65 106.82C174.403 108.13 173.37 109.628 172.59 111.26C171.766 113.039 171.22 114.935 170.97 116.88C170.626 119.569 170.466 122.279 170.49 124.99V154.13C170.525 156.254 170.361 158.377 170 160.47C169.761 162.408 168.881 164.21 167.5 165.59C166.12 166.971 164.318 167.851 162.38 168.09C160.119 168.458 157.83 168.622 155.54 168.58H155V185H166.74Z" fill="black"/>
<path fill-rule="evenodd" clip-rule="evenodd" d="M473.596 154.15C471.221 157.844 468.325 160.745 464.909 162.851C461.417 164.982 457.304 166.047 452.57 166.047C447.657 166.047 443.248 165.071 439.342 163.118C435.495 161.165 432.181 158.265 429.4 154.418C426.677 150.571 424.606 145.807 423.185 140.125C421.765 134.384 421.055 127.726 421.055 120.151V112.605C421.055 104.734 421.765 97.9279 423.185 92.1872C424.606 86.3873 426.677 81.5639 429.4 77.7171C432.181 73.8702 435.525 71.0294 439.431 69.1948C443.337 67.3601 447.746 66.4428 452.658 66.4428C457.452 66.4428 461.595 67.5376 465.087 69.7274C467.963 71.4827 470.479 73.8607 472.632 76.8614V27.9149H493.317V164.272L474.585 164.36L473.596 154.15ZM472.632 93.6496C472.073 92.5178 471.451 91.4681 470.768 90.5005C469.348 88.4883 467.602 86.92 465.531 85.7955C463.518 84.6118 461.151 84.02 458.429 84.02C455.41 84.02 452.836 84.6118 450.705 85.7955C448.575 86.92 446.858 88.6658 445.556 91.0331C444.254 93.3413 443.278 96.3004 442.627 99.9105C442.035 103.461 441.739 107.693 441.739 112.605V120.151C441.739 125.063 442.035 129.295 442.627 132.846C443.219 136.397 444.166 139.326 445.468 141.634C446.77 143.883 448.486 145.57 450.617 146.694C452.747 147.76 455.322 148.292 458.34 148.292C462.128 148.292 465.205 147.345 467.572 145.452C469.685 143.802 471.372 141.659 472.632 139.023V93.6496Z" fill="#02BB36"/>
<path fill-rule="evenodd" clip-rule="evenodd" d="M529.231 163.295C534.084 165.13 539.618 166.047 545.832 166.047C551.336 166.047 556.13 165.337 560.213 163.917C564.356 162.496 567.877 160.691 570.777 158.501C573.677 156.252 575.985 153.974 577.702 151.666L568.558 138.971C566.013 141.871 562.995 144.238 559.503 146.073C556.07 147.848 551.957 148.736 547.164 148.736C543.908 148.736 541.038 148.263 538.552 147.316C536.126 146.31 534.055 144.771 532.338 142.7C530.622 140.569 529.32 137.847 528.432 134.532C527.629 131.321 527.215 127.415 527.191 122.814H578.767V112.428C578.767 104.971 578.057 98.3718 576.636 92.6311C575.275 86.8904 573.145 82.067 570.245 78.1609C567.404 74.2549 563.764 71.3253 559.326 69.3723C554.887 67.4193 549.649 66.4428 543.613 66.4428C538.286 66.4428 533.344 67.3601 528.787 69.1948C524.289 71.0294 520.383 73.8406 517.069 77.6283C513.755 81.416 511.151 86.2689 509.257 92.1872C507.422 98.0463 506.505 105.03 506.505 113.138V122.37C506.505 129.531 507.393 135.834 509.168 141.279C510.944 146.665 513.518 151.222 516.892 154.95C520.265 158.62 524.378 161.401 529.231 163.295ZM527.346 107.19C527.514 104.22 527.817 101.586 528.255 99.2891C528.965 95.5014 529.971 92.4831 531.273 90.2342C532.634 87.9852 534.35 86.3577 536.422 85.3516C538.493 84.3455 540.861 83.8425 543.524 83.8425C547.193 83.8425 550.063 84.7006 552.135 86.4169C554.265 88.074 555.804 90.5005 556.751 93.6964C557.698 96.833 558.231 100.591 558.349 104.971V107.19H527.346Z" fill="#02BB36"/>
<path fill-rule="evenodd" clip-rule="evenodd" d="M335.871 120.151V112.428C335.871 104.971 336.788 98.3718 338.623 92.6311C340.458 86.8904 343.062 82.0966 346.435 78.2497C349.868 74.3436 353.892 71.4141 358.508 69.4611C363.124 67.4489 368.214 66.4428 373.777 66.4428C379.459 66.4428 384.608 67.4489 389.224 69.4611C393.899 71.4141 397.924 74.3436 401.297 78.2497C404.73 82.0966 407.363 86.8904 409.198 92.6311C411.033 98.3718 411.95 104.971 411.95 112.428V120.151C411.95 127.608 411.033 134.207 409.198 139.948C407.363 145.688 404.73 150.512 401.297 154.418C397.924 158.265 393.929 161.165 389.313 163.118C384.697 165.071 379.577 166.047 373.955 166.047C368.392 166.047 363.272 165.071 358.597 163.118C353.981 161.165 349.956 158.265 346.524 154.418C343.091 150.512 340.458 145.688 338.623 139.948C336.788 134.207 335.871 127.608 335.871 120.151ZM356.555 112.428V120.151C356.555 124.945 356.969 129.147 357.798 132.757C358.627 136.308 359.81 139.267 361.349 141.634C362.888 144.002 364.722 145.777 366.853 146.961C368.984 148.144 371.351 148.736 373.955 148.736C376.855 148.736 379.37 148.144 381.501 146.961C383.69 145.777 385.496 144.002 386.916 141.634C388.395 139.267 389.49 136.308 390.201 132.757C390.911 129.147 391.266 124.945 391.266 120.151V112.428C391.266 107.693 390.852 103.55 390.023 99.9993C389.194 96.3892 388.011 93.4005 386.472 91.0331C384.933 88.6067 383.069 86.8016 380.879 85.6179C378.749 84.4343 376.381 83.8425 373.777 83.8425C371.232 83.8425 368.895 84.4343 366.764 85.6179C364.693 86.8016 362.888 88.6067 361.349 91.0331C359.81 93.4005 358.627 96.3892 357.798 99.9993C356.969 103.55 356.555 107.693 356.555 112.428Z" fill="#02BB36"/>
<path d="M327.033 122.104H305.549C305.194 128.614 304.277 133.763 302.797 137.551C301.318 141.338 299.039 144.031 295.962 145.629C292.943 147.227 288.889 148.026 283.8 148.026C279.538 148.026 275.988 147.227 273.147 145.629C270.306 143.972 268.027 141.575 266.311 138.438C264.595 135.243 263.352 131.366 262.583 126.809C261.813 122.252 261.429 117.014 261.429 111.096V88.0148C261.429 81.8598 261.872 76.5038 262.76 71.9468C263.707 67.3305 265.098 63.5132 266.933 60.4949C268.826 57.4174 271.223 55.1093 274.123 53.5705C277.082 52.0318 280.604 51.2624 284.687 51.2624C289.6 51.2624 293.506 52.1206 296.406 53.8369C299.365 55.5532 301.554 58.3643 302.975 62.2704C304.454 66.1173 305.342 71.2662 305.638 77.7171H327.121C326.589 68.1887 324.665 60.1102 321.351 53.4818C318.037 46.8533 313.332 41.8228 307.236 38.3902C301.14 34.9576 293.624 33.2413 284.687 33.2413C277.704 33.2413 271.43 34.4841 265.867 36.9698C260.363 39.3963 255.688 42.9769 251.841 47.7115C247.994 52.4461 245.035 58.2164 242.964 65.0224C240.951 71.8284 239.945 79.5517 239.945 88.1924V111.096C239.945 119.737 240.922 127.46 242.875 134.266C244.887 141.072 247.787 146.842 251.575 151.577C255.362 156.252 259.949 159.833 265.335 162.319C270.779 164.804 276.934 166.047 283.8 166.047C292.855 166.047 300.519 164.331 306.792 160.898C313.125 157.466 317.978 152.494 321.351 145.984C324.724 139.415 326.618 131.455 327.033 122.104Z" fill="#02BB36"/>
<path fill-rule="evenodd" clip-rule="evenodd" d="M766.307 27.9149H776.249V81.5214C777.253 79.6607 778.378 77.9487 779.623 76.3855C782.167 73.1896 785.186 70.7335 788.678 69.0172C792.169 67.3009 796.253 66.4428 800.928 66.4428C805.9 66.4428 810.309 67.3009 814.156 69.0172C818.003 70.7335 821.258 73.3967 823.921 77.0069C826.584 80.617 828.596 85.322 829.957 91.1219C831.319 96.8626 831.999 103.757 831.999 111.806V120.772C831.999 128.525 831.319 135.243 829.957 140.924C828.596 146.606 826.584 151.311 823.921 155.039C821.258 158.768 818.003 161.549 814.156 163.384C810.368 165.219 806.018 166.136 801.106 166.136C796.312 166.136 792.11 165.278 788.5 163.561C784.89 161.845 781.812 159.448 779.268 156.371C778.078 154.898 776.997 153.289 776.024 151.545L775.539 164.272H766.307V27.9149ZM776.249 92.9766V140.784C776.844 142.188 777.525 143.566 778.291 144.919C780.303 148.411 783.026 151.251 786.458 153.441C789.891 155.572 794.093 156.637 799.064 156.637C803.089 156.637 806.521 155.927 809.362 154.507C812.262 153.027 814.659 150.808 816.553 147.848C818.446 144.889 819.837 141.19 820.725 136.752C821.613 132.254 822.057 126.927 822.057 120.772V111.806C822.057 105.71 821.613 100.414 820.725 95.9157C819.896 91.3587 818.535 87.6006 816.641 84.6414C814.807 81.6823 812.41 79.4925 809.451 78.0722C806.551 76.5926 803.029 75.8528 798.887 75.8528C794.803 75.8528 791.282 76.6222 788.322 78.1609C785.423 79.6405 782.996 81.6231 781.043 84.1088C779.149 86.5945 777.64 89.3169 776.516 92.276C776.425 92.5099 776.336 92.7434 776.249 92.9766Z" fill="black"/>
<path fill-rule="evenodd" clip-rule="evenodd" d="M729.416 157.88C731.639 155.708 733.501 153.401 735.002 150.958C735.075 152.714 735.195 154.518 735.363 156.371C735.659 159.567 736.133 162.2 736.784 164.272H747.259V163.118C746.49 160.869 745.868 157.969 745.395 154.418C744.981 150.867 744.774 147.405 744.774 144.031V94.9392C744.774 88.0148 743.501 82.4517 740.956 78.2497C738.471 74.0477 735.008 71.0294 730.57 69.1948C726.131 67.3601 721.041 66.4428 715.301 66.4428C710.625 66.4428 706.364 67.2121 702.517 68.7509C698.729 70.2896 695.474 72.3906 692.752 75.0538C690.03 77.6579 687.929 80.6762 686.449 84.1088C684.969 87.4822 684.23 91.0036 684.23 94.6729L694.084 94.7617C694.084 91.0331 694.942 87.7485 696.658 84.9077C698.434 82.0078 700.89 79.7589 704.026 78.1609C707.222 76.5038 710.862 75.6753 714.945 75.6753C719.266 75.6753 722.906 76.3263 725.865 77.6283C728.824 78.9303 731.073 81.0017 732.611 83.8425C734.15 86.624 734.92 90.2638 734.92 94.7617V108.167H718.674C712.637 108.167 707.341 108.936 702.783 110.475C698.226 112.013 694.439 114.174 691.42 116.955C688.402 119.678 686.124 122.903 684.585 126.632C683.105 130.36 682.365 134.444 682.365 138.882C682.365 144.86 683.431 149.89 685.561 153.974C687.751 158.057 690.799 161.105 694.705 163.118C698.67 165.13 703.287 166.136 708.554 166.136C712.933 166.136 716.869 165.367 720.361 163.828C723.852 162.289 726.871 160.306 729.416 157.88ZM731.635 145.807C733.009 143.917 734.104 141.968 734.92 139.96V116.6H720.183C715.567 116.6 711.513 117.103 708.021 118.109C704.529 119.115 701.6 120.565 699.232 122.459C696.924 124.353 695.178 126.602 693.995 129.206C692.811 131.81 692.219 134.769 692.219 138.083C692.219 142.344 692.9 145.836 694.261 148.559C695.622 151.222 697.605 153.204 700.209 154.507C702.872 155.749 706.038 156.371 709.708 156.371C714.561 156.371 718.822 155.424 722.491 153.53C726.22 151.577 729.268 149.003 731.635 145.807Z" fill="black"/>
<path d="M672.551 164.272V154.773H619.464V35.0168H609.166V164.272H672.551Z" fill="black"/>
</svg>
