<svg width="843" height="200" viewBox="0 0 843 200" fill="none" xmlns="http://www.w3.org/2000/svg">
<path d="M100.106 97.2864C100.106 97.2864 98.7366 80.2298 98.7366 57.4874C97.0437 40.4505 93.5587 24.2252 84.3494 23.4123C81.0575 23.1218 78.0415 25.7242 75.4141 30.6937C80.3259 13.7045 100.106 0 100.106 0C100.106 0 119.887 13.7045 124.798 30.6937C122.171 25.7242 119.155 23.1218 115.863 23.4123C106.654 24.2252 102.956 40.4505 101.263 57.4874C101.263 80.2298 100.106 97.2864 100.106 97.2864Z" fill="black"/>
<path d="M99.8938 102.714C99.8938 102.714 101.263 119.77 101.263 142.513C102.956 159.549 106.441 175.775 115.651 176.588C118.942 176.878 121.958 174.276 124.586 169.306C119.674 186.295 99.8938 200 99.8938 200C99.8938 200 80.1134 186.295 75.2016 169.306C77.8291 174.276 80.8451 176.878 84.1369 176.588C93.3462 175.775 97.0436 159.549 98.7365 142.513C98.7365 119.77 99.8938 102.714 99.8938 102.714Z" fill="black"/>
<path d="M102.714 100.106C102.714 100.106 119.77 98.7366 142.513 98.7366C159.549 97.0437 175.775 93.5587 176.588 84.3494C176.878 81.0575 174.276 78.0415 169.306 75.4141C186.295 80.3259 200 100.106 200 100.106C200 100.106 186.295 119.887 169.306 124.798C174.276 122.171 176.878 119.155 176.588 115.863C175.775 106.654 159.549 102.956 142.513 101.263C119.77 101.263 102.714 100.106 102.714 100.106Z" fill="black"/>
<path d="M97.2864 99.8938C97.2864 99.8938 80.2298 101.263 57.4874 101.263C40.4505 102.956 24.2252 106.441 23.4123 115.651C23.1217 118.942 25.7242 121.958 30.6937 124.586C13.7045 119.674 0 99.8938 0 99.8938C0 99.8938 13.7045 80.1134 30.6937 75.2016C25.7242 77.8291 23.1218 80.8451 23.4123 84.1369C24.2252 93.3462 40.4505 97.0436 57.4874 98.7365C80.2298 98.7365 97.2864 99.8938 97.2864 99.8938Z" fill="black"/>
<path d="M101.994 98.1561C101.994 98.1561 113.086 85.1267 129.167 69.0455C140.017 55.8015 149.026 41.8642 143.089 34.7775C140.966 32.2443 136.994 31.9519 131.622 33.6079C147.108 25.068 170.785 29.3642 170.785 29.3642C170.785 29.3642 175.082 53.0416 166.542 68.5279C168.198 63.156 167.905 59.1832 165.372 57.061C158.285 51.1238 144.198 59.9824 130.954 70.8323C114.873 86.9135 101.994 98.1561 101.994 98.1561Z" fill="black"/>
<path d="M98.0058 101.843C98.0058 101.843 86.9134 114.873 70.8321 130.954C59.9823 144.198 50.9735 158.135 56.9107 165.222C59.0329 167.755 63.0057 168.048 68.3776 166.392C52.8913 174.932 29.2139 170.635 29.2139 170.635C29.2139 170.635 24.9177 146.958 33.4576 131.472C31.8015 136.844 32.094 140.816 34.6271 142.939C41.7139 148.876 55.8014 140.017 69.0453 129.167C85.1266 113.086 98.0058 101.843 98.0058 101.843Z" fill="black"/>
<path d="M101.843 101.994C101.843 101.994 114.873 113.086 130.954 129.167C144.198 140.017 158.135 149.026 165.222 143.089C167.755 140.967 168.048 136.994 166.392 131.622C174.931 147.108 170.635 170.786 170.635 170.786C170.635 170.786 146.958 175.082 131.472 166.542C136.843 168.198 140.816 167.906 142.938 165.372C148.876 158.286 140.017 144.198 129.167 130.954C113.086 114.873 101.843 101.994 101.843 101.994Z" fill="black"/>
<path d="M98.156 98.0059C98.156 98.0059 85.1266 86.9135 69.0454 70.8322C55.8014 59.9824 41.8641 50.9736 34.7774 56.9108C32.2442 59.033 31.9518 63.0058 33.6078 68.3777C25.0679 52.8914 29.3641 29.214 29.3641 29.214C29.3641 29.214 53.0415 24.9178 68.5278 33.4577C63.1559 31.8016 59.1832 32.0941 57.0609 34.6272C51.1237 41.714 59.9823 55.8015 70.8322 69.0454C86.9134 85.1267 98.156 98.0059 98.156 98.0059Z" fill="black"/>
<path d="M771.738 132.4V131.65L778.188 124.9H778.938C786.138 133.75 794.988 139.9 807.588 139.9C821.238 139.9 829.938 132.7 829.938 123.1C829.938 110.65 815.388 106.75 799.638 100.45C789.588 96.4002 775.938 90.2502 775.938 74.8002C775.938 59.6502 788.838 48.7002 807.138 48.7002C821.088 48.7002 831.888 55.0002 838.488 63.7002V64.4502L831.738 70.7502H830.988C825.288 63.7002 817.488 58.6002 807.138 58.6002C795.738 58.6002 787.038 64.7502 787.038 73.7502C787.038 82.7502 795.588 86.8002 805.938 90.8502C821.538 97.0002 841.038 103 841.038 122.65C841.038 139.15 827.238 149.8 808.188 149.8C792.138 149.8 779.238 142.3 771.738 132.4Z" fill="black"/>
<path d="M742.41 139.3L744.96 146.95L744.51 147.7C742.26 149.2 740.16 149.8 736.56 149.8C729.66 149.8 722.46 144.55 715.86 136.9L687.36 103.9L678.21 113.5V148H667.41V50.5H678.21V99.55L725.01 50.5H738.06L738.51 51.1L694.86 96.7L724.56 131.2C730.41 137.95 733.71 140.05 737.31 140.05C739.11 140.05 740.46 139.75 741.66 139L742.41 139.3Z" fill="black"/>
<path d="M572.706 149.8C543.606 149.8 521.256 128.2 521.256 99.2502C521.256 70.3002 543.606 48.7002 572.706 48.7002C601.806 48.7002 624.156 70.3002 624.156 99.2502C624.156 128.2 601.806 149.8 572.706 149.8ZM572.706 139.9C595.656 139.9 613.056 122.95 613.056 99.2502C613.056 75.5502 595.656 58.6002 572.706 58.6002C549.756 58.6002 532.356 75.5502 532.356 99.2502C532.356 122.95 549.756 139.9 572.706 139.9Z" fill="black"/>
<path d="M433.751 149.8C404.651 149.8 382.301 128.2 382.301 99.2502C382.301 70.3002 404.651 48.7002 433.751 48.7002C462.851 48.7002 485.201 70.3002 485.201 99.2502C485.201 128.2 462.851 149.8 433.751 149.8ZM433.751 139.9C456.701 139.9 474.101 122.95 474.101 99.2502C474.101 75.5502 456.701 58.6002 433.751 58.6002C410.801 58.6002 393.401 75.5502 393.401 99.2502C393.401 122.95 410.801 139.9 433.751 139.9Z" fill="black"/>
<path d="M328.36 50.5H339.16V148H328.36V103.6H269.11V148H258.31V50.5H269.11V94H328.36V50.5Z" fill="black"/>
</svg>
