<svg width="597" height="200" viewBox="0 0 597 200" fill="none" xmlns="http://www.w3.org/2000/svg">
<g clip-path="url(#clip0_1113_4141)">
<path d="M137.36 200H64.6403C64.6191 183.147 57.9148 166.99 45.9977 155.073C34.0806 143.156 17.9236 136.451 1.07031 136.43V63.71C76.2203 63.71 137.36 124.85 137.36 200Z" fill="url(#paint0_linear_1113_4141)"/>
<path d="M200.931 63.71V136.43C184.077 136.451 167.92 143.156 156.003 155.073C144.086 166.99 137.382 183.147 137.361 200H64.6406C64.6406 124.85 125.781 63.71 200.931 63.71Z" fill="url(#paint1_linear_1113_4141)"/>
<path d="M101 72C120.882 72 137 55.8823 137 36C137 16.1177 120.882 0 101 0C81.1177 0 65 16.1177 65 36C65 55.8823 81.1177 72 101 72Z" fill="url(#paint2_linear_1113_4141)"/>
<path d="M594.363 142.872L596.805 154.168L596.195 155.237C594.058 156.763 590.852 157.832 586.578 157.832C576.045 157.832 570.702 151.115 570.702 140.735V111.426C570.702 99.8248 563.833 92.1923 552.384 92.1923C540.935 92.1923 533.15 99.8248 533.15 111.426V156H516.359V99.0615C516.359 94.94 515.748 92.3449 512.848 92.3449C511.779 92.3449 511.016 92.8029 510.405 93.2608L509.337 92.8029L506.895 81.5068L507.505 80.4382C509.642 78.9118 512.848 77.8432 516.817 77.8432C523.686 77.8432 528.723 81.3541 530.708 87.4601C536.661 81.5068 545.362 77.8432 555.59 77.8432C574.976 77.8432 587.341 90.9711 587.341 110.052V136.613C587.341 140.735 588.104 143.33 590.852 143.33C591.921 143.33 592.684 142.872 593.294 142.414L594.363 142.872Z" fill="black"/>
<path d="M502.384 142.872L504.826 154.168L504.215 155.237C502.078 156.611 498.873 157.832 495.056 157.832C487.576 157.832 482.539 153.71 480.86 146.688C474.143 153.405 464.832 157.832 453.688 157.832C431.249 157.832 415.373 140.124 415.373 117.838C415.373 95.3979 431.249 77.8432 453.688 77.8432C464.832 77.8432 473.991 82.2701 480.707 88.834V79.675H495.362V136.613C495.362 140.888 496.278 143.33 498.873 143.33C500.246 143.33 501.01 142.719 501.315 142.414L502.384 142.872ZM456.283 143.33C469.564 143.33 480.249 134.171 480.249 117.838C480.249 101.351 469.564 92.3449 456.436 92.3449C441.629 92.3449 432.317 103.794 432.317 117.838C432.317 132.034 441.781 143.33 456.283 143.33Z" fill="black"/>
<path d="M387.934 79.675H404.42V142.719C404.42 167.143 386.713 179.203 365.8 179.203C350.993 179.203 339.392 172.944 331.912 163.633V162.564L339.544 153.405H340.765C346.108 160.427 354.962 166.075 365.953 166.075C378.317 166.075 388.24 158.748 388.24 144.704V140.735C382.744 146.23 375.112 149.589 365.647 149.589C348.703 149.589 335.27 139.514 335.27 119.364V99.0615C335.27 94.94 334.507 92.3449 331.759 92.3449C330.69 92.3449 329.927 92.8029 329.317 93.2608L328.248 92.8029L325.806 81.5068L326.416 80.4382C328.553 78.9118 331.606 77.8432 335.881 77.8432C346.108 77.8432 351.604 83.9492 351.604 94.482V118.143C351.604 128.981 358.32 135.392 368.853 135.392C379.691 135.392 387.934 127.607 387.934 116.158V79.675Z" fill="black"/>
<path d="M327.091 142.109L330.297 153.863L329.839 154.931C327.244 156.763 324.038 157.832 319.611 157.832C310.3 157.832 302.515 152.184 295.645 143.788L270.916 113.869L262.52 123.028V156H245.576V77.9958C245.576 72.9584 244.966 70.058 241.607 70.058C240.386 70.058 239.317 70.516 238.86 71.1266L237.638 70.6686L234.891 58.7619L235.654 57.5407C237.486 56.3195 241.149 54.9457 246.034 54.9457C256.872 54.9457 262.52 62.4255 262.52 72.9584V102.572L304.804 56.7775H324.038L324.649 57.6934L283.128 103.03L309.231 134.171C314.879 140.735 318.085 142.719 321.596 142.719C323.275 142.719 324.801 142.261 325.87 141.651L327.091 142.109Z" fill="black"/>
</g>
<defs>
<linearGradient id="paint0_linear_1113_4141" x1="83.3003" y1="153.85" x2="14.4603" y2="90.47" gradientUnits="userSpaceOnUse">
<stop stop-color="#B03B83"/>
<stop offset="1" stop-color="#E72E6C"/>
</linearGradient>
<linearGradient id="paint1_linear_1113_4141" x1="126.491" y1="181.32" x2="150.841" y2="94.37" gradientUnits="userSpaceOnUse">
<stop stop-color="#B03B83"/>
<stop offset="1" stop-color="#6F4A9E"/>
</linearGradient>
<linearGradient id="paint2_linear_1113_4141" x1="71.96" y1="6.96" x2="126.51" y2="61.51" gradientUnits="userSpaceOnUse">
<stop stop-color="#B03B83"/>
<stop offset="1" stop-color="#6F4A9E"/>
</linearGradient>
<clipPath id="clip0_1113_4141">
<rect width="597" height="200" fill="white"/>
</clipPath>
</defs>
</svg>
