<svg width="780" height="200" viewBox="0 0 780 200" fill="none" xmlns="http://www.w3.org/2000/svg">
<g clip-path="url(#clip0_1113_5132)">
<g clip-path="url(#clip1_1113_5132)">
<path d="M3.35168e-06 8.37315e-07C-0.00685864 26.518 10.5231 51.9526 29.2735 70.7091C48.0239 89.4656 73.459 100.008 99.9838 100.016V8.37315e-07H3.35168e-06ZM99.9838 100.016H200V8.37315e-07C186.863 -0.00169886 173.854 2.58433 161.717 7.61033C149.581 12.6363 138.553 20.0038 129.265 29.2918C119.977 38.5799 112.61 49.6065 107.586 61.7416C102.562 73.8767 99.9787 86.8826 99.9838 100.016ZM99.9838 100.016V200H200C200.001 186.869 197.414 173.867 192.388 161.735C187.362 149.604 179.995 138.581 170.707 129.297C161.42 120.012 150.394 112.647 138.259 107.623C126.124 102.599 113.118 100.014 99.9838 100.016ZM99.9838 100.016H3.35168e-06V200C26.5203 199.995 51.9525 189.458 70.7027 170.708C89.453 151.958 99.9855 126.53 99.9838 100.016Z" fill="url(#paint0_linear_1113_5132)"/>
</g>
<path d="M779.024 32.3516V163.309H764.083V32.3516H779.024Z" fill="black"/>
<path d="M701.02 164.715C691.82 164.715 684.115 162.342 677.904 157.596C671.752 152.85 668.676 145.848 668.676 136.59C668.676 131.258 669.701 126.922 671.752 123.582C673.861 120.242 676.645 117.635 680.102 115.76C683.617 113.826 687.572 112.361 691.967 111.365C696.42 110.369 700.961 109.578 705.59 108.992C711.508 108.172 716.166 107.557 719.564 107.146C722.963 106.736 725.365 106.062 726.771 105.125C728.236 104.188 728.969 102.547 728.969 100.203V99.3242C728.969 94.2852 727.152 90.125 723.52 86.8438C719.945 83.5625 714.906 81.9219 708.402 81.9219C701.957 81.9219 696.654 83.5039 692.494 86.668C688.393 89.7734 686.166 93.6406 685.814 98.2695H670.609C670.902 92.5859 672.66 87.5469 675.883 83.1523C679.105 78.6992 683.5 75.1836 689.066 72.6055C694.633 70.0273 701.078 68.7383 708.402 68.7383C719.242 68.7383 727.826 71.5508 734.154 77.1758C740.541 82.7422 743.734 90.125 743.734 99.3242V163.309H728.969V150.125H728.617C727.504 152.352 725.863 154.607 723.695 156.893C721.527 159.119 718.598 160.994 714.906 162.518C711.273 163.982 706.645 164.715 701.02 164.715ZM703.129 151.355C709.223 151.355 714.174 150.271 717.982 148.104C721.791 145.877 724.574 143.006 726.332 139.49C728.09 135.975 728.969 132.195 728.969 128.152V116.551C727.855 117.605 724.896 118.572 720.092 119.451C715.287 120.271 710.219 121.062 704.887 121.824C701.312 122.293 697.914 123.113 694.691 124.285C691.527 125.398 688.949 127.01 686.957 129.119C684.965 131.17 683.969 133.953 683.969 137.469C683.969 141.805 685.668 145.203 689.066 147.664C692.523 150.125 697.211 151.355 703.129 151.355Z" fill="black"/>
<path d="M585.749 200.047V186.863H594.89C600.397 186.863 604.587 183.143 607.458 175.701L612.556 162.518L576.608 70.4961H592.78L612.819 123.934C614.108 127.391 615.368 130.877 616.599 134.393C617.888 137.85 619.118 141.307 620.29 144.764C621.521 141.307 622.751 137.85 623.981 134.393C625.271 130.877 626.56 127.391 627.849 123.934L647.536 70.4961H663.444L620.642 180.535C618.239 186.746 614.812 191.551 610.358 194.949C605.905 198.348 600.749 200.047 594.89 200.047H585.749Z" fill="black"/>
<path d="M549.756 163.309V70.4961H564.697V163.309H549.756ZM557.227 52.3906C554.414 52.3906 552.012 51.3945 550.02 49.4023C548.027 47.4102 547.031 45.0078 547.031 42.1953C547.031 39.3828 548.027 36.9805 550.02 34.9883C552.012 32.9961 554.414 32 557.227 32C560.039 32 562.441 32.9961 564.434 34.9883C566.426 36.9805 567.422 39.3828 567.422 42.1953C567.422 45.0078 566.426 47.4102 564.434 49.4023C562.441 51.3945 560.039 52.3906 557.227 52.3906Z" fill="black"/>
<path d="M485.287 165.066C477.26 165.066 470.199 163.045 464.105 159.002C458.07 154.9 453.383 149.246 450.043 142.039C446.703 134.773 445.033 126.395 445.033 116.902C445.033 107.352 446.703 98.9727 450.043 91.7656C453.383 84.5 458.07 78.8457 464.105 74.8027C470.199 70.7598 477.26 68.7383 485.287 68.7383C491.322 68.7383 496.918 70.0273 502.074 72.6055C507.23 75.125 511.303 78.9922 514.291 84.207H514.467V32.3516H529.408V163.309H514.818V149.246H514.643C511.303 154.578 507.084 158.562 501.986 161.199C496.889 163.777 491.322 165.066 485.287 165.066ZM487.572 151.619C496.186 151.619 503.012 148.455 508.051 142.127C513.148 135.799 515.697 127.391 515.697 116.902C515.697 106.414 513.148 98.0059 508.051 91.6777C503.012 85.291 496.186 82.0977 487.572 82.0977C479.545 82.0977 472.953 85.0566 467.797 90.9746C462.699 96.8926 460.15 105.535 460.15 116.902C460.15 128.27 462.699 136.912 467.797 142.83C472.953 148.689 479.545 151.619 487.572 151.619Z" fill="black"/>
<path d="M386.716 164.715C377.517 164.715 369.812 162.342 363.601 157.596C357.448 152.85 354.372 145.848 354.372 136.59C354.372 131.258 355.397 126.922 357.448 123.582C359.558 120.242 362.341 117.635 365.798 115.76C369.313 113.826 373.269 112.361 377.663 111.365C382.116 110.369 386.657 109.578 391.286 108.992C397.204 108.172 401.862 107.557 405.261 107.146C408.659 106.736 411.062 106.062 412.468 105.125C413.933 104.188 414.665 102.547 414.665 100.203V99.3242C414.665 94.2852 412.849 90.125 409.216 86.8438C405.642 83.5625 400.603 81.9219 394.099 81.9219C387.653 81.9219 382.351 83.5039 378.19 86.668C374.089 89.7734 371.862 93.6406 371.511 98.2695H356.306C356.599 92.5859 358.356 87.5469 361.579 83.1523C364.802 78.6992 369.196 75.1836 374.763 72.6055C380.329 70.0273 386.774 68.7383 394.099 68.7383C404.938 68.7383 413.522 71.5508 419.851 77.1758C426.237 82.7422 429.431 90.125 429.431 99.3242V163.309H414.665V150.125H414.313C413.2 152.352 411.56 154.607 409.392 156.893C407.224 159.119 404.294 160.994 400.603 162.518C396.97 163.982 392.341 164.715 386.716 164.715ZM388.825 151.355C394.919 151.355 399.87 150.271 403.679 148.104C407.487 145.877 410.271 143.006 412.028 139.49C413.786 135.975 414.665 132.195 414.665 128.152V116.551C413.552 117.605 410.593 118.572 405.788 119.451C400.983 120.271 395.915 121.062 390.583 121.824C387.009 122.293 383.61 123.113 380.388 124.285C377.224 125.398 374.646 127.01 372.653 129.119C370.661 131.17 369.665 133.953 369.665 137.469C369.665 141.805 371.364 145.203 374.763 147.664C378.22 150.125 382.907 151.355 388.825 151.355Z" fill="black"/>
<path d="M250 163.309V32.3516H298.604C312.256 32.3516 323.066 35.9258 331.035 43.0742C339.062 50.1641 343.076 59.832 343.076 72.0781C343.076 81.3945 340.557 89.2754 335.518 95.7207C330.537 102.166 323.77 106.707 315.215 109.344L344.658 163.309H326.201L298.604 111.893C298.193 111.893 297.783 111.893 297.373 111.893H265.82V163.309H250ZM265.82 97.8301H298.252C307.334 97.8301 314.453 95.5449 319.609 90.9746C324.824 86.3457 327.432 80.0469 327.432 72.0781C327.432 64.1094 324.795 57.8398 319.521 53.2695C314.307 48.6992 307.158 46.4141 298.076 46.4141H265.82V97.8301Z" fill="black"/>
</g>
<defs>
<linearGradient id="paint0_linear_1113_5132" x1="-27" y1="185" x2="227" y2="15" gradientUnits="userSpaceOnUse">
<stop stop-color="#DD37E0"/>
<stop offset="1" stop-color="#0BA7FF"/>
</linearGradient>
<clipPath id="clip0_1113_5132">
<rect width="780" height="200" fill="white"/>
</clipPath>
<clipPath id="clip1_1113_5132">
<rect width="200" height="200" fill="white" transform="translate(200) rotate(90)"/>
</clipPath>
</defs>
</svg>
