<svg width="787" height="200" viewBox="0 0 787 200" fill="none" xmlns="http://www.w3.org/2000/svg">
<mask id="mask0_1113_4348" style="mask-type:luminance" maskUnits="userSpaceOnUse" x="0" y="14" width="201" height="172">
<path d="M14.25 166.09C29.31 191.09 65.55 191.7 80.59 166.65C85.3517 158.716 88.0281 149.707 88.37 140.46L88.85 127.65C88.85 127.65 66 148.5 56.58 147.22C53.4 146.79 55.82 140.89 56.97 137.97C61.34 126.97 87.89 99.91 87.89 99.91C87.89 99.91 90 61.58 93.75 51.07C95.69 45.63 97.94 43.14 100 42.15C102.06 43.15 104.31 45.63 106.25 51.07C110 61.58 112.11 99.91 112.11 99.91C112.11 99.91 138.66 126.91 143.03 137.97C144.18 140.89 146.6 146.79 143.42 147.22C133.99 148.5 111.15 127.65 111.15 127.65L111.63 140.46C111.991 150.228 114.957 159.723 120.22 167.96C135.32 191.58 170.37 190.96 185.12 167.13C194.739 151.589 199.888 133.697 200 115.42C200.41 61.14 156.68 15.95 102.4 14.68C84.5069 14.2515 66.8266 18.6332 51.2044 27.3679C35.5821 36.1025 22.5904 48.8699 13.5851 64.3378C4.57987 79.8056 -0.108954 97.4069 0.00799474 115.305C0.124944 133.203 5.04338 150.741 14.25 166.09Z" fill="white"/>
</mask>
<g mask="url(#mask0_1113_4348)">
<path d="M14.25 166.09C29.31 191.09 65.55 191.7 80.59 166.65C85.3517 158.716 88.0281 149.707 88.37 140.46L88.85 127.65C88.85 127.65 66 148.5 56.58 147.22C53.4 146.79 55.82 140.89 56.97 137.97C61.34 126.97 87.89 99.91 87.89 99.91C87.89 99.91 90 61.58 93.75 51.07C95.69 45.63 97.94 43.14 100 42.15C102.06 43.15 104.31 45.63 106.25 51.07C110 61.58 112.11 99.91 112.11 99.91C112.11 99.91 138.66 126.91 143.03 137.97C144.18 140.89 146.6 146.79 143.42 147.22C133.99 148.5 111.15 127.65 111.15 127.65L111.63 140.46C111.991 150.228 114.957 159.723 120.22 167.96C135.32 191.58 170.37 190.96 185.12 167.13C194.739 151.589 199.888 133.697 200 115.42C200.41 61.14 156.68 15.95 102.4 14.68C84.5069 14.2515 66.8266 18.6332 51.2044 27.3679C35.5821 36.1025 22.5904 48.8699 13.5851 64.3378C4.57987 79.8056 -0.108954 97.4069 0.00799474 115.305C0.124944 133.203 5.04338 150.741 14.25 166.09Z" fill="#FBB03B"/>
<path d="M266.25 49.0001C266.25 100.43 222.6 142.12 168.75 142.12C114.9 142.12 71.25 100.46 71.25 49.0001C71.25 -2.45988 97.4 -20.3799 151.25 -20.3799C205.1 -20.3799 266.25 -2.39989 266.25 49.0001Z" fill="url(#paint0_linear_1113_4348)"/>
<path d="M113.75 201.53C113.75 259.17 -31.2502 216.05 -31.2502 158.4C-31.2502 100.75 -37.6002 97.1499 16.2498 97.1499C70.0998 97.1499 113.75 143.88 113.75 201.53Z" fill="url(#paint1_linear_1113_4348)"/>
</g>
<path d="M289.52 87.2802H314.38V60.0002H289.52V29.2002L261.14 37.7802V60.0002H242V87.2802H261.14V133.04C261.14 162.74 274.56 174.4 314.38 170V144.26C298.1 145.14 289.52 144.92 289.52 133.04V87.2802Z" fill="black"/>
<path fill-rule="evenodd" clip-rule="evenodd" d="M452.244 147.34C437.284 147.34 425.184 141.18 421.224 126.66H504.164C504.824 122.92 505.264 119.18 505.264 115C505.264 82.6599 482.164 56.9199 449.604 56.9199C415.064 56.9199 391.524 82.2199 391.524 115C391.524 147.78 414.844 173.08 451.804 173.08C472.924 173.08 489.424 164.5 499.764 149.54L476.884 136.34C472.044 142.72 463.244 147.34 452.244 147.34ZM476.884 104.66H420.784C424.084 90.5799 434.424 82.4399 449.604 82.4399C461.484 82.4399 473.364 88.8199 476.884 104.66Z" fill="black"/>
<path fill-rule="evenodd" clip-rule="evenodd" d="M732.568 59.9999H704.188V72.9799C696.268 63.0799 684.388 56.9199 668.328 56.9199C639.068 56.9199 614.868 82.2199 614.868 115C614.868 147.78 639.068 173.08 668.328 173.08C684.388 173.08 696.268 166.92 704.188 157.02V170H732.568V59.9999ZM704.188 115C704.188 133.48 691.208 146.02 673.608 146.02C656.228 146.02 643.248 133.48 643.248 115C643.248 96.5199 656.228 83.9799 673.608 83.9799C691.208 83.9799 704.188 96.5199 704.188 115Z" fill="black"/>
<path d="M749.503 154.16C749.503 164.5 757.863 172.86 768.203 172.86C778.543 172.86 786.903 164.5 786.903 154.16C786.903 143.82 778.543 135.46 768.203 135.46C757.863 135.46 749.503 143.82 749.503 154.16Z" fill="black"/>
<path d="M586.56 60H617.8L576 170H543.66L501.86 60H533.1L559.72 137L586.56 60Z" fill="black"/>
<path d="M357.889 78.9198C363.609 63.9598 377.469 57.7998 391.329 57.7998V89.4798C376.589 87.7198 357.889 94.3198 357.889 117.42V170H329.509V59.9998H357.889V78.9198Z" fill="black"/>
<defs>
<linearGradient id="paint0_linear_1113_4348" x1="226.1" y1="123.85" x2="110.55" y2="-14.4699" gradientUnits="userSpaceOnUse">
<stop stop-color="#01DDA5"/>
<stop offset="1" stop-color="#3CADE2"/>
</linearGradient>
<linearGradient id="paint1_linear_1113_4348" x1="93.4198" y1="229.67" x2="-14.4402" y2="100.56" gradientUnits="userSpaceOnUse">
<stop stop-color="#FF8A11"/>
<stop offset="1" stop-color="#E81894"/>
</linearGradient>
</defs>
</svg>
