<svg width="773" height="200" viewBox="0 0 773 200" fill="none" xmlns="http://www.w3.org/2000/svg">
<g clip-path="url(#clip0_1113_5057)">
<g clip-path="url(#clip1_1113_5057)">
<path d="M168.89 31.1101C159.969 21.5141 149.206 13.8146 137.243 8.4716C125.28 3.12858 112.363 0.251692 99.2637 0.0127915C86.1641 -0.226109 73.1507 2.17789 61.001 7.08116C48.8513 11.9844 37.8146 19.2864 28.5503 28.5507C19.2859 37.8151 11.9839 48.8518 7.08067 61.0015C2.1774 73.1512 -0.226597 86.1646 0.0123033 99.2642C0.251203 112.364 3.1281 125.281 8.47111 137.244C13.8141 149.207 21.5136 159.97 31.1096 168.89C40.0301 178.486 50.7932 186.186 62.756 191.529C74.7189 196.872 87.6359 199.749 100.736 199.987C113.835 200.226 126.849 197.822 138.998 192.919C151.148 188.016 162.185 180.714 171.449 171.45C180.713 162.185 188.015 151.148 192.919 138.999C197.822 126.849 200.226 113.836 199.987 100.736C199.748 87.6364 196.871 74.7193 191.528 62.7565C186.185 50.7937 178.486 40.0306 168.89 31.1101ZM32.1996 167.8C19.5769 154.243 11.1518 137.32 7.94319 119.076C4.73459 100.833 6.87988 82.0503 14.1196 65.0001C8.21457 81.7197 7.37989 99.811 11.7204 117.003C16.0609 134.195 25.3831 149.722 38.5169 161.635C51.6508 173.548 68.0109 181.316 85.5438 183.963C103.077 186.611 121.001 184.021 137.067 176.517C153.133 169.014 166.624 156.932 175.848 141.788C185.071 126.644 189.616 109.113 188.911 91.3952C188.206 73.6776 182.284 56.5629 171.886 42.1994C161.489 27.8359 147.081 16.8637 130.47 10.6601C144.385 14.918 157.15 22.2836 167.8 32.2001C184.692 50.3981 193.873 74.4361 193.411 99.2617C192.949 124.087 182.882 147.767 165.324 165.325C147.767 182.882 124.087 192.95 99.2612 193.411C74.4356 193.873 50.3976 184.693 32.1996 167.8ZM100.75 6.52014C123.096 6.95528 144.45 15.8293 160.523 31.36C176.596 46.8906 186.197 67.9275 187.399 90.2456C188.6 112.564 181.313 134.51 167 151.676C152.688 168.843 132.41 179.958 110.24 182.79C117.403 181.581 124.38 179.454 131 176.46C143.047 171.577 153.77 163.915 162.294 154.1C170.818 144.285 176.901 132.594 180.048 119.981C183.195 107.368 183.316 94.1893 180.402 81.5204C177.488 68.8515 171.621 57.0507 163.28 47.0801C151.945 32.3368 136.085 21.7208 118.134 16.8616C100.184 12.0025 81.1341 13.1687 63.9102 20.1814C46.6863 27.194 32.2398 39.6655 22.7883 55.6814C13.3368 71.6973 9.40259 90.3724 11.5896 108.84C9.65527 96.6398 10.3014 84.1693 13.4863 72.2342C16.6712 60.2991 22.324 49.1647 30.0796 39.5501C38.8842 29.3965 49.7261 21.2085 61.9013 15.518C74.0764 9.82756 87.3125 6.76188 100.75 6.52014ZM99.9996 17.5201C79.1977 17.5384 59.1705 25.4142 43.9284 39.5705C28.6864 53.7269 19.3547 73.1186 17.8021 93.8625C16.2495 114.606 22.5906 135.171 35.5555 151.439C48.5205 167.706 67.1522 178.476 87.7197 181.59C75.8751 180.407 64.4235 176.691 54.1418 170.693C43.8601 164.694 34.9889 156.555 28.13 146.826C21.2712 137.097 16.5852 126.007 14.39 114.308C12.1948 102.608 12.5417 90.5736 15.4072 79.0202C18.2728 67.4668 23.5899 56.6649 30.9978 47.3474C38.4057 38.0299 47.731 30.4148 58.3412 25.0188C68.9514 19.6228 80.5981 16.572 92.4911 16.0736C104.384 15.5752 116.245 17.6408 127.27 22.1301C118.506 19.0603 109.286 17.4949 99.9996 17.5001V17.5201ZM1.49965 97.5001C1.50727 80.0254 6.28449 62.8842 15.3163 47.9245C24.3481 32.9648 37.2918 20.7541 52.7521 12.6088C68.2124 4.46343 85.6027 0.692494 103.048 1.70249C120.494 2.71248 137.333 8.4651 151.75 18.3401C136.818 9.57797 119.813 4.97194 102.5 5.00014H100.75H98.9996C85.5712 4.99313 72.312 7.99717 60.1978 13.7912C48.0836 19.5853 37.4227 28.0218 28.9996 38.4801C15.5955 53.8715 7.35712 73.0798 5.44476 93.4C3.53241 113.72 8.04243 134.128 18.3396 151.75C7.35031 135.795 1.47677 116.874 1.49965 97.5001ZM102.5 198.5C83.1263 198.523 64.2047 192.649 48.2496 181.66C66.8611 192.543 88.5543 196.952 109.937 194.197C131.32 191.442 151.188 181.678 166.433 166.433C181.678 151.188 191.441 131.321 194.196 109.938C196.951 88.5548 192.543 66.8616 181.66 48.2501C191.535 62.6671 197.287 79.5061 198.297 96.9516C199.307 114.397 195.536 131.787 187.391 147.248C179.246 162.708 167.035 175.652 152.075 184.684C137.116 193.715 119.974 198.493 102.5 198.5Z" fill="url(#paint0_linear_1113_5057)"/>
<path d="M100 151.53C-1.45002 96.19 71.92 27.4 100 73.73C128.08 27.4 201.45 96.19 100 151.53Z" fill="white"/>
</g>
<path d="M342.179 45.2509C344.594 47.6658 347.641 48.8732 351.321 48.8732C355.116 48.8732 358.163 47.6658 360.463 45.2509C362.878 42.7211 364.085 39.6163 364.085 35.9366C364.085 32.3718 362.878 29.3245 360.463 26.7947C358.163 24.2649 355.116 23 351.321 23C347.641 23 344.594 24.2649 342.179 26.7947C339.764 29.3245 338.557 32.3718 338.557 35.9366C338.557 39.6163 339.764 42.7211 342.179 45.2509Z" fill="black"/>
<path d="M341.37 57.4978V143.511H364.138V57.4978H341.37Z" fill="black"/>
<path d="M266.111 137.877C271.861 140.982 278.415 142.534 285.775 142.534C293.134 142.534 299.632 141.04 305.266 138.05C311.016 134.945 315.443 130.633 318.548 125.113C321.768 119.594 323.377 113.154 323.377 105.795V57.498H300.781V105.277C300.781 110.452 299.459 114.476 296.814 117.351C294.169 120.226 290.49 121.663 285.775 121.663C282.67 121.663 279.968 121.031 277.668 119.766C275.368 118.501 273.643 116.661 272.493 114.246C271.343 111.717 270.768 108.727 270.768 105.277V57.498H248V105.795C248 113.039 249.61 119.421 252.83 124.941C256.049 130.46 260.477 134.772 266.111 137.877Z" fill="black"/>
<path d="M731.257 143.743C735.282 144.893 739.479 145.468 743.849 145.468C752.818 145.468 759.89 143.341 765.065 139.086C770.355 134.716 773 128.909 773 121.665C773 116.49 771.907 112.408 769.722 109.418C767.652 106.313 764.893 103.898 761.443 102.174C757.993 100.334 754.371 98.8963 750.576 97.8614C746.781 96.7115 743.159 95.619 739.709 94.5841C736.375 93.4342 733.615 91.9968 731.43 90.2719C729.245 88.4321 728.153 85.9597 728.153 82.8549C728.153 79.6352 729.475 77.0479 732.12 75.093C734.88 73.0231 738.847 71.9882 744.022 71.9882C748.506 71.9882 752.531 72.8507 756.096 74.5755C759.775 76.1854 762.823 78.5427 765.238 81.6475L773 73.8856C770.01 69.6309 766.043 66.4111 761.098 64.2263C756.153 62.0414 750.634 60.949 744.539 60.949C738.789 60.949 733.787 61.9264 729.533 63.8813C725.393 65.7212 722.173 68.366 719.873 71.8157C717.688 75.1505 716.596 79.1177 716.596 83.7174C716.596 88.547 717.631 92.4568 719.701 95.4466C721.885 98.4363 724.703 100.794 728.153 102.519C731.602 104.128 735.225 105.508 739.019 106.658C742.814 107.693 746.379 108.786 749.714 109.936C753.163 111.085 755.981 112.638 758.166 114.593C760.35 116.548 761.443 119.25 761.443 122.7C761.443 126.379 759.89 129.254 756.786 131.324C753.796 133.394 749.599 134.429 744.194 134.429C739.134 134.429 734.535 133.509 730.395 131.669C726.37 129.714 722.748 126.782 719.528 122.872L711.766 130.807C714.181 133.796 716.998 136.384 720.218 138.568C723.553 140.753 727.233 142.478 731.257 143.743Z" fill="black"/>
<path fill-rule="evenodd" clip-rule="evenodd" d="M657.714 145.468C649.895 145.468 642.765 143.571 636.326 139.776C630.001 135.981 624.941 130.864 621.147 124.425C617.467 117.985 615.627 110.798 615.627 102.864C615.627 95.0441 617.467 87.9721 621.147 81.6475C624.941 75.323 630.001 70.3208 636.326 66.6411C642.765 62.8464 649.895 60.949 657.714 60.949C665.649 60.949 672.778 62.7889 679.103 66.4686C685.427 70.1484 690.43 75.208 694.109 81.6475C697.904 87.9721 699.801 95.0441 699.801 102.864C699.801 110.913 697.904 118.157 694.109 124.597C690.43 130.922 685.427 135.981 679.103 139.776C672.778 143.571 665.649 145.468 657.714 145.468ZM657.714 133.739C663.464 133.739 668.523 132.416 672.893 129.772C677.378 127.127 680.885 123.447 683.415 118.732C686.06 114.018 687.382 108.728 687.382 102.864C687.382 96.9989 686.06 91.8243 683.415 87.3396C680.885 82.74 677.378 79.1177 672.893 76.4729C668.523 73.8281 663.464 72.5057 657.714 72.5057C652.08 72.5057 647.02 73.8281 642.535 76.4729C638.05 79.1177 634.543 82.74 632.013 87.3396C629.484 91.8243 628.219 96.9989 628.219 102.864C628.219 108.843 629.484 114.19 632.013 118.905C634.543 123.505 638.05 127.127 642.535 129.772C647.02 132.416 652.08 133.739 657.714 133.739Z" fill="black"/>
<path fill-rule="evenodd" clip-rule="evenodd" d="M532.137 174.963C538.577 178.068 545.879 179.621 554.043 179.621C562.553 179.621 569.97 177.953 576.294 174.618C582.734 171.399 587.736 166.856 591.301 160.992C594.865 155.127 596.648 148.285 596.648 140.466V62.6739H584.574V76.2038C584.297 75.7686 584.01 75.3408 583.711 74.9205C580.721 70.4358 576.697 66.9861 571.637 64.5712C566.692 62.1564 561.058 60.949 554.733 60.949C547.259 60.949 540.532 62.7314 534.552 66.2961C528.572 69.8609 523.858 74.748 520.408 80.9576C517.073 87.0521 515.406 94.0092 515.406 101.829C515.406 109.648 517.131 116.663 520.58 122.872C524.03 129.082 528.745 133.969 534.724 137.534C540.704 141.098 547.431 142.881 554.906 142.881C561.115 142.881 566.692 141.673 571.637 139.258C576.582 136.729 580.606 133.279 583.711 128.909C584.01 128.478 584.297 128.04 584.574 127.596V140.466C584.574 148.975 581.814 155.702 576.294 160.647C570.89 165.592 563.587 168.064 554.388 168.064C547.719 168.064 541.911 166.856 536.967 164.442C532.022 162.027 527.94 158.635 524.72 154.265L516.786 162.199C520.695 167.719 525.813 171.974 532.137 174.963ZM571.809 127.702C567.67 130.117 562.783 131.324 557.148 131.324C551.398 131.324 546.339 130.117 541.969 127.702C537.599 125.172 534.149 121.665 531.62 117.18C529.09 112.695 527.825 107.578 527.825 101.829C527.825 95.964 529.032 90.8469 531.447 86.4772C533.977 82.1075 537.427 78.6577 541.796 76.1279C546.281 73.5981 551.341 72.3332 556.975 72.3332C562.61 72.3332 567.555 73.5981 571.809 76.1279C576.064 78.6577 579.341 82.1075 581.641 86.4772C584.056 90.8469 585.264 95.964 585.264 101.829C585.264 107.808 584.056 113.04 581.641 117.525C579.341 121.895 576.064 125.287 571.809 127.702Z" fill="black"/>
<path fill-rule="evenodd" clip-rule="evenodd" d="M459.285 145.468C451.465 145.468 444.336 143.571 437.896 139.776C431.571 135.981 426.512 130.864 422.717 124.425C419.037 117.985 417.197 110.798 417.197 102.864C417.197 95.0441 419.037 87.9721 422.717 81.6475C426.512 75.323 431.571 70.3208 437.896 66.6411C444.336 62.8464 451.465 60.949 459.285 60.949C467.219 60.949 474.349 62.7889 480.673 66.4686C486.998 70.1484 492 75.208 495.68 81.6475C499.474 87.9721 501.372 95.0441 501.372 102.864C501.372 110.913 499.474 118.157 495.68 124.597C492 130.922 486.998 135.981 480.673 139.776C474.349 143.571 467.219 145.468 459.285 145.468ZM459.285 133.739C465.034 133.739 470.094 132.416 474.464 129.772C478.948 127.127 482.456 123.447 484.985 118.732C487.63 114.018 488.953 108.728 488.953 102.864C488.953 96.9989 487.63 91.8243 484.985 87.3396C482.456 82.74 478.948 79.1177 474.464 76.4729C470.094 73.8281 465.034 72.5057 459.285 72.5057C453.65 72.5057 448.59 73.8281 444.106 76.4729C439.621 79.1177 436.114 82.74 433.584 87.3396C431.054 91.8243 429.789 96.9989 429.789 102.864C429.789 108.843 431.054 114.19 433.584 118.905C436.114 123.505 439.621 127.127 444.106 129.772C448.59 132.416 453.65 133.739 459.285 133.739Z" fill="black"/>
<path d="M385.993 23.0002V143.742H398.067V23.0002H385.993Z" fill="black"/>
</g>
<defs>
<linearGradient id="paint0_linear_1113_5057" x1="99.9996" y1="-0.00341797" x2="99.9996" y2="200.004" gradientUnits="userSpaceOnUse">
<stop stop-color="#0B41FF"/>
<stop offset="1" stop-color="#0BA7FF"/>
</linearGradient>
<clipPath id="clip0_1113_5057">
<rect width="773" height="200" fill="white"/>
</clipPath>
<clipPath id="clip1_1113_5057">
<rect width="200" height="200" fill="white"/>
</clipPath>
</defs>
</svg>
