<svg width="792" height="200" viewBox="0 0 792 200" fill="none" xmlns="http://www.w3.org/2000/svg">
<path d="M91.2686 60.5907C94.3243 59.3303 97.6053 58.7073 100.91 58.76C104.239 58.7389 107.539 59.3761 110.62 60.635C113.701 61.8938 116.503 63.7495 118.865 66.0952C121.226 68.4409 123.101 71.2304 124.38 74.3032C125.66 77.376 126.319 80.6714 126.32 84C126.289 90.688 123.605 97.0903 118.858 101.802C114.111 106.513 107.688 109.149 101 109.13C97.6548 109.139 94.3408 108.484 91.2508 107.202C88.1609 105.92 85.3565 104.036 83.0007 101.661C80.6449 99.2853 78.7846 96.4655 77.5279 93.365C76.2712 90.2645 75.6432 86.9452 75.6803 83.6C75.6581 80.326 76.3088 77.0824 77.5921 74.0704C78.8753 71.0583 80.7638 68.342 83.1403 66.09C85.447 63.7225 88.213 61.8512 91.2686 60.5907Z" fill="black"/>
<path fill-rule="evenodd" clip-rule="evenodd" d="M30.2893 29.2893C49.043 10.5357 74.4783 0 101 0C127.522 0 152.957 10.5357 171.711 29.2893C190.464 48.043 201 73.4783 201 100C201 126.522 190.464 151.957 171.711 170.711C152.957 189.464 127.522 200 101 200H25C18.6348 200 12.5303 197.471 8.02944 192.971C3.52856 188.47 1 182.365 1 176V100C1 73.4783 11.5357 48.043 30.2893 29.2893ZM86.09 180.56L132.82 117.41C141.607 105.397 146 94.2133 146 83.86C146 72.1933 141.49 62.07 132.47 53.49C128.286 49.3355 123.319 46.0532 117.857 43.8336C112.394 41.614 106.546 40.5013 100.65 40.56C94.7742 40.4828 88.9445 41.6056 83.5178 43.8599C78.0911 46.1141 73.1817 49.4523 69.09 53.67C64.8714 57.7264 61.5324 62.6072 59.2804 68.0091C57.0285 73.4109 55.9119 79.2182 56 85.07C55.904 90.5147 56.8935 95.9241 58.9109 100.982C60.9284 106.04 63.9332 110.646 67.75 114.53C75.6633 122.75 85.0267 126.86 95.84 126.86C96.65 126.86 97.62 126.8 98.84 126.69C100.06 126.58 101.53 126.4 103.26 126.17L71.26 169.56L86.09 180.56Z" fill="black"/>
<path d="M421.764 148V13H405.416V148H421.764Z" fill="black"/>
<path d="M646.209 52.9023V148H629.861V52.9023H646.209Z" fill="black"/>
<path d="M628.631 27.6777C628.631 25.041 629.422 22.8145 631.004 20.998C632.645 19.1816 635.047 18.2734 638.211 18.2734C641.316 18.2734 643.689 19.1816 645.33 20.998C647.029 22.8145 647.879 25.041 647.879 27.6777C647.879 30.1973 647.029 32.3652 645.33 34.1816C643.689 35.9395 641.316 36.8184 638.211 36.8184C635.047 36.8184 632.645 35.9395 631.004 34.1816C629.422 32.3652 628.631 30.1973 628.631 27.6777Z" fill="black"/>
<path d="M706.727 65.3828V52.9023H688.973V29.7871H672.713V52.9023H655.311V65.3828H672.713V124.357C672.713 130.686 673.68 135.725 675.613 139.475C677.605 143.166 680.271 145.803 683.611 147.385C686.951 148.967 690.613 149.758 694.598 149.758C697.527 149.758 700.018 149.553 702.068 149.143C704.178 148.791 705.877 148.41 707.166 148L707.078 134.729C706.316 134.904 705.174 135.139 703.65 135.432C702.186 135.666 700.779 135.783 699.432 135.783C697.615 135.783 695.916 135.52 694.334 134.992C692.752 134.465 691.463 133.381 690.467 131.74C689.471 130.1 688.973 127.668 688.973 124.445V65.3828H706.727Z" fill="black"/>
<path d="M743.884 146.974L709.939 52.9023H727.693L751.494 124.051L773.572 52.9023H790.975L752.83 162.678C751.951 165.021 750.779 167.541 749.314 170.236C747.908 172.99 746.092 175.598 743.865 178.059C741.639 180.52 738.943 182.512 735.779 184.035C732.674 185.617 728.953 186.408 724.617 186.408C723.328 186.408 721.688 186.232 719.695 185.881C717.703 185.529 716.297 185.236 715.477 185.002L715.389 171.818C715.857 171.877 716.59 171.936 717.586 171.994C718.641 172.111 719.373 172.17 719.783 172.17C723.475 172.17 726.609 171.672 729.188 170.676C731.766 169.738 733.934 168.127 735.691 165.842C737.508 163.615 739.061 160.539 740.35 156.613L743.884 146.974Z" fill="black"/>
<path d="M588.503 134.025C585.222 135.607 581.647 136.398 577.78 136.398C572.741 136.398 568.522 135.432 565.124 133.498C561.784 131.506 559.118 128.869 557.126 125.588C555.192 122.307 553.815 118.645 552.995 114.602C552.175 110.559 551.765 106.457 551.765 102.297V98.6055C551.765 94.4453 552.175 90.373 552.995 86.3887C553.874 82.3457 555.28 78.6836 557.214 75.4023C559.206 72.0625 561.872 69.4258 565.212 67.4922C568.61 65.5 572.8 64.5039 577.78 64.5039C582.116 64.5039 585.896 65.4707 589.118 67.4043C592.399 69.2793 594.978 71.7988 596.853 74.9629C598.786 78.127 599.899 81.6719 600.192 85.5977H615.661C615.368 79.0352 613.61 73.1758 610.388 68.0195C607.224 62.8047 602.858 58.7031 597.292 55.7148C591.726 52.668 585.222 51.1445 577.78 51.1445C570.632 51.1445 564.392 52.4043 559.06 54.9238C553.786 57.4434 549.392 60.9004 545.876 65.2949C542.419 69.6895 539.812 74.7578 538.054 80.5C536.354 86.1836 535.505 92.2188 535.505 98.6055V102.297C535.505 108.684 536.354 114.748 538.054 120.49C539.812 126.174 542.419 131.213 545.876 135.607C549.392 140.002 553.786 143.459 559.06 145.979C564.392 148.498 570.632 149.758 577.78 149.758C584.519 149.758 590.7 148.293 596.325 145.363C601.95 142.375 606.491 138.479 609.948 133.674C613.464 128.811 615.368 123.566 615.661 117.941H600.192C599.899 121.516 598.698 124.709 596.589 127.521C594.479 130.275 591.784 132.443 588.503 134.025Z" fill="black"/>
<path fill-rule="evenodd" clip-rule="evenodd" d="M438.161 101.506V99.4844C438.161 92.6289 439.157 86.2715 441.149 80.4121C443.142 74.4941 446.013 69.3672 449.763 65.0312C453.513 60.6367 458.054 57.2383 463.386 54.8359C468.718 52.375 474.694 51.1445 481.315 51.1445C487.995 51.1445 494.001 52.375 499.333 54.8359C504.724 57.2383 509.294 60.6367 513.044 65.0312C516.853 69.3672 519.753 74.4941 521.745 80.4121C523.737 86.2715 524.733 92.6289 524.733 99.4844V101.506C524.733 108.361 523.737 114.719 521.745 120.578C519.753 126.438 516.853 131.564 513.044 135.959C509.294 140.295 504.753 143.693 499.421 146.154C494.147 148.557 488.171 149.758 481.491 149.758C474.812 149.758 468.806 148.557 463.474 146.154C458.142 143.693 453.571 140.295 449.763 135.959C446.013 131.564 443.142 126.438 441.149 120.578C439.157 114.719 438.161 108.361 438.161 101.506ZM454.421 99.4844V101.506C454.421 106.252 454.978 110.734 456.091 114.953C457.204 119.113 458.874 122.805 461.101 126.027C463.386 129.25 466.228 131.799 469.626 133.674C473.024 135.49 476.98 136.398 481.491 136.398C485.944 136.398 489.841 135.49 493.181 133.674C496.579 131.799 499.392 129.25 501.618 126.027C503.845 122.805 505.515 119.113 506.628 114.953C507.8 110.734 508.386 106.252 508.386 101.506V99.4844C508.386 94.7969 507.8 90.373 506.628 86.2129C505.515 81.9941 503.815 78.2734 501.53 75.0508C499.304 71.7695 496.491 69.1914 493.093 67.3164C489.753 65.4414 485.827 64.5039 481.315 64.5039C476.862 64.5039 472.937 65.4414 469.538 67.3164C466.198 69.1914 463.386 71.7695 461.101 75.0508C458.874 78.2734 457.204 81.9941 456.091 86.2129C454.978 90.373 454.421 94.7969 454.421 99.4844Z" fill="black"/>
<path fill-rule="evenodd" clip-rule="evenodd" d="M353.512 149.758C346.891 149.758 340.885 148.645 335.494 146.418C330.162 144.133 325.562 140.939 321.695 136.838C317.887 132.736 314.957 127.873 312.906 122.248C310.855 116.623 309.83 110.471 309.83 103.791V100.1C309.83 92.3652 310.973 85.4805 313.258 79.4453C315.543 73.3516 318.648 68.1953 322.574 63.9766C326.5 59.7578 330.953 56.5645 335.934 54.3965C340.914 52.2285 346.07 51.1445 351.402 51.1445C358.199 51.1445 364.059 52.3164 368.98 54.6602C373.961 57.0039 378.033 60.2852 381.197 64.5039C384.361 68.6641 386.705 73.5859 388.229 79.2695C389.752 84.8945 390.514 91.0469 390.514 97.7266V105.021H326.193C326.295 109.077 326.905 112.915 328.023 116.535C329.312 120.461 331.158 123.918 333.561 126.906C336.021 129.895 338.98 132.238 342.438 133.938C345.953 135.637 349.938 136.486 354.391 136.486C360.133 136.486 364.996 135.314 368.98 132.971C372.965 130.627 376.451 127.492 379.439 123.566L389.283 131.389C387.232 134.494 384.625 137.453 381.461 140.266C378.297 143.078 374.4 145.363 369.771 147.121C365.201 148.879 359.781 149.758 353.512 149.758ZM326.669 91.75H374.254V90.5195C374.02 86.3008 373.141 82.1992 371.617 78.2148C370.152 74.2305 367.809 70.9492 364.586 68.3711C361.363 65.793 356.969 64.5039 351.402 64.5039C347.711 64.5039 344.312 65.2949 341.207 66.877C338.102 68.4004 335.436 70.6855 333.209 73.7324C330.982 76.7793 329.254 80.5 328.023 84.8945C327.428 87.0218 326.976 89.3069 326.669 91.75Z" fill="black"/>
<path d="M258.453 148L224 52.9023H240.699L264.854 125.762L288.424 52.9023H305.035L270.846 148H258.453Z" fill="black"/>
</svg>
